<svg id="Capa_1" enable-background="new 0 0 512 512" height="512" viewBox="0 0 512 512" width="512" xmlns="http://www.w3.org/2000/svg"><g><g><path d="m290.441 512h-68.883c-10.637 0-20.199-5.911-24.954-15.427s-3.741-20.711 2.646-29.218l11.625-15.484v-14.352c-18.116-4.472-35.294-11.595-51.305-21.272l-10.164 10.163-2.729 19.169c-1.499 10.532-8.699 19.165-18.79 22.531-10.09 3.367-21.032.785-28.554-6.737l-48.707-48.707c-7.522-7.521-10.104-18.462-6.737-28.553 3.366-10.091 12-17.291 22.531-18.79l19.169-2.729 10.163-10.163c-9.677-16.01-16.8-33.188-21.272-51.305h-14.351l-15.484 11.624c-8.507 6.387-19.704 7.4-29.218 2.646-9.516-4.755-15.427-14.317-15.427-24.955v-68.883c0-10.637 5.911-20.199 15.427-24.954 9.518-4.754 20.712-3.74 29.218 2.646l15.484 11.625h14.352c4.473-18.117 11.595-35.295 21.272-51.305l-10.163-10.163-19.169-2.729c-10.532-1.499-19.165-8.699-22.531-18.79s-.785-21.032 6.737-28.554l48.707-48.707c7.521-7.521 18.462-10.104 28.553-6.737 10.091 3.366 17.291 12 18.79 22.531l2.729 19.169 10.163 10.163c16.01-9.677 33.188-16.8 51.305-21.272v-14.352l-11.624-15.484c-6.387-8.507-7.4-19.703-2.646-29.218s14.317-15.427 24.955-15.427h68.883c10.637 0 20.199 5.911 24.954 15.427s3.741 20.711-2.646 29.218l-11.625 15.484v14.352c18.117 4.473 35.295 11.595 51.305 21.272l10.163-10.163 2.729-19.169c1.499-10.532 8.699-19.165 18.79-22.531s21.032-.785 28.554 6.737l48.707 48.707c7.522 7.521 10.104 18.462 6.737 28.553-3.366 10.091-12 17.291-22.531 18.79l-19.169 2.729-10.163 10.163c9.677 16.01 16.8 33.188 21.272 51.305h14.352l15.484-11.625c8.507-6.387 19.704-7.4 29.218-2.646 9.516 4.755 15.427 14.317 15.427 24.954v68.883c0 10.637-5.911 20.199-15.427 24.954s-20.711 3.741-29.218-2.646l-15.484-11.625h-14.352c-4.473 18.117-11.595 35.295-21.272 51.305l10.163 10.163 19.169 2.729c10.532 1.499 19.165 8.699 22.531 18.79s.785 21.032-6.737 28.554l-48.707 48.707c-7.521 7.521-18.463 10.104-28.553 6.737-10.091-3.366-17.291-12-18.79-22.531l-2.729-19.169-10.163-10.163c-16.011 9.677-33.189 16.8-51.305 21.272v14.352l11.625 15.484c6.387 8.507 7.4 19.703 2.646 29.218s-14.318 15.429-24.956 15.429z" fill="#a7e340"/></g><path d="m496.573 196.604c-9.515-4.754-20.711-3.742-29.218 2.646l-15.484 11.625h-14.352c-4.473-18.117-11.595-35.295-21.272-51.305l10.163-10.163 19.169-2.729c10.532-1.499 19.165-8.699 22.531-18.79s.785-21.032-6.737-28.553l-48.707-48.707c-7.522-7.522-18.462-10.103-28.554-6.737-10.091 3.366-17.291 12-18.79 22.531l-2.729 19.169-10.163 10.162c-16.01-9.677-33.188-16.8-51.305-21.272v-14.352l11.625-15.484c6.387-8.507 7.4-19.703 2.646-29.218s-14.317-15.427-24.955-15.427h-34.441v512h34.441c10.637 0 20.199-5.911 24.954-15.427s3.741-20.711-2.646-29.218l-11.625-15.484v-14.352c18.116-4.472 35.294-11.595 51.305-21.272l10.163 10.163 2.729 19.169c1.499 10.532 8.699 19.165 18.79 22.531 10.09 3.367 21.032.784 28.553-6.737l48.707-48.707c7.522-7.521 10.104-18.463 6.737-28.554-3.366-10.091-12-17.291-22.531-18.79l-19.169-2.729-10.163-10.163c9.677-16.01 16.8-33.188 21.272-51.305h14.352l15.484 11.625c8.507 6.387 19.702 7.4 29.218 2.646 9.516-4.755 15.427-14.317 15.427-24.954v-68.883c.002-10.638-5.909-20.2-15.425-24.955z" fill="#90cc8d"/><g><path d="m185.812 265.938c-33.188 0-60.188-27-60.188-60.188s27-60.188 60.188-60.188 60.188 27 60.188 60.188-27 60.188-60.188 60.188z" fill="#90cc8d"/></g><g><path d="m316.25 361.375c-24.882 0-45.125-20.243-45.125-45.125s20.243-45.125 45.125-45.125 45.125 20.243 45.125 45.125-20.243 45.125-45.125 45.125z" fill="#67b5a7"/></g><g><g><path d="m199 353c7.846 0 15.363-6.899 15-15-.364-8.127-6.591-15-15-15-7.846 0-15.363 6.899-15 15 .364 8.127 6.591 15 15 15z" fill="#90cc8d"/></g></g><g><g><path d="m351 252c7.846 0 15.363-6.899 15-15-.364-8.127-6.591-15-15-15-7.846 0-15.363 6.899-15 15 .364 8.127 6.591 15 15 15z" fill="#67b5a7"/></g></g><g><g><path d="m303 181c7.846 0 15.363-6.899 15-15-.364-8.127-6.591-15-15-15-7.846 0-15.363 6.899-15 15 .364 8.127 6.591 15 15 15z" fill="#67b5a7"/></g></g></g></svg>