<svg id="Capa_1" enable-background="new 0 0 512 512" height="512" viewBox="0 0 512 512" width="512" xmlns="http://www.w3.org/2000/svg"><g><path d="m412.77 288.12c-4.09 20.08-11.95 38.79-22.8 55.36l17.24 17.23c5.96 5.97 13.65 9.86 21.95 11.39 9.21 1.71 18.01 6.13 25.14 13.25 19.18 19.18 18.73 50.56-1.35 69.18-17.87 16.56-45.81 16.99-64.14.94-8.53-7.46-13.74-17.15-15.64-27.34-1.54-8.31-5.42-16.01-11.4-21.99l-17.01-17.01c-16.89 11.28-36.04 19.44-56.64 23.64v.5c0 8.49 2.76 16.69 7.55 23.7 5.25 7.7 8.33 17 8.33 27.03 0 26.51-21.5 48.01-48 48h-.12c-25.03-.06-46.12-19.77-47.77-44.74-.76-11.52 2.54-22.23 8.62-30.86 4.75-6.75 7.15-14.87 7.15-23.12v-.51c-20.23-4.12-39.07-12.07-55.74-23.04l-17.91 17.92c-5.97 5.96-9.86 13.65-11.4 21.95-1.71 9.21-6.12 18.01-13.24 25.14-19.19 19.18-50.57 18.73-69.18-1.35-16.56-17.87-16.99-45.81-.95-64.14 7.47-8.53 17.16-13.74 27.35-15.64 8.31-1.54 16.01-5.42 21.98-11.4l17.83-17.82c-11.15-16.8-19.23-35.82-23.39-56.27h-.5c-8.49 0-16.69 2.76-23.7 7.55-7.7 5.25-17 8.33-27.03 8.33-26.55 0-48.07-21.56-48-48.12.06-25.03 19.77-46.12 44.74-47.77 11.52-.76 22.23 2.54 30.86 8.62 6.75 4.75 14.87 7.15 23.12 7.15h.51c4.2-20.6 12.36-39.75 23.64-56.64l-18.08-18.08c-5.96-5.97-13.65-9.85-21.95-11.39-9.21-1.71-18.01-6.12-25.14-13.25-19.18-19.18-18.73-50.56 1.35-69.17 17.87-16.57 45.81-17 64.14-.95 8.53 7.47 13.74 17.16 15.64 27.35 1.54 8.31 5.42 16.01 11.4 21.98l18.29 18.3c16.57-10.85 35.28-18.71 55.36-22.8v-.5c0-8.49-2.76-16.69-7.55-23.7-5.25-7.7-8.33-17-8.33-27.03 0-26.51 21.5-48.01 48-48h.12c25.03.06 46.12 19.77 47.77 44.74.76 11.52-2.54 22.23-8.62 30.86-4.75 6.75-7.15 14.87-7.15 23.12v.51c20.45 4.16 39.47 12.24 56.27 23.39l18.89-18.89c5.97-5.97 9.85-13.65 11.39-21.95 1.71-9.21 6.12-18.01 13.24-25.14 19.19-19.18 50.57-18.73 69.18 1.35 16.57 17.87 17 45.81.95 64.14-7.47 8.53-17.16 13.74-27.35 15.63-8.31 1.55-16.01 5.43-21.98 11.4l-18.98 18.98c10.97 16.67 18.92 35.51 23.04 55.74h.5c8.49 0 16.69-2.76 23.7-7.55 7.7-5.25 17-8.33 27.03-8.33 26.55 0 48.07 21.56 48 48.12-.06 25.03-19.77 46.12-44.74 47.77-11.52.76-22.23-2.54-30.86-8.62-6.75-4.75-14.87-7.15-23.12-7.15z" fill="#c595eb"/><path d="m412.77 288.12c-4.09 20.08-11.95 38.79-22.8 55.36l17.24 17.23c5.96 5.97 13.65 9.86 21.95 11.39 9.21 1.71 18.01 6.13 25.14 13.25 19.18 19.18 18.73 50.56-1.35 69.18-17.87 16.56-45.81 16.99-64.14.94-8.53-7.46-13.74-17.15-15.64-27.34-1.54-8.31-5.42-16.01-11.4-21.99l-17.01-17.01c-16.89 11.28-36.04 19.44-56.64 23.64v.5c0 8.49 2.76 16.69 7.55 23.7 5.25 7.7 8.33 17 8.33 27.03 0 26.51-21.5 48.01-48 48v-512h.12c25.03.06 46.12 19.77 47.77 44.74.76 11.52-2.54 22.23-8.62 30.86-4.75 6.75-7.15 14.87-7.15 23.12v.51c20.45 4.16 39.47 12.24 56.27 23.39l18.89-18.89c5.97-5.97 9.85-13.65 11.39-21.95 1.71-9.21 6.12-18.01 13.24-25.14 19.19-19.18 50.57-18.73 69.18 1.35 16.57 17.87 17 45.81.95 64.14-7.47 8.53-17.16 13.74-27.35 15.63-8.31 1.55-16.01 5.43-21.98 11.4l-18.98 18.98c10.97 16.67 18.92 35.51 23.04 55.74h.5c8.49 0 16.69-2.76 23.7-7.55 7.7-5.25 17-8.33 27.03-8.33 26.55 0 48.07 21.56 48 48.12-.06 25.03-19.77 46.12-44.74 47.77-11.52.76-22.23-2.54-30.86-8.62-6.75-4.75-14.87-7.15-23.12-7.15z" fill="#9e73e1"/><circle cx="192" cy="223.876" fill="#9e73e1" r="31.876"/><circle cx="320" cy="288" fill="#845ace" r="31.876"/><path d="m271.125 180.75h30v30h-30z" fill="#845ace"/><path d="m210.758 301.133h30v30h-30z" fill="#9e73e1"/></g></svg>