<?xml version="1.0" encoding="utf-8"?>

<!DOCTYPE svg PUBLIC "-//W3C//DTD SVG 1.1//EN" "http://www.w3.org/Graphics/SVG/1.1/DTD/svg11.dtd">
<svg version="1.1" id="Layer_1" xmlns="http://www.w3.org/2000/svg" xmlns:xlink="http://www.w3.org/1999/xlink" x="0px" y="0px"
	 viewBox="0 0 1653.371 1653.371" enable-background="new 0 0 1653.371 1653.371" xml:space="preserve">
<g>
	<path fill="none" d="M741.062,120.509c0.826-3.387-0.614-7.689-3.055-8.098c-9.361-0.889-16.146,22.364-31.352,38.09
		c1.102-2.459,2.426-4.705,3.837-6.761c-0.172-0.287-0.345-0.574-0.517-0.854c-2.315,6.813-10.25,13.778-14.774,17.153
		C719.777,145.76,740.48,125.78,741.062,120.509z"/>
	<path fill="none" d="M1502.87,706.656c2.459,1.102,4.705,2.426,6.761,3.837c0.287-0.172,0.573-0.345,0.854-0.517
		c-6.813-2.315-13.778-10.25-17.153-14.774c14.279,24.575,34.26,45.278,39.53,45.861c3.387,0.826,7.689-0.613,8.098-3.055
		C1541.849,728.647,1518.596,721.861,1502.87,706.656z"/>
	<path fill="none" d="M250.55,1540.96c14.247,0.889,24.576-22.364,47.719-38.09c-1.678,2.459-3.692,4.705-5.84,6.761
		c0.262,0.287,0.525,0.573,0.787,0.854c3.524-6.813,15.601-13.778,22.487-17.153c-37.406,14.279-68.916,34.26-69.803,39.53
		C244.643,1536.249,246.833,1540.551,250.55,1540.96z"/>
	<path fill="none" d="M150.501,298.269c-2.459-1.678-4.705-3.692-6.761-5.84c-0.287,0.262-0.574,0.525-0.854,0.787
		c6.813,3.524,13.778,15.601,17.153,22.487c-14.279-37.406-34.259-68.916-39.53-69.803c-3.387-1.257-7.689,0.934-8.098,4.65
		C111.522,264.797,134.775,275.126,150.501,298.269z"/>
	<path fill="none" d="M150.501,946.715c-2.459-1.102-4.705-2.426-6.761-3.837c-0.287,0.172-0.574,0.345-0.854,0.517
		c6.813,2.315,13.778,10.25,17.153,14.774c-14.279-24.575-34.259-45.278-39.53-45.861c-3.387-0.826-7.689,0.614-8.098,3.055
		C111.522,924.724,134.775,931.51,150.501,946.715z"/>
	<path fill="none" d="M1402.822,112.411c-14.247-0.889-24.576,22.364-47.719,38.09c1.678-2.459,3.692-4.705,5.84-6.761
		c-0.262-0.287-0.525-0.574-0.787-0.854c-3.524,6.813-15.601,13.778-22.487,17.153c37.406-14.279,68.916-34.259,69.803-39.53
		C1408.729,117.122,1406.538,112.82,1402.822,112.411z"/>
	<path fill="none" d="M1502.87,1355.102c2.459,1.678,4.705,3.692,6.761,5.84c0.287-0.262,0.573-0.525,0.854-0.787
		c-6.813-3.524-13.778-15.601-17.153-22.487c14.279,37.406,34.26,68.917,39.53,69.803c3.387,1.257,7.689-0.934,8.098-4.65
		C1541.849,1388.574,1518.596,1378.246,1502.87,1355.102z"/>
	<path fill="none" d="M912.309,1532.862c-0.826,3.387,0.614,7.689,3.055,8.098c9.36,0.889,16.146-22.364,31.352-38.09
		c-1.103,2.459-2.426,4.705-3.837,6.761c0.172,0.287,0.345,0.573,0.517,0.854c2.315-6.813,10.25-13.778,14.774-17.153
		C933.594,1507.611,912.892,1527.592,912.309,1532.862z"/>
	<path d="M61.671,866.869c46.086-17.964,92.163,61.297,97.714,68.488c-15.591-28.618-42.652-80.361-83.258-87.022
		c-21.391-3.621-31.921,14.622-19.991,26.268c-8.193,1.898-17.408,4.267-23.75,12.047c-9.094,10.98-7.561,29.686,8.104,36.808
		c13.038,4.771,28.577-0.547,27.466-12.95c-0.859-12.601-14.682-12.718-18.844-9.979c-4.282,2.867-6.588,9.367,1.898,12.508
		c-21.5,5.179-27.701-22.249,5.413-25.991c28.96-1.452,54.191,16.177,56.244,18.23c-0.415,0-1.251,0.004-1.666,0.004
		c-11.005-9.42-29.649-11.765-32.867-3.813c-2.92,7.723,6.685,12.177,12.766,9.205c8.043-3.341-0.386-12.615-5.529-4.731
		c-5.271-4.058,5.359-12.517,22.902,0.341c-7.815,5.563-0.754,16.683,9.697,21.782c-33.627-7.03-27.517,18.284-49.221,13.916
		c22.105,9.57,37.076-17.172,73.739,0.381c0.067,0.221,0.195,0.666,0.256,0.886c-3.41-2.381-18.521-8.087-31.402-5.388
		c-17.358,3.654-22.244,19.869-6.664,26.769c7.412,3.363,16.13,1.754,19.258-5.942c-2.972-0.265-5.858-1.219-7.554-2.883
		c-11.699-10.809,32.857-20.627,52.333,20.503c-17.592-19.523-34.899-2.591-26.959,6.13c5.639,6.381,18.369,3.993,16.982-2.502
		c-0.382-1.769-3.546-4.907-10.056-1.953c-0.669-6.533,13.257-9.123,22.56,5.565c2.679,4.081,3.643,8.515,5.052,12.829
		c29.611,102.311-59.323,96.468-54.523,80.055c4.274,2.387,8.028,0.025,9.446-1.684c4.357-5.475-10.089-12.568-18.606-6.675
		c-13.22,9.509,4.859,29.402,29.986,26.545c49.585-6.344,67.838-90.141,6.78-170.962c-18.246-23.906-46.715-51.475-87.25-49.717
		c-10.719-6.773-0.504-22.032,29.681-8.724C81.998,861.742,67.515,857.686,61.671,866.869z M120.509,912.309
		c5.271,0.583,25.251,21.285,39.53,45.861c-3.375-4.524-10.34-12.458-17.153-14.774c0.281-0.172,0.567-0.345,0.854-0.517
		c2.056,1.411,4.302,2.734,6.761,3.837c-15.726-15.205-38.979-21.991-38.09-31.352C112.82,912.922,117.122,911.483,120.509,912.309z
		"/>
	<path d="M64.203,751.194c8.008-6.854,4.135-24.571-15.719-23.012c-28.004,2.312-32.647,43.909,7.662,50.459
		c-17.379,17.866,11.007,43.672,51.375,11.446c20.039-16.068,38.989-48.445,51.808-72.1c-2.943,3.664-52.64,87.478-97.581,68.436
		c3.302,5.537,12.556,8.914,31.237,1.086c-27.229,13.666-42.973,0.893-31.012-8.171c86.554,4.414,164.435-150.847,106.172-207.581
		c-29.319-28.222-69.068-4.732-57.892,11.193c4.695,6.798,19.421,5.326,21.534-1.339c1.22-3.162-4.274-7.718-10.044-4.755
		c-2.66-18.818,89.154-18.9,52.064,87.864c-6.097,15.96-24.614,20.809-25.074,10.5c8.809,5.171,14.293-4.624,5.809-7.529
		c-8.595-2.723-17.454,4.52-14.206,11.085c3.648,8.122,14.315,9.167,21.297,4.562c3.014-1.732,4.931-4.061,7.097-6.23
		c-7.776,15.055-22.502,32.407-46.34,29.335c-12.88-1.475-8.358-11.272,1.629-11.839c-3.678-7.408-10.589-8.866-17.153-6.772
		c-21.808,6.89-11.21,32.153,18.624,27.803c16.31-2.447,27.012-10.145,33.996-19.974c-0.675,1.96-13.911,25.425-35.857,44.08
		c-3.506,2.912-18.347,2.038-6.92-9.353c4.442-4.578,15.047-8.96,22.114-14.702c4.021-2.602,7.5-5.525,11.063-8.395
		c-0.152-0.381-1.037-0.778-1.232,0.02c-38.959,24.721-56.797-5.994-79.469,3.893c10.61-1.67,11.726,0.353,17.837,6.495
		c7.368,7.891,17.862,10.3,30.639,7.609c-13.166,7.107-15.665,17.492-9.385,21.633c-16.821,12.964-28.267,4.47-22.877,0.293
		c0.409,1.92,3.277,3.761,6.322,2.838c3.655-1.624,3.051-5.593-0.384-7.2c-3.686-2.205-9.952-0.982-12.052,1.824
		c-8.42,10.991,12.757,18.64,31.853,3.268c0.384-0.004,1.147-0.008,1.532-0.012c-11.446,9.751-45.877,25.018-68.973,14.958
		c-17.258-7.626-12.118-26.56,7.433-22.676C36.091,746.119,53,760.984,64.203,751.194z"/>
	<path d="M104.356,1086.362c8.869,8.974,24.556,10.19,29.144,9.261c-32.86-0.689-34.015-31.929-12.869-33.649
		c12.343-1.259,25.851,8.038,15.42,16.65c11.759,3.334,21.394-11.356,4.613-18.991c-20.319-8.952-47.118,2.875-39.628,21.666
		c-5.851-3.326-15.478-1.391-13.15,4.839c0.671,2,4.29,3.552,7.231,2.49c4.342-1.204,2.177-7.207-3.326-3.371
		C90.557,1081.837,97.774,1079.454,104.356,1086.362z"/>
	<path d="M91.328,564.544c-8.014,2.184-2.83,13.213,9.654,7.561c-1.752,4.562-1.581,9.51,1.049,13.912
		c10.895,18.008,51.184,10.504,47.469-4.667c-1.353-4.868-6.087-8.119-13.461-6.816c14.901,14.853-22.86,25.637-28.985,6.844
		c-3.54-10.396,5.66-22.576,27.045-23.866c-22.481-1.388-29.937,10.718-34.081,12.765c-5.301,2.366-8.933,0.555-8.207-2.197
		C99.763,572.417,98.94,562.369,91.328,564.544z"/>
	<path d="M133.268,762.945c-20.226,35.155-55.448,43.788-40.403,54.528c-3.492-8.483,4.566-8.384,16.561-13.643
		c-12.961,13.507-12.563,32.819,0.043,45.728c-14.055-5.919-18.892-5.15-16.891-13.355c-13.765,9.659,17.433,17.727,40.72,53.899
		c-0.086-0.24-14.259-31.23-18.795-37.229c-11.458-17.755-9.313-40.208,1.623-54.661
		C120.898,790.111,133.19,763.186,133.268,762.945z"/>
	<path d="M125.982,553.635c52.524-5.626,69.611,43.955,65.318,93.91c-8.731,77.846-78.645,103.285-67.344,198.416
		c1.995,17.063,7.688,33.893,16.293,50.034c16.727,31.434,75.417,99.898,42.868,171.066c-17.906,38.897-47.281,33.489-57.135,32.668
		l24.5,8.91c53.136-11.803,66.877-86.698,40.708-147.508c-14.971-34.828-39.229-59.78-49.635-92.306
		c-8.865-26.16-8.222-60.166-0.048-84.16c15.359-48.398,60.456-78.66,62.956-151.97c-1.289-57.197-27.492-82.664-54.041-87.965
		L125.982,553.635z"/>
	<path d="M152.668,1076.724c0.866,1.479,3.741,2.349,5.901,1.492c3.753-1.371,3.07-5.974-1.379-6.419
		C153.272,1071.4,151.191,1074.675,152.668,1076.724z"/>
	<path d="M157.152,574.78c-7.357-0.652-5.89,8.664,1.086,6.507C162.346,580.088,161.784,575.245,157.152,574.78z"/>
	<path d="M165.092,1072.887c3.686-0.93,3.381-5.164-0.574-5.693C158.149,1066.416,159.031,1074.444,165.092,1072.887z"/>
	<path d="M164.439,580.312c-6.733-0.636-4.899,7.531,0.854,5.585C168.808,584.87,168.368,580.777,164.439,580.312z"/>
	<path d="M169.882,1066.765c3.24-0.854,2.96-4.534-0.452-5.107C163.504,1060.716,164.192,1068.379,169.882,1066.765z"/>
	<path d="M169.308,586.402c-5.809-0.824-4.992,6.695,0.409,5.188C173.171,590.836,172.902,586.867,169.308,586.402z"/>
	<path d="M174.111,1060.383c2.465-1.207,1.599-4.434-1.684-4.603C166.43,1055.686,169.274,1063.02,174.111,1060.383z"/>
	<path d="M172.408,592.432c-6.047-0.096-3.023,7.352,1.8,4.567C176.539,595.732,175.673,592.624,172.408,592.432z"/>
	<path d="M176.46,1053.988c2.502-1.106,1.623-4.274-1.617-4.334C169.541,1049.704,171.908,1056.205,176.46,1053.988z"/>
	<path d="M174.886,599.011c-2.606-0.084-3.838,2.125-2.673,3.456c0.812,1.227,3.649,1.512,4.851,0.385
		C178.834,601.597,177.68,599.019,174.886,599.011z"/>
	<path d="M177.723,1047.898c2.636-0.798,2.05-4.005-1.007-4.073C172.055,1043.426,173.448,1049.471,177.723,1047.898z"/>
	<path d="M176.692,605.225c-5.202-0.16-2.603,6.222,1.428,3.977C180.305,608.176,179.591,605.349,176.692,605.225z"/>
	<path d="M178.455,1041.648c2.16-0.73,1.947-3.232-0.47-3.668C173.193,1037.26,174.55,1043.299,178.455,1041.648z"/>
	<path d="M177.906,611.459c-4.82-0.64-3.194,5.546,0.695,3.668C180.658,614.33,180.31,611.824,177.906,611.459z"/>
	<path d="M179.328,1035.766c1.434-0.814,0.702-2.814-1.373-2.774C173.812,1033.084,176.804,1037.811,179.328,1035.766z"/>
	<path d="M177.967,617.144c-1.8,0.076-2.66,1.696-1.586,2.578c0.751,0.878,3.057,0.73,3.46-0.261
		C180.542,618.543,179.621,617.189,177.967,617.144z"/>
	<path d="M179.572,1030.659c1.226-0.649,0.702-2.401-1.062-2.369C175.032,1027.933,176.793,1032.484,179.572,1030.659z"/>
	<path d="M179.694,1025.21c-0.513-1.263-3.344-0.578-2.709,0.617C177.259,1027.287,180.591,1026.501,179.694,1025.21z"/>
	<path d="M178.529,629.007c0.537-0.425,1.458-0.838,1.208-1.499C179.723,625.401,174.282,627.62,178.529,629.007z"/>
	<path d="M178.412,622.368c-1.641-0.068-2.368,1.407-1.458,2.177c0.611,0.798,2.514,0.629,3.033-0.14
		C180.652,623.627,179.932,622.34,178.412,622.368z"/>
	<path d="M150.483,1108.64l-24.5-8.91C125.983,1099.73,138.773,1108.553,150.483,1108.64z"/>
	<path d="M125.982,553.635l24.44-8.904C136.09,546.612,125.982,553.635,125.982,553.635z"/>
	<path d="M669.824,171.243c-4.082,2.679-8.515,3.643-12.829,5.053c-102.311,29.611-96.468-59.323-80.054-54.523
		c-2.387,4.274-0.025,8.028,1.684,9.446c5.476,4.357,12.568-10.089,6.675-18.606c-9.509-13.22-29.402,4.859-26.545,29.986
		c6.344,49.585,90.141,67.838,170.962,6.78c23.906-18.246,51.475-46.715,49.717-87.25c6.772-10.719,22.032-0.504,8.724,29.681
		c3.472-9.812,7.527-24.295-1.656-30.139c17.965,46.085-61.297,92.163-68.488,97.714c28.618-15.591,80.361-42.652,87.022-83.258
		c3.621-21.391-14.622-31.921-26.268-19.991c-1.897-8.193-4.267-17.408-12.047-23.75c-10.98-9.094-29.686-7.561-36.808,8.104
		c-4.771,13.038,0.547,28.577,12.95,27.466c12.601-0.859,12.718-14.682,9.979-18.844c-2.867-4.282-9.367-6.588-12.509,1.898
		c-5.178-21.5,22.249-27.701,25.991,5.413c1.452,28.96-16.177,54.191-18.229,56.244c0-0.415-0.004-1.251-0.004-1.666
		c9.42-11.005,11.765-29.649,3.813-32.867c-7.723-2.92-12.177,6.685-9.205,12.766c3.341,8.043,12.615-0.386,4.731-5.529
		c4.058-5.271,12.517,5.359-0.341,22.902c-5.563-7.815-16.683-0.754-21.782,9.697c7.039-33.67-18.292-27.477-13.916-49.221
		c-9.57,22.105,17.172,37.076-0.381,73.739c-0.22,0.067-0.665,0.195-0.886,0.256c2.381-3.41,8.087-18.521,5.388-31.402
		c-3.654-17.358-19.869-22.244-26.769-6.664c-3.363,7.412-1.754,16.13,5.942,19.258c0.265-2.972,1.219-5.858,2.883-7.555
		c10.809-11.699,20.627,32.857-20.503,52.333c2.221-2.002,4.514-3.979,6.27-6.926c8.568-12.926-4.026-27.658-12.4-20.033
		c-6.381,5.639-3.993,18.369,2.502,16.982c1.661-0.359,4.957-3.437,1.953-10.056c2.029-0.208,4.19,1.263,4.963,4.266
		C682.497,160.012,674.545,168.253,669.824,171.243z M709.975,142.886c0.172,0.281,0.345,0.567,0.517,0.854
		c-1.411,2.056-2.735,4.302-3.837,6.761c15.205-15.726,21.991-38.979,31.352-38.09c2.441,0.409,3.881,4.711,3.055,8.098
		c-0.583,5.271-21.285,25.251-45.861,39.53C699.726,156.664,707.66,149.699,709.975,142.886z"/>
	<path d="M935.385,159.329c-3.664-2.943-87.478-52.639-68.436-97.581c-5.537,3.302-8.914,12.556-1.087,31.237
		c-13.666-27.229-0.893-42.973,8.171-31.012c-4.414,86.554,150.847,164.435,207.581,106.172
		c28.222-29.319,4.732-69.068-11.193-57.892c-6.798,4.695-5.326,19.421,1.339,21.534c3.16,1.22,7.719-4.271,4.755-10.044
		c18.818-2.66,18.9,89.154-87.864,52.064c-15.959-6.097-20.809-24.614-10.5-25.074c-5.171,8.809,4.624,14.293,7.529,5.809
		c2.723-8.596-4.52-17.454-11.085-14.206c-8.122,3.648-9.167,14.315-4.562,21.297c1.732,3.014,4.061,4.931,6.23,7.097
		c-15.055-7.776-32.407-22.502-29.335-46.34c1.475-12.88,11.272-8.358,11.839,1.629c7.408-3.678,8.866-10.589,6.771-17.153
		c-6.89-21.808-32.153-11.21-27.803,18.624c2.447,16.31,10.145,27.012,19.974,33.995c-1.96-0.675-25.425-13.911-44.08-35.856
		c-2.912-3.506-2.038-18.347,9.353-6.92c4.578,4.442,8.96,15.047,14.701,22.114c2.602,4.021,5.525,7.5,8.395,11.063
		c0.381-0.152,0.778-1.037-0.02-1.232c-24.721-38.959,5.994-56.797-3.893-79.469c1.67,10.61-0.353,11.726-6.495,17.837
		c-7.891,7.368-10.3,17.862-7.609,30.639c-7.107-13.166-17.492-15.665-21.633-9.385c-12.964-16.821-4.469-28.267-0.293-22.877
		c-1.92,0.409-3.76,3.277-2.839,6.322c1.624,3.655,5.593,3.051,7.2-0.384c2.205-3.686,0.982-9.952-1.824-12.052
		c-10.991-8.42-18.64,12.757-3.268,31.853c0.004,0.384,0.008,1.147,0.012,1.532c-9.751-11.446-25.018-45.877-14.958-68.973
		c7.626-17.258,26.56-12.118,22.676,7.433c-5.883-15.042-20.748,1.867-10.957,13.071c6.854,8.008,24.571,4.135,23.012-15.719
		c-2.312-28.004-43.909-32.647-50.459,7.662c-17.866-17.379-43.672,11.007-11.446,51.375
		C879.353,127.561,911.73,146.511,935.385,159.329z"/>
	<path d="M557.748,133.5c0.69-32.86,31.93-34.015,33.649-12.869c1.259,12.343-8.038,25.851-16.65,15.42
		c-3.334,11.759,11.357,21.394,18.991,4.613c8.952-20.319-2.875-47.118-21.665-39.628c3.326-5.851,1.391-15.478-4.839-13.15
		c-2,0.671-3.552,4.29-2.49,7.231c1.204,4.342,7.207,2.177,3.371-3.326c3.419-1.234,5.801,5.983-1.107,12.565
		C558.035,113.224,556.819,128.912,557.748,133.5z"/>
	<path d="M1072.021,149.5c4.868-1.353,8.119-6.087,6.816-13.461c-14.853,14.901-25.637-22.86-6.843-28.985
		c10.396-3.54,22.576,5.66,23.866,27.045c1.388-22.481-10.717-29.936-12.765-34.081c-2.366-5.301-0.555-8.933,2.197-8.207
		c-4.345,7.967,5.71,7.123,3.536-0.482c-2.184-8.014-13.213-2.83-7.562,9.654c-4.562-1.752-9.51-1.581-13.912,1.049
		C1049.346,112.926,1056.85,153.215,1072.021,149.5z"/>
	<path d="M763.269,133.299c0.24-0.086,31.23-14.259,37.229-18.795c17.755-11.458,40.208-9.313,54.661,1.623
		c8.102,4.77,35.027,17.063,35.268,17.141c-35.155-20.226-43.788-55.448-54.528-40.403c8.483-3.492,8.384,4.566,13.643,16.561
		c-13.507-12.961-32.819-12.563-45.728,0.043c5.92-14.055,5.15-18.892,13.354-16.891C807.509,78.814,799.44,110.012,763.269,133.299
		z"/>
	<path d="M544.731,150.483c11.803,53.136,86.698,66.877,147.508,40.708c34.828-14.971,59.78-39.229,92.306-49.635
		c26.16-8.865,60.166-8.222,84.16-0.048c48.398,15.359,78.66,60.456,151.97,62.956c57.197-1.289,82.665-27.492,87.965-54.041
		l-8.905-24.44c5.626,52.524-43.955,69.611-93.91,65.318c-77.846-8.731-103.285-78.645-198.416-67.344
		c-17.063,1.995-33.893,7.688-50.034,16.293c-31.433,16.727-99.898,75.417-171.066,42.868
		c-38.897-17.906-33.489-47.281-32.668-57.135L544.731,150.483z"/>
	<path d="M576.647,152.668c-1.479,0.866-2.349,3.741-1.491,5.901c1.371,3.753,5.974,3.07,6.419-1.379
		C581.972,153.272,578.696,151.191,576.647,152.668z"/>
	<path d="M1078.592,157.152c0.652-7.357-8.664-5.89-6.507,1.086C1073.283,162.345,1078.126,161.784,1078.592,157.152z"/>
	<path d="M580.484,165.092c0.93,3.686,5.164,3.381,5.693-0.574C586.955,158.149,578.927,159.031,580.484,165.092z"/>
	<path d="M1067.474,165.293c1.027,3.515,5.12,3.076,5.585-0.854C1073.695,157.706,1065.528,159.54,1067.474,165.293z"/>
	<path d="M591.714,169.43c0.941-5.927-6.721-5.237-5.108,0.452C587.46,173.122,591.14,172.841,591.714,169.43z"/>
	<path d="M1061.781,169.717c0.754,3.454,4.723,3.185,5.188-0.409C1067.793,163.498,1060.275,164.318,1061.781,169.717z"/>
	<path d="M592.989,174.111c1.207,2.465,4.434,1.599,4.603-1.684C597.685,166.43,590.351,169.275,592.989,174.111z"/>
	<path d="M1060.939,172.408c0.096-6.048-7.352-3.022-4.567,1.8C1057.64,176.539,1060.747,175.673,1060.939,172.408z"/>
	<path d="M603.717,174.843c-0.05-5.303-6.55-2.934-4.334,1.617C600.49,178.962,603.657,178.083,603.717,174.843z"/>
	<path d="M1054.36,174.885c0.084-2.606-2.125-3.838-3.456-2.673c-1.227,0.812-1.511,3.649-0.385,4.851
		C1051.774,178.834,1054.352,177.68,1054.36,174.885z"/>
	<path d="M609.546,176.716c0.399-4.662-5.646-3.268-4.073,1.007C606.271,180.359,609.478,179.773,609.546,176.716z"/>
	<path d="M1048.146,176.692c0.16-5.202-6.222-2.603-3.977,1.428C1045.195,180.304,1048.022,179.591,1048.146,176.692z"/>
	<path d="M615.392,177.985c0.72-4.792-5.32-3.435-3.668,0.47C612.453,180.615,614.955,180.402,615.392,177.985z"/>
	<path d="M1041.912,177.906c0.64-4.82-5.546-3.194-3.668,0.695C1039.041,180.658,1041.547,180.31,1041.912,177.906z"/>
	<path d="M620.379,177.955c-0.093-4.143-4.819-1.151-2.774,1.373C618.419,180.762,620.419,180.03,620.379,177.955z"/>
	<path d="M1033.91,179.84c0.918,0.702,2.273-0.22,2.317-1.873c-0.076-1.8-1.696-2.66-2.578-1.586
		C1032.771,177.131,1032.92,179.438,1033.91,179.84z"/>
	<path d="M625.082,178.51c0.356-3.479-4.195-1.717-2.369,1.062C623.362,180.799,625.114,180.274,625.082,178.51z"/>
	<path d="M628.161,179.694c1.263-0.513,0.577-3.344-0.617-2.709C626.084,177.259,626.87,180.591,628.161,179.694z"/>
	<path d="M1025.864,179.737c2.108-0.014-0.113-5.456-1.499-1.208C1024.789,179.066,1025.202,179.987,1025.864,179.737z"/>
	<path d="M1028.966,179.987c0.778,0.665,2.065-0.055,2.037-1.574c0.068-1.641-1.407-2.368-2.177-1.458
		C1028.028,177.565,1028.197,179.468,1028.966,179.987z"/>
	<path d="M544.731,150.483l8.91-24.5C553.641,125.983,544.818,138.773,544.731,150.483z"/>
	<path d="M1099.736,125.982l8.905,24.44C1106.759,136.09,1099.736,125.982,1099.736,125.982z"/>
	<path d="M1591.7,786.502c-45.131,17.592-88.827-56.976-97.714-68.488c15.591,28.618,42.652,80.361,83.258,87.022
		c21.391,3.621,31.921-14.622,19.991-26.268c8.193-1.898,17.408-4.267,23.75-12.047c9.094-10.98,7.561-29.686-8.104-36.808
		c-13.038-4.771-28.577,0.547-27.466,12.95c0.859,12.601,14.682,12.718,18.844,9.979c4.282-2.867,6.588-9.367-1.898-12.508
		c21.501-5.178,27.701,22.249-5.413,25.991c-28.96,1.452-54.191-16.177-56.244-18.23c0.415,0,1.251-0.004,1.666-0.004
		c11.005,9.42,29.649,11.765,32.867,3.813c2.92-7.723-6.685-12.177-12.766-9.205c-8.043,3.341,0.386,12.615,5.529,4.731
		c5.271,4.058-5.359,12.517-22.902-0.341c7.816-5.563,0.754-16.683-9.697-21.782c33.627,7.031,27.517-18.284,49.22-13.916
		c-22.105-9.57-37.076,17.172-73.739-0.381c-0.067-0.221-0.195-0.665-0.256-0.886c3.41,2.381,18.52,8.087,31.402,5.388
		c17.358-3.654,22.244-19.869,6.663-26.769c-7.412-3.363-16.13-1.754-19.258,5.942c2.972,0.265,5.858,1.219,7.554,2.883
		c11.699,10.809-32.857,20.627-52.333-20.503c17.592,19.522,34.899,2.591,26.959-6.13c-5.639-6.381-18.369-3.993-16.982,2.502
		c0.359,1.663,3.441,4.955,10.057,1.953c0.668,6.533-13.258,9.123-22.56-5.565c-2.679-4.081-3.643-8.515-5.053-12.829
		c-29.61-102.311,59.323-96.468,54.523-80.054c-4.274-2.387-8.028-0.025-9.446,1.684c-4.357,5.476,10.089,12.568,18.606,6.675
		c13.22-9.509-4.859-29.402-29.986-26.544c-49.585,6.344-67.838,90.141-6.78,170.962c18.246,23.906,46.715,51.475,87.25,49.717
		c10.719,6.772,0.504,22.032-29.681,8.724C1571.374,791.629,1585.857,795.685,1591.7,786.502z M1532.862,741.062
		c-5.271-0.583-25.251-21.285-39.53-45.861c3.375,4.524,10.34,12.458,17.153,14.774c-0.281,0.172-0.568,0.345-0.854,0.517
		c-2.056-1.411-4.302-2.734-6.761-3.837c15.726,15.205,38.979,21.991,38.09,31.351
		C1540.551,740.449,1536.249,741.888,1532.862,741.062z"/>
	<path d="M1589.168,902.177c-8.008,6.854-4.135,24.571,15.719,23.012c28.004-2.312,32.647-43.909-7.662-50.459
		c17.379-17.866-11.007-43.672-51.375-11.446c-20.039,16.068-38.989,48.445-51.808,72.1c2.943-3.664,52.639-87.478,97.581-68.436
		c-3.302-5.537-12.556-8.914-31.237-1.087c27.229-13.666,42.973-0.893,31.011,8.171c-86.554-4.414-164.435,150.847-106.172,207.581
		c29.319,28.222,69.068,4.732,57.892-11.193c-4.695-6.798-19.421-5.326-21.535,1.339c-1.22,3.16,4.271,7.719,10.044,4.755
		c2.659,18.818-89.153,18.901-52.064-87.864c6.097-15.96,24.614-20.809,25.074-10.5c-8.809-5.171-14.293,4.624-5.809,7.529
		c8.595,2.723,17.454-4.52,14.206-11.085c-3.648-8.122-14.315-9.167-21.297-4.562c-3.014,1.732-4.931,4.061-7.097,6.23
		c7.776-15.055,22.502-32.407,46.34-29.335c12.88,1.475,8.358,11.272-1.629,11.839c3.678,7.408,10.589,8.866,17.153,6.772
		c21.808-6.89,11.21-32.153-18.624-27.803c-16.31,2.447-27.012,10.145-33.995,19.974c0.675-1.96,13.911-25.425,35.857-44.08
		c3.506-2.912,18.347-2.038,6.92,9.353c-4.442,4.578-15.047,8.96-22.114,14.701c-4.021,2.602-7.5,5.525-11.063,8.395
		c0.152,0.381,1.037,0.778,1.232-0.02c38.959-24.721,56.797,5.994,79.469-3.893c-10.61,1.67-11.725-0.353-17.837-6.495
		c-7.368-7.891-17.862-10.3-30.639-7.609c13.166-7.107,15.665-17.492,9.385-21.633c16.821-12.964,28.266-4.47,22.877-0.293
		c-0.409-1.92-3.277-3.761-6.322-2.839c-3.655,1.624-3.051,5.593,0.384,7.2c3.686,2.205,9.952,0.982,12.052-1.824
		c8.42-10.991-12.757-18.64-31.853-3.268c-0.384,0.004-1.147,0.008-1.532,0.012c11.446-9.751,45.877-25.018,68.973-14.958
		c17.258,7.626,12.118,26.56-7.433,22.676C1617.28,907.251,1600.371,892.388,1589.168,902.177z"/>
	<path d="M1549.016,567.009c-8.869-8.974-24.556-10.19-29.144-9.261c32.86,0.69,34.015,31.929,12.869,33.649
		c-12.343,1.259-25.851-8.038-15.42-16.65c-11.759-3.334-21.394,11.356-4.613,18.991c20.318,8.952,47.117-2.875,39.628-21.665
		c5.851,3.326,15.478,1.391,13.15-4.839c-0.671-2-4.29-3.552-7.231-2.49c-4.342,1.204-2.177,7.207,3.326,3.371
		C1562.814,571.534,1555.597,573.917,1549.016,567.009z"/>
	<path d="M1562.043,1088.827c8.014-2.184,2.83-13.213-9.654-7.561c1.752-4.562,1.581-9.51-1.049-13.912
		c-10.895-18.008-51.184-10.504-47.469,4.667c1.353,4.868,6.087,8.119,13.461,6.816c-14.895-14.847,22.859-25.641,28.985-6.843
		c3.54,10.396-5.66,22.576-27.045,23.866c22.484,1.388,29.935-10.717,34.081-12.765c5.301-2.366,8.933-0.555,8.208,2.197
		C1553.614,1080.959,1554.424,1091.005,1562.043,1088.827z"/>
	<path d="M1520.103,890.427c20.226-35.155,55.448-43.788,40.403-54.528c3.492,8.483-4.566,8.384-16.561,13.643
		c12.961-13.507,12.563-32.819-0.043-45.728c14.056,5.919,18.892,5.15,16.891,13.355c13.766-9.658-17.432-17.727-40.72-53.899
		c0.086,0.24,14.259,31.23,18.795,37.229c11.458,17.755,9.313,40.208-1.623,54.661
		C1532.474,863.26,1520.181,890.186,1520.103,890.427z"/>
	<path d="M1527.389,1099.736c-52.524,5.626-69.611-43.955-65.318-93.91c8.73-77.846,78.645-103.285,67.344-198.416
		c-1.995-17.063-7.689-33.893-16.293-50.034c-16.727-31.434-75.417-99.898-42.868-171.066
		c17.906-38.897,47.281-33.489,57.135-32.668l-24.5-8.91c-53.136,11.803-66.877,86.698-40.708,147.508
		c14.971,34.828,39.229,59.78,49.635,92.306c8.865,26.16,8.222,60.166,0.048,84.16c-15.359,48.398-60.456,78.66-62.956,151.97
		c1.289,57.197,27.492,82.664,54.041,87.965L1527.389,1099.736z"/>
	<path d="M1500.704,576.647c-0.866-1.479-3.741-2.349-5.901-1.491c-3.753,1.371-3.07,5.974,1.379,6.419
		C1500.1,581.972,1502.18,578.696,1500.704,576.647z"/>
	<path d="M1496.219,1078.592c7.357,0.652,5.89-8.664-1.086-6.507C1491.026,1073.283,1491.587,1078.126,1496.219,1078.592z"/>
	<path d="M1488.28,580.484c-3.686,0.93-3.381,5.164,0.573,5.693C1495.221,586.955,1494.344,578.926,1488.28,580.484z"/>
	<path d="M1488.933,1073.059c6.733,0.636,4.899-7.531-0.854-5.585C1484.563,1068.501,1485.003,1072.594,1488.933,1073.059z"/>
	<path d="M1483.49,586.606c-3.24,0.854-2.96,4.534,0.452,5.108C1489.867,592.655,1489.179,584.992,1483.49,586.606z"/>
	<path d="M1484.063,1066.969c5.81,0.824,4.99-6.695-0.409-5.188C1480.201,1062.535,1480.469,1066.504,1484.063,1066.969z"/>
	<path d="M1479.261,592.989c-2.465,1.207-1.599,4.434,1.684,4.603C1486.942,597.685,1484.097,590.351,1479.261,592.989z"/>
	<path d="M1480.963,1060.939c6.047,0.096,3.022-7.352-1.8-4.567C1476.832,1057.64,1477.698,1060.747,1480.963,1060.939z"/>
	<path d="M1476.911,599.383c-2.502,1.107-1.623,4.274,1.617,4.334C1483.831,603.667,1481.462,597.167,1476.911,599.383z"/>
	<path d="M1478.486,1054.36c2.606,0.084,3.838-2.125,2.673-3.456c-0.812-1.227-3.649-1.512-4.851-0.385
		C1474.537,1051.774,1475.691,1054.352,1478.486,1054.36z"/>
	<path d="M1475.648,605.473c-2.636,0.798-2.05,4.005,1.007,4.073C1481.317,609.945,1479.923,603.9,1475.648,605.473z"/>
	<path d="M1476.679,1048.146c5.202,0.16,2.602-6.221-1.428-3.977C1473.067,1045.195,1473.781,1048.022,1476.679,1048.146z"/>
	<path d="M1474.916,611.723c-2.16,0.73-1.947,3.232,0.47,3.668C1480.177,616.112,1478.821,610.072,1474.916,611.723z"/>
	<path d="M1475.465,1041.912c4.82,0.64,3.194-5.547-0.696-3.669C1472.713,1039.041,1473.061,1041.547,1475.465,1041.912z"/>
	<path d="M1474.043,617.605c-1.434,0.814-0.702,2.815,1.373,2.774C1479.559,620.287,1476.567,615.56,1474.043,617.605z"/>
	<path d="M1475.404,1036.227c1.8-0.076,2.661-1.696,1.587-2.578c-0.751-0.878-3.057-0.73-3.46,0.261
		C1472.829,1034.828,1473.751,1036.183,1475.404,1036.227z"/>
	<path d="M1473.799,622.712c-1.226,0.649-0.702,2.401,1.062,2.369C1478.339,625.438,1476.579,620.887,1473.799,622.712z"/>
	<path d="M1473.677,628.161c0.513,1.263,3.344,0.577,2.709-0.617C1476.112,626.084,1472.78,626.87,1473.677,628.161z"/>
	<path d="M1474.842,1024.364c-0.537,0.425-1.458,0.838-1.208,1.499C1473.648,1027.97,1479.09,1025.752,1474.842,1024.364z"/>
	<path d="M1474.959,1031.003c1.641,0.068,2.368-1.407,1.458-2.177c-0.611-0.798-2.514-0.629-3.033,0.14
		C1472.719,1029.744,1473.439,1031.031,1474.959,1031.003z"/>
	<path d="M1502.889,544.731l24.5,8.91C1527.388,553.641,1514.598,544.818,1502.889,544.731z"/>
	<path d="M1527.389,1099.736l-24.44,8.905C1517.282,1106.759,1527.389,1099.736,1527.389,1099.736z"/>
	<path d="M983.547,1482.128c4.081-2.679,8.515-3.643,12.829-5.053c102.311-29.611,96.468,59.323,80.055,54.523
		c2.387-4.274,0.025-8.028-1.684-9.446c-5.475-4.357-12.568,10.089-6.675,18.606c9.509,13.22,29.402-4.859,26.545-29.986
		c-6.344-49.585-90.141-67.838-170.962-6.78c-23.906,18.246-51.475,46.715-49.717,87.25c-6.773,10.719-22.032,0.504-8.724-29.681
		c-3.472,9.812-7.528,24.295,1.656,30.139c-17.963-46.086,61.297-92.163,68.488-97.714c-28.618,15.591-80.361,42.652-87.022,83.259
		c-3.621,21.391,14.622,31.921,26.268,19.991c1.897,8.193,4.267,17.408,12.047,23.75c10.98,9.094,29.686,7.561,36.808-8.104
		c4.771-13.038-0.547-28.577-12.95-27.466c-12.601,0.859-12.718,14.682-9.979,18.844c2.867,4.282,9.367,6.588,12.509-1.898
		c5.178,21.5-22.249,27.701-25.991-5.413c-1.452-28.96,16.177-54.191,18.229-56.244c0,0.415,0.004,1.251,0.004,1.666
		c-9.42,11.005-11.765,29.649-3.813,32.867c7.723,2.92,12.177-6.685,9.205-12.766c-3.341-8.043-12.615,0.386-4.731,5.529
		c-4.058,5.271-12.517-5.359,0.341-22.902c5.563,7.815,16.683,0.755,21.782-9.697c-7.031,33.627,18.284,27.517,13.916,49.221
		c9.57-22.105-17.172-37.076,0.381-73.739c0.22-0.067,0.665-0.195,0.886-0.256c-2.381,3.41-8.087,18.521-5.388,31.402
		c3.654,17.358,19.869,22.244,26.769,6.664c3.363-7.412,1.754-16.13-5.942-19.259c-0.265,2.972-1.219,5.858-2.883,7.555
		c-10.809,11.699-20.627-32.857,20.503-52.333c-2.221,2.002-4.514,3.979-6.27,6.926c-8.568,12.926,4.026,27.658,12.4,20.033
		c6.381-5.639,3.993-18.369-2.502-16.982c-1.77,0.382-4.908,3.546-1.953,10.057C971.446,1505.357,968.86,1491.43,983.547,1482.128z
		 M943.396,1510.485c-0.172-0.281-0.345-0.567-0.517-0.854c1.411-2.056,2.734-4.302,3.837-6.761
		c-15.205,15.726-21.991,38.979-31.352,38.09c-2.441-0.409-3.881-4.711-3.055-8.098c0.583-5.271,21.285-25.251,45.861-39.53
		C953.645,1496.708,945.711,1503.673,943.396,1510.485z"/>
	<path d="M717.986,1494.042c3.664,2.943,87.477,52.64,68.436,97.58c5.537-3.302,8.914-12.556,1.087-31.237
		c13.666,27.229,0.893,42.973-8.171,31.011c4.414-86.554-150.847-164.435-207.581-106.172
		c-28.222,29.319-4.732,69.068,11.193,57.892c6.798-4.695,5.326-19.421-1.339-21.535c-3.16-1.22-7.719,4.271-4.755,10.044
		c-18.816,2.66-18.903-89.154,87.864-52.064c15.959,6.097,20.809,24.614,10.5,25.074c5.171-8.809-4.624-14.292-7.529-5.809
		c-2.723,8.595,4.52,17.454,11.085,14.206c8.122-3.647,9.167-14.314,4.562-21.297c-1.732-3.014-4.061-4.931-6.23-7.097
		c15.055,7.776,32.407,22.502,29.335,46.34c-1.475,12.88-11.272,8.358-11.839-1.629c-7.408,3.678-8.866,10.589-6.772,17.153
		c6.89,21.808,32.153,11.21,27.803-18.624c-2.447-16.31-10.145-27.012-19.974-33.996c1.96,0.675,25.425,13.911,44.081,35.857
		c2.912,3.506,2.038,18.347-9.353,6.92c-4.578-4.442-8.96-15.047-14.702-22.114c-2.602-4.021-5.525-7.5-8.395-11.063
		c-0.381,0.152-0.778,1.037,0.02,1.232c24.721,38.959-5.994,56.797,3.893,79.469c-1.67-10.61,0.353-11.725,6.495-17.837
		c7.891-7.368,10.3-17.862,7.609-30.639c7.107,13.166,17.492,15.665,21.633,9.385c12.964,16.821,4.47,28.267,0.293,22.877
		c1.92-0.409,3.761-3.277,2.839-6.322c-1.624-3.655-5.593-3.051-7.2,0.385c-2.205,3.686-0.982,9.952,1.824,12.052
		c10.991,8.42,18.64-12.757,3.268-31.853c-0.004-0.384-0.008-1.147-0.012-1.531c9.751,11.446,25.018,45.877,14.958,68.973
		c-7.626,17.258-26.56,12.118-22.676-7.433c5.898,15.081,20.732-1.885,10.957-13.071c-6.854-8.008-24.571-4.135-23.012,15.719
		c2.312,28.004,43.91,32.647,50.459-7.662c17.866,17.379,43.672-11.007,11.446-51.375
		C774.018,1525.81,741.641,1506.86,717.986,1494.042z"/>
	<path d="M1095.623,1519.871c-0.69,32.861-31.929,34.015-33.649,12.87c-1.259-12.343,8.038-25.851,16.65-15.42
		c3.334-11.759-11.356-21.395-18.991-4.613c-8.952,20.318,2.875,47.118,21.665,39.628c-3.326,5.851-1.39,15.478,4.839,13.15
		c2-0.671,3.552-4.29,2.49-7.231c-1.204-4.342-7.207-2.177-3.371,3.326c-3.419,1.234-5.801-5.983,1.106-12.565
		C1095.336,1540.147,1096.552,1524.459,1095.623,1519.871z"/>
	<path d="M581.351,1503.871c-4.868,1.353-8.119,6.087-6.816,13.461c14.848-14.894,25.641,22.859,6.844,28.986
		c-10.396,3.54-22.576-5.66-23.866-27.045c-1.388,22.482,10.718,29.937,12.765,34.081c2.366,5.301,0.555,8.933-2.197,8.208
		c4.345-7.97-5.709-7.119-3.536,0.482c2.184,8.014,13.213,2.83,7.561-9.654c4.562,1.751,9.51,1.581,13.912-1.05
		C604.025,1540.445,596.521,1500.156,581.351,1503.871z"/>
	<path d="M890.103,1520.072c-0.24,0.086-31.23,14.259-37.229,18.795c-17.755,11.458-40.208,9.313-54.661-1.623
		c-8.102-4.77-35.027-17.063-35.268-17.141c35.155,20.226,43.788,55.448,54.528,40.403c-8.483,3.492-8.384-4.566-13.643-16.562
		c13.507,12.961,32.819,12.563,45.728-0.043c-5.919,14.055-5.15,18.892-13.354,16.891
		C845.863,1574.557,853.931,1543.36,890.103,1520.072z"/>
	<path d="M1108.64,1502.889c-11.803-53.136-86.698-66.877-147.508-40.708c-34.828,14.971-59.78,39.229-92.306,49.635
		c-26.16,8.865-60.166,8.222-84.16,0.048c-48.398-15.359-78.66-60.456-151.97-62.956c-57.198,1.289-82.664,27.492-87.965,54.041
		l8.904,24.44c-5.626-52.524,43.955-69.611,93.91-65.318c77.846,8.73,103.285,78.645,198.416,67.344
		c17.063-1.995,33.893-7.688,50.034-16.293c31.433-16.727,99.898-75.417,171.066-42.868c38.897,17.906,33.489,47.281,32.668,57.135
		L1108.64,1502.889z"/>
	<path d="M1076.724,1500.704c1.479-0.866,2.349-3.741,1.492-5.901c-1.371-3.753-5.974-3.07-6.419,1.379
		C1071.4,1500.1,1074.675,1502.18,1076.724,1500.704z"/>
	<path d="M574.78,1496.219c-0.652,7.357,8.664,5.889,6.507-1.086C580.088,1491.026,575.245,1491.587,574.78,1496.219z"/>
	<path d="M1072.887,1488.28c-0.93-3.686-5.164-3.381-5.693,0.573C1066.417,1495.221,1074.445,1494.344,1072.887,1488.28z"/>
	<path d="M585.897,1488.078c-1.026-3.515-5.12-3.075-5.585,0.854C579.676,1495.665,587.843,1493.831,585.897,1488.078z"/>
	<path d="M1061.657,1483.941c-0.941,5.926,6.722,5.237,5.108-0.452C1065.911,1480.249,1062.231,1480.53,1061.657,1483.941z"/>
	<path d="M591.59,1483.654c-0.754-3.454-4.723-3.185-5.188,0.409C585.578,1489.873,593.097,1489.054,591.59,1483.654z"/>
	<path d="M1060.383,1479.261c-1.207-2.465-4.434-1.599-4.603,1.684C1055.686,1486.941,1063.021,1484.097,1060.383,1479.261z"/>
	<path d="M592.432,1480.963c-0.096,6.048,7.352,3.022,4.567-1.8C595.732,1476.832,592.624,1477.698,592.432,1480.963z"/>
	<path d="M1049.654,1478.528c0.05,5.303,6.551,2.934,4.334-1.617C1052.881,1474.409,1049.714,1475.288,1049.654,1478.528z"/>
	<path d="M599.011,1478.486c-0.084,2.606,2.125,3.838,3.456,2.673c1.227-0.812,1.512-3.649,0.385-4.851
		C601.597,1474.537,599.019,1475.691,599.011,1478.486z"/>
	<path d="M1043.825,1476.655c-0.399,4.662,5.646,3.268,4.073-1.007C1047.1,1473.012,1043.893,1473.598,1043.825,1476.655z"/>
	<path d="M605.225,1476.679c-0.16,5.202,6.222,2.602,3.977-1.428C608.176,1473.067,605.349,1473.78,605.225,1476.679z"/>
	<path d="M1037.979,1475.386c-0.72,4.792,5.319,3.434,3.668-0.47C1040.918,1472.756,1038.416,1472.969,1037.979,1475.386z"/>
	<path d="M611.459,1475.465c-0.64,4.82,5.546,3.194,3.668-0.695C614.33,1472.713,611.824,1473.061,611.459,1475.465z"/>
	<path d="M1032.992,1475.416c0.092,4.142,4.818,1.151,2.774-1.373C1034.953,1472.609,1032.952,1473.342,1032.992,1475.416z"/>
	<path d="M619.461,1473.531c-0.918-0.702-2.273,0.22-2.317,1.873c0.076,1.8,1.696,2.661,2.578,1.587
		C620.6,1476.24,620.452,1473.933,619.461,1473.531z"/>
	<path d="M1028.289,1474.861c-0.356,3.478,4.195,1.718,2.369-1.062C1030.009,1472.573,1028.257,1473.097,1028.289,1474.861z"/>
	<path d="M1025.211,1473.677c-1.263,0.513-0.578,3.344,0.617,2.709C1027.287,1476.112,1026.501,1472.78,1025.211,1473.677z"/>
	<path d="M627.508,1473.634c-2.106,0.014,0.112,5.456,1.499,1.208C628.582,1474.305,628.169,1473.384,627.508,1473.634z"/>
	<path d="M624.405,1473.384c-0.778-0.665-2.064,0.055-2.037,1.574c-0.068,1.641,1.407,2.368,2.177,1.458
		C625.343,1475.807,625.174,1473.903,624.405,1473.384z"/>
	<path d="M1108.64,1502.889l-8.91,24.5C1099.73,1527.388,1108.553,1514.598,1108.64,1502.889z"/>
	<path d="M553.635,1527.389l-8.904-24.44C546.612,1517.282,553.635,1527.389,553.635,1527.389z"/>
	<path d="M61.671,176.737c17.772-10.544,38.773,5.565,52.65,20.827c24.051,31.813,39.036,71.531,45.065,83.417
		c-15.591-43.558-42.652-122.315-83.258-132.454c-21.391-5.512-31.921,22.256-19.991,39.982c-8.193,2.888-17.408,6.494-23.75,18.337
		c-9.094,16.712-7.561,45.184,8.104,56.024c13.038,7.261,28.577-0.833,27.466-19.711c-0.859-19.18-14.682-19.357-18.844-15.188
		c-4.282,4.364-6.588,14.258,1.898,19.039c-21.5,7.882-27.701-33.864,5.413-39.561c28.96-2.21,54.191,24.623,56.244,27.747
		c-0.415,0-1.251,0.006-1.666,0.006c-11.005-14.338-29.649-17.907-32.867-5.803c-2.92,11.755,6.685,18.534,12.766,14.011
		c8.043-5.085-0.386-19.2-5.529-7.201c-5.271-6.177,5.359-19.052,22.902,0.519c-7.815,8.468-0.754,25.392,9.697,33.153
		c-13.426-4.272-23.641-0.021-30.145,10.215c-6.143,8.968-7.422,14.535-19.075,10.966c22.105,14.566,37.076-26.137,73.739,0.58
		c0.067,0.336,0.195,1.013,0.256,1.349c-3.41-3.625-18.521-12.309-31.402-8.201c-17.358,5.562-22.244,30.242-6.664,40.744
		c7.412,5.119,16.13,2.67,19.258-9.044c-2.972-0.403-5.858-1.855-7.554-4.387c-11.699-16.452,32.857-31.396,52.333,31.207
		c-17.625-29.772-34.851-3.863-26.959,9.33c5.639,9.712,18.369,6.078,16.982-3.808c-0.397-2.795-3.009-5.187-5.895-4.967
		c-1.66-0.104-2.898,1.123-4.162,1.995c-0.667-9.916,13.236-13.937,22.56,8.47c2.679,6.212,3.643,12.961,5.052,19.527
		c29.611,155.725-59.323,146.832-54.523,121.849c0.61,0.519,1.208,1.049,1.873,1.501c3.124,0.879,6.145-1.446,7.573-4.064
		c4.357-8.334-10.089-19.129-18.606-10.16c-13.22,14.474,4.859,44.752,29.986,40.403c49.585-9.656,67.838-137.202,6.78-260.217
		c-18.246-36.387-46.715-78.348-87.25-75.674c-10.719-10.308-0.504-33.534,29.681-13.278
		C79.638,167.662,67.013,163.961,61.671,176.737z M120.509,245.9c5.271,0.887,25.251,32.398,39.53,69.803
		c-3.375-6.886-10.34-18.963-17.153-22.487c0.281-0.262,0.567-0.525,0.854-0.787c2.056,2.148,4.302,4.162,6.761,5.84
		c-15.726-23.143-38.979-33.472-38.09-47.719C112.82,246.833,117.122,244.643,120.509,245.9z"/>
	<path d="M133.5,524.918c-32.86-1.049-34.015-48.599-12.869-51.216c12.343-1.916,25.851,12.234,15.42,25.343
		c11.759,5.075,21.394-17.285,4.613-28.906c-20.319-13.626-47.118,4.376-39.628,32.976c-5.851-5.062-15.478-2.116-13.15,7.365
		c0.671,3.045,4.29,5.406,7.231,3.789c4.342-1.832,2.177-10.97-3.326-5.132c-1.234-5.204,5.983-8.83,12.565,1.684
		C113.224,524.481,128.912,526.332,133.5,524.918z"/>
	<path d="M157.189,488.652c-3.918-0.604-5.998,4.381-4.522,7.5c0.866,2.252,3.741,3.576,5.901,2.27
		C162.321,496.335,161.638,489.329,157.189,488.652z"/>
	<path d="M165.092,490.312c3.686-1.415,3.381-7.859-0.574-8.665C158.132,480.46,159.068,492.668,165.092,490.312z"/>
	<path d="M169.882,480.994c3.24-1.3,2.96-6.901-0.452-7.774C163.489,471.784,164.265,483.419,169.882,480.994z"/>
	<path d="M169.693,470.547c0.933,1.422,3.088,1.837,4.418,0.732c2.465-1.837,1.599-6.749-1.684-7.005
		C169.357,464.201,168.088,468.301,169.693,470.547z"/>
	<path d="M176.46,461.546c2.502-1.684,1.623-6.505-1.617-6.597C169.521,455.026,171.944,464.894,176.46,461.546z"/>
	<path d="M177.723,452.277c2.636-1.214,2.05-6.096-1.007-6.2C172.027,445.466,173.508,454.637,177.723,452.277z"/>
	<path d="M178.455,442.763c2.16-1.111,1.947-4.919-0.47-5.584C173.186,436.083,174.603,445.243,178.455,442.763z"/>
	<path d="M176.313,433.384c0.537,1.08,2.227,1.398,3.014,0.427c1.434-1.239,0.702-4.284-1.373-4.223
		C176.155,429.65,175.331,432.023,176.313,433.384z"/>
	<path d="M176.82,425.519c0.372,1.062,2.002,1.269,2.752,0.519c1.226-0.988,0.702-3.655-1.062-3.606
		C176.905,422.181,176.088,424.298,176.82,425.519z"/>
	<path d="M179.694,417.745c-0.513-1.922-3.344-0.879-2.709,0.94C177.259,420.905,180.591,419.709,179.694,417.745z"/>
	<path d="M150.483,544.731l-24.5-13.562C125.983,531.169,138.773,544.598,150.483,544.731z"/>
	<path d="M503.596,168.147c42.956-29.319,7.203-69.068-17.037-57.892c-10.347,4.695-8.106,19.421,2.038,21.534
		c4.259,1.08,8.854-2.642,8.964-6.956c0.122-1.324-1.007-2.166-1.727-3.088c28.299-2.628,29.211,89.255-133.736,52.064
		c-24.292-6.097-31.673-24.614-15.982-25.074c-7.871,8.809,7.038,14.293,11.46,5.809c4.144-8.596-6.88-17.454-16.873-14.206
		c-12.362,3.648-13.953,14.315-6.944,21.297c2.636,3.014,6.181,4.931,9.483,7.097c-22.915-7.776-49.326-22.502-44.65-46.34
		c2.245-12.88,17.157-8.358,18.02,1.629c11.276-3.678,13.495-10.589,10.307-17.153c-10.487-21.808-48.939-11.21-42.319,18.624
		c3.724,16.31,15.441,27.012,30.401,33.995c-2.983-0.675-38.699-13.911-67.094-35.856c-4.432-3.506-3.102-18.347,14.236-6.92
		c6.968,4.442,13.637,15.047,22.377,22.114c3.96,4.021,8.409,7.5,12.778,11.063c0.58-0.152,1.184-1.037-0.03-1.232
		c-37.628-38.959,9.123-56.797-5.925-79.469c2.542,10.61-0.537,11.726-9.885,17.837c-12.01,7.368-15.677,17.862-11.582,30.639
		c-10.818-13.166-26.624-15.665-32.927-9.385c-19.732-16.821-6.803-28.267-0.445-22.877c-2.923,0.409-5.724,3.277-4.32,6.322
		c2.471,3.655,8.512,3.051,10.959-0.384c3.356-3.686,1.495-9.952-2.776-12.052c-16.729-8.42-28.372,12.757-4.974,31.853
		c0.006,0.384,0.012,1.147,0.018,1.532c-14.842-11.446-38.08-45.877-22.767-68.973c11.608-17.258,40.427-12.118,34.514,7.433
		c-9.03-15.169-31.442,1.971-16.677,13.071c10.433,8.008,37.399,4.135,35.027-15.719c-3.518-28.004-66.834-32.647-76.802,7.662
		c-27.194-17.379-66.472,11.007-17.422,51.375c24.457,20.039,73.737,38.989,109.742,51.808
		c-4.148-2.189-133.171-52.603-104.165-97.581c-8.428,3.302-13.567,12.556-1.654,31.237c-20.801-27.229-1.359-42.973,12.436-31.012
		C180.923,148.528,417.242,226.41,503.596,168.147z"/>
	<path d="M505.848,100.018c-3.602-5.301-0.845-8.933,3.344-8.207c-6.669,8.035,8.669,7.072,5.382-0.482
		c-3.324-8.014-20.111-2.83-11.509,9.654c-6.944-1.752-14.475-1.581-21.175,1.049c-27.409,10.895-15.988,51.184,7.103,47.469
		c7.41-1.353,12.358-6.087,10.374-13.461c-22.365,14.742-39.236-22.814-10.416-28.985c15.823-3.54,34.362,5.66,36.326,27.045
		C527.381,111.703,508.884,104.055,505.848,100.018z"/>
	<path d="M212.593,133.268c-53.508-20.226-66.649-55.448-82.996-40.403c12.911-3.492,12.761,4.566,20.766,16.561
		c-14.183-8.942-32.57-11.523-49.062-8.126l0.016,0.016c-3.489,16.893-0.646,35.355,8.153,49.071
		c-14.055-9.01-18.892-7.838-16.891-20.327c-13.774,14.71,17.415,26.942,40.72,82.038c-11.437-48.679-29.147-64.078-26.121-104.922
		l-0.005-0.005c18.857-1.387,37.758,2.004,51.74,8.955C171.244,120.898,212.226,133.19,212.593,133.268z"/>
	<path d="M544.731,150.422l-13.553-24.44c9.64,59.132-83.674,68.664-142.938,65.318c-107.852-7.947-149.626-66.578-265.456-68.517
		l0.054,0.054c0.779,33.526,5.343,63.771,17.412,98.233c16.727,47.844,75.417,152.052,42.868,260.376
		c-17.906,59.204-47.281,50.973-57.135,49.723l24.5,13.562c53.136-17.964,66.877-131.961,40.708-224.519
		c-19.399-68.691-50.874-104.807-55.475-184.497l0.007,0.007c108.725,6.264,144.47,65.814,275.12,68.741
		C456.974,203.78,531.539,193.839,544.731,150.422z"/>
	<path d="M498.995,157.152c0.998-7.393-13.151-5.812-9.904,1.086C490.915,162.345,498.287,161.784,498.995,157.152z"/>
	<path d="M484.264,160.472c-1.885,0.635-3.143,2.972-2.19,4.821c1.562,3.515,7.792,3.076,8.5-0.854
		C491.043,161.174,486.961,159.087,484.264,160.472z"/>
	<path d="M481.304,169.308c1.262-5.841-10.148-4.893-7.896,0.409C474.555,173.171,480.596,172.902,481.304,169.308z"/>
	<path d="M472.126,172.408c0.073-3.014-3.887-4.259-6.12-2.795c-1.605,0.866-2.032,3.228-0.83,4.595
		C467.104,176.539,471.833,175.673,472.126,172.408z"/>
	<path d="M462.113,174.885c0.128-2.606-3.234-3.838-5.26-2.673c-1.867,0.812-2.301,3.649-0.586,4.851
		C458.177,178.834,462.101,177.68,462.113,174.885z"/>
	<path d="M452.654,176.692c0.104-2.209-2.52-3.43-4.4-2.764c-1.776,0.384-2.91,2.709-1.654,4.192
		C448.163,180.304,452.465,179.591,452.654,176.692z"/>
	<path d="M443.165,177.906c0.495-2.447-2.789-3.808-4.625-2.612c-1.178,0.567-1.77,2.203-0.958,3.307
		C438.796,180.658,442.61,180.31,443.165,177.906z"/>
	<path d="M430.986,179.84c1.397,0.702,3.459-0.22,3.527-1.873c-0.116-1.8-2.581-2.66-3.924-1.586
		C429.252,177.131,429.478,179.438,430.986,179.84z"/>
	<path d="M419.037,177.046c-1.208-0.397-2.087,0.488-2.581,1.483C420.281,181.705,420.744,177.384,419.037,177.046z"/>
	<path d="M426.561,178.412c0.104-1.641-2.142-2.368-3.314-1.458c-1.214,0.611-0.958,2.514,0.213,3.033
		C424.645,180.652,426.604,179.932,426.561,178.412z"/>
	<path d="M531.178,125.982l13.553,24.44C541.868,136.09,531.178,125.982,531.178,125.982z"/>
	<path d="M1372.39,159.386c43.558-15.591,122.315-42.652,132.454-83.258c5.512-21.391-22.256-31.921-39.982-19.991
		c-2.888-8.193-6.495-17.408-18.337-23.75c-16.712-9.094-45.184-7.561-56.024,8.104c-7.261,13.038,0.833,28.577,19.71,27.466
		c19.18-0.859,19.357-14.682,15.188-18.844c-4.364-4.282-14.257-6.588-19.039,1.898c-7.882-21.5,33.865-27.701,39.561,5.413
		c2.21,28.96-24.623,54.191-27.747,56.244c0-0.415-0.006-1.251-0.006-1.666c14.338-11.005,17.907-29.649,5.803-32.867
		c-11.754-2.92-18.534,6.685-14.011,12.766c5.085,8.043,19.2-0.386,7.2-5.529c6.177-5.271,19.052,5.359-0.519,22.902
		c-8.468-7.815-25.392-0.754-33.153,9.697c4.272-13.426,0.021-23.641-10.215-30.145c-8.968-6.143-14.535-7.422-10.966-19.075
		c-14.566,22.105,26.137,37.076-0.58,73.739c-0.336,0.067-1.013,0.195-1.349,0.256c3.625-3.41,12.309-18.521,8.201-31.402
		c-5.562-17.358-30.242-22.244-40.744-6.664c-5.119,7.412-2.67,16.13,9.044,19.258c0.403-2.972,1.855-5.858,4.387-7.555
		c16.452-11.699,31.396,32.857-31.207,52.333c29.772-17.626,3.863-34.851-9.33-26.959c-9.712,5.639-6.078,18.369,3.808,16.982
		c2.795-0.397,5.187-3.009,4.967-5.895c0.104-1.66-1.123-2.898-1.995-4.162c9.916-0.667,13.937,13.236-8.47,22.56
		c-6.212,2.679-12.961,3.643-19.527,5.053c-155.725,29.611-146.832-59.323-121.849-54.523c-0.519,0.61-1.05,1.208-1.501,1.873
		c-0.878,3.124,1.446,6.145,4.064,7.573c8.334,4.357,19.129-10.089,10.16-18.606c-14.474-13.22-44.752,4.859-40.403,29.986
		c9.656,49.585,137.202,67.838,260.217,6.78c36.387-18.246,78.348-46.715,75.674-87.25c10.308-10.719,33.534-0.504,13.278,29.681
		c6.555-12.172,10.255-24.798-2.52-30.139C1503.646,107.195,1387.286,151.83,1372.39,159.386z M1407.472,120.509
		c-0.887,5.271-32.398,25.251-69.803,39.53c6.886-3.375,18.963-10.34,22.487-17.153c0.262,0.281,0.525,0.567,0.787,0.854
		c-2.148,2.056-4.162,4.302-5.84,6.761c23.143-15.726,33.472-38.979,47.719-38.09
		C1406.538,112.82,1408.729,117.122,1407.472,120.509z"/>
	<path d="M1142.549,104.356c-13.659,8.869-15.51,24.556-14.096,29.144c1.05-32.86,48.599-34.015,51.216-12.869
		c1.916,12.343-12.234,25.851-25.343,15.42c-5.075,11.759,17.285,21.394,28.906,4.613c13.626-20.319-4.375-47.118-32.976-39.628
		c5.062-5.851,2.116-15.478-7.365-13.15c-3.045,0.671-5.406,4.29-3.789,7.231c1.832,4.342,10.97,2.177,5.132-3.326
		C1149.437,90.557,1153.063,97.774,1142.549,104.356z"/>
	<path d="M1333.159,191.19c68.691-19.399,104.807-50.874,184.497-55.475l-0.007,0.007c-6.265,108.725-65.814,144.47-68.741,275.12
		c0.578,39.071,5.829,87.322,30.554,117.462c6.273,7.31,14.169,13.596,23.487,16.427l24.44-13.553
		c-59.132,9.64-68.664-83.674-65.318-142.938c7.947-107.852,66.578-149.626,68.517-265.456l-0.054,0.054
		c-133.446,3.1-217.996,102.531-358.608,60.28c-59.204-17.906-50.973-47.281-49.724-57.135l-13.562,24.5
		C1126.605,203.618,1240.602,217.36,1333.159,191.19z"/>
	<path d="M1164.719,157.189c0.604-3.918-4.381-5.998-7.5-4.522c-2.251,0.866-3.576,3.741-2.27,5.901
		C1157.036,162.321,1164.042,161.638,1164.719,157.189z"/>
	<path d="M1171.724,164.518c1.187-6.386-11.021-5.451-8.665,0.574C1164.475,168.777,1170.919,168.472,1171.724,164.518z"/>
	<path d="M1172.377,169.882c1.3,3.24,6.902,2.959,7.774-0.452C1181.588,163.489,1169.952,164.265,1172.377,169.882z"/>
	<path d="M1182.092,174.111c1.837,2.465,6.749,1.599,7.005-1.684c0.073-3.069-4.027-4.338-6.273-2.734
		C1181.403,170.626,1180.988,172.78,1182.092,174.111z"/>
	<path d="M1198.422,174.843c-0.077-5.322-9.944-2.899-6.597,1.617C1193.509,178.962,1198.33,178.083,1198.422,174.843z"/>
	<path d="M1207.294,176.716c0.611-4.689-8.56-3.208-6.2,1.007C1202.309,180.359,1207.191,179.773,1207.294,176.716z"/>
	<path d="M1216.191,177.985c1.097-4.799-8.063-3.382-5.584,0.47C1211.718,180.615,1215.526,180.402,1216.191,177.985z"/>
	<path d="M1223.783,177.955c-0.061-1.8-2.435-2.624-3.796-1.641c-1.08,0.537-1.397,2.227-0.427,3.014
		C1220.798,180.762,1223.844,180.03,1223.783,177.955z"/>
	<path d="M1230.94,178.51c0.25-1.605-1.867-2.423-3.088-1.69c-1.062,0.372-1.269,2.002-0.519,2.752
		C1228.322,180.799,1230.989,180.274,1230.94,178.51z"/>
	<path d="M1235.627,179.694c1.922-0.513,0.879-3.344-0.94-2.709C1232.466,177.259,1233.662,180.591,1235.627,179.694z"/>
	<path d="M1122.202,125.983c0,0-13.429,12.79-13.562,24.5L1122.202,125.983z"/>
	<path d="M1485.224,503.596c29.319,42.956,69.068,7.203,57.892-17.037c-4.695-10.347-19.421-8.106-21.535,2.038
		c-1.08,4.259,2.642,8.854,6.956,8.964c1.324,0.122,2.166-1.007,3.088-1.727c2.627,28.299-89.255,29.211-52.064-133.736
		c6.097-24.292,24.614-31.673,25.074-15.982c-8.809-7.871-14.293,7.038-5.809,11.46c8.595,4.144,17.454-6.88,14.206-16.873
		c-3.648-12.362-14.315-13.953-21.297-6.944c-3.014,2.636-4.931,6.181-7.097,9.483c7.776-22.915,22.502-49.326,46.34-44.65
		c12.88,2.245,8.358,17.157-1.629,18.02c3.678,11.276,10.589,13.495,17.153,10.307c21.808-10.487,11.21-48.939-18.624-42.319
		c-16.31,3.724-27.012,15.441-33.995,30.401c0.675-2.983,13.911-38.699,35.857-67.094c3.506-4.432,18.347-3.102,6.92,14.236
		c-4.442,6.968-15.047,13.637-22.114,22.377c-4.021,3.96-7.5,8.409-11.063,12.778c0.152,0.58,1.037,1.184,1.232-0.03
		c38.959-37.628,56.797,9.123,79.469-5.925c-10.61,2.543-11.725-0.537-17.837-9.885c-7.368-12.01-17.862-15.677-30.639-11.582
		c13.166-10.818,15.665-26.624,9.385-32.927c16.821-19.732,28.266-6.803,22.877-0.445c-0.409-2.923-3.277-5.724-6.322-4.32
		c-3.655,2.471-3.051,8.512,0.384,10.959c3.686,3.356,9.952,1.495,12.052-2.776c8.42-16.729-12.757-28.372-31.853-4.974
		c-0.384,0.006-1.147,0.012-1.532,0.018c11.446-14.842,45.877-38.08,68.973-22.767c17.258,11.608,12.118,40.427-7.433,34.514
		c15.165-9.028-1.966-31.447-13.071-16.677c-8.008,10.433-4.135,37.399,15.719,35.027c28.004-3.518,32.647-66.834-7.662-76.802
		c17.379-27.194-11.007-66.472-51.375-17.422c-20.039,24.457-38.989,73.737-51.808,109.742c2.612-4.949,52.713-133.1,97.581-104.165
		c-3.302-8.428-12.556-13.567-31.237-1.654c27.229-20.801,42.973-1.359,31.011,12.436
		C1504.843,180.923,1426.961,417.242,1485.224,503.596z"/>
	<path d="M1553.354,505.848c5.301-3.602,8.933-0.845,8.208,3.344c-8.083-6.708-6.992,8.633,0.482,5.382
		c8.014-3.324,2.83-20.111-9.654-11.509c1.752-6.944,1.581-14.475-1.049-21.175c-10.895-27.409-51.184-15.988-47.469,7.103
		c1.353,7.41,6.087,12.358,13.461,10.374c-14.74-22.366,22.814-39.236,28.985-10.416c3.54,15.823-5.66,34.362-27.045,36.326
		C1541.669,527.381,1549.318,508.883,1553.354,505.848z"/>
	<path d="M1560.505,129.597c3.492,12.911-4.566,12.761-16.561,20.766c8.942-14.182,11.523-32.569,8.126-49.062l-0.016,0.016
		c-16.893-3.489-35.355-0.646-49.071,8.153c9.01-14.055,7.838-18.892,20.327-16.891c-14.711-13.773-26.942,17.415-82.039,40.72
		c48.662-11.431,64.078-29.147,104.923-26.121l0.005-0.005c1.387,18.857-2.004,37.758-8.955,51.739
		c-4.77,12.332-17.063,53.314-17.141,53.681C1540.329,159.085,1575.55,145.944,1560.505,129.597z"/>
	<path d="M1496.219,498.995c7.394,0.998,5.811-13.151-1.086-9.904C1491.026,490.915,1491.587,498.287,1496.219,498.995z"/>
	<path d="M1488.933,490.574c3.265,0.47,5.352-3.613,3.967-6.31c-0.635-1.885-2.972-3.143-4.821-2.19
		C1484.563,483.636,1485.003,489.866,1488.933,490.574z"/>
	<path d="M1484.063,481.304c5.842,1.262,4.893-10.148-0.409-7.896C1480.201,474.555,1480.469,480.596,1484.063,481.304z"/>
	<path d="M1480.963,472.126c3.014,0.073,4.259-3.887,2.795-6.12c-0.866-1.605-3.228-2.032-4.595-0.83
		C1476.832,467.104,1477.698,471.833,1480.963,472.126z"/>
	<path d="M1478.486,462.113c2.606,0.128,3.838-3.234,2.673-5.26c-0.812-1.867-3.649-2.301-4.851-0.586
		C1474.537,458.177,1475.691,462.101,1478.486,462.113z"/>
	<path d="M1476.679,452.654c2.209,0.104,3.429-2.52,2.764-4.4c-0.384-1.776-2.709-2.91-4.192-1.654
		C1473.067,448.163,1473.781,452.465,1476.679,452.654z"/>
	<path d="M1475.465,443.165c2.447,0.495,3.808-2.789,2.612-4.625c-0.567-1.178-2.203-1.77-3.307-0.958
		C1472.713,438.796,1473.061,442.61,1475.465,443.165z"/>
	<path d="M1475.404,434.512c1.8-0.116,2.661-2.581,1.587-3.924c-0.751-1.336-3.057-1.111-3.46,0.397
		C1472.829,432.383,1473.751,434.445,1475.404,434.512z"/>
	<path d="M1476.325,419.037c0.397-1.208-0.488-2.087-1.483-2.581C1471.666,420.281,1475.987,420.744,1476.325,419.037z"/>
	<path d="M1474.959,426.561c1.641,0.104,2.368-2.142,1.458-3.314c-0.611-1.214-2.514-0.958-3.033,0.213
		C1472.719,424.645,1473.439,426.604,1474.959,426.561z"/>
	<path d="M1527.389,531.178l-24.44,13.553C1517.282,541.868,1527.389,531.178,1527.389,531.178z"/>
	<path d="M1591.7,1476.634c-45.525,27.009-90.159-89.348-97.714-104.244c15.591,43.558,42.652,122.315,83.258,132.454
		c21.391,5.512,31.921-22.256,19.991-39.982c8.193-2.888,17.408-6.495,23.75-18.337c9.094-16.712,7.561-45.184-8.104-56.024
		c-13.038-7.261-28.577,0.833-27.466,19.711c0.859,19.18,14.682,19.357,18.844,15.188c4.282-4.364,6.588-14.257-1.898-19.039
		c21.501-7.882,27.701,33.865-5.413,39.561c-28.96,2.21-54.191-24.623-56.244-27.747c0.415,0,1.251-0.006,1.666-0.006
		c11.005,14.338,29.649,17.907,32.867,5.803c2.92-11.754-6.685-18.534-12.766-14.011c-8.043,5.085,0.386,19.2,5.529,7.201
		c5.271,6.177-5.359,19.052-22.902-0.519c7.816-8.468,0.754-25.392-9.697-33.153c13.426,4.272,23.641,0.021,30.145-10.215
		c6.143-8.968,7.422-14.535,19.075-10.966c-22.105-14.566-37.076,26.137-73.739-0.58c-0.067-0.336-0.195-1.013-0.256-1.349
		c3.41,3.625,18.52,12.309,31.402,8.201c17.358-5.562,22.244-30.242,6.663-40.744c-7.412-5.119-16.13-2.67-19.258,9.043
		c2.972,0.403,5.858,1.855,7.554,4.388c11.699,16.452-32.857,31.396-52.333-31.207c17.626,29.771,34.851,3.863,26.959-9.33
		c-5.639-9.712-18.369-6.078-16.982,3.808c0.397,2.795,3.009,5.187,5.895,4.967c1.66,0.104,2.898-1.123,4.162-1.995
		c0.666,9.916-13.236,13.937-22.56-8.47c-2.679-6.212-3.643-12.961-5.053-19.527c-29.61-155.725,59.323-146.832,54.523-121.849
		c-0.61-0.519-1.208-1.05-1.873-1.501c-3.124-0.879-6.145,1.446-7.573,4.064c-4.357,8.334,10.089,19.129,18.606,10.16
		c13.22-14.474-4.859-44.752-29.986-40.403c-49.585,9.656-67.838,137.202-6.78,260.217c18.246,36.387,46.715,78.348,87.25,75.674
		c10.719,10.308,0.504,33.534-29.681,13.278C1573.78,1485.734,1586.37,1489.384,1591.7,1476.634z M1532.862,1407.472
		c-5.271-0.887-25.251-32.398-39.53-69.803c3.375,6.886,10.34,18.963,17.153,22.487c-0.281,0.262-0.568,0.525-0.854,0.787
		c-2.056-2.148-4.302-4.162-6.761-5.84c15.726,23.143,38.979,33.472,38.09,47.719
		C1540.551,1406.538,1536.249,1408.729,1532.862,1407.472z"/>
	<path d="M1519.871,1128.453c32.86,1.049,34.015,48.599,12.869,51.216c-12.343,1.916-25.851-12.234-15.42-25.343
		c-11.759-5.075-21.394,17.285-4.613,28.906c20.318,13.625,47.117-4.376,39.628-32.977c5.851,5.062,15.478,2.116,13.15-7.365
		c-0.671-3.045-4.29-5.406-7.231-3.789c-4.342,1.832-2.177,10.97,3.326,5.132c1.234,5.204-5.983,8.83-12.564-1.684
		C1540.147,1128.891,1524.459,1127.04,1519.871,1128.453z"/>
	<path d="M1496.182,1164.719c3.918,0.604,5.998-4.381,4.522-7.5c-0.866-2.251-3.741-3.576-5.901-2.27
		C1491.05,1157.036,1491.733,1164.042,1496.182,1164.719z"/>
	<path d="M1488.28,1163.059c-3.686,1.415-3.381,7.859,0.573,8.665C1495.239,1172.911,1494.303,1160.704,1488.28,1163.059z"/>
	<path d="M1483.49,1172.378c-3.24,1.3-2.96,6.901,0.452,7.774C1489.883,1181.588,1489.106,1169.952,1483.49,1172.378z"/>
	<path d="M1483.678,1182.824c-0.933-1.422-3.088-1.837-4.418-0.732c-2.465,1.837-1.599,6.749,1.684,7.005
		C1484.014,1189.171,1485.283,1185.07,1483.678,1182.824z"/>
	<path d="M1476.911,1191.825c-2.502,1.684-1.623,6.505,1.617,6.596C1483.85,1198.345,1481.427,1188.477,1476.911,1191.825z"/>
	<path d="M1475.648,1201.094c-2.636,1.214-2.05,6.096,1.007,6.2C1481.344,1207.905,1479.863,1198.734,1475.648,1201.094z"/>
	<path d="M1474.916,1210.608c-2.16,1.111-1.947,4.919,0.47,5.584C1480.188,1217.289,1478.767,1208.129,1474.916,1210.608z"/>
	<path d="M1477.058,1219.987c-0.537-1.08-2.227-1.397-3.014-0.427c-1.434,1.239-0.702,4.284,1.373,4.223
		C1477.216,1223.721,1478.04,1221.348,1477.058,1219.987z"/>
	<path d="M1476.551,1227.853c-0.372-1.062-2.002-1.269-2.752-0.519c-1.226,0.988-0.702,3.655,1.062,3.606
		C1476.466,1231.191,1477.283,1229.073,1476.551,1227.853z"/>
	<path d="M1473.677,1235.627c0.513,1.922,3.344,0.879,2.709-0.94C1476.112,1232.466,1472.78,1233.662,1473.677,1235.627z"/>
	<path d="M1502.889,1108.64l24.5,13.562C1527.388,1122.202,1514.598,1108.773,1502.889,1108.64z"/>
	<path d="M1422.892,1589.168c-10.433-8.008-37.399-4.135-35.027,15.719c3.519,28.004,66.834,32.647,76.802-7.662
		c27.194,17.379,66.472-11.007,17.422-51.375c-24.457-20.039-73.737-38.989-109.742-51.808
		c4.949,2.612,133.099,52.713,104.165,97.58c8.428-3.302,13.567-12.556,1.654-31.237c20.801,27.229,1.359,42.973-12.436,31.011
		c6.719-86.554-229.601-164.435-315.954-106.172c-42.956,29.319-7.203,69.068,17.037,57.892c10.347-4.695,8.107-19.421-2.038-21.535
		c-4.259-1.08-8.854,2.642-8.964,6.956c-0.122,1.324,1.007,2.166,1.727,3.088c-28.299,2.628-29.211-89.254,133.736-52.064
		c24.292,6.097,31.673,24.614,15.982,25.074c7.871-8.809-7.037-14.292-11.46-5.809c-4.144,8.595,6.88,17.454,16.873,14.206
		c12.362-3.647,13.953-14.314,6.944-21.297c-2.636-3.014-6.182-4.931-9.483-7.097c22.915,7.776,49.326,22.502,44.65,46.34
		c-2.245,12.88-17.157,8.358-18.02-1.629c-11.276,3.678-13.495,10.589-10.307,17.153c10.487,21.808,48.939,11.21,42.319-18.624
		c-3.724-16.31-15.441-27.012-30.401-33.996c2.983,0.675,38.699,13.911,67.094,35.857c4.432,3.506,3.102,18.347-14.236,6.92
		c-6.968-4.442-13.637-15.047-22.377-22.114c-3.96-4.021-8.409-7.5-12.778-11.063c-0.58,0.152-1.184,1.037,0.03,1.232
		c37.628,38.959-9.123,56.797,5.925,79.469c-2.543-10.61,0.537-11.725,9.885-17.837c12.01-7.368,15.677-17.862,11.582-30.639
		c10.818,13.166,26.624,15.665,32.927,9.385c19.733,16.821,6.803,28.267,0.446,22.877c2.923-0.409,5.724-3.277,4.32-6.322
		c-2.471-3.655-8.512-3.051-10.959,0.385c-3.356,3.686-1.495,9.952,2.776,12.052c16.729,8.42,28.372-12.757,4.974-31.853
		c-0.006-0.384-0.012-1.147-0.018-1.531c14.842,11.446,38.08,45.877,22.767,68.973c-11.608,17.258-40.427,12.118-34.514-7.433
		C1415.242,1617.403,1437.662,1600.273,1422.892,1589.168z"/>
	<path d="M1171.481,1551.34c27.409-10.895,15.988-51.184-7.103-47.469c-7.41,1.353-12.358,6.087-10.374,13.461
		c22.365-14.74,39.236,22.814,10.416,28.986c-15.823,3.54-34.362-5.66-36.326-27.045c-2.104,22.396,16.396,30.047,19.43,34.081
		c3.602,5.301,0.845,8.933-3.344,8.208c6.669-8.035-8.669-7.072-5.382,0.482c3.324,8.014,20.11,2.83,11.509-9.654
		C1157.251,1554.141,1164.781,1553.97,1171.481,1551.34z"/>
	<path d="M1440.778,1520.103c53.508,20.226,66.649,55.448,82.996,40.403c-12.911,3.492-12.761-4.566-20.766-16.562
		c14.182,8.942,32.569,11.523,49.062,8.126l-0.016-0.016c3.489-16.893,0.646-35.355-8.153-49.071
		c14.056,9.01,18.892,7.838,16.891,20.327c13.774-14.71-17.415-26.942-40.72-82.038c11.515,49.054,29.153,63.992,26.121,104.922
		l0.005,0.005C1504.218,1549.287,1486.959,1529.969,1440.778,1520.103z"/>
	<path d="M1122.193,1527.389c-9.64-59.131,83.674-68.664,142.938-65.318c107.852,7.947,149.626,66.578,265.456,68.518l-0.054-0.054
		c-3.099-133.446-102.531-217.996-60.28-358.608c17.906-59.204,47.281-50.973,57.135-49.724l-24.5-13.562
		c-53.136,17.964-66.877,131.961-40.708,224.519c19.4,68.692,50.874,104.807,55.475,184.497l-0.007-0.007
		c-108.725-6.265-144.47-65.814-275.12-68.741c-46.132,0.683-120.697,10.625-133.889,54.041L1122.193,1527.389z"/>
	<path d="M1154.377,1496.219c-0.998,7.393,13.151,5.812,9.904-1.086C1162.456,1491.026,1155.085,1491.587,1154.377,1496.219z"/>
	<path d="M1169.108,1492.899c1.885-0.635,3.142-2.972,2.19-4.821c-1.562-3.515-7.792-3.075-8.5,0.854
		C1162.328,1492.197,1166.41,1494.284,1169.108,1492.899z"/>
	<path d="M1179.963,1483.654c-1.147-3.454-7.188-3.185-7.896,0.409C1170.805,1489.905,1182.215,1488.956,1179.963,1483.654z"/>
	<path d="M1188.195,1479.163c-1.928-2.331-6.658-1.464-6.951,1.8c-0.073,3.015,3.887,4.259,6.12,2.795
		C1188.97,1482.891,1189.397,1480.53,1188.195,1479.163z"/>
	<path d="M1191.258,1478.486c-0.128,2.606,3.234,3.838,5.26,2.673c1.867-0.812,2.301-3.649,0.586-4.851
		C1195.194,1474.537,1191.271,1475.691,1191.258,1478.486z"/>
	<path d="M1200.717,1476.679c-0.104,2.209,2.52,3.429,4.4,2.764c1.776-0.385,2.91-2.71,1.654-4.192
		C1205.208,1473.067,1200.906,1473.78,1200.717,1476.679z"/>
	<path d="M1210.206,1475.465c-0.494,2.447,2.789,3.808,4.626,2.612c1.178-0.567,1.77-2.203,0.958-3.307
		C1214.575,1472.713,1210.761,1473.061,1210.206,1475.465z"/>
	<path d="M1222.386,1473.531c-1.397-0.702-3.459,0.22-3.527,1.873c0.116,1.8,2.581,2.661,3.924,1.587
		C1224.119,1476.24,1223.893,1473.933,1222.386,1473.531z"/>
	<path d="M1234.334,1476.325c1.208,0.397,2.087-0.488,2.581-1.483C1233.089,1471.665,1232.628,1475.987,1234.334,1476.325z"/>
	<path d="M1226.81,1474.959c-0.104,1.641,2.142,2.368,3.313,1.458c1.214-0.61,0.958-2.514-0.213-3.033
		C1228.726,1472.719,1226.768,1473.439,1226.81,1474.959z"/>
	<path d="M1122.193,1527.389l-13.553-24.44C1111.503,1517.282,1122.193,1527.389,1122.193,1527.389z"/>
	<path d="M280.981,1493.985c-43.558,15.591-122.315,42.652-132.455,83.259c-5.512,21.391,22.256,31.921,39.982,19.991
		c2.888,8.193,6.494,17.408,18.337,23.75c16.712,9.094,45.184,7.561,56.024-8.104c7.261-13.038-0.833-28.577-19.711-27.466
		c-19.18,0.859-19.357,14.682-15.188,18.844c4.364,4.282,14.258,6.588,19.039-1.898c7.882,21.5-33.865,27.701-39.561-5.413
		c-2.21-28.96,24.623-54.191,27.747-56.244c0,0.415,0.006,1.251,0.006,1.666c-14.338,11.005-17.907,29.649-5.803,32.867
		c11.755,2.92,18.534-6.685,14.011-12.766c-5.085-8.043-19.2,0.386-7.201,5.529c-6.177,5.271-19.052-5.359,0.519-22.902
		c8.468,7.815,25.392,0.755,33.153-9.697c-4.273,13.426-0.021,23.641,10.215,30.145c8.968,6.143,14.535,7.422,10.966,19.076
		c14.567-22.105-26.137-37.076,0.58-73.739c0.336-0.067,1.013-0.195,1.349-0.256c-3.625,3.41-12.309,18.521-8.201,31.402
		c5.562,17.358,30.242,22.244,40.744,6.664c5.119-7.412,2.67-16.13-9.044-19.259c-0.403,2.972-1.855,5.858-4.387,7.555
		c-16.452,11.699-31.396-32.857,31.207-52.333c-29.771,17.626-3.863,34.851,9.33,26.959c9.712-5.639,6.078-18.369-3.808-16.982
		c-2.795,0.397-5.187,3.009-4.967,5.895c-0.104,1.66,1.123,2.898,1.995,4.162c-9.916,0.666-13.937-13.236,8.47-22.56
		c6.212-2.679,12.961-3.643,19.527-5.053c155.725-29.611,146.832,59.323,121.849,54.523c0.519-0.61,1.049-1.208,1.501-1.873
		c0.878-3.124-1.446-6.145-4.064-7.573c-8.334-4.357-19.129,10.089-10.16,18.606c14.474,13.22,44.752-4.859,40.403-29.986
		c-9.656-49.585-137.202-67.838-260.217-6.78c-36.387,18.246-78.348,46.715-75.674,87.25c-10.308,10.719-33.534,0.504-13.278-29.681
		c-6.58,12.219-10.23,24.809,2.52,30.139C149.727,1546.176,266.085,1501.541,280.981,1493.985z M245.9,1532.862
		c0.887-5.271,32.398-25.251,69.803-39.53c-6.886,3.375-18.963,10.34-22.487,17.153c-0.262-0.281-0.525-0.567-0.787-0.854
		c2.148-2.056,4.162-4.302,5.84-6.761c-23.143,15.726-33.472,38.979-47.719,38.09C246.833,1540.551,244.643,1536.249,245.9,1532.862
		z"/>
	<path d="M510.822,1549.016c13.659-8.869,15.51-24.556,14.096-29.144c-1.049,32.861-48.599,34.015-51.216,12.87
		c-1.916-12.343,12.234-25.851,25.343-15.42c5.075-11.759-17.286-21.395-28.906-4.613c-13.626,20.318,4.376,47.118,32.976,39.628
		c-5.062,5.851-2.116,15.478,7.365,13.15c3.045-0.671,5.406-4.29,3.789-7.231c-1.832-4.342-10.97-2.177-5.132,3.326
		C503.934,1562.814,500.308,1555.597,510.822,1549.016z"/>
	<path d="M320.212,1462.181c-53.01,14.971-90.99,39.229-140.497,49.635c-13.63,3.035-28.661,4.954-43.999,5.84l0.007-0.007
		c6.264-108.725,65.814-144.47,68.741-275.12c-0.683-46.132-10.625-120.697-54.041-133.889l-24.44,13.553
		c59.131-9.64,68.664,83.674,65.318,142.938c-7.947,107.852-66.578,149.626-68.517,265.456l0.054-0.054
		c133.446-3.099,217.996-102.531,358.608-60.28c59.204,17.906,50.973,47.281,49.723,57.135l13.562-24.5
		C526.766,1449.753,412.77,1436.011,320.212,1462.181z"/>
	<path d="M488.652,1496.182c-0.604,3.918,4.381,5.999,7.5,4.522c2.252-0.866,3.576-3.741,2.27-5.901
		C496.335,1491.05,489.329,1491.733,488.652,1496.182z"/>
	<path d="M481.647,1488.853c-1.187,6.386,11.021,5.449,8.665-0.573C488.896,1484.594,482.452,1484.899,481.647,1488.853z"/>
	<path d="M480.994,1483.49c-1.3-3.24-6.901-2.96-7.774,0.452C471.784,1489.882,483.419,1489.106,480.994,1483.49z"/>
	<path d="M471.279,1479.261c-1.837-2.465-6.749-1.599-7.005,1.684c-0.073,3.069,4.027,4.339,6.273,2.734
		C471.969,1482.745,472.384,1480.591,471.279,1479.261z"/>
	<path d="M454.95,1478.528c0.077,5.322,9.945,2.899,6.597-1.617C459.862,1474.409,455.041,1475.288,454.95,1478.528z"/>
	<path d="M446.077,1476.655c-0.611,4.689,8.56,3.208,6.2-1.007C451.062,1473.012,446.18,1473.598,446.077,1476.655z"/>
	<path d="M437.18,1475.386c-1.097,4.799,8.063,3.382,5.584-0.47C441.653,1472.756,437.845,1472.969,437.18,1475.386z"/>
	<path d="M429.589,1475.416c0.061,1.8,2.435,2.624,3.796,1.641c1.08-0.537,1.398-2.227,0.427-3.014
		C432.573,1472.609,429.528,1473.342,429.589,1475.416z"/>
	<path d="M422.431,1474.861c-0.25,1.605,1.867,2.422,3.088,1.69c1.062-0.372,1.269-2.002,0.519-2.752
		C425.049,1472.573,422.382,1473.097,422.431,1474.861z"/>
	<path d="M417.745,1473.677c-1.922,0.513-0.879,3.344,0.94,2.709C420.905,1476.112,419.709,1472.78,417.745,1473.677z"/>
	<path d="M531.169,1527.388c0,0,13.429-12.79,13.562-24.5L531.169,1527.388z"/>
	<path d="M168.147,1149.776c-29.319-42.956-69.068-7.203-57.892,17.037c4.695,10.348,19.421,8.107,21.534-2.038
		c1.08-4.259-2.642-8.854-6.956-8.964c-1.324-0.122-2.166,1.007-3.088,1.727c-2.628-28.299,89.255-29.211,52.064,133.736
		c-6.097,24.292-24.614,31.672-25.074,15.981c8.809,7.871,14.293-7.037,5.809-11.46c-8.595-4.144-17.454,6.88-14.206,16.873
		c3.648,12.362,14.315,13.953,21.297,6.944c3.014-2.636,4.931-6.181,7.097-9.483c-7.776,22.915-22.502,49.326-46.34,44.65
		c-12.88-2.245-8.358-17.157,1.629-18.02c-3.678-11.276-10.589-13.495-17.153-10.307c-21.808,10.487-11.21,48.939,18.624,42.319
		c16.31-3.724,27.012-15.441,33.996-30.401c-0.675,2.983-13.911,38.699-35.857,67.094c-3.506,4.432-18.347,3.102-6.92-14.236
		c4.442-6.968,15.047-13.637,22.114-22.377c4.021-3.96,7.5-8.409,11.063-12.778c-0.152-0.58-1.037-1.184-1.232,0.03
		c-38.959,37.628-56.797-9.123-79.469,5.925c10.61-2.543,11.726,0.537,17.837,9.885c7.368,12.01,17.862,15.677,30.639,11.582
		c-13.166,10.818-15.665,26.624-9.385,32.927c-16.821,19.733-28.267,6.803-22.877,0.446c0.409,2.923,3.277,5.724,6.322,4.32
		c3.655-2.471,3.051-8.512-0.384-10.959c-3.686-3.356-9.952-1.495-12.052,2.776c-8.42,16.729,12.757,28.372,31.853,4.974
		c0.384-0.006,1.147-0.012,1.532-0.018c-11.446,14.842-45.877,38.079-68.973,22.767c-17.258-11.608-12.118-40.427,7.433-34.514
		c-15.17,9.03,1.971,31.441,13.071,16.677c8.008-10.433,4.135-37.399-15.719-35.027c-28.004,3.519-32.647,66.834,7.662,76.802
		c-17.379,27.194,11.007,66.472,51.375,17.422c20.039-24.457,38.989-73.737,51.808-109.742
		c-2.612,4.949-52.713,133.1-97.581,104.165c3.302,8.428,12.556,13.567,31.237,1.654c-27.229,20.801-42.973,1.359-31.012-12.436
		C148.528,1472.449,226.41,1236.129,168.147,1149.776z"/>
	<path d="M100.018,1147.524c-5.301,3.602-8.933,0.845-8.207-3.344c8.082,6.708,6.991-8.633-0.482-5.382
		c-8.014,3.324-2.83,20.111,9.654,11.509c-1.752,6.944-1.581,14.475,1.049,21.175c10.895,27.409,51.184,15.988,47.469-7.103
		c-1.353-7.41-6.087-12.358-13.461-10.374c14.741,22.365-22.814,39.236-28.985,10.416c-3.54-15.823,5.66-34.362,27.045-36.326
		C111.703,1125.99,104.058,1144.485,100.018,1147.524z"/>
	<path d="M92.866,1523.774c-3.492-12.911,4.566-12.761,16.561-20.766c-8.942,14.182-11.523,32.569-8.126,49.062l0.016-0.016
		c16.893,3.489,35.355,0.646,49.071-8.153c-9.01,14.055-7.838,18.892-20.327,16.891c14.71,13.773,26.942-17.415,82.038-40.72
		c-48.794,11.472-64.075,29.147-104.922,26.121l-0.005,0.005c-1.387-18.857,2.004-37.758,8.955-51.74
		c4.77-12.332,17.063-53.314,17.141-53.681C113.043,1494.286,77.821,1507.427,92.866,1523.774z"/>
	<path d="M157.152,1154.377c-7.393-0.998-5.812,13.151,1.086,9.904C162.346,1162.456,161.784,1155.085,157.152,1154.377z"/>
	<path d="M164.439,1162.797c-3.265-0.469-5.352,3.613-3.966,6.31c0.635,1.885,2.972,3.142,4.821,2.19
		C168.808,1169.735,168.368,1163.505,164.439,1162.797z"/>
	<path d="M169.308,1172.067c-5.841-1.262-4.892,10.148,0.409,7.896C173.171,1178.816,172.902,1172.775,169.308,1172.067z"/>
	<path d="M172.408,1181.245c-3.014-0.073-4.259,3.887-2.795,6.12c0.866,1.605,3.228,2.032,4.595,0.83
		C176.539,1186.267,175.673,1181.538,172.408,1181.245z"/>
	<path d="M174.886,1191.258c-2.606-0.128-3.838,3.234-2.673,5.26c0.812,1.867,3.649,2.301,4.851,0.586
		C178.834,1195.194,177.68,1191.271,174.886,1191.258z"/>
	<path d="M176.692,1200.717c-2.209-0.104-3.429,2.52-2.764,4.4c0.384,1.776,2.709,2.91,4.192,1.653
		C180.305,1205.208,179.591,1200.906,176.692,1200.717z"/>
	<path d="M177.906,1210.206c-2.447-0.495-3.808,2.788-2.612,4.625c0.567,1.178,2.203,1.77,3.307,0.958
		C180.658,1214.575,180.31,1210.761,177.906,1210.206z"/>
	<path d="M177.967,1218.859c-1.8,0.116-2.66,2.581-1.586,3.924c0.751,1.336,3.057,1.111,3.46-0.397
		C180.542,1220.988,179.621,1218.926,177.967,1218.859z"/>
	<path d="M177.046,1234.334c-0.397,1.208,0.488,2.087,1.483,2.581C181.705,1233.09,177.384,1232.627,177.046,1234.334z"/>
	<path d="M178.412,1226.81c-1.641-0.104-2.368,2.142-1.458,3.314c0.611,1.214,2.514,0.958,3.033-0.214
		C180.652,1228.726,179.932,1226.768,178.412,1226.81z"/>
	<path d="M125.982,1122.193l24.44-13.553C136.09,1111.503,125.982,1122.193,125.982,1122.193z"/>
</g>
</svg>
