<?xml version="1.0" encoding="utf-8"?>

<!DOCTYPE svg PUBLIC "-//W3C//DTD SVG 1.1//EN" "http://www.w3.org/Graphics/SVG/1.1/DTD/svg11.dtd">
<svg version="1.1" id="Layer_1" xmlns="http://www.w3.org/2000/svg" xmlns:xlink="http://www.w3.org/1999/xlink" x="0px" y="0px"
	 viewBox="0 0 1656.166 1656.166" enable-background="new 0 0 1656.166 1656.166" xml:space="preserve">
<g>
	<path d="M1582.243,73.922c11.958-9.602,13.521-4.386,24.447-3.109c2.741,0.683,5.431-0.373,8.104-0.883
		c3.123-0.68,6.361-0.787,9.432-1.735c-4.453-5.66-11.682-7.652-18.327-9.442c10.654-5.833,20.1-15.63,22.185-27.957
		c-0.834-0.132-1.665-0.204-2.49-0.224c-0.02-0.826-0.093-1.656-0.224-2.49c-12.326,2.084-22.124,11.531-27.957,22.185
		c-1.79-6.646-3.782-13.875-9.442-18.327c-0.948,3.071-1.055,6.309-1.735,9.432c-0.51,2.672-1.566,5.363-0.883,8.104
		C1586.629,60.401,1591.845,61.965,1582.243,73.922z"/>
	<path d="M1582.243,1582.243c9.602,11.958,4.386,13.521,3.109,24.447c-0.683,2.741,0.373,5.431,0.883,8.104
		c0.68,3.123,0.787,6.361,1.735,9.432c5.66-4.453,7.652-11.682,9.442-18.327c5.833,10.654,15.63,20.1,27.957,22.185
		c0.132-0.834,0.204-1.665,0.224-2.49c0.826-0.02,1.656-0.093,2.49-0.224c-2.084-12.326-11.531-22.124-22.185-27.957
		c6.646-1.79,13.875-3.782,18.327-9.442c-3.071-0.948-6.309-1.055-9.432-1.735c-2.672-0.51-5.363-1.566-8.104-0.883
		C1595.764,1586.629,1594.201,1591.845,1582.243,1582.243z"/>
	<path d="M73.922,1582.243c-11.958,9.602-13.521,4.386-24.447,3.109c-2.741-0.683-5.431,0.373-8.104,0.883
		c-3.123,0.68-6.361,0.787-9.432,1.735c4.453,5.66,11.682,7.652,18.327,9.442c-10.654,5.833-20.1,15.63-22.185,27.957
		c0.834,0.132,1.665,0.204,2.49,0.224c0.02,0.826,0.092,1.656,0.224,2.49c12.326-2.084,22.124-11.531,27.957-22.185
		c1.79,6.646,3.782,13.875,9.442,18.327c0.948-3.071,1.055-6.309,1.735-9.432c0.51-2.672,1.566-5.363,0.883-8.104
		C69.536,1595.764,64.321,1594.201,73.922,1582.243z"/>
	<path d="M73.922,73.922c-9.602-11.958-4.386-13.521-3.109-24.447c0.683-2.741-0.373-5.431-0.883-8.104
		c-0.68-3.123-0.787-6.361-1.735-9.432c-5.66,4.453-7.652,11.682-9.442,18.327c-5.833-10.654-15.63-20.1-27.957-22.185
		c-0.132,0.834-0.204,1.665-0.224,2.49c-0.826,0.02-1.656,0.092-2.49,0.224c2.084,12.326,11.531,22.124,22.185,27.957
		c-6.646,1.79-13.875,3.782-18.327,9.442c3.071,0.948,6.309,1.055,9.432,1.735c2.672,0.51,5.363,1.566,8.104,0.883
		C60.401,69.536,61.965,64.321,73.922,73.922z"/>
	<path d="M1544.116,112.05c5.741-1.937,11.669-3.302,17.684-3.997c5.013-0.748,9.982,0.468,14.978,0.695
		c-2.71-6.874-9.888-10.475-16.714-12.011c9.322-7.455,13.192-7.562,14.204-10.883c0.931-2.597,1.987-5.244,3.564-7.52
		c-2.277,1.577-4.923,2.633-7.52,3.564c-3.321,1.012-3.428,4.882-10.883,14.204c-1.536-6.826-5.137-14.004-12.011-16.713
		c0.227,4.996,1.442,9.965,0.695,14.978C1547.418,100.381,1546.052,106.309,1544.116,112.05z"/>
	<path d="M1544.116,1544.116c1.937,5.741,3.302,11.669,3.997,17.684c0.748,5.013-0.468,9.982-0.695,14.978
		c6.874-2.71,10.475-9.888,12.011-16.714c7.455,9.322,7.562,13.192,10.883,14.204c2.597,0.931,5.244,1.987,7.52,3.564
		c-1.577-2.277-2.633-4.923-3.564-7.52c-1.012-3.321-4.882-3.428-14.204-10.883c6.826-1.536,14.004-5.137,16.714-12.011
		c-4.996,0.227-9.965,1.442-14.978,0.695C1555.784,1547.418,1549.857,1546.052,1544.116,1544.116z"/>
	<path d="M112.05,1544.116c-5.741,1.937-11.669,3.302-17.684,3.997c-5.013,0.748-9.982-0.468-14.978-0.695
		c2.71,6.874,9.888,10.475,16.713,12.011c-9.322,7.455-13.192,7.562-14.204,10.883c-0.931,2.597-1.987,5.244-3.564,7.52
		c2.277-1.577,4.923-2.633,7.52-3.564c3.321-1.012,3.428-4.882,10.883-14.204c1.536,6.826,5.137,14.004,12.011,16.714
		c-0.227-4.996-1.442-9.965-0.695-14.978C108.748,1555.784,110.113,1549.857,112.05,1544.116z"/>
	<path d="M112.05,112.05c-1.937-5.741-3.302-11.669-3.997-17.684c-0.748-5.013,0.468-9.982,0.695-14.978
		c-6.874,2.71-10.475,9.888-12.011,16.713c-7.455-9.322-7.562-13.192-10.883-14.204c-2.597-0.931-5.244-1.987-7.52-3.564
		c1.577,2.277,2.633,4.923,3.564,7.52c1.012,3.321,4.882,3.428,14.204,10.883c-6.826,1.536-14.004,5.137-16.713,12.011
		c4.996-0.227,9.965-1.442,14.978-0.695C100.381,108.748,106.309,110.113,112.05,112.05z"/>
	<path d="M1530.141,126.024c14.842-3.064,33.103-1.804,45.965,3.005c16.514,4.944,30.65,19.366,34.766,32.316
		c0.38,1.062,0.775,2.215,1.817,2.832c5.785-7.941,5.536-19.247,0.428-27.465c-2.419-4.536-6.514-7.763-10.697-10.584
		c7.866-3.141,13.947-9.749,17.285-17.431c4.819-13.301-0.806-28.79-15.707-34.755c-16.483-5.429-28.135,5.344-28.041,17.398
		c0.347,4.182,1.74,8.779,5.423,11.219c2.245,1.713,5.216,1.402,7.875,1.47c-0.674-2.079-1.815-3.973-2.351-6.085
		c-0.77-3.131,1.437-6.729,4.696-7.165c10.5-0.731,13.51,14.316-0.901,21.199c-14.296,6.369-28.403,1.926-52.896,6.383
		c4.458-24.493,0.015-38.601,6.384-52.896c6.883-14.411,21.931-11.401,21.199-0.901c-0.436,3.259-4.034,5.466-7.165,4.696
		c-2.112-0.536-4.006-1.677-6.084-2.351c0.068,2.66-0.243,5.63,1.47,7.875c2.439,3.683,7.036,5.076,11.219,5.423
		c12.054,0.094,22.828-11.558,17.398-28.041c-5.966-14.901-21.455-20.526-34.755-15.707c-7.682,3.337-14.29,9.419-17.431,17.285
		c-2.821-4.183-6.047-8.278-10.584-10.697c-8.218-5.107-19.524-5.357-27.465,0.428c0.617,1.042,1.77,1.437,2.832,1.817
		c12.95,4.116,27.371,18.252,32.316,34.766C1531.946,92.921,1533.206,111.182,1530.141,126.024z"/>
	<path d="M1530.141,1530.141c3.064,14.842,1.804,33.103-3.005,45.965c-4.944,16.514-19.366,30.65-32.316,34.766
		c-1.062,0.38-2.215,0.775-2.832,1.817c7.941,5.785,19.247,5.536,27.465,0.428c4.536-2.419,7.763-6.514,10.584-10.697
		c3.141,7.866,9.749,13.947,17.431,17.285c13.301,4.819,28.79-0.806,34.755-15.707c5.429-16.483-5.344-28.135-17.398-28.041
		c-4.182,0.347-8.779,1.74-11.219,5.423c-1.713,2.245-1.402,5.216-1.47,7.875c2.079-0.674,3.973-1.815,6.084-2.351
		c3.131-0.77,6.729,1.437,7.165,4.696c0.731,10.5-14.316,13.51-21.199-0.901c-6.369-14.296-1.926-28.403-6.384-52.896
		c24.493,4.458,38.601,0.015,52.896,6.384c14.411,6.883,11.401,21.931,0.901,21.199c-3.259-0.436-5.466-4.034-4.696-7.165
		c0.536-2.112,1.677-4.006,2.351-6.084c-2.659,0.068-5.63-0.243-7.875,1.47c-3.683,2.439-5.076,7.036-5.423,11.219
		c-0.094,12.054,11.558,22.828,28.041,17.398c14.901-5.966,20.526-21.455,15.707-34.755c-3.337-7.682-9.419-14.29-17.285-17.431
		c4.183-2.821,8.278-6.047,10.697-10.584c5.107-8.218,5.357-19.524-0.428-27.465c-1.042,0.617-1.437,1.77-1.817,2.832
		c-4.116,12.95-18.252,27.371-34.766,32.316C1563.245,1531.946,1544.983,1533.206,1530.141,1530.141z"/>
	<path d="M126.024,1530.141c-14.842,3.064-33.103,1.804-45.965-3.005c-16.514-4.944-30.65-19.366-34.766-32.316
		c-0.38-1.062-0.775-2.215-1.817-2.832c-5.785,7.941-5.536,19.247-0.428,27.465c2.419,4.536,6.514,7.763,10.697,10.584
		c-7.866,3.141-13.947,9.749-17.285,17.431c-4.819,13.301,0.806,28.79,15.707,34.755c16.483,5.429,28.135-5.344,28.041-17.398
		c-0.347-4.182-1.74-8.779-5.423-11.219c-2.245-1.713-5.216-1.402-7.875-1.47c0.674,2.079,1.815,3.973,2.351,6.084
		c0.77,3.131-1.437,6.729-4.696,7.165c-10.5,0.731-13.51-14.316,0.901-21.199c14.296-6.369,28.403-1.926,52.896-6.384
		c-4.458,24.493-0.015,38.601-6.383,52.896c-6.883,14.411-21.931,11.401-21.199,0.901c0.436-3.259,4.034-5.466,7.165-4.696
		c2.112,0.536,4.006,1.677,6.085,2.351c-0.068-2.659,0.243-5.63-1.47-7.875c-2.44-3.683-7.036-5.076-11.219-5.423
		c-12.054-0.094-22.828,11.558-17.398,28.041c5.966,14.901,21.455,20.526,34.755,15.707c7.682-3.337,14.29-9.419,17.431-17.285
		c2.821,4.183,6.048,8.278,10.584,10.697c8.218,5.107,19.524,5.357,27.465-0.428c-0.617-1.042-1.77-1.437-2.832-1.817
		c-12.95-4.116-27.371-18.252-32.316-34.766C124.22,1563.245,122.96,1544.983,126.024,1530.141z"/>
	<path d="M126.024,126.024c-3.064-14.842-1.804-33.103,3.005-45.965c4.944-16.514,19.366-30.65,32.316-34.766
		c1.062-0.38,2.215-0.775,2.832-1.817c-7.941-5.785-19.247-5.536-27.465-0.428c-4.536,2.419-7.763,6.514-10.584,10.697
		c-3.141-7.866-9.749-13.947-17.431-17.285c-13.301-4.819-28.79,0.806-34.755,15.707c-5.429,16.483,5.344,28.135,17.398,28.041
		c4.182-0.347,8.779-1.74,11.219-5.423c1.713-2.245,1.402-5.216,1.47-7.875c-2.079,0.674-3.973,1.815-6.085,2.351
		c-3.131,0.77-6.729-1.437-7.165-4.696c-0.731-10.5,14.316-13.51,21.199,0.901c6.369,14.296,1.926,28.403,6.383,52.896
		c-24.493-4.458-38.601-0.015-52.896-6.383c-14.411-6.883-11.401-21.931-0.901-21.199c3.259,0.436,5.466,4.034,4.696,7.165
		c-0.536,2.112-1.677,4.006-2.351,6.085c2.66-0.068,5.63,0.243,7.875-1.47c3.683-2.44,5.076-7.036,5.423-11.219
		c0.094-12.054-11.558-22.828-28.041-17.398c-14.901,5.966-20.526,21.455-15.707,34.755c3.337,7.682,9.419,14.29,17.285,17.431
		c-4.183,2.821-8.278,6.048-10.697,10.584c-5.107,8.218-5.357,19.524,0.428,27.465c1.042-0.617,1.437-1.77,1.817-2.832
		c4.116-12.95,18.252-27.371,34.766-32.316C92.921,124.22,111.182,122.96,126.024,126.024z"/>
	<path d="M152.226,152.226c4.452-3.747,8.086-6.839,9.838-8.401c-2.901-3.227-5.504-6.691-8.333-9.964
		c-1.315,1.039-5.605,4.485-11.001,8.87c-4.384,5.396-7.83,9.685-8.87,11.001c3.273,2.83,6.737,5.432,9.964,8.333
		C145.387,160.312,148.479,156.678,152.226,152.226z"/>
	<path d="M1503.939,152.226c3.747,4.452,6.839,8.086,8.401,9.838c3.227-2.901,6.691-5.504,9.964-8.333
		c-1.039-1.315-4.485-5.605-8.87-11.001c-5.396-4.384-9.685-7.83-11.001-8.87c-2.829,3.273-5.432,6.737-8.333,9.964
		C1495.854,145.387,1499.487,148.479,1503.939,152.226z"/>
	<path d="M1503.939,1503.939c-4.452,3.747-8.086,6.839-9.839,8.401c2.901,3.227,5.504,6.691,8.333,9.964
		c1.316-1.039,5.605-4.485,11.001-8.87c4.384-5.396,7.83-9.685,8.87-11.001c-3.273-2.829-6.737-5.432-9.964-8.333
		C1510.778,1495.854,1507.687,1499.487,1503.939,1503.939z"/>
	<path d="M152.226,1503.939c-3.747-4.452-6.839-8.086-8.401-9.839c-3.227,2.901-6.691,5.504-9.964,8.333
		c1.039,1.316,4.485,5.605,8.87,11.001c5.396,4.384,9.685,7.83,11.001,8.87c2.83-3.273,5.432-6.737,8.333-9.964
		C160.312,1510.778,156.678,1507.687,152.226,1503.939z"/>
	<path d="M310.292,310.292c78.464-7.067,205.154-18.517,253.504-23.1c50.634,4.8,187.184,17.13,264.287,24.071
		c77.103-6.941,213.653-19.272,264.287-24.071c48.35,4.583,175.04,16.033,253.504,23.1c7.067,78.464,18.517,205.154,23.1,253.504
		c-4.8,50.634-17.13,187.184-24.071,264.287c6.941,77.103,19.271,213.653,24.071,264.287c-4.583,48.35-16.033,175.04-23.1,253.504
		c-78.464,7.067-205.154,18.517-253.504,23.1c-50.634-4.8-187.184-17.13-264.287-24.071
		c-77.103,6.941-213.653,19.271-264.287,24.071c-48.35-4.583-175.04-16.033-253.504-23.1c-7.067-78.464-18.517-205.154-23.1-253.504
		c4.8-50.634,17.13-187.184,24.071-264.287c-6.941-77.103-19.272-213.653-24.071-264.287
		C291.775,515.446,303.225,388.756,310.292,310.292z M828.083,296.989c-82.528-7.551-216.454-19.647-264.287-23.883
		c-48.282,4.275-184.279,16.56-266.596,24.094c-7.535,82.316-19.819,218.314-24.094,266.596
		c4.236,47.833,16.332,181.76,23.883,264.287c-7.551,82.527-19.647,216.454-23.883,264.287
		c4.275,48.281,16.56,184.279,24.094,266.596c82.316,7.535,218.314,19.819,266.596,24.094
		c47.833-4.236,181.76-16.332,264.287-23.883c82.527,7.551,216.454,19.647,264.287,23.883
		c48.281-4.275,184.279-16.56,266.596-24.094c7.535-82.316,19.819-218.314,24.094-266.596
		c-4.236-47.833-16.332-181.76-23.883-264.287c7.551-82.528,19.647-216.454,23.883-264.287
		c-4.275-48.282-16.56-184.279-24.094-266.596c-82.316-7.535-218.314-19.819-266.596-24.094
		C1044.537,277.341,910.61,289.438,828.083,296.989z"/>
	<path d="M169.554,169.554c1.792,0.704,3.63,1.298,5.521,1.748c7.74,1.901,15.889,3.41,23.826,1.777
		c5.97-1.129,11.973-2.632,17.336-5.571c4.882-2.854,9.627-6.02,13.73-9.933c8.91-8.298,14.263-19.963,15.969-31.917
		c1.327-8.563-1.572-17.046-4.949-24.789c-3.865-8.942-11.879-15.177-20.284-19.599c-8.221-3.955-17.648-4.585-26.581-3.489
		c-23.57,4.496-34.618,24.953-32.75,41.53c1.431,15.621,14.606,28.459,32.772,27.471c13.913-0.482,26.838-14.502,22.767-31.269
		c-1.898-7.487-9.493-12.588-16.976-12.958c-6.53-0.106-13.82,5.21-13.169,12.272c2.775-1.161,5.466-3.171,8.63-2.864
		c3.13,0.349,5.886,2.317,7.824,4.716c3.038,4.5,1.61,10.953-2.182,14.555c-6.869,6.019-22.489,6.054-26.584-11.779
		c-4.705-24.533,29.32-40.183,49.231-19.997c8.338,8.547,12.883,28.307,1.67,43.468c-13.832,20.849-45.832,23.437-63.284,6.672
		c-2.345,1.8-4.712,3.589-6.968,5.503c-1.914,2.256-3.702,4.623-5.503,6.968c16.765,17.452,14.177,49.452-6.672,63.284
		c-15.161,11.213-34.921,6.667-43.468-1.67c-20.187-19.911-4.536-53.936,19.997-49.231c17.833,4.095,17.797,19.716,11.779,26.584
		c-3.603,3.791-10.055,5.219-14.555,2.182c-2.399-1.937-4.367-4.693-4.716-7.824c-0.307-3.164,1.703-5.855,2.864-8.63
		c-7.062-0.651-12.378,6.639-12.272,13.169c0.369,7.483,5.471,15.078,12.958,16.976c16.767,4.07,30.787-8.854,31.269-22.767
		c0.987-18.166-11.851-31.342-27.471-32.772c-16.577-1.868-37.035,9.18-41.53,32.75c-1.095,8.933-0.466,18.361,3.489,26.581
		c4.422,8.405,10.656,16.419,19.599,20.284c7.744,3.377,16.226,6.276,24.789,4.949c11.954-1.707,23.619-7.059,31.917-15.969
		c3.913-4.104,7.079-8.848,9.933-13.73c2.94-5.363,4.442-11.366,5.571-17.336c1.633-7.936,0.124-16.086-1.777-23.826
		C170.852,173.184,170.258,171.346,169.554,169.554z"/>
	<path d="M1486.612,169.554c-0.704,1.792-1.298,3.63-1.748,5.521c-1.901,7.74-3.41,15.889-1.777,23.826
		c1.129,5.97,2.631,11.973,5.571,17.336c2.854,4.882,6.02,9.627,9.933,13.73c8.298,8.91,19.963,14.263,31.917,15.969
		c8.563,1.327,17.046-1.572,24.789-4.949c8.943-3.865,15.177-11.879,19.599-20.284c3.955-8.221,4.585-17.648,3.489-26.581
		c-4.496-23.57-24.953-34.618-41.53-32.75c-15.621,1.431-28.459,14.606-27.471,32.772c0.482,13.913,14.502,26.838,31.269,22.767
		c7.487-1.898,12.588-9.493,12.958-16.976c0.106-6.53-5.21-13.82-12.272-13.169c1.161,2.775,3.171,5.466,2.864,8.63
		c-0.349,3.13-2.317,5.886-4.716,7.824c-4.5,3.038-10.953,1.61-14.555-2.182c-6.019-6.869-6.054-22.489,11.779-26.584
		c24.533-4.705,40.183,29.32,19.997,49.231c-8.547,8.338-28.307,12.883-43.468,1.67c-20.849-13.832-23.437-45.832-6.672-63.284
		c-1.8-2.345-3.589-4.712-5.503-6.968c-2.256-1.914-4.623-3.702-6.968-5.503c-17.452,16.765-49.452,14.177-63.284-6.672
		c-11.213-15.161-6.667-34.921,1.67-43.468c19.911-20.187,53.936-4.536,49.231,19.997c-4.095,17.833-19.716,17.797-26.584,11.779
		c-3.792-3.603-5.219-10.055-2.182-14.555c1.937-2.399,4.693-4.367,7.824-4.716c3.164-0.307,5.855,1.703,8.63,2.864
		c0.651-7.062-6.639-12.378-13.169-12.272c-7.483,0.369-15.078,5.471-16.976,12.958c-4.07,16.767,8.854,30.787,22.767,31.269
		c18.166,0.987,31.342-11.851,32.772-27.471c1.868-16.577-9.18-37.035-32.75-41.53c-8.933-1.095-18.361-0.466-26.581,3.489
		c-8.405,4.422-16.419,10.656-20.284,19.599c-3.377,7.744-6.276,16.226-4.949,24.789c1.707,11.954,7.059,23.619,15.969,31.917
		c4.104,3.913,8.848,7.079,13.731,9.933c5.363,2.94,11.365,4.442,17.336,5.571c7.936,1.633,16.086,0.124,23.826-1.777
		C1482.982,170.852,1484.82,170.258,1486.612,169.554z"/>
	<path d="M1486.612,1486.612c-1.792-0.704-3.63-1.298-5.521-1.748c-7.74-1.901-15.889-3.41-23.826-1.777
		c-5.97,1.129-11.973,2.631-17.336,5.571c-4.882,2.854-9.627,6.02-13.731,9.933c-8.91,8.298-14.263,19.963-15.969,31.917
		c-1.327,8.563,1.572,17.046,4.949,24.789c3.865,8.943,11.879,15.177,20.284,19.599c8.221,3.955,17.648,4.585,26.581,3.489
		c23.57-4.496,34.618-24.953,32.75-41.53c-1.431-15.621-14.606-28.459-32.772-27.471c-13.913,0.482-26.838,14.502-22.767,31.269
		c1.898,7.487,9.493,12.588,16.976,12.958c6.53,0.106,13.82-5.21,13.169-12.272c-2.775,1.161-5.466,3.171-8.63,2.864
		c-3.13-0.349-5.886-2.317-7.824-4.716c-3.038-4.5-1.61-10.953,2.182-14.555c6.869-6.019,22.489-6.054,26.584,11.779
		c4.705,24.533-29.32,40.183-49.231,19.997c-8.338-8.547-12.883-28.307-1.67-43.468c13.832-20.849,45.832-23.437,63.284-6.672
		c2.345-1.8,4.712-3.589,6.968-5.503c1.914-2.256,3.702-4.623,5.503-6.968c-16.765-17.452-14.177-49.452,6.672-63.284
		c15.161-11.213,34.921-6.667,43.468,1.67c20.187,19.911,4.536,53.936-19.997,49.231c-17.833-4.095-17.797-19.716-11.779-26.584
		c3.603-3.792,10.055-5.219,14.555-2.182c2.399,1.937,4.367,4.693,4.716,7.824c0.307,3.164-1.703,5.855-2.864,8.63
		c7.062,0.651,12.378-6.639,12.272-13.169c-0.369-7.483-5.471-15.078-12.958-16.976c-16.767-4.07-30.787,8.854-31.269,22.767
		c-0.987,18.166,11.851,31.342,27.471,32.772c16.577,1.868,37.035-9.18,41.53-32.75c1.095-8.933,0.466-18.361-3.489-26.581
		c-4.422-8.405-10.656-16.419-19.599-20.284c-7.744-3.377-16.226-6.276-24.789-4.949c-11.954,1.707-23.619,7.059-31.917,15.969
		c-3.913,4.104-7.079,8.848-9.933,13.731c-2.94,5.363-4.442,11.365-5.571,17.336c-1.633,7.936-0.124,16.086,1.777,23.826
		C1485.314,1482.982,1485.907,1484.82,1486.612,1486.612z"/>
	<path d="M169.554,1486.612c0.704-1.792,1.298-3.63,1.748-5.521c1.901-7.74,3.41-15.889,1.777-23.826
		c-1.129-5.97-2.632-11.973-5.571-17.336c-2.854-4.882-6.02-9.627-9.933-13.731c-8.298-8.91-19.963-14.263-31.917-15.969
		c-8.563-1.327-17.046,1.572-24.789,4.949c-8.942,3.865-15.177,11.879-19.599,20.284c-3.955,8.221-4.585,17.648-3.489,26.581
		c4.496,23.57,24.953,34.618,41.53,32.75c15.621-1.431,28.459-14.606,27.471-32.772c-0.482-13.913-14.502-26.838-31.269-22.767
		c-7.487,1.898-12.588,9.493-12.958,16.976c-0.106,6.53,5.21,13.82,12.272,13.169c-1.161-2.775-3.171-5.466-2.864-8.63
		c0.349-3.13,2.317-5.886,4.716-7.824c4.5-3.038,10.953-1.61,14.555,2.182c6.019,6.869,6.054,22.489-11.779,26.584
		c-24.533,4.705-40.183-29.32-19.997-49.231c8.547-8.338,28.307-12.883,43.468-1.67c20.849,13.832,23.437,45.832,6.672,63.284
		c1.8,2.345,3.589,4.712,5.503,6.968c2.256,1.914,4.623,3.702,6.968,5.503c17.452-16.765,49.452-14.177,63.284,6.672
		c11.213,15.161,6.667,34.921-1.67,43.468c-19.911,20.187-53.936,4.536-49.231-19.997c4.095-17.833,19.716-17.797,26.584-11.779
		c3.791,3.603,5.219,10.055,2.182,14.555c-1.937,2.399-4.693,4.367-7.824,4.716c-3.164,0.307-5.855-1.703-8.63-2.864
		c-0.651,7.062,6.639,12.378,13.169,12.272c7.483-0.369,15.078-5.471,16.976-12.958c4.07-16.767-8.854-30.787-22.767-31.269
		c-18.166-0.987-31.342,11.851-32.772,27.471c-1.868,16.577,9.18,37.035,32.75,41.53c8.933,1.095,18.361,0.466,26.581-3.489
		c8.405-4.422,16.419-10.656,20.284-19.599c3.377-7.744,6.276-16.226,4.949-24.789c-1.707-11.954-7.059-23.619-15.969-31.917
		c-4.104-3.913-8.848-7.079-13.73-9.933c-5.363-2.94-11.366-4.442-17.336-5.571c-7.936-1.633-16.086-0.124-23.826,1.777
		C173.184,1485.314,171.346,1485.907,169.554,1486.612z"/>
	<path d="M1410.095,246.071c2.598,0.282,5.223,0.273,7.856-0.135c11.954-1.707,23.619-7.059,31.917-15.969
		c3.913-4.104,7.079-8.848,9.933-13.73c2.94-5.363,4.442-11.366,5.571-17.336c0.598-2.906,0.775-5.84,0.665-8.772
		c-2.932-0.109-5.866,0.067-8.772,0.665c-5.97,1.129-11.973,2.632-17.336,5.571c-4.882,2.854-9.627,6.02-13.731,9.933
		c-8.91,8.298-14.263,19.963-15.969,31.917C1409.822,240.847,1409.813,243.472,1410.095,246.071z M1450.213,205.953
		c-2.805,7.73-7.817,14.642-14.992,19.402c-2.949,2.181-6.071,3.765-9.252,4.842c1.077-3.18,2.661-6.303,4.842-9.252
		C1435.571,213.77,1442.483,208.758,1450.213,205.953z"/>
	<path d="M1410.095,1410.095c-0.282,2.598-0.273,5.223,0.135,7.856c1.707,11.954,7.059,23.619,15.969,31.917
		c4.104,3.913,8.848,7.079,13.731,9.933c5.363,2.94,11.365,4.442,17.336,5.571c2.906,0.598,5.84,0.775,8.772,0.665
		c0.109-2.932-0.067-5.866-0.665-8.772c-1.13-5.97-2.631-11.973-5.571-17.336c-2.854-4.882-6.02-9.627-9.933-13.731
		c-8.298-8.91-19.963-14.263-31.917-15.969C1415.318,1409.822,1412.693,1409.813,1410.095,1410.095z M1450.213,1450.213
		c-7.73-2.805-14.642-7.817-19.402-14.992c-2.181-2.949-3.766-6.071-4.842-9.252c3.18,1.077,6.303,2.661,9.252,4.842
		C1442.396,1435.571,1447.408,1442.483,1450.213,1450.213z"/>
	<path d="M246.071,1410.095c-2.598-0.282-5.223-0.273-7.856,0.135c-11.954,1.707-23.619,7.059-31.917,15.969
		c-3.913,4.104-7.079,8.848-9.933,13.731c-2.94,5.363-4.442,11.365-5.571,17.336c-0.598,2.906-0.775,5.84-0.665,8.772
		c2.932,0.109,5.866-0.067,8.772-0.665c5.97-1.13,11.973-2.631,17.336-5.571c4.882-2.854,9.627-6.02,13.73-9.933
		c8.91-8.298,14.263-19.963,15.969-31.917C246.344,1415.318,246.353,1412.693,246.071,1410.095z M205.953,1450.213
		c2.805-7.73,7.817-14.642,14.992-19.402c2.949-2.181,6.071-3.766,9.252-4.842c-1.077,3.18-2.661,6.303-4.842,9.252
		C220.594,1442.396,213.683,1447.408,205.953,1450.213z"/>
	<path d="M246.071,246.071c0.282-2.598,0.273-5.223-0.135-7.856c-1.707-11.954-7.059-23.619-15.969-31.917
		c-4.104-3.913-8.848-7.079-13.73-9.933c-5.363-2.94-11.366-4.442-17.336-5.571c-2.906-0.598-5.84-0.775-8.772-0.665
		c-0.109,2.932,0.067,5.866,0.665,8.772c1.129,5.97,2.632,11.973,5.571,17.336c2.854,4.882,6.02,9.627,9.933,13.73
		c8.298,8.91,19.963,14.263,31.917,15.969C240.847,246.344,243.472,246.353,246.071,246.071z M205.953,205.953
		c7.73,2.805,14.642,7.817,19.402,14.992c2.181,2.949,3.765,6.071,4.842,9.252c-3.18-1.077-6.303-2.661-9.252-4.842
		C213.77,220.594,208.758,213.683,205.953,205.953z"/>
	<path d="M1471.831,184.334c1.956,11.746,0.225,24.044-4.123,35.092c-3.903,11.14-16.9,26.305-33.739,33.758
		c-10.173,3.698-21.293,5.745-32.053,3.6c-0.734-0.118-1.45-0.247-2.15-0.385c-0.139-0.699-0.267-1.416-0.385-2.15
		c-2.145-10.759-0.098-21.88,3.6-32.053c7.453-16.839,22.618-29.835,33.758-33.739
		C1447.787,184.109,1460.086,182.378,1471.831,184.334z M1386.581,269.585c9.214,6.708,21.913,9.312,34.72,5.46
		c21.75-7.151,36.157-21.404,47.246-44.572c1.826-3.501,2.82-7.334,4.172-11.019c0.651-1.878,1.134-3.788,1.511-5.718
		c0.377,1.93,0.86,3.841,1.511,5.718c1.352,3.685,2.345,7.518,4.172,11.019c11.089,23.168,25.496,37.421,47.246,44.572
		c24.903,7.491,49.399-9.433,48.66-33.464c-3.969,3.132-11.476,12.341-29.275,15.203c-10.759,2.145-21.88,0.098-32.053-3.6
		c-16.839-7.453-29.835-22.618-33.739-33.758c-5.12-13.008-6.611-27.751-2.727-41.284c-13.533,3.884-28.275,2.393-41.284-2.727
		c-11.14-3.903-26.305-16.9-33.758-33.739c-3.698-10.173-5.745-21.294-3.6-32.053c2.862-17.799,12.071-25.307,15.203-29.275
		c-24.031-0.739-40.955,23.757-33.464,48.66c7.151,21.75,21.404,36.157,44.572,47.246c3.501,1.826,7.334,2.82,11.019,4.172
		c1.878,0.651,3.788,1.134,5.718,1.511c-1.93,0.377-3.841,0.86-5.718,1.511c-3.685,1.352-7.518,2.345-11.019,4.172
		c-23.168,11.089-37.421,25.496-44.572,47.246C1377.269,247.671,1379.873,260.37,1386.581,269.585z"/>
	<path d="M1471.831,1471.831c-11.746,1.956-24.044,0.225-35.092-4.123c-11.14-3.903-26.305-16.9-33.758-33.739
		c-3.698-10.173-5.745-21.293-3.6-32.053c0.118-0.734,0.247-1.45,0.385-2.15c0.699-0.139,1.416-0.267,2.15-0.385
		c10.759-2.145,21.88-0.098,32.053,3.6c16.839,7.453,29.835,22.618,33.739,33.758
		C1472.057,1447.787,1473.787,1460.086,1471.831,1471.831z M1386.581,1386.581c-6.708,9.214-9.312,21.913-5.46,34.72
		c7.151,21.75,21.404,36.157,44.572,47.246c3.501,1.826,7.334,2.82,11.019,4.172c1.878,0.651,3.788,1.134,5.718,1.511
		c-1.93,0.377-3.841,0.86-5.718,1.511c-3.685,1.352-7.518,2.345-11.019,4.172c-23.168,11.089-37.421,25.496-44.572,47.246
		c-7.491,24.903,9.433,49.399,33.464,48.66c-3.132-3.969-12.341-11.476-15.203-29.275c-2.145-10.759-0.098-21.88,3.6-32.053
		c7.453-16.839,22.618-29.835,33.758-33.739c13.008-5.12,27.751-6.611,41.284-2.727c-3.884-13.533-2.393-28.275,2.727-41.284
		c3.903-11.14,16.9-26.305,33.739-33.758c10.173-3.698,21.293-5.745,32.053-3.6c17.799,2.862,25.307,12.071,29.275,15.203
		c0.739-24.031-23.757-40.955-48.66-33.464c-21.75,7.151-36.157,21.404-47.246,44.572c-1.826,3.501-2.82,7.334-4.172,11.019
		c-0.651,1.878-1.134,3.788-1.511,5.718c-0.377-1.93-0.86-3.841-1.511-5.718c-1.352-3.685-2.346-7.518-4.172-11.019
		c-11.089-23.168-25.496-37.421-47.246-44.572C1408.494,1377.269,1395.795,1379.873,1386.581,1386.581z"/>
	<path d="M184.334,1471.831c-1.956-11.746-0.225-24.044,4.123-35.092c3.903-11.14,16.9-26.305,33.739-33.758
		c10.173-3.698,21.294-5.745,32.053-3.6c0.734,0.118,1.45,0.247,2.15,0.385c0.139,0.699,0.267,1.416,0.385,2.15
		c2.145,10.759,0.098,21.88-3.6,32.053c-7.453,16.839-22.618,29.835-33.758,33.739
		C208.379,1472.057,196.08,1473.787,184.334,1471.831z M269.585,1386.581c-9.215-6.708-21.913-9.312-34.72-5.46
		c-21.75,7.151-36.157,21.404-47.246,44.572c-1.826,3.501-2.82,7.334-4.172,11.019c-0.651,1.878-1.134,3.788-1.511,5.718
		c-0.377-1.93-0.86-3.841-1.511-5.718c-1.352-3.685-2.346-7.518-4.172-11.019c-11.089-23.168-25.496-37.421-47.246-44.572
		c-24.903-7.491-49.399,9.433-48.66,33.464c3.969-3.132,11.476-12.341,29.275-15.203c10.759-2.145,21.88-0.098,32.053,3.6
		c16.839,7.453,29.835,22.618,33.739,33.758c5.12,13.008,6.611,27.751,2.727,41.284c13.533-3.884,28.275-2.393,41.284,2.727
		c11.14,3.903,26.305,16.9,33.758,33.739c3.698,10.173,5.745,21.293,3.6,32.053c-2.862,17.799-12.071,25.307-15.203,29.275
		c24.031,0.739,40.955-23.757,33.464-48.66c-7.151-21.75-21.404-36.157-44.572-47.246c-3.501-1.826-7.334-2.82-11.019-4.172
		c-1.878-0.651-3.788-1.134-5.718-1.511c1.93-0.377,3.841-0.86,5.718-1.511c3.685-1.352,7.518-2.346,11.019-4.172
		c23.168-11.089,37.421-25.496,44.572-47.246C278.897,1408.494,276.292,1395.795,269.585,1386.581z"/>
	<path d="M184.334,184.334c11.746-1.956,24.044-0.225,35.092,4.123c11.14,3.903,26.305,16.9,33.758,33.739
		c3.698,10.173,5.745,21.294,3.6,32.053c-0.118,0.734-0.247,1.45-0.385,2.15c-0.699,0.139-1.416,0.267-2.15,0.385
		c-10.759,2.145-21.88,0.098-32.053-3.6c-16.839-7.453-29.835-22.618-33.739-33.758C184.109,208.379,182.378,196.08,184.334,184.334
		z M269.585,269.585c6.708-9.215,9.312-21.913,5.46-34.72c-7.151-21.75-21.404-36.157-44.572-47.246
		c-3.501-1.826-7.334-2.82-11.019-4.172c-1.878-0.651-3.788-1.134-5.718-1.511c1.93-0.377,3.841-0.86,5.718-1.511
		c3.685-1.352,7.518-2.346,11.019-4.172c23.168-11.089,37.421-25.496,44.572-47.246c7.491-24.903-9.433-49.399-33.464-48.66
		c3.132,3.969,12.341,11.476,15.203,29.275c2.145,10.759,0.098,21.88-3.6,32.053c-7.453,16.839-22.618,29.835-33.758,33.739
		c-13.008,5.12-27.751,6.611-41.284,2.727c3.884,13.533,2.393,28.275-2.727,41.284c-3.903,11.14-16.9,26.305-33.739,33.758
		c-10.173,3.698-21.294,5.745-32.053,3.6c-17.799-2.862-25.307-12.071-29.275-15.203c-0.739,24.031,23.757,40.955,48.66,33.464
		c21.75-7.151,36.157-21.404,47.246-44.572c1.826-3.501,2.82-7.334,4.172-11.019c0.651-1.878,1.134-3.788,1.511-5.718
		c0.377,1.93,0.86,3.841,1.511,5.718c1.352,3.685,2.345,7.518,4.172,11.019c11.089,23.168,25.496,37.421,47.246,44.572
		C247.671,278.897,260.37,276.292,269.585,269.585z"/>
	<path d="M468.131,120.088c-3.218-13.212-19.9-22.198-33.182-21.846c-13.373-0.509-26.564,3.435-38.497,9.216
		c-8.639,4.425-17.244,8.898-25.506,14.001c-26.274,15.104-63.721,46.18-104.712,60.478c40.992,14.297,78.438,45.374,104.712,60.478
		c8.263,5.103,16.868,9.576,25.506,14.001c11.933,5.781,25.125,9.725,38.497,9.216c13.282,0.352,29.964-8.634,33.182-21.846
		c2.908-12.15-0.907-19.159-9.279-24.273c0.046,4.306,1.15,9.202-1.763,12.888c-4.022,4.834-10.405,6.789-16.42,7.638
		c-8.962,1.49-17.968-0.613-26.576-2.976c-30.236-9.649-51.915-25.009-107.691-49.367c-5.047-2.327-10.397-3.865-15.611-5.759
		c5.214-1.895,10.564-3.432,15.611-5.759c55.776-24.358,77.456-39.718,107.691-49.367c8.608-2.363,17.614-4.465,26.576-2.976
		c6.015,0.849,12.398,2.804,16.42,7.638c2.914,3.686,1.809,8.582,1.763,12.888C467.224,139.247,471.039,132.237,468.131,120.088z"/>
	<path d="M120.088,1188.034c-13.212,3.218-22.198,19.9-21.846,33.182c-0.509,13.372,3.435,26.564,9.216,38.497
		c4.425,8.639,8.898,17.244,14.001,25.506c15.104,26.275,46.18,63.721,60.478,104.712c14.297-40.992,45.374-78.438,60.478-104.712
		c5.103-8.262,9.576-16.868,14.001-25.506c5.781-11.933,9.725-25.125,9.216-38.497c0.352-13.282-8.634-29.964-21.846-33.182
		c-12.15-2.908-19.159,0.907-24.273,9.279c4.306-0.046,9.202-1.151,12.888,1.763c4.834,4.022,6.789,10.406,7.638,16.42
		c1.49,8.962-0.613,17.968-2.976,26.576c-9.649,30.236-25.009,51.915-49.367,107.691c-2.327,5.047-3.865,10.397-5.759,15.611
		c-1.895-5.214-3.432-10.564-5.759-15.611c-24.358-55.776-39.718-77.456-49.367-107.691c-2.363-8.608-4.465-17.614-2.976-26.576
		c0.849-6.015,2.804-12.398,7.638-16.42c3.686-2.913,8.582-1.809,12.888-1.763C139.247,1188.942,132.237,1185.126,120.088,1188.034z
		"/>
	<path d="M1188.034,1536.078c3.218,13.212,19.9,22.198,33.182,21.846c13.372,0.509,26.564-3.435,38.497-9.216
		c8.639-4.425,17.244-8.898,25.506-14.001c26.275-15.104,63.721-46.18,104.712-60.478c-40.992-14.297-78.438-45.374-104.712-60.478
		c-8.262-5.103-16.868-9.576-25.506-14.001c-11.933-5.781-25.125-9.725-38.497-9.215c-13.282-0.352-29.964,8.634-33.182,21.846
		c-2.908,12.15,0.907,19.159,9.279,24.273c-0.046-4.306-1.151-9.202,1.763-12.888c4.022-4.834,10.406-6.789,16.42-7.638
		c8.962-1.49,17.968,0.613,26.576,2.976c30.236,9.649,51.915,25.009,107.691,49.367c5.047,2.327,10.397,3.865,15.611,5.759
		c-5.214,1.895-10.564,3.432-15.611,5.759c-55.776,24.358-77.456,39.718-107.691,49.367c-8.608,2.363-17.614,4.465-26.576,2.976
		c-6.015-0.849-12.398-2.804-16.42-7.638c-2.913-3.686-1.809-8.582-1.763-12.888
		C1188.942,1516.919,1185.126,1523.928,1188.034,1536.078z"/>
	<path d="M1536.078,468.131c13.212-3.218,22.198-19.9,21.846-33.182c0.509-13.373-3.435-26.564-9.216-38.497
		c-4.425-8.639-8.898-17.244-14.001-25.506c-15.104-26.274-46.18-63.721-60.478-104.712
		c-14.297,40.992-45.374,78.438-60.478,104.712c-5.103,8.263-9.576,16.868-14.001,25.506c-5.781,11.933-9.725,25.125-9.215,38.497
		c-0.352,13.282,8.634,29.964,21.846,33.182c12.15,2.908,19.159-0.907,24.273-9.279c-4.306,0.046-9.202,1.15-12.888-1.763
		c-4.834-4.022-6.789-10.405-7.638-16.42c-1.49-8.962,0.613-17.968,2.976-26.576c9.649-30.236,25.009-51.915,49.367-107.691
		c2.327-5.047,3.865-10.397,5.759-15.611c1.895,5.214,3.432,10.564,5.759,15.611c24.358,55.776,39.718,77.456,49.367,107.691
		c2.363,8.608,4.465,17.614,2.976,26.576c-0.849,6.015-2.804,12.398-7.638,16.42c-3.686,2.914-8.582,1.809-12.888,1.763
		C1516.919,467.224,1523.928,471.039,1536.078,468.131z"/>
	<path d="M1188.034,120.088c3.218-13.212,19.9-22.198,33.182-21.846c13.372-0.509,26.564,3.435,38.497,9.216
		c8.639,4.425,17.244,8.898,25.506,14.001c26.275,15.104,63.721,46.18,104.712,60.478c-40.992,14.297-78.438,45.374-104.712,60.478
		c-8.262,5.103-16.868,9.576-25.506,14.001c-11.933,5.781-25.125,9.725-38.497,9.216c-13.282,0.352-29.964-8.634-33.182-21.846
		c-2.908-12.15,0.907-19.159,9.279-24.273c-0.046,4.306-1.151,9.202,1.763,12.888c4.022,4.834,10.406,6.789,16.42,7.638
		c8.962,1.49,17.968-0.613,26.576-2.976c30.236-9.649,51.915-25.009,107.691-49.367c5.047-2.327,10.397-3.865,15.611-5.759
		c-5.214-1.895-10.564-3.432-15.611-5.759c-55.776-24.358-77.456-39.718-107.691-49.367c-8.608-2.363-17.614-4.465-26.576-2.976
		c-6.015,0.849-12.398,2.804-16.42,7.638c-2.913,3.686-1.809,8.582-1.763,12.888
		C1188.942,139.247,1185.126,132.237,1188.034,120.088z"/>
	<path d="M120.088,468.131c-13.212-3.218-22.198-19.9-21.846-33.182c-0.509-13.373,3.435-26.564,9.216-38.497
		c4.425-8.639,8.898-17.244,14.001-25.506c15.104-26.274,46.18-63.721,60.478-104.712c14.297,40.992,45.374,78.438,60.478,104.712
		c5.103,8.263,9.576,16.868,14.001,25.506c5.781,11.933,9.725,25.125,9.216,38.497c0.352,13.282-8.634,29.964-21.846,33.182
		c-12.15,2.908-19.159-0.907-24.273-9.279c4.306,0.046,9.202,1.15,12.888-1.763c4.834-4.022,6.789-10.405,7.638-16.42
		c1.49-8.962-0.613-17.968-2.976-26.576c-9.649-30.236-25.009-51.915-49.367-107.691c-2.327-5.047-3.865-10.397-5.759-15.611
		c-1.895,5.214-3.432,10.564-5.759,15.611c-24.358,55.776-39.718,77.456-49.367,107.691c-2.363,8.608-4.465,17.614-2.976,26.576
		c0.849,6.015,2.804,12.398,7.638,16.42c3.686,2.914,8.582,1.809,12.888,1.763C139.247,467.224,132.237,471.039,120.088,468.131z"/>
	<path d="M468.131,1536.078c-3.218,13.212-19.9,22.198-33.182,21.846c-13.373,0.509-26.564-3.435-38.497-9.216
		c-8.639-4.425-17.244-8.898-25.506-14.001c-26.274-15.104-63.721-46.18-104.712-60.478c40.992-14.297,78.438-45.374,104.712-60.478
		c8.263-5.103,16.868-9.576,25.506-14.001c11.933-5.781,25.125-9.725,38.497-9.215c13.282-0.352,29.964,8.634,33.182,21.846
		c2.908,12.15-0.907,19.159-9.279,24.273c0.046-4.306,1.15-9.202-1.763-12.888c-4.022-4.834-10.405-6.789-16.42-7.638
		c-8.962-1.49-17.968,0.613-26.576,2.976c-30.236,9.649-51.915,25.009-107.691,49.367c-5.047,2.327-10.397,3.865-15.611,5.759
		c5.214,1.895,10.564,3.432,15.611,5.759c55.776,24.358,77.456,39.718,107.691,49.367c8.608,2.363,17.614,4.465,26.576,2.976
		c6.015-0.849,12.398-2.804,16.42-7.638c2.914-3.686,1.809-8.582,1.763-12.888C467.224,1516.919,471.039,1523.928,468.131,1536.078z
		"/>
	<path d="M1536.078,1188.034c13.212,3.218,22.198,19.9,21.846,33.182c0.509,13.372-3.435,26.564-9.216,38.497
		c-4.425,8.639-8.898,17.244-14.001,25.506c-15.104,26.275-46.18,63.721-60.478,104.712
		c-14.297-40.992-45.374-78.438-60.478-104.712c-5.103-8.262-9.576-16.868-14.001-25.506c-5.781-11.933-9.725-25.125-9.215-38.497
		c-0.352-13.282,8.634-29.964,21.846-33.182c12.15-2.908,19.159,0.907,24.273,9.279c-4.306-0.046-9.202-1.151-12.888,1.763
		c-4.834,4.022-6.789,10.406-7.638,16.42c-1.49,8.962,0.613,17.968,2.976,26.576c9.649,30.236,25.009,51.915,49.367,107.691
		c2.327,5.047,3.865,10.397,5.759,15.611c1.895-5.214,3.432-10.564,5.759-15.611c24.358-55.776,39.718-77.456,49.367-107.691
		c2.363-8.608,4.465-17.614,2.976-26.576c-0.849-6.015-2.804-12.398-7.638-16.42c-3.686-2.913-8.582-1.809-12.888-1.763
		C1516.919,1188.942,1523.928,1185.126,1536.078,1188.034z"/>
	<path d="M1477.245,828.083c0.825-2.332,1.706-4.643,2.744-6.893c24.358-55.776,39.718-77.456,49.367-107.691
		c2.363-8.608,4.465-17.614,2.976-26.576c-0.849-6.015-2.804-12.398-7.638-16.42c-3.686-2.913-8.582-1.809-12.888-1.763
		c5.114-8.372,12.123-12.187,24.273-9.279c13.212,3.218,22.198,19.9,21.846,33.182c0.509,13.372-3.435,26.564-9.216,38.497
		c-4.425,8.639-8.898,17.244-14.001,25.506c-10.895,18.953-30.102,43.72-45.327,71.438c15.225,27.717,34.432,52.484,45.327,71.438
		c5.103,8.263,9.576,16.868,14.001,25.506c5.781,11.933,9.725,25.125,9.216,38.497c0.352,13.282-8.634,29.964-21.846,33.182
		c-12.15,2.908-19.159-0.907-24.273-9.279c4.306,0.046,9.202,1.15,12.888-1.763c4.834-4.022,6.789-10.405,7.638-16.42
		c1.49-8.962-0.613-17.968-2.976-26.576c-9.649-30.236-25.009-51.915-49.367-107.691
		C1478.951,832.725,1478.07,830.415,1477.245,828.083z"/>
	<path d="M828.083,1477.245c2.332,0.825,4.643,1.706,6.893,2.744c55.776,24.358,77.456,39.718,107.691,49.367
		c8.608,2.363,17.614,4.465,26.576,2.976c6.015-0.849,12.398-2.804,16.42-7.638c2.914-3.686,1.809-8.582,1.763-12.888
		c8.372,5.114,12.187,12.123,9.279,24.273c-3.218,13.212-19.9,22.198-33.182,21.846c-13.373,0.509-26.564-3.435-38.497-9.216
		c-8.639-4.425-17.244-8.898-25.506-14.001c-18.953-10.895-43.72-30.102-71.438-45.327c-27.717,15.225-52.484,34.432-71.438,45.327
		c-8.262,5.103-16.868,9.576-25.506,14.001c-11.933,5.781-25.125,9.725-38.497,9.216c-13.282,0.352-29.964-8.634-33.182-21.846
		c-2.908-12.15,0.907-19.159,9.279-24.273c-0.046,4.306-1.15,9.202,1.763,12.888c4.022,4.834,10.406,6.789,16.42,7.638
		c8.962,1.49,17.968-0.613,26.576-2.976c30.236-9.649,51.915-25.009,107.691-49.367
		C823.44,1478.951,825.751,1478.07,828.083,1477.245z"/>
	<path d="M178.921,828.083c-0.825,2.332-1.706,4.643-2.744,6.893c-24.358,55.776-39.718,77.456-49.367,107.691
		c-2.363,8.608-4.465,17.614-2.976,26.576c0.849,6.015,2.804,12.398,7.638,16.42c3.686,2.914,8.582,1.809,12.888,1.763
		c-5.114,8.372-12.123,12.187-24.273,9.279c-13.212-3.218-22.198-19.9-21.846-33.182c-0.509-13.373,3.435-26.564,9.216-38.497
		c4.425-8.639,8.898-17.244,14.001-25.506c10.895-18.953,30.102-43.72,45.327-71.438c-15.225-27.717-34.432-52.484-45.327-71.438
		c-5.103-8.262-9.576-16.868-14.001-25.506c-5.781-11.933-9.725-25.125-9.216-38.497c-0.352-13.282,8.634-29.964,21.846-33.182
		c12.15-2.908,19.159,0.907,24.273,9.279c-4.306-0.046-9.202-1.15-12.888,1.763c-4.834,4.022-6.789,10.406-7.638,16.42
		c-1.49,8.962,0.613,17.968,2.976,26.576c9.649,30.236,25.009,51.915,49.367,107.691
		C177.215,823.44,178.095,825.751,178.921,828.083z"/>
	<path d="M828.083,178.921c-2.332-0.825-4.643-1.706-6.893-2.744c-55.776-24.358-77.456-39.718-107.691-49.367
		c-8.608-2.363-17.614-4.465-26.576-2.976c-6.015,0.849-12.398,2.804-16.42,7.638c-2.913,3.686-1.809,8.582-1.763,12.888
		c-8.372-5.114-12.187-12.123-9.279-24.273c3.218-13.212,19.9-22.198,33.182-21.846c13.372-0.509,26.564,3.435,38.497,9.216
		c8.639,4.425,17.244,8.898,25.506,14.001c18.953,10.895,43.72,30.102,71.438,45.327c27.717-15.225,52.484-34.432,71.438-45.327
		c8.263-5.103,16.868-9.576,25.506-14.001c11.933-5.781,25.125-9.725,38.497-9.216c13.282-0.352,29.964,8.634,33.182,21.846
		c2.908,12.15-0.907,19.159-9.279,24.273c0.046-4.306,1.15-9.202-1.763-12.888c-4.022-4.834-10.405-6.789-16.42-7.638
		c-8.962-1.49-17.968,0.613-26.576,2.976c-30.236,9.649-51.915,25.009-107.691,49.367
		C832.725,177.215,830.415,178.095,828.083,178.921z"/>
	<path d="M1459.078,828.083c-15.224-27.717-34.432-52.484-45.327-71.438c-5.103-8.262-9.576-16.868-14.001-25.506
		c-5.781-11.933-9.725-25.125-9.215-38.497c-0.352-13.282,8.634-29.964,21.846-33.182c12.15-2.908,19.159,0.907,24.273,9.279
		c-4.306-0.046-9.202-1.15-12.888,1.763c-4.834,4.022-6.789,10.406-7.638,16.42c-1.49,8.962,0.613,17.968,2.976,26.576
		c9.649,30.236,25.009,51.916,49.367,107.691c1.038,2.25,1.918,4.561,2.744,6.893c-0.825,2.332-1.706,4.643-2.744,6.893
		c-24.358,55.776-39.718,77.456-49.367,107.691c-2.363,8.608-4.465,17.614-2.976,26.576c0.849,6.015,2.804,12.398,7.638,16.42
		c3.686,2.914,8.582,1.809,12.888,1.763c-5.114,8.372-12.123,12.187-24.273,9.279c-13.212-3.218-22.198-19.9-21.846-33.182
		c-0.509-13.372,3.435-26.564,9.215-38.497c4.425-8.639,8.898-17.244,14.001-25.506
		C1424.647,880.567,1443.854,855.8,1459.078,828.083z"/>
	<path d="M828.083,1459.078c27.717-15.224,52.484-34.432,71.438-45.327c8.263-5.103,16.868-9.576,25.506-14.001
		c11.933-5.781,25.125-9.725,38.497-9.215c13.282-0.352,29.964,8.634,33.182,21.846c2.908,12.15-0.907,19.159-9.279,24.273
		c0.046-4.306,1.151-9.202-1.763-12.888c-4.022-4.834-10.405-6.789-16.42-7.638c-8.962-1.49-17.968,0.613-26.576,2.976
		c-30.236,9.649-51.915,25.009-107.691,49.367c-2.25,1.038-4.561,1.918-6.893,2.744c-2.332-0.825-4.643-1.706-6.893-2.744
		c-55.776-24.358-77.456-39.718-107.691-49.367c-8.608-2.363-17.614-4.465-26.576-2.976c-6.015,0.849-12.398,2.804-16.42,7.638
		c-2.914,3.686-1.809,8.582-1.763,12.888c-8.372-5.114-12.187-12.123-9.279-24.273c3.218-13.212,19.9-22.198,33.182-21.846
		c13.372-0.509,26.564,3.435,38.497,9.215c8.639,4.425,17.244,8.898,25.506,14.001
		C775.599,1424.647,800.365,1443.854,828.083,1459.078z"/>
	<path d="M197.087,828.083c15.225,27.717,34.432,52.484,45.327,71.438c5.103,8.263,9.576,16.868,14.001,25.506
		c5.781,11.933,9.725,25.125,9.216,38.497c0.352,13.282-8.634,29.964-21.846,33.182c-12.15,2.908-19.159-0.907-24.273-9.279
		c4.306,0.046,9.202,1.151,12.888-1.763c4.834-4.022,6.789-10.405,7.638-16.42c1.49-8.962-0.613-17.968-2.976-26.576
		c-9.649-30.236-25.009-51.915-49.367-107.691c-1.038-2.25-1.918-4.561-2.744-6.893c0.825-2.332,1.706-4.643,2.744-6.893
		c24.358-55.776,39.718-77.456,49.367-107.691c2.363-8.608,4.465-17.614,2.976-26.576c-0.849-6.015-2.804-12.398-7.638-16.42
		c-3.686-2.914-8.582-1.809-12.888-1.763c5.114-8.372,12.123-12.187,24.273-9.279c13.212,3.218,22.198,19.9,21.846,33.182
		c0.509,13.372-3.435,26.564-9.216,38.497c-4.425,8.639-8.898,17.244-14.001,25.506
		C231.519,775.599,212.312,800.365,197.087,828.083z"/>
	<path d="M828.083,197.087c-27.717,15.225-52.484,34.432-71.438,45.327c-8.262,5.103-16.868,9.576-25.506,14.001
		c-11.933,5.781-25.125,9.725-38.497,9.216c-13.282,0.352-29.964-8.634-33.182-21.846c-2.908-12.15,0.907-19.159,9.279-24.273
		c-0.046,4.306-1.15,9.202,1.763,12.888c4.022,4.834,10.406,6.789,16.42,7.638c8.962,1.49,17.968-0.613,26.576-2.976
		c30.236-9.649,51.916-25.009,107.691-49.367c2.25-1.038,4.561-1.918,6.893-2.744c2.332,0.825,4.643,1.706,6.893,2.744
		c55.776,24.358,77.456,39.718,107.691,49.367c8.608,2.363,17.614,4.465,26.576,2.976c6.015-0.849,12.398-2.804,16.42-7.638
		c2.914-3.686,1.809-8.582,1.763-12.888c8.372,5.114,12.187,12.123,9.279,24.273c-3.218,13.212-19.9,22.198-33.182,21.846
		c-13.372,0.509-26.564-3.435-38.497-9.216c-8.639-4.425-17.244-8.898-25.506-14.001C880.567,231.519,855.8,212.312,828.083,197.087
		z"/>
	<path d="M227.889,181.936c14.027,3.38,37.91,11.563,59.218,41.054c9.814,16.102,14.004,34.132,1.635,48.382
		c-2.149,2.561-5.174,4.109-7.851,6.033c24.394,9.743,43.355-17.926,31.234-36.474c-4.186-6.813-17.435-13.906-20.101-22.418
		c-0.446-3.039,3.572-3.278,5.529-2.196c14.389,8.038,21.429,42.074,53.406,55.708c6.415,2.78,13.787,2.766,20.474,1.024
		c7.947-2.024,14.318-9.189,15.201-17.375c-5.292,2.753-12.588,9.692-31.399-1.112c-14.647-8.389-26.331-20.761-39.164-31.516
		c-4.968-3.657-9.269-8.116-14.296-11.678c-18.131-13.295-33.584-23.586-59.517-29.432c25.932-5.846,41.386-16.137,59.517-29.432
		c5.027-3.562,9.329-8.021,14.296-11.678c12.834-10.755,24.518-23.127,39.164-31.516c18.81-10.804,26.107-3.865,31.399-1.112
		c-0.883-8.186-7.254-15.351-15.201-17.375c-6.688-1.741-14.059-1.756-20.474,1.024c-31.977,13.634-39.017,47.67-53.407,55.708
		c-1.957,1.083-5.975,0.844-5.529-2.196c2.666-8.512,15.915-15.604,20.101-22.418c12.121-18.548-6.84-46.217-31.234-36.474
		c2.677,1.924,5.703,3.472,7.851,6.033c12.369,14.25,8.179,32.28-1.635,48.382C265.799,170.373,241.917,178.556,227.889,181.936z"/>
	<path d="M181.936,1428.276c3.38-14.027,11.563-37.91,41.054-59.218c16.102-9.814,34.132-14.004,48.382-1.635
		c2.561,2.149,4.109,5.174,6.033,7.851c9.743-24.394-17.926-43.355-36.474-31.234c-6.813,4.186-13.906,17.435-22.418,20.101
		c-3.039,0.446-3.278-3.572-2.196-5.529c8.038-14.39,42.074-21.429,55.708-53.406c2.78-6.415,2.766-13.787,1.024-20.474
		c-2.024-7.947-9.189-14.318-17.375-15.201c2.753,5.292,9.692,12.588-1.112,31.399c-8.389,14.647-20.761,26.33-31.516,39.164
		c-3.657,4.968-8.116,9.269-11.678,14.296c-13.295,18.131-23.586,33.584-29.432,59.517c-5.846-25.932-16.137-41.386-29.432-59.517
		c-3.562-5.027-8.021-9.329-11.678-14.296c-10.755-12.834-23.127-24.518-31.516-39.164c-10.804-18.81-3.865-26.107-1.112-31.399
		c-8.186,0.883-15.351,7.254-17.375,15.201c-1.741,6.688-1.756,14.059,1.024,20.474c13.634,31.977,47.67,39.017,55.708,53.406
		c1.083,1.957,0.844,5.975-2.196,5.529c-8.512-2.666-15.604-15.915-22.418-20.101c-18.548-12.121-46.217,6.84-36.474,31.234
		c1.924-2.677,3.472-5.703,6.033-7.851c14.25-12.369,32.28-8.179,48.382,1.635C170.373,1390.366,178.556,1414.249,181.936,1428.276z
		"/>
	<path d="M1428.276,1474.229c-14.027-3.38-37.91-11.563-59.218-41.054c-9.814-16.102-14.004-34.133-1.635-48.382
		c2.149-2.561,5.174-4.109,7.851-6.033c-24.394-9.743-43.355,17.926-31.234,36.474c4.186,6.813,17.435,13.906,20.101,22.418
		c0.446,3.039-3.572,3.278-5.529,2.196c-14.39-8.038-21.429-42.074-53.406-55.708c-6.415-2.78-13.787-2.766-20.474-1.024
		c-7.947,2.024-14.318,9.189-15.201,17.375c5.292-2.753,12.588-9.692,31.399,1.112c14.647,8.389,26.33,20.761,39.164,31.516
		c4.968,3.657,9.269,8.116,14.296,11.678c18.131,13.295,33.584,23.586,59.517,29.432c-25.932,5.846-41.386,16.137-59.517,29.432
		c-5.027,3.562-9.329,8.021-14.296,11.678c-12.834,10.755-24.518,23.127-39.164,31.516c-18.81,10.804-26.107,3.865-31.399,1.112
		c0.883,8.186,7.254,15.351,15.201,17.375c6.688,1.741,14.059,1.756,20.474-1.024c31.977-13.634,39.017-47.67,53.406-55.708
		c1.957-1.083,5.975-0.844,5.529,2.196c-2.666,8.512-15.915,15.604-20.101,22.418c-12.121,18.548,6.84,46.217,31.234,36.474
		c-2.677-1.924-5.703-3.472-7.851-6.033c-12.369-14.25-8.179-32.28,1.635-48.382
		C1390.366,1485.792,1414.249,1477.61,1428.276,1474.229z"/>
	<path d="M1474.229,227.889c-3.38,14.027-11.563,37.91-41.054,59.218c-16.102,9.814-34.133,14.004-48.382,1.635
		c-2.561-2.149-4.109-5.174-6.033-7.851c-9.743,24.394,17.926,43.355,36.474,31.234c6.813-4.186,13.906-17.435,22.418-20.101
		c3.039-0.446,3.278,3.572,2.196,5.529c-8.038,14.389-42.074,21.429-55.708,53.406c-2.78,6.415-2.766,13.787-1.024,20.474
		c2.024,7.947,9.189,14.318,17.375,15.201c-2.753-5.292-9.692-12.588,1.112-31.399c8.389-14.647,20.761-26.331,31.516-39.164
		c3.657-4.968,8.116-9.269,11.678-14.296c13.295-18.131,23.586-33.584,29.432-59.517c5.846,25.932,16.137,41.386,29.432,59.517
		c3.562,5.027,8.021,9.329,11.678,14.296c10.755,12.834,23.127,24.518,31.516,39.164c10.804,18.81,3.865,26.107,1.112,31.399
		c8.186-0.883,15.351-7.254,17.375-15.201c1.741-6.688,1.756-14.059-1.024-20.474c-13.634-31.977-47.67-39.017-55.708-53.407
		c-1.083-1.957-0.844-5.975,2.196-5.529c8.512,2.666,15.604,15.915,22.418,20.101c18.548,12.121,46.217-6.84,36.474-31.234
		c-1.924,2.677-3.472,5.703-6.033,7.851c-14.25,12.369-32.28,8.179-48.382-1.635C1485.792,265.799,1477.61,241.917,1474.229,227.889
		z"/>
	<path d="M1428.276,181.936c-14.027,3.38-37.91,11.563-59.218,41.054c-9.814,16.102-14.004,34.132-1.635,48.382
		c2.149,2.561,5.174,4.109,7.851,6.033c-24.394,9.743-43.355-17.926-31.234-36.474c4.186-6.813,17.435-13.906,20.101-22.418
		c0.446-3.039-3.572-3.278-5.529-2.196c-14.39,8.038-21.429,42.074-53.406,55.708c-6.415,2.78-13.787,2.766-20.474,1.024
		c-7.947-2.024-14.318-9.189-15.201-17.375c5.292,2.753,12.588,9.692,31.399-1.112c14.647-8.389,26.33-20.761,39.164-31.516
		c4.968-3.657,9.269-8.116,14.296-11.678c18.131-13.295,33.584-23.586,59.517-29.432c-25.932-5.846-41.386-16.137-59.517-29.432
		c-5.027-3.562-9.329-8.021-14.296-11.678c-12.834-10.755-24.518-23.127-39.164-31.516c-18.81-10.804-26.107-3.865-31.399-1.112
		c0.883-8.186,7.254-15.351,15.201-17.375c6.688-1.741,14.059-1.756,20.474,1.024c31.977,13.634,39.017,47.67,53.406,55.708
		c1.957,1.083,5.975,0.844,5.529-2.196c-2.666-8.512-15.915-15.604-20.101-22.418c-12.121-18.548,6.84-46.217,31.234-36.474
		c-2.677,1.924-5.703,3.472-7.851,6.033c-12.369,14.25-8.179,32.28,1.635,48.382
		C1390.366,170.373,1414.249,178.556,1428.276,181.936z"/>
	<path d="M181.936,227.889c3.38,14.027,11.563,37.91,41.054,59.218c16.102,9.814,34.132,14.004,48.382,1.635
		c2.561-2.149,4.109-5.174,6.033-7.851c9.743,24.394-17.926,43.355-36.474,31.234c-6.813-4.186-13.906-17.435-22.418-20.101
		c-3.039-0.446-3.278,3.572-2.196,5.529c8.038,14.389,42.074,21.429,55.708,53.406c2.78,6.415,2.766,13.787,1.024,20.474
		c-2.024,7.947-9.189,14.318-17.375,15.201c2.753-5.292,9.692-12.588-1.112-31.399c-8.389-14.647-20.761-26.331-31.516-39.164
		c-3.657-4.968-8.116-9.269-11.678-14.296c-13.295-18.131-23.586-33.584-29.432-59.517c-5.846,25.932-16.137,41.386-29.432,59.517
		c-3.562,5.027-8.021,9.329-11.678,14.296c-10.755,12.834-23.127,24.518-31.516,39.164c-10.804,18.81-3.865,26.107-1.112,31.399
		c-8.186-0.883-15.351-7.254-17.375-15.201c-1.741-6.688-1.756-14.059,1.024-20.474c13.634-31.977,47.67-39.017,55.708-53.407
		c1.083-1.957,0.844-5.975-2.196-5.529c-8.512,2.666-15.604,15.915-22.418,20.101c-18.548,12.121-46.217-6.84-36.474-31.234
		c1.924,2.677,3.472,5.703,6.033,7.851c14.25,12.369,32.28,8.179,48.382-1.635C170.373,265.799,178.556,241.917,181.936,227.889z"/>
	<path d="M227.889,1474.229c14.027-3.38,37.91-11.563,59.218-41.054c9.814-16.102,14.004-34.133,1.635-48.382
		c-2.149-2.561-5.174-4.109-7.851-6.033c24.394-9.743,43.355,17.926,31.234,36.474c-4.186,6.813-17.435,13.906-20.101,22.418
		c-0.446,3.039,3.572,3.278,5.529,2.196c14.389-8.038,21.429-42.074,53.406-55.708c6.415-2.78,13.787-2.766,20.474-1.024
		c7.947,2.024,14.318,9.189,15.201,17.375c-5.292-2.753-12.588-9.692-31.399,1.112c-14.647,8.389-26.331,20.761-39.164,31.516
		c-4.968,3.657-9.269,8.116-14.296,11.678c-18.131,13.295-33.584,23.586-59.517,29.432c25.932,5.846,41.386,16.137,59.517,29.432
		c5.027,3.562,9.329,8.021,14.296,11.678c12.834,10.755,24.518,23.127,39.164,31.516c18.81,10.804,26.107,3.865,31.399,1.112
		c-0.883,8.186-7.254,15.351-15.201,17.375c-6.688,1.741-14.059,1.756-20.474-1.024c-31.977-13.634-39.017-47.67-53.407-55.708
		c-1.957-1.083-5.975-0.844-5.529,2.196c2.666,8.512,15.915,15.604,20.101,22.418c12.121,18.548-6.84,46.217-31.234,36.474
		c2.677-1.924,5.703-3.472,7.851-6.033c12.369-14.25,8.179-32.28-1.635-48.382C265.799,1485.792,241.917,1477.61,227.889,1474.229z"
		/>
	<path d="M1474.229,1428.276c-3.38-14.027-11.563-37.91-41.054-59.218c-16.102-9.814-34.133-14.004-48.382-1.635
		c-2.561,2.149-4.109,5.174-6.033,7.851c-9.743-24.394,17.926-43.355,36.474-31.234c6.813,4.186,13.906,17.435,22.418,20.101
		c3.039,0.446,3.278-3.572,2.196-5.529c-8.038-14.39-42.074-21.429-55.708-53.406c-2.78-6.415-2.766-13.787-1.024-20.474
		c2.024-7.947,9.189-14.318,17.375-15.201c-2.753,5.292-9.692,12.588,1.112,31.399c8.389,14.647,20.761,26.33,31.516,39.164
		c3.657,4.968,8.116,9.269,11.678,14.296c13.295,18.131,23.586,33.584,29.432,59.517c5.846-25.932,16.137-41.386,29.432-59.517
		c3.562-5.027,8.021-9.329,11.678-14.296c10.755-12.834,23.127-24.518,31.516-39.164c10.804-18.81,3.865-26.107,1.112-31.399
		c8.186,0.883,15.351,7.254,17.375,15.201c1.741,6.688,1.756,14.059-1.024,20.474c-13.634,31.977-47.67,39.017-55.708,53.406
		c-1.083,1.957-0.844,5.975,2.196,5.529c8.512-2.666,15.604-15.915,22.418-20.101c18.548-12.121,46.217,6.84,36.474,31.234
		c-1.924-2.677-3.472-5.703-6.033-7.851c-14.25-12.369-32.28-8.179-48.382,1.635
		C1485.792,1390.366,1477.61,1414.249,1474.229,1428.276z"/>
	<path d="M1520.846,828.083c4.369-4.697,8.42-10.185,12.378-12.617c13.365-8.734,31.466-1.33,36.893,12.617
		c-5.427,13.946-23.528,21.35-36.893,12.617C1529.266,838.268,1525.215,832.779,1520.846,828.083z"/>
	<path d="M828.083,1520.846c4.697,4.369,10.185,8.42,12.617,12.378c8.734,13.365,1.33,31.466-12.617,36.893
		c-13.946-5.427-21.35-23.528-12.617-36.893C817.897,1529.266,823.386,1525.215,828.083,1520.846z"/>
	<path d="M135.32,828.083c-4.369,4.697-8.42,10.185-12.378,12.617c-13.365,8.734-31.466,1.33-36.893-12.617
		c5.427-13.946,23.528-21.35,36.893-12.617C126.899,817.897,130.951,823.386,135.32,828.083z"/>
	<path d="M828.083,135.32c-4.697-4.369-10.185-8.42-12.617-12.378c-8.734-13.365-1.33-31.466,12.617-36.893
		c13.946,5.427,21.35,23.528,12.617,36.893C838.268,126.899,832.779,130.951,828.083,135.32z"/>
	<path d="M1502.005,828.083c0.547-0.752,1.099-1.507,1.656-2.267c3.562-5.027,8.021-9.329,11.678-14.296
		c10.755-12.834,23.127-24.518,31.516-39.164c10.804-18.81,3.865-26.107,1.112-31.399c8.186,0.883,15.351,7.254,17.375,15.201
		c1.741,6.688,1.756,14.059-1.024,20.474c-13.003,30.496-44.561,38.311-54.428,51.451c9.868,13.14,41.425,20.955,54.428,51.451
		c2.78,6.415,2.766,13.787,1.024,20.474c-2.024,7.947-9.189,14.318-17.375,15.201c2.753-5.292,9.692-12.588-1.112-31.399
		c-8.389-14.647-20.761-26.33-31.516-39.164c-3.657-4.967-8.116-9.269-11.678-14.296
		C1503.104,829.59,1502.552,828.834,1502.005,828.083z"/>
	<path d="M828.083,1502.005c0.752,0.547,1.507,1.099,2.267,1.656c5.027,3.562,9.329,8.021,14.296,11.678
		c12.834,10.755,24.518,23.127,39.164,31.516c18.81,10.804,26.107,3.865,31.399,1.112c-0.883,8.186-7.254,15.351-15.201,17.375
		c-6.688,1.741-14.059,1.756-20.474-1.024c-30.496-13.003-38.311-44.561-51.451-54.428c-13.14,9.868-20.955,41.425-51.451,54.428
		c-6.415,2.78-13.787,2.766-20.474,1.024c-7.947-2.024-14.318-9.189-15.201-17.375c5.292,2.753,12.588,9.692,31.399-1.112
		c14.647-8.389,26.33-20.761,39.164-31.516c4.968-3.657,9.269-8.116,14.296-11.678
		C826.576,1503.104,827.331,1502.552,828.083,1502.005z"/>
	<path d="M154.16,828.083c-0.547,0.752-1.099,1.507-1.656,2.267c-3.562,5.027-8.021,9.329-11.678,14.296
		c-10.755,12.834-23.127,24.518-31.516,39.164c-10.804,18.81-3.865,26.107-1.112,31.399c-8.186-0.883-15.351-7.254-17.375-15.201
		c-1.741-6.688-1.756-14.059,1.024-20.474c13.003-30.496,44.561-38.311,54.428-51.451c-9.868-13.14-41.425-20.955-54.428-51.451
		c-2.78-6.415-2.766-13.787-1.024-20.474c2.024-7.947,9.189-14.318,17.375-15.201c-2.753,5.292-9.692,12.588,1.112,31.399
		c8.389,14.647,20.761,26.33,31.516,39.164c3.657,4.968,8.116,9.269,11.678,14.296C153.062,826.576,153.614,827.331,154.16,828.083z
		"/>
	<path d="M828.083,154.16c-0.752-0.547-1.507-1.099-2.267-1.656c-5.027-3.562-9.329-8.021-14.296-11.678
		c-12.834-10.755-24.518-23.127-39.164-31.516c-18.81-10.804-26.107-3.865-31.399-1.112c0.883-8.186,7.254-15.351,15.201-17.375
		c6.688-1.741,14.059-1.756,20.474,1.024c30.496,13.003,38.311,44.561,51.451,54.428c13.14-9.868,20.955-41.425,51.451-54.428
		c6.415-2.78,13.787-2.766,20.474-1.024c7.947,2.024,14.318,9.189,15.201,17.375c-5.292-2.753-12.588-9.692-31.399,1.112
		c-14.647,8.389-26.33,20.761-39.164,31.516c-4.967,3.657-9.269,8.116-14.296,11.678C829.59,153.062,828.834,153.614,828.083,154.16
		z"/>
	<path d="M1438.569,828.083c-9.868-13.14-41.425-20.955-54.428-51.451c-2.78-6.415-2.766-13.787-1.024-20.474
		c2.024-7.947,9.189-14.318,17.375-15.201c-2.753,5.292-9.692,12.588,1.112,31.399c8.389,14.647,20.761,26.331,31.516,39.164
		c3.657,4.968,8.116,9.269,11.678,14.296c0.557,0.76,1.109,1.515,1.656,2.267c-0.547,0.752-1.099,1.507-1.656,2.267
		c-3.562,5.027-8.021,9.329-11.678,14.296c-10.755,12.834-23.127,24.518-31.516,39.164c-10.804,18.81-3.865,26.107-1.112,31.399
		c-8.186-0.883-15.351-7.254-17.375-15.201c-1.741-6.688-1.756-14.059,1.024-20.474
		C1397.143,849.038,1428.701,841.223,1438.569,828.083z"/>
	<path d="M828.083,1438.569c13.14-9.868,20.955-41.425,51.451-54.428c6.415-2.78,13.787-2.766,20.474-1.024
		c7.947,2.024,14.318,9.189,15.201,17.375c-5.292-2.753-12.588-9.692-31.399,1.112c-14.647,8.389-26.33,20.761-39.164,31.516
		c-4.968,3.657-9.269,8.116-14.296,11.678c-0.76,0.557-1.515,1.109-2.267,1.656c-0.752-0.547-1.507-1.099-2.267-1.656
		c-5.027-3.562-9.329-8.021-14.296-11.678c-12.834-10.755-24.518-23.127-39.164-31.516c-18.81-10.804-26.107-3.865-31.399-1.112
		c0.883-8.186,7.254-15.351,15.201-17.375c6.688-1.741,14.059-1.756,20.474,1.024
		C807.128,1397.143,814.943,1428.701,828.083,1438.569z"/>
	<path d="M217.597,828.083c9.868,13.14,41.425,20.955,54.428,51.451c2.78,6.415,2.766,13.787,1.024,20.474
		c-2.024,7.947-9.189,14.318-17.375,15.201c2.753-5.292,9.692-12.588-1.112-31.399c-8.389-14.647-20.761-26.33-31.516-39.164
		c-3.657-4.968-8.116-9.269-11.678-14.296c-0.557-0.76-1.109-1.515-1.656-2.267c0.547-0.752,1.099-1.507,1.656-2.267
		c3.562-5.027,8.021-9.329,11.678-14.296c10.755-12.834,23.127-24.518,31.516-39.164c10.804-18.81,3.865-26.107,1.112-31.399
		c8.186,0.883,15.351,7.254,17.375,15.201c1.741,6.688,1.756,14.059-1.024,20.474C259.022,807.128,227.465,814.943,217.597,828.083z
		"/>
	<path d="M828.083,217.597c-13.14,9.868-20.955,41.425-51.451,54.428c-6.415,2.78-13.787,2.766-20.474,1.024
		c-7.947-2.024-14.318-9.189-15.201-17.375c5.292,2.753,12.588,9.692,31.399-1.112c14.647-8.389,26.331-20.761,39.164-31.516
		c4.968-3.657,9.269-8.116,14.296-11.678c0.76-0.557,1.515-1.109,2.267-1.656c0.752,0.547,1.507,1.099,2.267,1.656
		c5.027,3.562,9.329,8.021,14.296,11.678c12.834,10.755,24.518,23.127,39.164,31.516c18.81,10.804,26.107,3.865,31.399,1.112
		c-0.883,8.186-7.254,15.351-15.201,17.375c-6.688,1.741-14.059,1.756-20.474-1.024
		C849.038,259.022,841.223,227.465,828.083,217.597z"/>
	<path d="M1378.342,828.083c5.427-13.946,23.528-21.35,36.893-12.617c3.957,2.431,8.009,7.92,12.378,12.617
		c-4.369,4.697-8.42,10.185-12.378,12.617C1401.87,849.433,1383.769,842.029,1378.342,828.083z"/>
	<path d="M828.083,1378.342c13.946,5.427,21.35,23.528,12.617,36.893c-2.431,3.957-7.92,8.009-12.617,12.378
		c-4.697-4.369-10.185-8.42-12.617-12.378C806.732,1401.87,814.136,1383.769,828.083,1378.342z"/>
	<path d="M277.824,828.083c-5.427,13.946-23.528,21.35-36.893,12.617c-3.957-2.431-8.009-7.92-12.378-12.617
		c4.369-4.697,8.42-10.185,12.378-12.617C254.296,806.732,272.397,814.136,277.824,828.083z"/>
	<path d="M828.083,277.824c-13.946-5.427-21.35-23.528-12.617-36.893c2.431-3.957,7.92-8.009,12.617-12.378
		c4.697,4.369,10.185,8.42,12.617,12.378C849.433,254.296,842.029,272.397,828.083,277.824z"/>
	<path d="M323.224,108.161c2.597-3.504,6.571-5.597,9.367-8.889c-0.529-5.279-2.584-10.452-5.398-14.94
		c-4.333,3.007-8.405,6.728-10.888,11.428c0.388,2.429,1.53,4.654,2.064,7.05c0.736,2.655,0.734,5.432,1.151,8.127
		C321.364,111.572,322.057,109.14,323.224,108.161z"/>
	<path d="M108.161,1332.942c-3.504-2.597-5.597-6.571-8.889-9.367c-5.279,0.529-10.452,2.584-14.94,5.398
		c3.007,4.333,6.728,8.405,11.428,10.888c2.429-0.388,4.654-1.53,7.05-2.064c2.655-0.736,5.432-0.734,8.127-1.151
		C111.572,1334.802,109.14,1334.109,108.161,1332.942z"/>
	<path d="M1332.942,1548.005c-2.597,3.504-6.571,5.597-9.367,8.889c0.529,5.279,2.584,10.452,5.398,14.94
		c4.333-3.007,8.405-6.728,10.888-11.428c-0.388-2.429-1.53-4.654-2.064-7.051c-0.736-2.655-0.734-5.432-1.151-8.127
		C1334.802,1544.594,1334.109,1547.026,1332.942,1548.005z"/>
	<path d="M1548.005,323.224c3.504,2.597,5.597,6.571,8.889,9.367c5.279-0.529,10.452-2.584,14.94-5.398
		c-3.007-4.333-6.728-8.405-11.428-10.888c-2.429,0.388-4.654,1.53-7.051,2.064c-2.655,0.736-5.432,0.734-8.127,1.151
		C1544.594,321.364,1547.026,322.057,1548.005,323.224z"/>
	<path d="M1332.942,108.161c-2.597-3.504-6.571-5.597-9.367-8.889c0.529-5.279,2.584-10.452,5.398-14.94
		c4.333,3.007,8.405,6.728,10.888,11.428c-0.388,2.429-1.53,4.654-2.064,7.05c-0.736,2.655-0.734,5.432-1.151,8.127
		C1334.802,111.572,1334.109,109.14,1332.942,108.161z"/>
	<path d="M108.161,323.224c-3.504,2.597-5.597,6.571-8.889,9.367c-5.279-0.529-10.452-2.584-14.94-5.398
		c3.007-4.333,6.728-8.405,11.428-10.888c2.429,0.388,4.654,1.53,7.05,2.064c2.655,0.736,5.432,0.734,8.127,1.151
		C111.572,321.364,109.14,322.057,108.161,323.224z"/>
	<path d="M323.224,1548.005c2.597,3.504,6.571,5.597,9.367,8.889c-0.529,5.279-2.584,10.452-5.398,14.94
		c-4.333-3.007-8.405-6.728-10.888-11.428c0.388-2.429,1.53-4.654,2.064-7.051c0.736-2.655,0.734-5.432,1.151-8.127
		C321.364,1544.594,322.057,1547.026,323.224,1548.005z"/>
	<path d="M1548.005,1332.942c3.504-2.597,5.597-6.571,8.889-9.367c5.279,0.529,10.452,2.584,14.94,5.398
		c-3.007,4.333-6.728,8.405-11.428,10.888c-2.429-0.388-4.654-1.53-7.051-2.064c-2.655-0.736-5.432-0.734-8.127-1.151
		C1544.594,1334.802,1547.026,1334.109,1548.005,1332.942z"/>
	<path d="M804.367,108.161c-2.597-3.504-6.571-5.597-9.367-8.889c0.529-5.279,2.584-10.452,5.398-14.94
		c4.333,3.007,8.405,6.728,10.888,11.428c-0.388,2.429-1.53,4.654-2.064,7.05c-0.736,2.655-0.734,5.432-1.151,8.127
		C806.228,111.572,805.534,109.14,804.367,108.161z"/>
	<path d="M108.161,851.798c-3.504,2.597-5.597,6.571-8.889,9.367c-5.279-0.529-10.452-2.584-14.94-5.398
		c3.007-4.333,6.728-8.405,11.428-10.888c2.429,0.388,4.654,1.53,7.05,2.064c2.655,0.736,5.432,0.734,8.127,1.151
		C111.572,849.938,109.14,850.631,108.161,851.798z"/>
	<path d="M851.798,1548.005c2.597,3.504,6.571,5.597,9.367,8.889c-0.529,5.279-2.584,10.452-5.398,14.94
		c-4.333-3.007-8.405-6.728-10.888-11.428c0.388-2.429,1.53-4.654,2.064-7.051c0.736-2.655,0.734-5.432,1.151-8.127
		C849.938,1544.594,850.631,1547.026,851.798,1548.005z"/>
	<path d="M1548.005,804.367c3.504-2.597,5.597-6.571,8.889-9.367c5.279,0.529,10.452,2.584,14.94,5.398
		c-3.007,4.333-6.728,8.405-11.428,10.888c-2.429-0.388-4.654-1.53-7.051-2.064c-2.655-0.736-5.432-0.734-8.127-1.151
		C1544.594,806.228,1547.026,805.534,1548.005,804.367z"/>
	<path d="M851.798,108.161c2.597-3.504,6.571-5.597,9.367-8.889c-0.529-5.279-2.584-10.452-5.398-14.94
		c-4.333,3.007-8.405,6.728-10.888,11.428c0.388,2.429,1.53,4.654,2.064,7.05c0.736,2.655,0.734,5.432,1.151,8.127
		C849.938,111.572,850.631,109.14,851.798,108.161z"/>
	<path d="M108.161,804.367c-3.504-2.597-5.597-6.571-8.889-9.367c-5.279,0.529-10.452,2.584-14.94,5.398
		c3.007,4.333,6.728,8.405,11.428,10.888c2.429-0.388,4.654-1.53,7.05-2.064c2.655-0.736,5.432-0.734,8.127-1.151
		C111.572,806.228,109.14,805.534,108.161,804.367z"/>
	<path d="M804.367,1548.005c-2.597,3.504-6.571,5.597-9.367,8.889c0.529,5.279,2.584,10.452,5.398,14.94
		c4.333-3.007,8.405-6.728,10.888-11.428c-0.388-2.429-1.53-4.654-2.064-7.051c-0.736-2.655-0.734-5.432-1.151-8.127
		C806.228,1544.594,805.534,1547.026,804.367,1548.005z"/>
	<path d="M1548.005,851.798c3.504,2.597,5.597,6.571,8.889,9.367c5.279-0.529,10.452-2.584,14.94-5.398
		c-3.007-4.333-6.728-8.405-11.428-10.888c-2.429,0.388-4.654,1.53-7.051,2.064c-2.655,0.736-5.432,0.734-8.127,1.151
		C1544.594,849.938,1547.026,850.631,1548.005,851.798z"/>
	<path d="M323.224,255.712c-1.167-0.979-1.86-3.411-3.704-2.777c-0.417,2.694-0.415,5.472-1.151,8.127
		c-0.534,2.397-1.675,4.621-2.064,7.05c2.483,4.701,6.556,8.421,10.888,11.428c2.813-4.488,4.868-9.661,5.398-14.94
		C329.795,261.308,325.82,259.216,323.224,255.712z"/>
	<path d="M255.712,1332.942c-0.979,1.167-3.411,1.86-2.777,3.704c2.694,0.417,5.472,0.415,8.127,1.151
		c2.397,0.534,4.621,1.675,7.05,2.063c4.701-2.484,8.421-6.556,11.428-10.888c-4.488-2.813-9.661-4.868-14.94-5.398
		C261.308,1326.37,259.216,1330.345,255.712,1332.942z"/>
	<path d="M1332.942,1400.454c1.167,0.979,1.86,3.411,3.704,2.777c0.417-2.694,0.415-5.472,1.151-8.127
		c0.534-2.397,1.675-4.621,2.063-7.051c-2.484-4.701-6.556-8.421-10.888-11.428c-2.813,4.488-4.868,9.661-5.398,14.94
		C1326.37,1394.857,1330.345,1396.95,1332.942,1400.454z"/>
	<path d="M1400.454,323.224c0.979-1.167,3.411-1.86,2.777-3.704c-2.694-0.417-5.472-0.415-8.127-1.151
		c-2.397-0.534-4.621-1.675-7.051-2.064c-4.701,2.483-8.421,6.556-11.428,10.888c4.488,2.813,9.661,4.868,14.94,5.398
		C1394.857,329.795,1396.95,325.82,1400.454,323.224z"/>
	<path d="M1332.942,255.712c1.167-0.979,1.86-3.411,3.704-2.777c0.417,2.694,0.415,5.472,1.151,8.127
		c0.534,2.397,1.675,4.621,2.063,7.05c-2.484,4.701-6.556,8.421-10.888,11.428c-2.813-4.488-4.868-9.661-5.398-14.94
		C1326.37,261.308,1330.345,259.216,1332.942,255.712z"/>
	<path d="M255.712,323.224c-0.979-1.167-3.411-1.86-2.777-3.704c2.694-0.417,5.472-0.415,8.127-1.151
		c2.397-0.534,4.621-1.675,7.05-2.064c4.701,2.483,8.421,6.556,11.428,10.888c-4.488,2.813-9.661,4.868-14.94,5.398
		C261.308,329.795,259.216,325.82,255.712,323.224z"/>
	<path d="M323.224,1400.454c-1.167,0.979-1.86,3.411-3.704,2.777c-0.417-2.694-0.415-5.472-1.151-8.127
		c-0.534-2.397-1.675-4.621-2.064-7.051c2.483-4.701,6.556-8.421,10.888-11.428c2.813,4.488,4.868,9.661,5.398,14.94
		C329.795,1394.857,325.82,1396.95,323.224,1400.454z"/>
	<path d="M1400.454,1332.942c0.979,1.167,3.411,1.86,2.777,3.704c-2.694,0.417-5.472,0.415-8.127,1.151
		c-2.397,0.534-4.621,1.675-7.051,2.063c-4.701-2.484-8.421-6.556-11.428-10.888c4.488-2.813,9.661-4.868,14.94-5.398
		C1394.857,1326.37,1396.95,1330.345,1400.454,1332.942z"/>
	<path d="M804.367,255.712c1.167-0.979,1.86-3.411,3.704-2.777c0.417,2.694,0.415,5.472,1.151,8.127
		c0.534,2.397,1.675,4.621,2.064,7.05c-2.484,4.701-6.556,8.421-10.888,11.428c-2.813-4.488-4.868-9.661-5.398-14.94
		C797.796,261.308,801.771,259.216,804.367,255.712z"/>
	<path d="M255.712,851.798c-0.979-1.167-3.411-1.86-2.777-3.704c2.694-0.417,5.472-0.415,8.127-1.151
		c2.397-0.534,4.621-1.675,7.05-2.064c4.701,2.484,8.421,6.556,11.428,10.888c-4.488,2.813-9.661,4.868-14.94,5.398
		C261.308,858.369,259.216,854.395,255.712,851.798z"/>
	<path d="M851.798,1400.454c-1.167,0.979-1.86,3.411-3.704,2.777c-0.417-2.694-0.415-5.472-1.151-8.127
		c-0.534-2.397-1.675-4.621-2.064-7.051c2.484-4.701,6.556-8.421,10.888-11.428c2.813,4.488,4.868,9.661,5.398,14.94
		C858.369,1394.857,854.395,1396.95,851.798,1400.454z"/>
	<path d="M1400.454,804.367c0.979,1.167,3.411,1.86,2.777,3.704c-2.694,0.417-5.472,0.415-8.127,1.151
		c-2.397,0.534-4.621,1.675-7.051,2.064c-4.701-2.484-8.421-6.556-11.428-10.888c4.488-2.813,9.661-4.868,14.94-5.398
		C1394.857,797.796,1396.95,801.771,1400.454,804.367z"/>
	<path d="M851.798,255.712c-1.167-0.979-1.86-3.411-3.704-2.777c-0.417,2.694-0.415,5.472-1.151,8.127
		c-0.534,2.397-1.675,4.621-2.064,7.05c2.484,4.701,6.556,8.421,10.888,11.428c2.813-4.488,4.868-9.661,5.398-14.94
		C858.369,261.308,854.395,259.216,851.798,255.712z"/>
	<path d="M255.712,804.367c-0.979,1.167-3.411,1.86-2.777,3.704c2.694,0.417,5.472,0.415,8.127,1.151
		c2.397,0.534,4.621,1.675,7.05,2.064c4.701-2.484,8.421-6.556,11.428-10.888c-4.488-2.813-9.661-4.868-14.94-5.398
		C261.308,797.796,259.216,801.771,255.712,804.367z"/>
	<path d="M804.367,1400.454c1.167,0.979,1.86,3.411,3.704,2.777c0.417-2.694,0.415-5.472,1.151-8.127
		c0.534-2.397,1.675-4.621,2.064-7.051c-2.484-4.701-6.556-8.421-10.888-11.428c-2.813,4.488-4.868,9.661-5.398,14.94
		C797.796,1394.857,801.771,1396.95,804.367,1400.454z"/>
	<path d="M1400.454,851.798c0.979-1.167,3.411-1.86,2.777-3.704c-2.694-0.417-5.472-0.415-8.127-1.151
		c-2.397-0.534-4.621-1.675-7.051-2.064c-4.701,2.484-8.421,6.556-11.428,10.888c4.488,2.813,9.661,4.868,14.94,5.398
		C1394.857,858.369,1396.95,854.395,1400.454,851.798z"/>
	<path d="M140.105,140.105c3.301-2.383,6.332-5.13,9.311-7.898c-2.928-7.471-4.165-15.643-3.024-23.622
		c1.029-7.471,2.957-15.088,7.412-21.298c5.197-8.345,12.698-15.122,21.287-19.844c5.678-3.115,12.01-4.768,18.297-6.17
		c18.231-3.788,36.852-0.447,55.165,0.915c59.3,5.541,255.169,23.259,315.243,28.579c47.833-4.236,181.76-16.332,264.287-23.883
		c82.528,7.551,216.454,19.647,264.287,23.883c60.074-5.32,255.943-23.038,315.243-28.579c18.313-1.362,36.934-4.703,55.165-0.915
		c6.287,1.402,12.618,3.056,18.297,6.17c8.589,4.722,16.09,11.499,21.287,19.844c4.455,6.21,6.383,13.827,7.412,21.298
		c1.141,7.979-0.096,16.151-3.024,23.622c2.979,2.768,6.01,5.515,9.311,7.898c2.383,3.301,5.13,6.332,7.898,9.311
		c7.471-2.928,15.643-4.165,23.622-3.024c7.471,1.029,15.088,2.957,21.298,7.412c8.345,5.197,15.122,12.698,19.844,21.287
		c3.115,5.678,4.768,12.01,6.17,18.297c3.788,18.231,0.447,36.852-0.915,55.165c-5.541,59.3-23.259,255.169-28.579,315.243
		c4.236,47.833,16.332,181.76,23.883,264.287c-7.551,82.528-19.647,216.454-23.883,264.287
		c5.32,60.074,23.038,255.943,28.579,315.243c1.362,18.313,4.703,36.934,0.915,55.165c-1.402,6.287-3.056,12.618-6.17,18.297
		c-4.722,8.589-11.499,16.09-19.844,21.287c-6.21,4.455-13.827,6.383-21.298,7.412c-7.979,1.141-16.151-0.096-23.622-3.024
		c-2.768,2.979-5.515,6.01-7.898,9.311c-3.301,2.383-6.332,5.13-9.311,7.898c2.928,7.471,4.165,15.643,3.024,23.622
		c-1.029,7.471-2.957,15.088-7.412,21.298c-5.198,8.345-12.698,15.122-21.287,19.844c-5.678,3.115-12.01,4.768-18.297,6.17
		c-18.231,3.788-36.852,0.447-55.165-0.915c-59.3-5.541-255.169-23.259-315.243-28.579c-47.833,4.236-181.76,16.332-264.287,23.883
		c-82.528-7.551-216.454-19.647-264.287-23.883c-60.074,5.32-255.943,23.038-315.243,28.579
		c-18.313,1.362-36.934,4.703-55.165,0.915c-6.287-1.402-12.618-3.056-18.297-6.17c-8.589-4.722-16.09-11.499-21.287-19.844
		c-4.455-6.21-6.383-13.827-7.412-21.298c-1.141-7.979,0.096-16.151,3.024-23.622c-2.979-2.768-6.01-5.515-9.311-7.898
		c-2.383-3.301-5.13-6.332-7.898-9.311c-7.471,2.928-15.643,4.165-23.622,3.024c-7.471-1.029-15.088-2.957-21.298-7.412
		c-8.345-5.198-15.122-12.698-19.844-21.287c-3.115-5.678-4.768-12.01-6.17-18.297c-3.788-18.231-0.447-36.852,0.915-55.165
		c5.541-59.3,23.259-255.169,28.579-315.243c-4.236-47.833-16.332-181.76-23.883-264.287
		c7.551-82.528,19.647-216.454,23.883-264.287c-5.32-60.074-23.038-255.943-28.579-315.243c-1.362-18.313-4.703-36.934-0.915-55.165
		c1.402-6.287,3.056-12.618,6.17-18.297c4.722-8.589,11.499-16.09,19.844-21.287c6.21-4.455,13.827-6.383,21.298-7.412
		c7.979-1.141,16.151,0.096,23.622,3.024C134.975,146.437,137.723,143.406,140.105,140.105z M828.083,52.61
		c-77.103,6.941-213.653,19.271-264.287,24.071c-72.124-6.837-318.57-28.953-319.221-29.009c-15.043-1.199-45.644-5.951-65.37,2.36
		c-18.781,6.445-34.589,21.536-41.881,36.565c-3.079,7.562-5.357,15.576-5.803,23.766c-0.097,8.548,1.051,17.262,4.115,25.273
		c-8.011-3.063-16.726-4.211-25.273-4.115c-8.19,0.446-16.205,2.724-23.766,5.803c-15.029,7.292-30.12,23.099-36.565,41.881
		c-8.31,19.726-3.559,50.327-2.36,65.37c0.056,0.651,22.172,247.097,29.009,319.221c-4.8,50.634-17.13,187.184-24.071,264.287
		c6.941,77.103,19.271,213.653,24.071,264.287c-6.837,72.124-28.953,318.57-29.009,319.221c-1.199,15.043-5.951,45.644,2.36,65.37
		c6.445,18.781,21.536,34.589,36.565,41.881c7.562,3.079,15.576,5.357,23.766,5.803c8.548,0.097,17.262-1.051,25.273-4.115
		c-3.063,8.011-4.211,16.726-4.115,25.273c0.446,8.19,2.724,16.204,5.803,23.766c7.292,15.029,23.099,30.12,41.881,36.565
		c19.726,8.31,50.327,3.559,65.37,2.36c0.651-0.056,247.097-22.172,319.221-29.009c50.634,4.8,187.184,17.13,264.287,24.071
		c77.103-6.941,213.653-19.271,264.287-24.071c72.124,6.837,318.57,28.953,319.221,29.009c15.043,1.199,45.644,5.951,65.37-2.36
		c18.781-6.445,34.589-21.536,41.881-36.565c3.079-7.562,5.357-15.576,5.803-23.766c0.097-8.548-1.051-17.262-4.115-25.273
		c8.011,3.063,16.726,4.211,25.273,4.115c8.19-0.446,16.204-2.724,23.766-5.803c15.029-7.292,30.12-23.099,36.565-41.881
		c8.31-19.726,3.559-50.327,2.36-65.37c-0.056-0.651-22.172-247.097-29.009-319.221c4.8-50.634,17.13-187.184,24.071-264.287
		c-6.941-77.103-19.271-213.653-24.071-264.287c6.837-72.124,28.953-318.57,29.009-319.221c1.199-15.043,5.951-45.644-2.36-65.37
		c-6.445-18.781-21.536-34.589-36.565-41.881c-7.562-3.079-15.576-5.357-23.766-5.803c-8.548-0.097-17.262,1.051-25.273,4.115
		c3.063-8.011,4.211-16.726,4.115-25.273c-0.446-8.19-2.724-16.205-5.803-23.766c-7.292-15.029-23.099-30.12-41.881-36.565
		c-19.726-8.31-50.327-3.559-65.37-2.36c-0.651,0.056-247.097,22.172-319.221,29.009C1041.736,71.881,905.186,59.551,828.083,52.61z
		"/>
</g>
</svg>
