<?xml version="1.0" encoding="utf-8"?>

<!DOCTYPE svg PUBLIC "-//W3C//DTD SVG 1.1//EN" "http://www.w3.org/Graphics/SVG/1.1/DTD/svg11.dtd">
<svg version="1.1" id="Layer_1" xmlns="http://www.w3.org/2000/svg" xmlns:xlink="http://www.w3.org/1999/xlink" x="0px" y="0px"
	 viewBox="0 0 1653.571 1653.571" enable-background="new 0 0 1653.571 1653.571" xml:space="preserve">
<g>
	<path d="M870.014,223.641c0.445,0.476,0.889,0.961,1.334,1.447c-3.639,3.484-7.051,7.288-9.893,11.454
		c39.207-26.642,56.705-66.034,80.842-64.529c6.295,0.693,10.007,7.981,7.877,13.718c-1.503,8.929-54.885,42.779-118.254,66.968
		C843.585,246.982,864.044,235.183,870.014,223.641z M223.641,783.557c0.476-0.445,0.961-0.889,1.447-1.334
		c3.484,3.639,7.288,7.051,11.454,9.893c-26.642-39.207-66.034-56.705-64.529-80.842c0.693-6.295,7.981-10.007,13.718-7.877
		c8.929,1.503,42.779,54.885,66.968,118.254C246.982,809.986,235.183,789.527,223.641,783.557z M783.557,1429.93
		c-0.445-0.476-0.889-0.961-1.334-1.447c3.639-3.484,7.051-7.288,9.893-11.454c-39.207,26.642-56.705,66.034-80.842,64.529
		c-6.295-0.693-10.007-7.981-7.877-13.718c1.503-8.929,54.885-42.779,118.254-66.968
		C809.986,1406.589,789.527,1418.388,783.557,1429.93z M1429.93,870.014c-0.476,0.445-0.961,0.889-1.447,1.334
		c-3.484-3.639-7.288-7.051-11.454-9.893c26.642,39.207,66.034,56.705,64.529,80.842c-0.693,6.295-7.981,10.007-13.718,7.877
		c-8.929-1.503-42.779-54.885-66.968-118.254C1406.589,843.585,1418.388,864.044,1429.93,870.014z M1400.87,821.652
		c24.19-63.369,58.039-116.752,66.968-118.254c5.737-2.13,13.026,1.582,13.718,7.877c1.506,24.136-37.887,41.634-64.529,80.842
		c4.166-2.843,7.97-6.255,11.454-9.893c0.486,0.445,0.972,0.889,1.447,1.334C1418.388,789.527,1406.589,809.986,1400.87,821.652z
		 M821.652,252.701c-63.369-24.19-116.752-58.039-118.254-66.968c-2.13-5.737,1.582-13.026,7.877-13.718
		c24.136-1.506,41.634,37.887,80.842,64.529c-2.843-4.166-6.255-7.97-9.893-11.454c0.445-0.486,0.889-0.972,1.334-1.447
		C789.527,235.183,809.986,246.982,821.652,252.701z M252.701,831.919c-24.19,63.369-58.039,116.752-66.968,118.254
		c-5.737,2.13-13.026-1.582-13.718-7.877c-1.506-24.136,37.887-41.634,64.529-80.842c-4.166,2.843-7.97,6.255-11.454,9.893
		c-0.486-0.445-0.972-0.889-1.447-1.334C235.183,864.044,246.982,843.585,252.701,831.919z M831.919,1400.87
		c63.369,24.19,116.752,58.039,118.254,66.968c2.13,5.737-1.582,13.026-7.877,13.718c-24.136,1.506-41.634-37.887-80.842-64.529
		c2.843,4.166,6.255,7.97,9.893,11.454c-0.445,0.486-0.889,0.972-1.334,1.447C864.044,1418.388,843.585,1406.589,831.919,1400.87z
		 M826.786,272.561c31.077-9.768,62.692-22.316,94.132-37.921c61.644-30.911,132.731-79.14,128.199-147.81
		c17.463-18.159,56.811-0.854,22.495,50.283c5.561-10.327,11.754-21.575,9.965-33.753c-1.054-7.93-7.04-14.298-14.235-17.306
		c2.564,4.321,5.065,8.818,5.83,13.863c4.336,26.175-21.392,57.4-41.114,75.331c-53.894,40.745-121.181,66.131-141.318,76.345
		c73.792-26.412,207.215-72.257,224.392-141.049c9.338-36.238-37.705-54.077-67.734-33.867
		c-4.893-13.88-11.002-29.491-31.065-40.235c-28.312-15.406-76.547-12.809-94.911,13.729c-12.301,22.088,1.411,48.412,33.392,46.531
		c32.493-1.455,32.793-24.873,25.731-31.923c-7.393-7.255-24.154-11.161-32.254,3.215c-13.353-36.424,57.37-46.928,67.02,9.17
		c3.744,49.062-41.713,91.805-47.006,95.284c0-0.703-0.011-2.119-0.011-2.822c24.291-18.644,30.337-50.228,9.831-55.68
		c-19.913-4.947-31.399,11.325-23.736,21.627c8.615,13.625,32.527-0.654,12.198-9.366c10.464-8.93,32.276,9.079-0.879,38.798
		c-14.345-13.24-43.017-1.278-56.165,16.427c7.238-22.745,0.035-40.05-17.306-51.069c-15.192-10.406-24.625-12.574-18.577-32.316
		c-24.677,37.448,44.279,62.811-0.982,124.922c-0.569,0.113-1.716,0.331-2.285,0.434c6.141-5.776,20.854-31.376,13.894-53.199
		c-7.739-24.151-37.321-34.05-57.505-22.197c-20.183-11.853-49.766-1.954-57.505,22.197c-6.96,21.823,7.753,47.422,13.894,53.199
		c-0.569-0.104-1.716-0.321-2.285-0.434c-45.261-62.111,23.695-87.474-0.982-124.922c6.047,19.742-3.385,21.91-18.577,32.316
		c-17.341,11.019-24.544,28.324-17.306,51.069c-13.148-17.705-41.82-29.667-56.165-16.427
		c-33.155-29.719-11.343-47.728-0.879-38.798c-20.329,8.712,3.584,22.992,12.198,9.366c7.663-10.302-3.822-26.574-23.736-21.627
		c-20.506,5.452-14.459,37.036,9.831,55.68c0,0.703-0.011,2.119-0.011,2.822c-5.293-3.479-50.75-46.222-47.006-95.284
		c9.65-56.098,80.373-45.594,67.02-9.17c-8.1-14.376-24.861-10.47-32.254-3.215c-7.063,7.05-6.762,30.468,25.731,31.923
		c31.981,1.881,45.693-24.443,33.392-46.531c-18.364-26.538-66.599-29.135-94.911-13.729
		c-20.063,10.744-26.172,26.355-31.065,40.235c-30.029-20.21-77.071-2.371-67.734,33.867
		c17.177,68.792,150.6,114.637,224.392,141.049c-20.137-10.213-87.424-35.599-141.318-76.345
		c-19.721-17.931-45.449-49.157-41.113-75.331c0.765-5.045,3.267-9.542,5.83-13.863c-7.195,3.008-13.181,9.376-14.235,17.306
		c-1.788,12.178,4.404,23.426,9.965,33.753c-34.316-51.137,5.032-68.442,22.495-50.283c-4.531,68.67,66.555,116.899,128.199,147.81
		C764.093,250.245,795.708,262.793,826.786,272.561z M272.561,826.786c-9.768-31.077-22.316-62.692-37.921-94.132
		c-30.911-61.644-79.14-132.731-147.81-128.199c-18.159-17.463-0.854-56.811,50.283-22.495
		c-10.327-5.561-21.575-11.754-33.753-9.965c-7.93,1.054-14.298,7.04-17.306,14.235c4.321-2.564,8.818-5.065,13.863-5.83
		c26.175-4.336,57.4,21.392,75.331,41.113c40.745,53.894,66.131,121.181,76.345,141.318
		c-26.412-73.792-72.257-207.215-141.049-224.392c-36.238-9.338-54.077,37.705-33.867,67.734
		c-13.88,4.893-29.491,11.002-40.235,31.065c-15.406,28.312-12.809,76.547,13.729,94.911c22.088,12.301,48.412-1.411,46.531-33.392
		c-1.455-32.493-24.873-32.793-31.923-25.731c-7.255,7.393-11.161,24.154,3.215,32.254c-36.424,13.353-46.928-57.37,9.17-67.02
		c49.062-3.744,91.805,41.713,95.284,47.006c-0.703,0-2.119,0.011-2.822,0.011c-18.644-24.291-50.228-30.337-55.68-9.831
		c-4.947,19.913,11.325,31.399,21.627,23.736c13.625-8.615-0.654-32.527-9.366-12.198c-8.93-10.464,9.079-32.276,38.798,0.879
		c-13.24,14.345-1.278,43.017,16.427,56.165c-22.745-7.238-40.05-0.035-51.069,17.306c-10.406,15.192-12.574,24.624-32.316,18.577
		c37.448,24.677,62.811-44.279,124.922,0.982c0.113,0.569,0.331,1.716,0.434,2.285c-5.776-6.14-31.376-20.854-53.199-13.894
		c-24.151,7.739-34.05,37.321-22.197,57.505c-11.853,20.183-1.954,49.766,22.197,57.505c21.823,6.96,47.422-7.753,53.199-13.894
		c-0.104,0.569-0.321,1.716-0.434,2.285c-62.111,45.261-87.474-23.695-124.922,0.982c19.742-6.047,21.91,3.385,32.316,18.577
		c11.019,17.341,28.324,24.544,51.069,17.306c-17.705,13.148-29.667,41.82-16.427,56.165c-29.719,33.155-47.728,11.343-38.798,0.879
		c8.712,20.329,22.992-3.584,9.366-12.198c-10.302-7.663-26.574,3.822-21.627,23.736c5.452,20.506,37.036,14.459,55.68-9.831
		c0.703,0,2.119,0.011,2.822,0.011c-3.479,5.293-46.222,50.75-95.284,47.006c-56.098-9.65-45.594-80.373-9.17-67.02
		c-14.376,8.1-10.47,24.861-3.215,32.254c7.05,7.063,30.468,6.762,31.923-25.731c1.881-31.981-24.443-45.693-46.531-33.392
		c-26.538,18.364-29.135,66.599-13.729,94.911c10.744,20.063,26.355,26.172,40.235,31.065c-20.21,30.029-2.371,77.071,33.867,67.734
		c68.792-17.177,114.637-150.6,141.049-224.392c-10.213,20.137-35.599,87.424-76.345,141.318
		c-17.931,19.721-49.157,45.449-75.331,41.114c-5.045-0.765-9.542-3.267-13.863-5.83c3.008,7.195,9.376,13.181,17.306,14.235
		c12.178,1.788,23.426-4.404,33.753-9.965c-51.137,34.316-68.442-5.032-50.283-22.495c68.67,4.531,116.899-66.555,147.81-128.199
		C250.245,889.478,262.793,857.863,272.561,826.786z M826.786,1381.01c-31.077,9.768-62.692,22.316-94.132,37.921
		c-61.644,30.911-132.731,79.14-128.199,147.81c-17.463,18.159-56.811,0.854-22.495-50.283
		c-5.561,10.327-11.754,21.575-9.965,33.753c1.054,7.929,7.04,14.297,14.235,17.306c-2.564-4.321-5.065-8.818-5.83-13.863
		c-4.336-26.175,21.392-57.4,41.113-75.331c53.894-40.745,121.181-66.131,141.318-76.345
		c-73.792,26.412-207.215,72.257-224.392,141.049c-9.338,36.238,37.705,54.077,67.734,33.867
		c4.893,13.88,11.002,29.491,31.065,40.235c28.312,15.406,76.547,12.809,94.911-13.729c12.301-22.088-1.411-48.412-33.392-46.531
		c-32.493,1.455-32.793,24.873-25.731,31.923c7.393,7.255,24.154,11.161,32.254-3.215c13.353,36.424-57.37,46.928-67.02-9.17
		c-3.744-49.062,41.713-91.805,47.006-95.284c0,0.703,0.011,2.119,0.011,2.822c-24.291,18.644-30.337,50.228-9.831,55.68
		c19.913,4.947,31.399-11.325,23.736-21.627c-8.615-13.625-32.527,0.654-12.198,9.366c-10.464,8.93-32.276-9.079,0.879-38.798
		c14.345,13.24,43.017,1.278,56.165-16.427c-7.238,22.745-0.035,40.05,17.306,51.069c15.192,10.406,24.624,12.574,18.577,32.316
		c24.677-37.448-44.279-62.811,0.982-124.922c0.569-0.113,1.716-0.331,2.285-0.434c-6.14,5.776-20.854,31.376-13.894,53.198
		c7.739,24.151,37.321,34.05,57.505,22.197c20.183,11.853,49.766,1.954,57.505-22.197c6.96-21.823-7.753-47.422-13.894-53.198
		c0.569,0.104,1.716,0.321,2.285,0.434c45.261,62.111-23.695,87.474,0.982,124.922c-6.047-19.742,3.385-21.91,18.577-32.316
		c17.341-11.019,24.544-28.323,17.306-51.069c13.148,17.705,41.82,29.667,56.165,16.427c33.155,29.719,11.343,47.728,0.879,38.798
		c20.329-8.712-3.584-22.992-12.198-9.366c-7.663,10.302,3.822,26.574,23.736,21.627c20.506-5.452,14.459-37.036-9.831-55.68
		c0-0.703,0.011-2.119,0.011-2.822c5.293,3.479,50.75,46.222,47.006,95.284c-9.65,56.098-80.373,45.594-67.02,9.17
		c8.1,14.376,24.861,10.47,32.254,3.215c7.063-7.05,6.762-30.468-25.731-31.923c-31.981-1.881-45.693,24.443-33.392,46.531
		c18.364,26.538,66.599,29.135,94.911,13.729c20.063-10.744,26.172-26.355,31.065-40.235c30.029,20.21,77.071,2.371,67.734-33.867
		c-17.177-68.792-150.6-114.636-224.392-141.049c20.137,10.214,87.424,35.599,141.318,76.345
		c19.721,17.931,45.449,49.156,41.114,75.331c-0.765,5.045-3.267,9.542-5.83,13.863c7.195-3.008,13.181-9.376,14.235-17.306
		c1.788-12.178-4.404-23.426-9.965-33.753c34.316,51.137-5.032,68.442-22.495,50.283c4.531-68.67-66.555-116.899-128.199-147.81
		C889.478,1403.326,857.863,1390.778,826.786,1381.01z M1381.01,826.786c9.768,31.077,22.316,62.692,37.921,94.132
		c30.911,61.644,79.14,132.731,147.81,128.199c18.159,17.463,0.854,56.811-50.283,22.495c10.327,5.561,21.575,11.754,33.753,9.965
		c7.929-1.054,14.297-7.04,17.306-14.235c-4.321,2.564-8.818,5.065-13.863,5.83c-26.175,4.336-57.4-21.392-75.331-41.114
		c-40.745-53.894-66.131-121.181-76.345-141.318c26.412,73.792,72.257,207.215,141.049,224.392
		c36.238,9.338,54.077-37.705,33.867-67.734c13.88-4.893,29.491-11.002,40.235-31.065c15.406-28.312,12.809-76.547-13.729-94.911
		c-22.088-12.301-48.412,1.411-46.531,33.392c1.455,32.493,24.873,32.793,31.923,25.731c7.255-7.393,11.161-24.154-3.215-32.254
		c36.424-13.353,46.928,57.37-9.17,67.02c-49.062,3.744-91.805-41.713-95.284-47.006c0.703,0,2.119-0.011,2.822-0.011
		c18.644,24.291,50.228,30.337,55.68,9.831c4.947-19.913-11.325-31.399-21.627-23.736c-13.625,8.615,0.654,32.527,9.366,12.198
		c8.93,10.464-9.079,32.276-38.798-0.879c13.24-14.345,1.278-43.017-16.427-56.165c22.745,7.238,40.05,0.035,51.069-17.306
		c10.406-15.192,12.574-24.625,32.316-18.577c-37.448-24.677-62.811,44.279-124.922-0.982c-0.113-0.569-0.331-1.716-0.434-2.285
		c5.776,6.141,31.376,20.854,53.198,13.894c24.151-7.739,34.05-37.321,22.197-57.505c11.853-20.183,1.954-49.766-22.197-57.505
		c-21.823-6.96-47.422,7.753-53.198,13.894c0.104-0.569,0.321-1.716,0.434-2.285c62.111-45.261,87.474,23.695,124.922-0.982
		c-19.742,6.047-21.91-3.385-32.316-18.577c-11.019-17.341-28.323-24.544-51.069-17.306c17.705-13.148,29.667-41.82,16.427-56.165
		c29.719-33.155,47.728-11.343,38.798-0.879c-8.712-20.329-22.992,3.584-9.366,12.198c10.302,7.663,26.574-3.822,21.627-23.736
		c-5.452-20.506-37.036-14.459-55.68,9.831c-0.703,0-2.119-0.011-2.822-0.011c3.479-5.293,46.222-50.75,95.284-47.006
		c56.098,9.65,45.594,80.373,9.17,67.02c14.376-8.1,10.47-24.861,3.215-32.254c-7.05-7.063-30.468-6.762-31.923,25.731
		c-1.881,31.981,24.443,45.693,46.531,33.392c26.538-18.364,29.135-66.599,13.729-94.911
		c-10.744-20.063-26.355-26.172-40.235-31.065c20.21-30.029,2.371-77.071-33.867-67.734
		c-68.792,17.177-114.636,150.6-141.049,224.392c10.214-20.137,35.599-87.424,76.345-141.318
		c17.931-19.721,49.156-45.449,75.331-41.113c5.045,0.765,9.542,3.267,13.863,5.83c-3.008-7.195-9.376-13.181-17.306-14.235
		c-12.178-1.788-23.426,4.404-33.753,9.965c51.137-34.316,68.442,5.032,50.283,22.495c-68.67-4.531-116.899,66.555-147.81,128.199
		C1403.326,764.093,1390.778,795.708,1381.01,826.786z M826.786,190.345c1.196,0.44,2.462,0.84,3.8,1.197
		c0.682-5.034,3.143-9.924,7.433-12.798c23.372-16.62,44.948,33.776-11.233,69.936c-56.181-36.16-34.605-86.556-11.233-69.936
		c4.29,2.874,6.751,7.764,7.433,12.798C824.323,191.185,825.59,190.785,826.786,190.345z M190.345,826.786
		c0.44-1.196,0.84-2.462,1.197-3.8c-5.034-0.682-9.924-3.143-12.798-7.433c-16.62-23.372,33.776-44.948,69.936,11.233
		c-36.16,56.181-86.556,34.605-69.936,11.233c2.874-4.29,7.764-6.751,12.798-7.433C191.185,829.248,190.785,827.982,190.345,826.786
		z M826.786,1463.226c-1.196-0.44-2.462-0.84-3.8-1.197c-0.682,5.034-3.143,9.924-7.433,12.798
		c-23.372,16.62-44.948-33.776,11.233-69.936c56.181,36.16,34.605,86.556,11.233,69.936c-4.29-2.874-6.751-7.764-7.433-12.798
		C829.248,1462.386,827.982,1462.786,826.786,1463.226z M1463.226,826.786c-0.44,1.196-0.84,2.462-1.197,3.8
		c5.034,0.682,9.924,3.143,12.798,7.433c16.62,23.372-33.776,44.948-69.936-11.233c36.16-56.181,86.556-34.605,69.936-11.233
		c-2.874,4.29-7.764,6.751-12.798,7.433C1462.386,824.323,1462.786,825.59,1463.226,826.786z"/>
	<path d="M1508.714,1508.714c8.159-25.29-11.417-59.819-49.318-51.408c-0.566,0.129-1.128,0.264-1.686,0.405
		c-0.141,0.558-0.275,1.12-0.405,1.686C1448.894,1497.297,1483.424,1516.873,1508.714,1508.714z"/>
	<path d="M144.857,1508.714c25.29,8.159,59.82-11.417,51.408-49.318c-0.129-0.566-0.264-1.128-0.405-1.686
		c-0.558-0.141-1.12-0.275-1.686-0.405C156.274,1448.894,136.698,1483.424,144.857,1508.714z"/>
	<path d="M144.857,144.857c-8.159,25.29,11.417,59.82,49.318,51.408c0.566-0.129,1.128-0.264,1.686-0.405
		c0.14-0.558,0.275-1.12,0.405-1.686C204.677,156.274,170.147,136.698,144.857,144.857z"/>
	<path d="M1508.714,144.857c-25.29-8.159-59.819,11.417-51.408,49.318c0.129,0.566,0.264,1.128,0.405,1.686
		c0.558,0.14,1.12,0.275,1.686,0.405C1497.297,204.677,1516.873,170.147,1508.714,144.857z"/>
	<path d="M1417.487,1417.487c24.036-53.39,68.17-143.249,126.865-148.919c8.208-0.941,16.22,1.82,23.033,6.213
		c-5.594-14.278-21.271-22.984-52.919-2.802c46.13-35.239,72.801-2.302,52.537,21.069c-55.113-4.278-108.15,49.609-147.645,126.31
		c-76.701,39.495-130.588,92.532-126.31,147.645c-23.371,20.264-56.308-6.407-21.069-52.537
		c-20.182,31.648-11.477,47.325,2.802,52.919c-4.394-6.813-7.154-14.825-6.213-23.033
		C1274.238,1485.656,1364.096,1441.522,1417.487,1417.487z M1435.678,1435.678c7.784-13.521,16.784-27.484,26.87-40.534
		c5.94-7.508,31.082-5.254,11.723,24.118c-5.643,8.852-17.158,17.42-27.613,27.396c-9.975,10.456-18.543,21.971-27.396,27.613
		c-29.372,19.359-31.626-5.783-24.118-11.723C1408.194,1452.462,1422.157,1443.462,1435.678,1435.678z M1455.72,1455.72
		c42.812-13.272,68.313,33.418,99.062,13.009c-17.974,4.307-19.864-0.91-30.217-16.747c-12.482-20.347-30.26-26.559-51.906-19.621
		c22.304-18.327,26.539-45.104,15.899-55.783c28.497-33.429,47.887-11.525,38.756-0.755c-0.693-4.952-5.551-9.697-10.71-7.319
		c-6.193,4.186-5.169,14.421,0.651,18.566c6.244,5.686,16.86,2.533,20.417-4.704c14.264-28.34-21.611-48.065-53.963-8.426
		c-0.651,0.01-1.944,0.021-2.595,0.031c19.391-25.144,77.72-64.511,116.848-38.57c29.236,19.665,20.529,68.487-12.592,58.471
		c2.936-1.747,6.068-3.546,7.681-6.689c3.153-5.892,2.688-13.232,0.062-19.228c-7.073-15.993-24.175-9.934-29.887-2.337
		c-13.567,17.675-7.005,63.357,26.63,59.339c47.442-5.961,55.307-113.223-12.981-130.111
		c29.442-46.069-18.646-112.611-87.034-29.515c-27.625,33.715-54.027,95.274-74.606,149.903
		c-54.629,20.578-116.189,46.981-149.903,74.606c-83.096,68.388-16.554,116.476,29.515,87.034
		c16.888,68.288,124.151,60.423,130.111,12.981c4.018-33.635-41.664-40.197-59.339-26.63c-7.597,5.712-13.656,22.814,2.337,29.887
		c5.996,2.626,13.336,3.091,19.228-0.062c3.143-1.613,4.941-4.745,6.689-7.681c10.016,33.121-38.806,41.828-58.471,12.592
		c-25.94-39.128,13.427-97.457,38.57-116.848c-0.01,0.651-0.021,1.944-0.031,2.595c-39.64,32.352-19.915,68.227,8.426,53.963
		c7.236-3.556,10.39-14.173,4.704-20.417c-4.146-5.821-14.38-6.844-18.566-0.651c-2.378,5.159,2.368,10.017,7.319,10.71
		c-10.77,9.13-32.674-10.26,0.755-38.756c10.679,10.64,37.456,6.405,55.783-15.899c-6.938,21.646-0.726,39.424,19.621,51.906
		c15.837,10.353,21.054,12.243,16.747,30.217C1489.138,1524.032,1442.448,1498.532,1455.72,1455.72z"/>
	<path d="M236.084,1417.487c53.39,24.036,143.249,68.17,148.919,126.865c0.941,8.208-1.82,16.22-6.213,23.033
		c14.278-5.594,22.984-21.271,2.802-52.919c35.239,46.13,2.302,72.801-21.069,52.537c4.278-55.113-49.609-108.15-126.31-147.645
		c-39.495-76.701-92.532-130.588-147.645-126.31c-20.264-23.371,6.407-56.308,52.537-21.069
		c-31.648-20.182-47.325-11.477-52.919,2.802c6.813-4.394,14.825-7.154,23.033-6.213
		C167.915,1274.238,212.049,1364.096,236.084,1417.487z M217.893,1435.678c13.521,7.784,27.484,16.784,40.534,26.87
		c7.508,5.94,5.254,31.082-24.118,11.723c-8.852-5.643-17.42-17.158-27.396-27.613c-10.456-9.975-21.971-18.543-27.613-27.396
		c-19.359-29.372,5.783-31.626,11.723-24.118C201.109,1408.194,210.109,1422.157,217.893,1435.678z M197.852,1455.72
		c13.272,42.812-33.418,68.313-13.009,99.062c-4.307-17.974,0.91-19.864,16.747-30.217c20.347-12.482,26.559-30.26,19.621-51.906
		c18.326,22.304,45.104,26.539,55.783,15.899c33.429,28.497,11.525,47.887,0.755,38.756c4.952-0.693,9.697-5.551,7.319-10.71
		c-4.186-6.193-14.421-5.169-18.566,0.651c-5.686,6.244-2.533,16.86,4.704,20.417c28.34,14.264,48.065-21.611,8.426-53.963
		c-0.011-0.651-0.021-1.944-0.031-2.595c25.144,19.391,64.511,77.72,38.57,116.848c-19.665,29.236-68.487,20.529-58.471-12.592
		c1.748,2.936,3.546,6.068,6.689,7.681c5.892,3.153,13.232,2.688,19.228,0.062c15.993-7.073,9.934-24.175,2.337-29.887
		c-17.675-13.567-63.357-7.005-59.339,26.63c5.961,47.442,113.223,55.307,130.111-12.981
		c46.069,29.442,112.611-18.646,29.515-87.034c-33.715-27.625-95.274-54.027-149.903-74.606
		c-20.579-54.629-46.981-116.189-74.606-149.903c-68.388-83.096-116.476-16.554-87.034,29.515
		c-68.288,16.888-60.423,124.151-12.981,130.111c33.635,4.018,40.197-41.664,26.63-59.339c-5.712-7.597-22.814-13.656-29.887,2.337
		c-2.626,5.996-3.091,13.336,0.062,19.228c1.613,3.143,4.745,4.941,7.681,6.689c-33.121,10.016-41.828-38.806-12.592-58.471
		c39.128-25.94,97.457,13.427,116.848,38.57c-0.651-0.01-1.943-0.021-2.595-0.031c-32.352-39.64-68.227-19.915-53.963,8.426
		c3.556,7.236,14.173,10.39,20.417,4.704c5.82-4.146,6.844-14.38,0.651-18.566c-5.159-2.378-10.017,2.368-10.71,7.319
		c-9.13-10.77,10.26-32.674,38.756,0.755c-10.639,10.679-6.405,37.456,15.899,55.783c-21.646-6.938-39.424-0.726-51.906,19.621
		c-10.353,15.837-12.243,21.054-30.217,16.747C129.539,1489.138,155.039,1442.448,197.852,1455.72z"/>
	<path d="M236.084,236.084c-24.035,53.39-68.17,143.249-126.865,148.919c-8.208,0.941-16.22-1.82-23.033-6.213
		c5.594,14.278,21.271,22.984,52.919,2.802c-46.13,35.239-72.801,2.302-52.537-21.069c55.113,4.278,108.15-49.609,147.645-126.31
		c76.701-39.495,130.588-92.532,126.31-147.645c23.371-20.264,56.308,6.407,21.069,52.537c20.183-31.648,11.477-47.325-2.802-52.919
		c4.394,6.813,7.154,14.825,6.213,23.033C379.333,167.915,289.475,212.049,236.084,236.084z M217.893,217.893
		c-7.784,13.521-16.784,27.484-26.87,40.534c-5.94,7.508-31.082,5.254-11.723-24.118c5.643-8.852,17.158-17.42,27.613-27.396
		c9.975-10.456,18.543-21.971,27.396-27.613c29.372-19.359,31.626,5.783,24.118,11.723
		C245.377,201.109,231.414,210.109,217.893,217.893z M197.852,197.852c-42.812,13.272-68.313-33.418-99.062-13.009
		c17.974-4.307,19.864,0.91,30.217,16.747c12.482,20.347,30.26,26.559,51.906,19.621c-22.304,18.326-26.539,45.104-15.899,55.783
		c-28.497,33.429-47.887,11.525-38.756,0.755c0.693,4.952,5.551,9.697,10.71,7.319c6.193-4.186,5.169-14.421-0.651-18.566
		c-6.244-5.686-16.861-2.533-20.417,4.704c-14.264,28.34,21.611,48.065,53.963,8.426c0.651-0.011,1.943-0.021,2.595-0.031
		c-19.391,25.144-77.72,64.511-116.848,38.57c-29.236-19.665-20.529-68.487,12.592-58.471c-2.936,1.748-6.068,3.546-7.681,6.689
		c-3.153,5.892-2.688,13.232-0.062,19.228c7.073,15.993,24.175,9.934,29.887,2.337c13.567-17.675,7.005-63.357-26.63-59.339
		c-47.442,5.961-55.307,113.223,12.981,130.111c-29.442,46.069,18.646,112.611,87.034,29.515
		c27.625-33.715,54.027-95.274,74.606-149.903c54.629-20.579,116.189-46.981,149.903-74.606
		c83.096-68.388,16.554-116.476-29.515-87.034C341.837,8.408,234.574,16.273,228.613,63.715
		c-4.018,33.635,41.664,40.197,59.339,26.63c7.597-5.712,13.656-22.814-2.337-29.887c-5.996-2.626-13.336-3.091-19.228,0.062
		c-3.143,1.613-4.941,4.745-6.689,7.681c-10.016-33.121,38.806-41.828,58.471-12.592c25.94,39.128-13.427,97.457-38.57,116.848
		c0.011-0.651,0.02-1.943,0.031-2.595c39.64-32.352,19.915-68.227-8.426-53.963c-7.236,3.556-10.39,14.173-4.704,20.417
		c4.146,5.82,14.38,6.844,18.566,0.651c2.378-5.159-2.368-10.017-7.319-10.71c10.77-9.13,32.674,10.26-0.755,38.756
		c-10.679-10.639-37.456-6.405-55.783,15.899c6.938-21.646,0.726-39.424-19.621-51.906c-15.837-10.353-21.054-12.243-16.747-30.217
		C164.433,129.539,211.123,155.039,197.852,197.852z"/>
	<path d="M1417.487,236.084c-53.39-24.035-143.249-68.17-148.919-126.865c-0.941-8.208,1.82-16.22,6.213-23.033
		c-14.278,5.594-22.984,21.271-2.802,52.919c-35.239-46.13-2.302-72.801,21.069-52.537c-4.278,55.113,49.609,108.15,126.31,147.645
		c39.495,76.701,92.532,130.588,147.645,126.31c20.264,23.371-6.407,56.308-52.537,21.069c31.648,20.183,47.325,11.477,52.919-2.802
		c-6.813,4.394-14.825,7.154-23.033,6.213C1485.656,379.333,1441.522,289.475,1417.487,236.084z M1435.678,217.893
		c-13.521-7.784-27.484-16.784-40.534-26.87c-7.508-5.94-5.254-31.082,24.118-11.723c8.852,5.643,17.42,17.158,27.396,27.613
		c10.456,9.975,21.971,18.543,27.613,27.396c19.359,29.372-5.783,31.626-11.723,24.118
		C1452.462,245.377,1443.462,231.414,1435.678,217.893z M1455.72,197.852c-13.272-42.812,33.418-68.313,13.009-99.062
		c4.307,17.974-0.91,19.864-16.747,30.217c-20.347,12.482-26.559,30.26-19.621,51.906c-18.327-22.304-45.104-26.539-55.783-15.899
		c-33.429-28.497-11.525-47.887-0.755-38.756c-4.952,0.693-9.697,5.551-7.319,10.71c4.186,6.193,14.421,5.169,18.566-0.651
		c5.686-6.244,2.533-16.861-4.704-20.417c-28.34-14.264-48.065,21.611-8.426,53.963c0.01,0.651,0.021,1.943,0.031,2.595
		c-25.144-19.391-64.511-77.72-38.57-116.848c19.665-29.236,68.487-20.529,58.471,12.592c-1.747-2.936-3.546-6.068-6.689-7.681
		c-5.892-3.153-13.232-2.688-19.228-0.062c-15.993,7.073-9.934,24.175-2.337,29.887c17.675,13.567,63.357,7.005,59.339-26.63
		c-5.961-47.442-113.223-55.307-130.111,12.981c-46.069-29.442-112.611,18.646-29.515,87.034
		c33.715,27.625,95.274,54.027,149.903,74.606c20.578,54.629,46.981,116.189,74.606,149.903
		c68.388,83.096,116.476,16.554,87.034-29.515c68.288-16.888,60.423-124.151,12.981-130.111
		c-33.635-4.018-40.197,41.664-26.63,59.339c5.712,7.597,22.814,13.656,29.887-2.337c2.626-5.996,3.091-13.336-0.062-19.228
		c-1.613-3.143-4.745-4.941-7.681-6.689c33.121-10.016,41.828,38.806,12.592,58.471c-39.128,25.94-97.457-13.427-116.848-38.57
		c0.651,0.011,1.944,0.02,2.595,0.031c32.352,39.64,68.227,19.915,53.963-8.426c-3.556-7.236-14.173-10.39-20.417-4.704
		c-5.821,4.146-6.844,14.38-0.651,18.566c5.159,2.378,10.017-2.368,10.71-7.319c9.13,10.77-10.26,32.674-38.756-0.755
		c10.64-10.679,6.405-37.456-15.899-55.783c21.646,6.938,39.424,0.726,51.906-19.621c10.353-15.837,12.243-21.054,30.217-16.747
		C1524.032,164.433,1498.532,211.123,1455.72,197.852z"/>
	<path d="M1103.431,175.56c45.783-19.41,103.678-15.777,140.946,2.75c20.892,8.081,90.32,28.906,90.942,29.039
		c-90.648-34.265-112.91-93.934-140.604-68.447c21.873-5.916,21.619,7.735,35.18,28.057c-34.828-21.958-84.625-21.283-117.913,0.073
		c15.264-23.811,13.279-32.005,34.435-28.615c-4.714-4.414-11.609-6.327-17.926-4.9c-23.32,5.111-40.561,39.837-121.056,73.884
		C1008.054,207.254,1087.962,183.244,1103.431,175.56z"/>
	<path d="M175.56,550.14c-19.41-45.783-15.777-103.678,2.75-140.946c8.081-20.892,28.906-90.32,29.039-90.942
		c-34.265,90.648-93.934,112.91-68.447,140.604c-5.916-21.873,7.735-21.619,28.057-35.18
		c-21.958,34.828-21.283,84.625,0.073,117.913c-23.811-15.264-32.005-13.279-28.615-34.435c-4.414,4.714-6.327,11.609-4.9,17.926
		c5.111,23.32,39.837,40.561,73.884,121.056C207.254,645.517,183.244,565.609,175.56,550.14z"/>
	<path d="M550.14,1478.011c-45.783,19.411-103.678,15.777-140.946-2.75c-20.892-8.081-90.32-28.906-90.942-29.039
		c90.648,34.265,112.91,93.934,140.604,68.447c-21.873,5.916-21.619-7.735-35.18-28.057c34.828,21.958,84.625,21.283,117.913-0.073
		c-15.264,23.812-13.279,32.005-34.435,28.615c4.714,4.414,11.609,6.327,17.926,4.9c23.32-5.111,40.561-39.837,121.056-73.884
		C645.517,1446.317,565.609,1470.327,550.14,1478.011z"/>
	<path d="M1478.011,1103.431c19.411,45.783,15.777,103.678-2.75,140.946c-8.081,20.892-28.906,90.32-29.039,90.942
		c34.265-90.648,93.934-112.91,68.447-140.604c5.916,21.873-7.735,21.619-28.057,35.18c21.958-34.828,21.283-84.625-0.073-117.913
		c23.812,15.264,32.005,13.279,28.615,34.435c4.414-4.714,6.327-11.609,4.9-17.926c-5.111-23.32-39.837-40.561-73.884-121.056
		C1446.317,1008.054,1470.327,1087.962,1478.011,1103.431z"/>
	<path d="M1478.011,550.14c19.411-45.783,15.777-103.678-2.75-140.946c-8.081-20.892-28.906-90.32-29.039-90.942
		c34.265,90.648,93.934,112.91,68.447,140.604c5.916-21.873-7.735-21.619-28.057-35.18c21.958,34.828,21.283,84.625-0.073,117.913
		c23.812-15.264,32.005-13.279,28.615-34.435c4.414,4.714,6.327,11.609,4.9,17.926c-5.111,23.32-39.837,40.561-73.884,121.056
		C1446.317,645.517,1470.327,565.609,1478.011,550.14z"/>
	<path d="M550.14,175.56c-45.783-19.41-103.678-15.777-140.946,2.75c-20.892,8.081-90.32,28.906-90.942,29.039
		c90.648-34.265,112.91-93.934,140.604-68.447c-21.873-5.916-21.619,7.735-35.18,28.057c34.828-21.958,84.625-21.283,117.913,0.073
		c-15.264-23.811-13.279-32.005-34.435-28.615c4.714-4.414,11.609-6.327,17.926-4.9c23.32,5.111,40.561,39.837,121.056,73.884
		C645.517,207.254,565.609,183.244,550.14,175.56z"/>
	<path d="M175.56,1103.431c-19.41,45.783-15.777,103.678,2.75,140.946c8.081,20.892,28.906,90.32,29.039,90.942
		c-34.265-90.648-93.934-112.91-68.447-140.604c-5.916,21.873,7.735,21.619,28.057,35.18
		c-21.958-34.828-21.283-84.625,0.073-117.913c-23.811,15.264-32.005,13.279-28.615,34.435c-4.414-4.714-6.327-11.609-4.9-17.926
		c5.111-23.32,39.837-40.561,73.884-121.056C207.254,1008.054,183.244,1087.962,175.56,1103.431z"/>
	<path d="M1103.431,1478.011c45.783,19.411,103.678,15.777,140.946-2.75c20.892-8.081,90.32-28.906,90.942-29.039
		c-90.648,34.265-112.91,93.934-140.604,68.447c21.873,5.916,21.619-7.735,35.18-28.057c-34.828,21.958-84.625,21.283-117.913-0.073
		c15.264,23.812,13.279,32.005,34.435,28.615c-4.714,4.414-11.609,6.327-17.926,4.9c-23.32-5.111-40.561-39.837-121.056-73.884
		C1008.054,1446.317,1087.962,1470.327,1103.431,1478.011z"/>
	<path d="M1410.747,242.824c-77.153-31.875-157.182-61.577-289.494-51.25c-43.998,3.38-87.396,13.025-129.016,27.602
		c-37.572,13.136-95.661,41.547-165.452,62.757c-69.791-21.21-127.88-49.621-165.452-62.757
		c-41.62-14.577-85.018-24.221-129.016-27.602c-132.312-10.327-212.341,19.376-289.494,51.25
		c-31.875,77.153-61.577,157.182-51.25,289.494c3.38,43.998,13.025,87.396,27.602,129.016
		c13.136,37.572,41.547,95.661,62.757,165.452c-21.21,69.791-49.621,127.88-62.757,165.452
		c-14.577,41.62-24.221,85.018-27.602,129.016c-10.327,132.312,19.376,212.341,51.25,289.494
		c77.153,31.875,157.182,61.577,289.494,51.25c43.998-3.38,87.396-13.025,129.016-27.602
		c37.572-13.136,95.661-41.547,165.452-62.757c69.791,21.21,127.88,49.621,165.452,62.757
		c41.62,14.577,85.018,24.221,129.016,27.602c132.312,10.327,212.341-19.376,289.494-51.25
		c31.875-77.153,61.577-157.182,51.25-289.494c-3.38-43.998-13.025-87.396-27.602-129.016
		c-13.136-37.572-41.547-95.661-62.757-165.452c21.21-69.791,49.621-127.88,62.757-165.452
		c14.577-41.62,24.221-85.018,27.602-129.016C1472.325,400.005,1442.622,319.976,1410.747,242.824z M826.786,304.761
		c88.501-25.413,152.424-65.909,235.512-83.374c67.454-15.018,155.142-13.929,217.011-0.082
		c41.501,8.653,77.831,22.877,114.791,38.166c15.289,36.96,29.514,73.29,38.166,114.791c13.848,61.87,14.936,149.557-0.082,217.011
		c-17.465,83.088-57.961,147.011-83.374,235.512c25.413,88.501,65.909,152.424,83.374,235.512
		c15.018,67.454,13.929,155.142,0.082,217.011c-8.653,41.501-22.877,77.831-38.166,114.791
		c-36.96,15.289-73.29,29.514-114.791,38.166c-61.87,13.848-149.557,14.936-217.011-0.082
		c-83.088-17.465-147.011-57.961-235.512-83.374c-88.501,25.413-152.423,65.909-235.512,83.374
		c-67.455,15.018-155.142,13.929-217.011,0.082c-41.501-8.653-77.831-22.877-114.791-38.166
		c-15.289-36.96-29.514-73.29-38.166-114.791c-13.848-61.87-14.936-149.557,0.082-217.011
		c17.465-83.088,57.961-147.011,83.374-235.512c-25.413-88.501-65.909-152.423-83.374-235.512
		c-15.018-67.455-13.929-155.142-0.082-217.011c8.653-41.501,22.877-77.831,38.166-114.791
		c36.96-15.289,73.29-29.514,114.791-38.166c61.87-13.848,149.557-14.936,217.011,0.082
		C674.362,238.852,738.285,279.347,826.786,304.761z"/>
</g>
</svg>
