<?xml version="1.0" encoding="utf-8"?>

<!DOCTYPE svg PUBLIC "-//W3C//DTD SVG 1.1//EN" "http://www.w3.org/Graphics/SVG/1.1/DTD/svg11.dtd">
<svg version="1.1" id="Layer_1" xmlns="http://www.w3.org/2000/svg" xmlns:xlink="http://www.w3.org/1999/xlink" x="0px" y="0px"
	 viewBox="0 0 1662.576 1662.576" enable-background="new 0 0 1662.576 1662.576" xml:space="preserve">
<g>
	<path d="M831.288,436.555c58.902-16.75,119.304-39.646,179.313-69.432c99.692-49.989,214.654-127.987,207.326-239.041
		c28.242-29.367,91.875-1.381,36.379,81.319c8.994-16.701,19.008-34.891,16.116-54.585c-1.705-12.824-11.385-23.122-23.021-27.987
		c4.146,6.988,8.192,14.261,9.429,22.419c7.012,42.33-34.596,92.829-66.49,121.827c-87.159,65.894-195.977,106.948-228.542,123.466
		c119.338-42.714,335.112-116.855,362.891-228.107c15.101-58.605-60.977-87.455-109.54-54.77
		c-7.913-22.447-17.793-47.693-50.239-65.068c-45.787-24.914-123.793-20.715-153.492,22.203
		c-19.894,35.721,2.282,78.292,54.002,75.251c52.547-2.354,53.034-40.225,41.612-51.627c-11.956-11.733-39.062-18.05-52.161,5.2
		c-21.595-58.906,92.78-75.893,108.386,14.829c6.055,79.343-67.459,148.468-76.019,154.094c0-1.137-0.017-3.427-0.017-4.564
		c39.284-30.151,49.062-81.23,15.9-90.046c-32.204-8.001-50.78,18.314-38.386,34.975c13.932,22.035,52.604-1.058,19.728-15.147
		c16.922-14.442,52.198,14.682-1.421,62.745c-23.199-21.412-69.568-2.067-90.831,26.566c11.706-36.784,0.057-64.77-27.987-82.59
		c-24.569-16.829-39.823-20.334-30.043-52.262c-39.908,60.561,71.608,101.579-1.589,202.026c-0.92,0.184-2.775,0.535-3.695,0.702
		c9.931-9.342,33.725-50.741,22.469-86.034c-15.239-47.557-82.855-60.943-111.629-18.256c-14.024,20.306-7.316,44.193,24.777,52.763
		c1.103-8.141,5.083-16.05,12.021-20.697c41.134-29.251,78.827,69.854-45.247,127.957c-124.074-58.103-86.38-157.208-45.247-127.957
		c6.938,4.647,10.917,12.556,12.021,20.697c32.093-8.571,38.801-32.457,24.777-52.763c-28.773-42.686-96.39-29.301-111.629,18.256
		c-11.255,35.292,12.539,76.692,22.469,86.034c-0.92-0.167-2.775-0.519-3.695-0.702c-73.197-100.447,38.32-141.464-1.589-202.026
		c9.78,31.927-5.474,35.432-30.043,52.262c-28.044,17.82-39.693,45.805-27.987,82.59c-21.263-28.633-67.632-47.978-90.831-26.566
		c-53.619-48.063-18.344-77.187-1.421-62.745c-32.876,14.089,5.796,37.183,19.728,15.147c12.393-16.661-6.182-42.976-38.386-34.975
		c-33.162,8.816-23.384,59.895,15.9,90.046c0,1.137-0.017,3.427-0.017,4.564c-8.56-5.626-82.074-74.751-76.019-154.094
		c15.606-90.723,129.98-73.735,108.385-14.829c-13.099-23.25-40.205-16.933-52.161-5.2c-11.422,11.402-10.935,49.273,41.612,51.627
		c51.72,3.042,73.896-39.529,54.002-75.251c-29.699-42.918-107.705-47.117-153.492-22.203
		c-32.446,17.376-42.326,42.621-50.239,65.068c-48.563-32.685-124.641-3.835-109.54,54.77
		c27.779,111.252,243.553,185.392,362.891,228.107c-32.565-16.517-141.383-57.572-228.542-123.466
		c-31.893-28.998-73.502-79.497-66.489-121.827c1.238-8.158,5.283-15.431,9.429-22.419c-11.636,4.865-21.316,15.163-23.021,27.987
		c-2.892,19.694,7.122,37.885,16.116,54.585c-55.496-82.7,8.137-110.686,36.379-81.319
		c-7.328,111.054,107.634,189.052,207.326,239.041C711.984,396.909,772.386,419.805,831.288,436.555z M1226.021,831.288
		c16.75,58.902,39.646,119.304,69.432,179.313c49.989,99.692,127.987,214.654,239.041,207.326
		c29.367,28.242,1.381,91.875-81.319,36.379c16.701,8.994,34.891,19.008,54.585,16.116c12.824-1.705,23.122-11.385,27.987-23.021
		c-6.988,4.146-14.261,8.192-22.419,9.429c-42.33,7.012-92.829-34.596-121.827-66.49
		c-65.894-87.159-106.948-195.977-123.466-228.542c42.714,119.338,116.855,335.112,228.107,362.891
		c58.605,15.101,87.455-60.977,54.77-109.54c22.447-7.913,47.693-17.793,65.068-50.239c24.914-45.787,20.715-123.793-22.203-153.492
		c-35.721-19.894-78.292,2.282-75.251,54.002c2.354,52.547,40.225,53.034,51.627,41.612c11.733-11.956,18.05-39.062-5.2-52.161
		c58.906-21.595,75.893,92.78-14.829,108.386c-79.343,6.055-148.468-67.459-154.094-76.019c1.137,0,3.427-0.017,4.564-0.017
		c30.151,39.284,81.23,49.062,90.046,15.9c8.001-32.204-18.314-50.78-34.975-38.386c-22.035,13.932,1.058,52.604,15.147,19.728
		c14.442,16.922-14.682,52.198-62.745-1.421c21.412-23.199,2.067-69.568-26.566-90.831c36.784,11.706,64.77,0.057,82.59-27.987
		c16.829-24.569,20.334-39.823,52.262-30.043c-60.562-39.908-101.579,71.608-202.026-1.589c-0.183-0.92-0.535-2.775-0.702-3.695
		c9.342,9.931,50.741,33.725,86.034,22.469c47.557-15.239,60.943-82.855,18.256-111.629c-20.306-14.024-44.193-7.316-52.763,24.777
		c8.141,1.103,16.05,5.083,20.697,12.021c29.251,41.134-69.854,78.827-127.957-45.247c58.103-124.074,157.208-86.38,127.957-45.247
		c-4.647,6.938-12.556,10.917-20.697,12.021c8.571,32.093,32.457,38.801,52.763,24.777c42.686-28.773,29.301-96.39-18.256-111.629
		c-35.292-11.255-76.692,12.539-86.034,22.469c0.167-0.92,0.519-2.775,0.702-3.695c100.447-73.197,141.464,38.32,202.026-1.589
		c-31.927,9.78-35.432-5.474-52.262-30.043c-17.82-28.044-45.805-39.693-82.59-27.987c28.633-21.263,47.979-67.632,26.566-90.831
		c48.063-53.619,77.187-18.344,62.745-1.421c-14.089-32.876-37.182,5.796-15.147,19.728c16.661,12.393,42.976-6.182,34.975-38.386
		c-8.816-33.162-59.895-23.384-90.046,15.9c-1.137,0-3.427-0.017-4.564-0.017c5.626-8.56,74.751-82.074,154.094-76.019
		c90.723,15.606,73.735,129.98,14.829,108.385c23.25-13.099,16.932-40.205,5.2-52.161c-11.402-11.422-49.273-10.935-51.627,41.612
		c-3.042,51.72,39.529,73.896,75.251,54.002c42.918-29.699,47.117-107.705,22.203-153.492
		c-17.376-32.446-42.621-42.326-65.068-50.239c32.685-48.563,3.835-124.641-54.77-109.54
		c-111.252,27.779-185.392,243.553-228.107,362.891c16.517-32.565,57.572-141.383,123.466-228.542
		c28.998-31.893,79.497-73.502,121.827-66.489c8.158,1.238,15.431,5.283,22.419,9.429c-4.865-11.636-15.163-21.316-27.987-23.021
		c-19.694-2.892-37.885,7.122-54.585,16.116c82.7-55.496,110.686,8.137,81.319,36.379
		c-111.054-7.328-189.052,107.634-239.041,207.326C1265.667,711.984,1242.771,772.386,1226.021,831.288z M831.288,1226.021
		c-58.902,16.75-119.304,39.646-179.313,69.432c-99.692,49.989-214.654,127.987-207.326,239.041
		c-28.242,29.367-91.875,1.381-36.379-81.319c-8.994,16.701-19.008,34.891-16.116,54.585c1.705,12.824,11.385,23.122,23.021,27.987
		c-4.146-6.988-8.191-14.261-9.429-22.419c-7.012-42.33,34.596-92.829,66.489-121.827
		c87.159-65.894,195.977-106.948,228.542-123.466c-119.338,42.714-335.112,116.855-362.891,228.107
		c-15.101,58.605,60.977,87.455,109.54,54.77c7.913,22.447,17.793,47.693,50.239,65.068
		c45.787,24.914,123.793,20.715,153.492-22.203c19.894-35.721-2.282-78.292-54.002-75.251
		c-52.547,2.354-53.034,40.225-41.612,51.627c11.956,11.733,39.062,18.05,52.161-5.2c21.595,58.906-92.78,75.893-108.385-14.829
		c-6.055-79.343,67.459-148.468,76.019-154.094c0,1.137,0.017,3.427,0.017,4.564c-39.284,30.151-49.062,81.23-15.9,90.046
		c32.204,8.001,50.779-18.314,38.386-34.975c-13.932-22.035-52.604,1.058-19.728,15.147c-16.922,14.442-52.198-14.682,1.421-62.745
		c23.199,21.412,69.568,2.067,90.831-26.566c-11.706,36.784-0.057,64.77,27.987,82.59c24.569,16.829,39.823,20.334,30.043,52.262
		c39.908-60.562-71.608-101.579,1.589-202.026c0.92-0.183,2.775-0.535,3.695-0.702c-9.931,9.342-33.725,50.741-22.469,86.034
		c15.239,47.557,82.855,60.943,111.629,18.256c14.024-20.306,7.316-44.193-24.777-52.763c-1.103,8.141-5.083,16.05-12.021,20.697
		c-41.134,29.251-78.827-69.854,45.247-127.957c124.074,58.103,86.38,157.208,45.247,127.957
		c-6.938-4.647-10.917-12.556-12.021-20.697c-32.093,8.571-38.801,32.457-24.777,52.763c28.773,42.686,96.39,29.301,111.629-18.256
		c11.255-35.292-12.539-76.692-22.469-86.034c0.92,0.167,2.775,0.519,3.695,0.702c73.197,100.447-38.32,141.464,1.589,202.026
		c-9.78-31.927,5.474-35.432,30.043-52.262c28.044-17.82,39.693-45.805,27.987-82.59c21.263,28.633,67.632,47.979,90.831,26.566
		c53.619,48.063,18.344,77.187,1.421,62.745c32.876-14.089-5.796-37.182-19.728-15.147c-12.394,16.661,6.182,42.976,38.386,34.975
		c33.162-8.816,23.384-59.895-15.9-90.046c0-1.137,0.017-3.427,0.017-4.564c8.56,5.626,82.074,74.751,76.019,154.094
		c-15.606,90.723-129.98,73.735-108.386,14.829c13.1,23.25,40.205,16.932,52.161,5.2c11.422-11.402,10.935-49.273-41.612-51.627
		c-51.72-3.042-73.896,39.529-54.002,75.251c29.699,42.918,107.705,47.117,153.492,22.203
		c32.446-17.376,42.326-42.621,50.239-65.068c48.563,32.685,124.641,3.835,109.54-54.77
		c-27.779-111.252-243.553-185.392-362.891-228.107c32.565,16.517,141.383,57.572,228.542,123.466
		c31.893,28.998,73.502,79.497,66.49,121.827c-1.238,8.158-5.283,15.431-9.429,22.419c11.636-4.865,21.316-15.163,23.021-27.987
		c2.892-19.694-7.123-37.885-16.116-54.585c55.496,82.7-8.137,110.686-36.379,81.319c7.328-111.054-107.634-189.052-207.326-239.041
		C950.592,1265.667,890.19,1242.771,831.288,1226.021z M436.555,831.288c-16.75-58.902-39.646-119.304-69.432-179.313
		c-49.989-99.692-127.987-214.654-239.041-207.326c-29.367-28.242-1.381-91.875,81.319-36.379
		c-16.701-8.994-34.891-19.008-54.585-16.116c-12.824,1.705-23.122,11.385-27.987,23.021c6.988-4.146,14.261-8.191,22.419-9.429
		c42.33-7.012,92.829,34.596,121.827,66.489c65.894,87.159,106.948,195.977,123.466,228.542
		c-42.714-119.338-116.855-335.112-228.107-362.891c-58.605-15.101-87.455,60.977-54.77,109.54
		c-22.447,7.913-47.693,17.793-65.068,50.239c-24.914,45.787-20.715,123.793,22.203,153.492
		c35.721,19.894,78.292-2.282,75.251-54.002c-2.354-52.547-40.225-53.034-51.627-41.612c-11.733,11.956-18.05,39.062,5.2,52.161
		c-58.906,21.595-75.893-92.78,14.829-108.385c79.343-6.055,148.468,67.459,154.094,76.019c-1.137,0-3.427,0.017-4.564,0.017
		c-30.151-39.284-81.23-49.062-90.046-15.9c-8.001,32.204,18.314,50.779,34.975,38.386c22.035-13.932-1.058-52.604-15.147-19.728
		c-14.442-16.922,14.682-52.198,62.745,1.421c-21.412,23.199-2.067,69.568,26.566,90.831c-36.784-11.706-64.77-0.057-82.59,27.987
		c-16.829,24.569-20.334,39.823-52.262,30.043c60.561,39.908,101.579-71.608,202.026,1.589c0.184,0.92,0.535,2.775,0.702,3.695
		c-9.342-9.931-50.741-33.725-86.034-22.469c-47.557,15.239-60.943,82.855-18.256,111.629c20.306,14.024,44.193,7.316,52.763-24.777
		c-8.141-1.103-16.05-5.083-20.697-12.021c-29.251-41.134,69.854-78.827,127.957,45.247
		c-58.103,124.074-157.208,86.38-127.957,45.247c4.647-6.938,12.556-10.917,20.697-12.021
		c-8.571-32.093-32.457-38.801-52.763-24.777c-42.686,28.773-29.301,96.39,18.256,111.629
		c35.292,11.255,76.692-12.539,86.034-22.469c-0.167,0.92-0.519,2.775-0.702,3.695c-100.447,73.197-141.464-38.32-202.026,1.589
		c31.927-9.78,35.432,5.474,52.262,30.043c17.82,28.044,45.805,39.693,82.59,27.987c-28.633,21.263-47.978,67.632-26.566,90.831
		c-48.063,53.619-77.187,18.344-62.745,1.421c14.089,32.876,37.183-5.796,15.147-19.728c-16.661-12.394-42.976,6.182-34.975,38.386
		c8.816,33.162,59.895,23.384,90.046-15.9c1.137,0,3.427,0.017,4.564,0.017c-5.626,8.56-74.751,82.074-154.094,76.019
		c-90.723-15.606-73.735-129.98-14.829-108.386c-23.25,13.1-16.933,40.205-5.2,52.161c11.402,11.422,49.273,10.935,51.627-41.612
		c3.042-51.72-39.529-73.896-75.251-54.002c-42.918,29.699-47.117,107.705-22.203,153.492
		c17.376,32.446,42.621,42.326,65.068,50.239c-32.685,48.563-3.835,124.641,54.77,109.54
		c111.252-27.779,185.392-243.553,228.107-362.891c-16.517,32.565-57.572,141.383-123.466,228.542
		c-28.998,31.893-79.497,73.502-121.827,66.49c-8.158-1.238-15.431-5.283-22.419-9.429c4.865,11.636,15.163,21.316,27.987,23.021
		c19.694,2.892,37.885-7.123,54.585-16.116c-82.7,55.496-110.686-8.137-81.319-36.379
		c111.054,7.328,189.052-107.634,239.041-207.326C396.909,950.592,419.805,890.19,436.555,831.288z M928.278,349.336
		c0.719,0.769,1.438,1.555,2.157,2.341c-5.885,5.634-11.403,11.787-16,18.524c63.407-43.085,91.705-106.792,130.739-104.357
		c10.181,1.12,16.183,12.907,12.74,22.186c-2.43,14.44-88.761,69.182-191.243,108.302
		C885.536,387.084,918.623,368.001,928.278,349.336z M349.336,734.298c0.769-0.719,1.555-1.438,2.341-2.157
		c5.634,5.885,11.787,11.403,18.524,16c-43.085-63.407-106.792-91.705-104.357-130.739c1.12-10.181,12.907-16.183,22.186-12.74
		c14.44,2.43,69.182,88.761,108.302,191.243C387.084,777.04,368.001,743.953,349.336,734.298z M734.298,1313.24
		c-0.719-0.769-1.438-1.554-2.157-2.341c5.885-5.634,11.403-11.787,16-18.524c-63.407,43.085-91.705,106.792-130.739,104.357
		c-10.181-1.12-16.183-12.907-12.74-22.186c2.43-14.44,88.761-69.182,191.243-108.302
		C777.04,1275.492,743.953,1294.575,734.298,1313.24z M1313.24,928.278c-0.769,0.719-1.554,1.438-2.341,2.157
		c-5.634-5.885-11.787-11.403-18.524-16c43.085,63.407,106.792,91.705,104.357,130.739c-1.12,10.181-12.907,16.183-22.186,12.74
		c-14.44-2.43-69.182-88.761-108.302-191.243C1275.492,885.536,1294.575,918.623,1313.24,928.278z M1266.245,795.906
		c39.12-102.482,93.862-188.813,108.302-191.243c9.279-3.444,21.065,2.558,22.186,12.74c2.435,39.034-61.271,67.332-104.357,130.739
		c6.737-4.597,12.89-10.115,18.524-16c0.786,0.719,1.572,1.438,2.341,2.157C1294.575,743.953,1275.492,777.04,1266.245,795.906z
		 M795.906,396.331c-102.482-39.12-188.813-93.862-191.243-108.302c-3.444-9.279,2.558-21.065,12.74-22.186
		c39.034-2.435,67.332,61.272,130.739,104.357c-4.597-6.737-10.115-12.89-16-18.524c0.719-0.786,1.438-1.572,2.157-2.341
		C743.953,368.001,777.04,387.084,795.906,396.331z M396.331,866.671c-39.12,102.482-93.862,188.813-108.302,191.243
		c-9.279,3.444-21.065-2.558-22.186-12.74c-2.435-39.034,61.272-67.332,104.357-130.739c-6.737,4.597-12.89,10.115-18.524,16
		c-0.786-0.719-1.572-1.438-2.341-2.157C368.001,918.623,387.084,885.536,396.331,866.671z M866.671,1266.245
		c102.482,39.12,188.813,93.862,191.243,108.302c3.444,9.279-2.558,21.065-12.74,22.186
		c-39.034,2.435-67.332-61.271-130.739-104.357c4.597,6.737,10.115,12.89,16,18.524c-0.719,0.786-1.438,1.572-2.157,2.341
		C918.623,1294.575,885.536,1275.492,866.671,1266.245z"/>
	<path d="M1430.498,232.078c-39.325-3.138-79.624,5.638-110.908,25.707c24.685-38.508,21.475-51.758,55.69-46.277
		c-7.624-7.138-18.775-10.232-28.99-7.925c-37.714,8.266-65.596,64.425-195.774,119.486c1.003-0.236,130.231-39.066,155.248-51.492
		c33.055-14.014,70.015-20.601,106.167-20.933c-0.332,36.152-6.918,73.112-20.932,106.167
		c-12.427,25.017-51.257,154.245-51.493,155.248c55.062-130.178,111.221-158.06,119.486-195.774
		c2.308-10.215-0.786-21.366-7.925-28.99c5.482,34.215-7.768,31.005-46.276,55.69
		C1424.86,311.703,1433.636,271.403,1430.498,232.078z"/>
	<path d="M1430.498,1430.498c3.138-39.325-5.638-79.624-25.707-110.908c38.508,24.685,51.758,21.475,46.276,55.69
		c7.139-7.624,10.232-18.775,7.925-28.99c-8.266-37.714-64.425-65.596-119.486-195.774c0.236,1.003,39.066,130.231,51.493,155.248
		c14.014,33.055,20.601,70.015,20.932,106.167c-36.152-0.332-73.112-6.918-106.167-20.932
		c-25.017-12.427-154.245-51.257-155.248-51.493c130.178,55.062,158.06,111.221,195.774,119.486
		c10.215,2.308,21.366-0.786,28.99-7.925c-34.215,5.482-31.005-7.768-55.69-46.276
		C1350.874,1424.86,1391.173,1433.636,1430.498,1430.498z"/>
	<path d="M232.078,1430.498c39.325,3.138,79.624-5.638,110.908-25.707c-24.685,38.508-21.475,51.758-55.69,46.276
		c7.624,7.139,18.775,10.232,28.99,7.925c37.714-8.266,65.596-64.425,195.774-119.486c-1.003,0.236-130.231,39.066-155.248,51.493
		c-33.055,14.014-70.015,20.601-106.167,20.932c0.332-36.152,6.918-73.112,20.933-106.167
		c12.427-25.017,51.257-154.245,51.492-155.248c-55.062,130.178-111.221,158.06-119.486,195.774
		c-2.308,10.215,0.786,21.366,7.925,28.99c-5.482-34.215,7.768-31.005,46.277-55.69
		C237.716,1350.874,228.94,1391.173,232.078,1430.498z"/>
	<path d="M232.078,232.078c-3.138,39.325,5.638,79.624,25.707,110.908c-38.508-24.685-51.758-21.475-46.277-55.69
		c-7.138,7.624-10.232,18.775-7.925,28.99C211.85,354,268.009,381.882,323.07,512.06c-0.236-1.003-39.066-130.231-51.492-155.248
		c-14.014-33.055-20.601-70.015-20.933-106.167c36.152,0.332,73.112,6.918,106.167,20.933
		c25.017,12.427,154.245,51.257,155.248,51.492C381.882,268.009,354,211.85,316.286,203.584c-10.215-2.308-21.366,0.786-28.99,7.925
		c34.215-5.482,31.005,7.768,55.69,46.277C311.703,237.716,271.403,228.94,232.078,232.078z"/>
	<path d="M1367.184,295.392c-10.646,0.526-21.508,1.218-32.597,2.083c-71.154,5.467-141.338,21.064-208.647,44.638
		c-65.559,22.921-169.746,74.599-294.652,109.38c-124.906-34.78-229.093-86.459-294.652-109.38
		c-67.309-23.574-137.493-39.171-208.647-44.638c-11.089-0.865-21.951-1.557-32.597-2.083c0.526,10.646,1.218,21.508,2.083,32.597
		c5.467,71.154,21.064,141.338,44.638,208.647c22.921,65.559,74.599,169.746,109.38,294.652
		c-34.78,124.906-86.459,229.093-109.38,294.652c-23.574,67.309-39.171,137.493-44.638,208.647
		c-0.865,11.089-1.557,21.951-2.083,32.597c10.646-0.526,21.508-1.218,32.597-2.083c71.154-5.467,141.338-21.064,208.647-44.638
		c65.559-22.921,169.746-74.599,294.652-109.38c124.906,34.78,229.093,86.459,294.652,109.38
		c67.309,23.573,137.493,39.171,208.647,44.638c11.089,0.865,21.951,1.557,32.597,2.083c-0.526-10.646-1.218-21.508-2.083-32.597
		c-5.467-71.154-21.064-141.338-44.638-208.647c-22.921-65.559-74.599-169.746-109.38-294.652
		c34.78-124.906,86.459-229.093,109.38-294.652c23.573-67.309,39.171-137.493,44.638-208.647
		C1365.967,316.9,1366.658,306.038,1367.184,295.392z M831.288,487.849c7.723-1.958,15.402-4.016,23.028-6.172
		c145.234-41.017,249.289-107.477,384.926-135.988c28.688-6.387,59.639-10.973,91.499-13.855
		c-2.883,31.86-7.468,62.811-13.855,91.499c-28.511,135.637-94.971,239.692-135.988,384.926c-2.156,7.626-4.213,15.305-6.172,23.028
		c1.958,7.723,4.016,15.402,6.172,23.028c41.016,145.234,107.477,249.289,135.988,384.926c6.387,28.688,10.973,59.639,13.855,91.499
		c-31.86-2.883-62.811-7.468-91.499-13.855c-135.637-28.511-239.692-94.971-384.926-135.988c-7.626-2.156-15.305-4.213-23.028-6.172
		c-7.723,1.958-15.402,4.016-23.028,6.172c-145.234,41.016-249.289,107.477-384.926,135.988
		c-28.688,6.387-59.639,10.973-91.499,13.855c2.883-31.86,7.468-62.811,13.855-91.499
		c28.511-135.637,94.971-239.692,135.988-384.926c2.156-7.626,4.213-15.305,6.172-23.028c-1.958-7.723-4.016-15.402-6.172-23.028
		C440.661,663.026,374.201,558.971,345.69,423.334c-6.387-28.688-10.973-59.639-13.855-91.499
		c31.86,2.883,62.811,7.468,91.499,13.855c135.637,28.511,239.692,94.971,384.926,135.988
		C815.886,483.834,823.565,485.891,831.288,487.849z"/>
</g>
</svg>
