<?xml version="1.0" encoding="utf-8"?>

<!DOCTYPE svg PUBLIC "-//W3C//DTD SVG 1.1//EN" "http://www.w3.org/Graphics/SVG/1.1/DTD/svg11.dtd">
<svg version="1.1" id="Layer_1" xmlns="http://www.w3.org/2000/svg" xmlns:xlink="http://www.w3.org/1999/xlink" x="0px" y="0px"
	 viewBox="0 0 1628.877 1628.877" enable-background="new 0 0 1628.877 1628.877" xml:space="preserve">
<g>
	<path d="M1575.391,814.439c0.433,6.172-0.785,12.927-4.01,19.971c13.362-1.994,23.338-9.743,29.334-19.971
		c-5.997-10.228-15.973-17.977-29.334-19.971C1574.606,801.511,1575.824,808.267,1575.391,814.439z M814.439,1575.391
		c-6.172,0.433-12.927-0.785-19.971-4.01c1.994,13.362,9.743,23.338,19.971,29.334c10.228-5.997,17.977-15.973,19.971-29.334
		C827.366,1574.606,820.611,1575.824,814.439,1575.391z M53.486,814.439c-0.433-6.172,0.785-12.927,4.01-19.971
		c-13.362,1.994-23.338,9.743-29.334,19.971c5.997,10.228,15.972,17.977,29.334,19.971
		C54.271,827.366,53.054,820.611,53.486,814.439z M814.439,53.486c6.172-0.433,12.927,0.785,19.971,4.01
		c-1.994-13.362-9.743-23.338-19.971-29.334c-10.228,5.997-17.977,15.972-19.971,29.334
		C801.511,54.271,808.267,53.054,814.439,53.486z M1517.366,814.439c13.12,19.255,23.693,40.253,30.554,62.543
		c-5.065,1.523-43.004,21.947-57.217-2.163c-6.542-11.149,4.37-26.934,17.106-20.353c5.529,2.868,4.397,9.283,1.897,14.979
		c4.837-3.509,8.233-9.303,7.858-15.395c-2.296-34.975-60.253-24.567-47.548,13.886c7.617,24.386,40.474,24.739,57.867,21.076
		c-11.896,16.91-11.667,50.183,13.977,61.358c-12.387-20.381-5.691-34.939,13.056-42.59c3.128,26.136,1.21,52.046-10.536,75.556
		c0.018,0.239,0.054,0.727,0.072,0.971c9.005,0.221,18.104-0.226,26.883-2.389c-0.555,1.436-1.106,2.877-1.689,4.304
		c-12.435,3.071-25.051,1.471-27.796,1.906c-1.843,3.143-3.568,6.485-6.128,9.109c0.36,0.346,15.916,8.993,20.963,12.902
		c-0.569,0.732-1.147,1.459-1.734,2.181c-0.031,0.217-0.095,0.659-0.131,0.876c9.267,6.769,17.87,14.695,24.345,24.228
		c-9.16,9.234-3.704,27.234,9.086,32.967c8.912,4.069,18.183-0.265,20.096-9.542c3.122-14.987-11.461-31.24-25.831-25.673
		c-7.32-9.524-15.81-18.222-25.619-25.195c5.207-7.347,9.411-15.359,12.929-23.636c44.18-9.706,46.221-58.534,44.044-71.375
		c-2.429-25.239-25.01-42.297-41.917-42.319c-6.087-20.394-14.833-39.941-25.73-58.212c10.897-18.271,19.643-37.819,25.73-58.212
		c16.907-0.022,39.488-17.08,41.917-42.319c2.177-12.841,0.136-61.669-44.044-71.375c-3.518-8.278-7.722-16.289-12.929-23.636
		c9.809-6.973,18.299-15.67,25.619-25.195c14.37,5.566,28.953-10.686,25.831-25.673c-1.913-9.278-11.184-13.611-20.096-9.542
		c-12.79,5.733-18.246,23.733-9.086,32.966c-6.476,9.533-15.079,17.459-24.345,24.228c0.036,0.217,0.099,0.659,0.131,0.876
		c0.587,0.723,1.165,1.45,1.734,2.181c-5.047,3.909-20.603,12.556-20.963,12.902c2.561,2.624,4.286,5.966,6.128,9.109
		c2.744,0.435,15.361-1.165,27.796,1.906c0.583,1.427,1.134,2.868,1.689,4.304c-8.779-2.163-17.879-2.61-26.883-2.389
		c-0.018,0.244-0.054,0.732-0.072,0.971c11.746,23.511,13.664,49.42,10.536,75.556c-18.746-7.651-25.443-22.209-13.056-42.59
		c-25.644,11.175-25.873,44.448-13.977,61.358c-17.394-3.663-50.25-3.31-57.867,21.076c-12.705,38.453,45.252,48.861,47.548,13.887
		c0.375-6.092-3.021-11.886-7.858-15.395c2.501,5.697,3.632,12.112-1.897,14.979c-12.736,6.58-23.649-9.204-17.106-20.353
		c14.213-24.11,52.152-3.686,57.217-2.163C1541.059,774.186,1530.486,795.184,1517.366,814.439z M814.439,1517.366
		c-19.255,13.12-40.253,23.693-62.543,30.554c-1.523-5.065-21.947-43.004,2.163-57.217c11.149-6.542,26.933,4.37,20.353,17.106
		c-2.868,5.529-9.283,4.397-14.979,1.897c3.509,4.837,9.303,8.233,15.395,7.858c34.975-2.296,24.567-60.253-13.887-47.548
		c-24.386,7.617-24.739,40.474-21.076,57.867c-16.91-11.896-50.183-11.667-61.358,13.977c20.381-12.387,34.939-5.691,42.59,13.056
		c-26.136,3.128-52.046,1.21-75.556-10.536c-0.239,0.018-0.727,0.054-0.971,0.072c-0.221,9.005,0.226,18.104,2.389,26.883
		c-1.436-0.555-2.877-1.106-4.304-1.689c-3.071-12.435-1.471-25.051-1.906-27.796c-3.143-1.843-6.485-3.568-9.109-6.128
		c-0.346,0.36-8.993,15.916-12.902,20.963c-0.732-0.569-1.459-1.147-2.181-1.734c-0.217-0.031-0.659-0.095-0.876-0.131
		c-6.769,9.267-14.695,17.87-24.228,24.345c-9.234-9.16-27.234-3.704-32.966,9.086c-4.069,8.912,0.265,18.183,9.542,20.096
		c14.987,3.122,31.24-11.461,25.673-25.831c9.524-7.32,18.222-15.81,25.195-25.619c7.347,5.207,15.359,9.411,23.636,12.929
		c9.706,44.18,58.534,46.221,71.375,44.044c25.239-2.429,42.297-25.01,42.319-41.917c20.394-6.087,39.941-14.833,58.212-25.73
		c18.271,10.897,37.819,19.643,58.212,25.73c0.022,16.907,17.08,39.488,42.319,41.917c12.841,2.177,61.669,0.136,71.375-44.044
		c8.278-3.518,16.289-7.722,23.636-12.929c6.973,9.809,15.67,18.299,25.195,25.619c-5.566,14.37,10.686,28.953,25.673,25.831
		c9.278-1.913,13.611-11.184,9.542-20.096c-5.733-12.79-23.733-18.246-32.967-9.086c-9.533-6.476-17.459-15.079-24.228-24.345
		c-0.217,0.036-0.659,0.099-0.876,0.131c-0.723,0.587-1.45,1.165-2.181,1.734c-3.909-5.047-12.556-20.603-12.902-20.963
		c-2.624,2.561-5.966,4.286-9.109,6.128c-0.435,2.744,1.165,15.361-1.906,27.796c-1.427,0.583-2.868,1.134-4.304,1.689
		c2.163-8.779,2.61-17.879,2.389-26.883c-0.244-0.018-0.732-0.054-0.971-0.072c-23.511,11.746-49.42,13.664-75.556,10.536
		c7.651-18.746,22.209-25.443,42.59-13.056c-11.175-25.644-44.448-25.873-61.358-13.977c3.663-17.394,3.31-50.25-21.076-57.867
		c-38.453-12.705-48.861,45.252-13.886,47.548c6.092,0.375,11.886-3.021,15.395-7.858c-5.697,2.501-12.112,3.632-14.979-1.897
		c-6.58-12.736,9.204-23.649,20.353-17.106c24.11,14.213,3.686,52.152,2.163,57.217
		C854.691,1541.059,833.693,1530.486,814.439,1517.366z M111.511,814.439c-13.12-19.255-23.693-40.253-30.555-62.543
		c5.065-1.523,43.004-21.947,57.217,2.163c6.542,11.149-4.37,26.933-17.106,20.353c-5.529-2.868-4.397-9.283-1.897-14.979
		c-4.837,3.509-8.233,9.303-7.858,15.395c2.296,34.975,60.253,24.567,47.548-13.887c-7.617-24.386-40.474-24.739-57.867-21.076
		c11.896-16.91,11.667-50.183-13.977-61.358c12.387,20.381,5.691,34.939-13.056,42.59c-3.128-26.136-1.21-52.046,10.536-75.556
		c-0.018-0.239-0.054-0.727-0.072-0.971c-9.005-0.221-18.104,0.226-26.883,2.389c0.555-1.436,1.106-2.877,1.689-4.304
		c12.435-3.071,25.051-1.471,27.796-1.906c1.843-3.143,3.568-6.485,6.128-9.109c-0.36-0.346-15.916-8.993-20.963-12.902
		c0.569-0.732,1.147-1.459,1.734-2.181c0.032-0.217,0.095-0.659,0.131-0.876c-9.267-6.769-17.87-14.695-24.345-24.228
		c9.16-9.234,3.704-27.234-9.086-32.966c-8.912-4.069-18.183,0.265-20.096,9.542c-3.122,14.987,11.461,31.24,25.831,25.673
		c7.32,9.524,15.81,18.222,25.619,25.195c-5.207,7.347-9.411,15.359-12.929,23.636c-44.18,9.706-46.221,58.534-44.044,71.375
		c2.428,25.239,25.01,42.297,41.917,42.319c6.087,20.394,14.833,39.941,25.73,58.212c-10.897,18.271-19.643,37.819-25.73,58.212
		c-16.907,0.022-39.489,17.08-41.917,42.319c-2.177,12.841-0.136,61.669,44.044,71.375c3.518,8.278,7.722,16.289,12.929,23.636
		c-9.809,6.973-18.299,15.67-25.619,25.195c-14.37-5.566-28.953,10.686-25.831,25.673c1.913,9.278,11.184,13.611,20.096,9.542
		c12.79-5.733,18.246-23.733,9.086-32.967c6.476-9.533,15.079-17.459,24.345-24.228c-0.036-0.217-0.099-0.659-0.131-0.876
		c-0.587-0.723-1.165-1.45-1.734-2.181c5.047-3.909,20.603-12.556,20.963-12.902c-2.561-2.624-4.286-5.966-6.128-9.109
		c-2.744-0.435-15.361,1.165-27.796-1.906c-0.583-1.427-1.134-2.868-1.689-4.304c8.779,2.163,17.879,2.61,26.883,2.389
		c0.018-0.244,0.054-0.732,0.072-0.971c-11.746-23.511-13.664-49.42-10.536-75.556c18.746,7.651,25.443,22.209,13.056,42.59
		c25.644-11.175,25.873-44.448,13.977-61.358c17.394,3.663,50.25,3.31,57.867-21.076c12.705-38.453-45.252-48.861-47.548-13.886
		c-0.375,6.092,3.021,11.886,7.858,15.395c-2.501-5.697-3.632-12.112,1.897-14.979c12.736-6.58,23.649,9.204,17.106,20.353
		c-14.213,24.11-52.152,3.686-57.217,2.163C87.819,854.691,98.391,833.693,111.511,814.439z M814.439,111.511
		c19.255-13.12,40.253-23.693,62.543-30.555c1.523,5.065,21.947,43.004-2.163,57.217c-11.149,6.542-26.934-4.37-20.353-17.106
		c2.868-5.529,9.283-4.397,14.979-1.897c-3.509-4.837-9.303-8.233-15.395-7.858c-34.975,2.296-24.567,60.253,13.886,47.548
		c24.386-7.617,24.739-40.474,21.076-57.867c16.91,11.896,50.183,11.667,61.358-13.977c-20.381,12.387-34.939,5.691-42.59-13.056
		c26.136-3.128,52.046-1.21,75.556,10.536c0.239-0.018,0.727-0.054,0.971-0.072c0.221-9.005-0.226-18.104-2.389-26.883
		c1.436,0.555,2.877,1.106,4.304,1.689c3.071,12.435,1.471,25.051,1.906,27.796c3.143,1.843,6.485,3.568,9.109,6.128
		c0.346-0.36,8.993-15.916,12.902-20.963c0.732,0.569,1.459,1.147,2.181,1.734c0.217,0.032,0.659,0.095,0.876,0.131
		c6.769-9.267,14.695-17.87,24.228-24.345c9.234,9.16,27.234,3.704,32.967-9.086c4.069-8.912-0.265-18.183-9.542-20.096
		c-14.987-3.122-31.24,11.461-25.673,25.831c-9.524,7.32-18.222,15.81-25.195,25.619c-7.347-5.207-15.359-9.411-23.636-12.929
		c-9.706-44.18-58.534-46.221-71.375-44.044c-25.239,2.428-42.297,25.01-42.319,41.917c-20.394,6.087-39.941,14.833-58.212,25.73
		c-18.271-10.897-37.819-19.643-58.212-25.73c-0.022-16.907-17.08-39.489-42.319-41.917c-12.841-2.177-61.669-0.136-71.375,44.044
		c-8.278,3.518-16.289,7.722-23.636,12.929c-6.973-9.809-15.67-18.299-25.195-25.619c5.566-14.37-10.686-28.953-25.673-25.831
		c-9.278,1.913-13.611,11.184-9.542,20.096c5.733,12.79,23.733,18.246,32.966,9.086c9.533,6.476,17.459,15.079,24.228,24.345
		c0.217-0.036,0.659-0.099,0.876-0.131c0.723-0.587,1.45-1.165,2.181-1.734c3.909,5.047,12.556,20.603,12.902,20.963
		c2.624-2.561,5.966-4.286,9.109-6.128c0.435-2.744-1.165-15.361,1.906-27.796c1.427-0.583,2.868-1.134,4.304-1.689
		c-2.163,8.779-2.61,17.879-2.389,26.883c0.244,0.018,0.732,0.054,0.971,0.072c23.511-11.746,49.42-13.664,75.556-10.536
		c-7.651,18.746-22.209,25.443-42.59,13.056c11.175,25.644,44.448,25.873,61.358,13.977c-3.663,17.394-3.31,50.25,21.076,57.867
		c38.453,12.705,48.861-45.252,13.887-47.548c-6.092-0.375-11.886,3.021-15.395,7.858c5.697-2.501,12.112-3.632,14.979,1.897
		c6.58,12.736-9.204,23.649-20.353,17.106c-24.11-14.213-3.686-52.152-2.163-57.217C774.186,87.819,795.184,98.391,814.439,111.511z
		 M1588.305,40.572c-11.567-0.806-18.743,0.641-20.885-0.787c-19.374-12.301-42.513-18.109-65.369-17.847
		c-303.626,0-301.405-6.008-341.491,18.244c-35.472,1.004-63.81,0.331-123.15,58.242c-8.176-11.117-15.545-17.332-23.691-23.916
		c-0.443-0.045-0.885-0.086-1.319-0.117c0,0-5.099,8.417-11.845,20.85c-0.741-0.614-1.468-1.233-2.199-1.852
		c-0.235,0.004-0.704,0.014-0.935,0.018c-2.817,5.521-12.597,21.956-15.982,26.888c2.953-10.811,5.491-21.794,6.426-32.989
		c-0.664-1.368-2.375-1.752-3.473-2.687c-0.623,1.174-0.465,2.547-0.614,3.83c-6.337,67.026-75.08,113.276-140.961,82.132
		c-9.116-4.357-19.194-10.643-28.38-18.551c-9.186,7.908-19.264,14.194-28.38,18.551c-65.881,31.144-134.624-15.106-140.961-82.132
		c-0.149-1.283,0.009-2.655-0.614-3.83c-1.097,0.935-2.809,1.319-3.473,2.687c0.935,11.195,3.473,22.178,6.426,32.989
		c-3.385-4.932-13.165-21.367-15.982-26.888c-0.23-0.004-0.7-0.014-0.935-0.018c-0.732,0.619-1.459,1.237-2.199,1.852
		c-6.747-12.433-11.845-20.85-11.845-20.85c-0.433,0.032-0.876,0.072-1.319,0.117c-8.146,6.585-15.514,12.799-23.691,23.916
		c-59.34-57.911-87.678-57.238-123.15-58.242c-40.086-24.252-37.865-18.244-341.492-18.244
		c-22.855-0.262-45.995,5.546-65.368,17.847c-2.141,1.428-9.318-0.019-20.885,0.787c-0.806,11.567,0.641,18.743-0.787,20.885
		C27.484,80.83,21.676,103.97,21.938,126.825c0,303.626-6.008,301.405,18.244,341.492c1.004,35.472,0.331,63.81,58.242,123.15
		c-11.117,8.176-17.332,15.545-23.916,23.691c-0.045,0.443-0.086,0.885-0.117,1.319c0,0,8.417,5.099,20.85,11.845
		c-0.614,0.741-1.233,1.468-1.852,2.199c0.004,0.235,0.014,0.704,0.018,0.935c5.521,2.817,21.956,12.597,26.888,15.982
		c-10.811-2.953-21.794-5.491-32.989-6.426c-1.368,0.664-1.752,2.375-2.687,3.473c1.174,0.623,2.547,0.465,3.83,0.614
		c67.026,6.337,113.276,75.08,82.132,140.961c-4.357,9.116-10.643,19.194-18.551,28.38c7.908,9.186,14.194,19.264,18.551,28.38
		c31.144,65.881-15.106,134.624-82.132,140.961c-1.283,0.149-2.655-0.009-3.83,0.614c0.935,1.097,1.319,2.809,2.687,3.473
		c11.195-0.935,22.178-3.473,32.989-6.426c-4.932,3.385-21.367,13.165-26.888,15.982c-0.004,0.23-0.014,0.7-0.018,0.935
		c0.619,0.732,1.237,1.459,1.852,2.199c-12.433,6.747-20.85,11.845-20.85,11.845c0.032,0.434,0.072,0.876,0.117,1.319
		c6.585,8.146,12.799,15.514,23.916,23.691c-57.911,59.34-57.238,87.678-58.242,123.15c-24.252,40.086-18.244,37.865-18.244,341.491
		c-0.262,22.855,5.546,45.995,17.847,65.369c1.428,2.141-0.019,9.318,0.787,20.885c11.567,0.806,18.743-0.641,20.885,0.787
		c19.374,12.301,42.513,18.109,65.368,17.847c303.626,0,301.405,6.008,341.492-18.245c35.472-1.004,63.81-0.331,123.15-58.242
		c8.176,11.117,15.545,17.332,23.691,23.916c0.443,0.045,0.885,0.086,1.319,0.117c0,0,5.099-8.417,11.845-20.85
		c0.741,0.614,1.468,1.233,2.199,1.852c0.235-0.005,0.704-0.014,0.935-0.018c2.817-5.521,12.597-21.956,15.982-26.888
		c-2.953,10.811-5.491,21.794-6.426,32.989c0.664,1.368,2.375,1.752,3.473,2.687c0.623-1.174,0.465-2.547,0.614-3.829
		c6.337-67.026,75.08-113.276,140.961-82.132c9.116,4.357,19.194,10.643,28.38,18.551c9.186-7.908,19.264-14.194,28.38-18.551
		c65.881-31.144,134.624,15.106,140.961,82.132c0.149,1.282-0.009,2.655,0.614,3.829c1.097-0.935,2.809-1.319,3.473-2.687
		c-0.935-11.195-3.473-22.178-6.426-32.989c3.385,4.932,13.165,21.367,15.982,26.888c0.23,0.005,0.7,0.014,0.935,0.018
		c0.732-0.619,1.459-1.237,2.199-1.852c6.747,12.433,11.845,20.85,11.845,20.85c0.434-0.032,0.876-0.072,1.319-0.117
		c8.146-6.585,15.514-12.799,23.691-23.916c59.34,57.911,87.678,57.238,123.15,58.242c40.086,24.252,37.865,18.245,341.491,18.245
		c22.855,0.262,45.995-5.546,65.369-17.847c2.141-1.428,9.318,0.019,20.885-0.787c0.806-11.567-0.641-18.743,0.787-20.885
		c12.301-19.374,18.109-42.513,17.847-65.369c0-303.626,6.008-301.405-18.245-341.491c-1.004-35.472-0.331-63.81-58.242-123.15
		c11.117-8.176,17.332-15.545,23.916-23.691c0.045-0.443,0.086-0.885,0.117-1.319c0,0-8.417-5.099-20.85-11.845
		c0.614-0.741,1.233-1.468,1.852-2.199c-0.005-0.235-0.014-0.704-0.018-0.935c-5.521-2.817-21.956-12.597-26.888-15.982
		c10.811,2.953,21.794,5.491,32.989,6.426c1.368-0.664,1.752-2.375,2.687-3.473c-1.174-0.623-2.547-0.465-3.829-0.614
		c-67.026-6.337-113.276-75.08-82.132-140.961c4.357-9.116,10.643-19.194,18.551-28.38c-7.908-9.186-14.194-19.264-18.551-28.38
		c-31.144-65.881,15.106-134.624,82.132-140.961c1.282-0.149,2.655,0.009,3.829-0.614c-0.935-1.097-1.319-2.809-2.687-3.473
		c-11.195,0.935-22.178,3.473-32.989,6.426c4.932-3.385,21.367-13.165,26.888-15.982c0.005-0.23,0.014-0.7,0.018-0.935
		c-0.619-0.732-1.237-1.459-1.852-2.199c12.433-6.747,20.85-11.845,20.85-11.845c-0.032-0.433-0.072-0.876-0.117-1.319
		c-6.585-8.146-12.799-15.514-23.916-23.691c57.911-59.34,57.238-87.678,58.242-123.15c24.252-40.086,18.245-37.865,18.245-341.492
		c0.262-22.855-5.546-45.995-17.847-65.368C1587.665,59.315,1589.112,52.139,1588.305,40.572z M844.806,134.48
		c-0.628-5.103,1.526-10.138,4.529-14.153c-6.293,15.268,9.909,32.481,29.534,21.144
		C865.927,156.573,846.561,147.208,844.806,134.48z M134.48,784.072c-5.103,0.628-10.138-1.526-14.153-4.529
		c15.268,6.293,32.481-9.909,21.144-29.534C156.573,762.951,147.208,782.317,134.48,784.072z M784.072,1494.398
		c0.628,5.103-1.526,10.138-4.529,14.153c6.293-15.268-9.909-32.481-29.534-21.144
		C762.951,1472.305,782.317,1481.669,784.072,1494.398z M1494.398,844.806c5.103-0.628,10.138,1.526,14.153,4.529
		c-15.268-6.293-32.481,9.909-21.144,29.534C1472.305,865.927,1481.669,846.561,1494.398,844.806z M1487.407,750.008
		c-11.338,19.625,5.876,35.827,21.144,29.534c-4.015,3.003-9.05,5.157-14.153,4.529
		C1481.669,782.317,1472.305,762.951,1487.407,750.008z M750.008,141.471c19.625,11.337,35.827-5.876,29.534-21.144
		c3.003,4.015,5.157,9.05,4.529,14.153C782.317,147.208,762.951,156.573,750.008,141.471z M141.471,878.869
		c11.337-19.625-5.876-35.827-21.144-29.534c4.015-3.003,9.05-5.157,14.153-4.529C147.208,846.561,156.573,865.927,141.471,878.869z
		 M878.869,1487.407c-19.625-11.338-35.827,5.876-29.534,21.144c-3.003-4.015-5.157-9.05-4.529-14.153
		C846.561,1481.669,865.927,1472.305,878.869,1487.407z M1053.284,24.485c6.476-1.725,13.589,3.563,13.814,10.247
		c0.709,6.291-4.918,12.297-11.213,12.13C1042.595,47.317,1040.025,27.234,1053.284,24.485z M24.485,575.593
		c-1.725-6.476,3.563-13.589,10.247-13.814c6.291-0.709,12.297,4.918,12.13,11.213C47.317,586.282,27.234,588.853,24.485,575.593z
		 M575.593,1604.392c-6.476,1.725-13.589-3.563-13.814-10.247c-0.709-6.291,4.918-12.297,11.213-12.13
		C586.282,1581.56,588.853,1601.644,575.593,1604.392z M1604.392,1053.284c1.725,6.476-3.563,13.589-10.247,13.814
		c-6.291,0.709-12.297-4.918-12.13-11.213C1581.56,1042.595,1601.644,1040.025,1604.392,1053.284z M1582.016,572.992
		c-0.167-6.295,5.839-11.922,12.13-11.213c6.684,0.226,11.972,7.338,10.247,13.814
		C1601.644,588.853,1581.56,586.282,1582.016,572.992z M572.992,46.862c-6.295,0.167-11.922-5.839-11.213-12.13
		c0.226-6.684,7.338-11.972,13.814-10.247C588.853,27.234,586.282,47.317,572.992,46.862z M46.862,1055.885
		c0.167,6.295-5.839,11.922-12.13,11.213c-6.684-0.226-11.972-7.339-10.247-13.814C27.234,1040.025,47.317,1042.595,46.862,1055.885
		z M1055.885,1582.016c6.295-0.167,11.922,5.839,11.213,12.13c-0.226,6.684-7.339,11.972-13.814,10.247
		C1040.025,1601.644,1042.595,1581.56,1055.885,1582.016z M981.707,57.375c-23.506-8.675-49.138-10.504-73.904-7.637
		c2.479-6.381,6.101-12.717,11.963-16.546C934.966,22.675,972.014,21.143,981.707,57.375z M57.375,647.171
		c-8.675,23.505-10.504,49.138-7.637,73.904c-6.381-2.479-12.717-6.101-16.546-11.963C22.675,693.912,21.143,656.864,57.375,647.171
		z M647.171,1571.503c23.505,8.675,49.138,10.504,73.904,7.636c-2.479,6.381-6.101,12.717-11.963,16.546
		C693.912,1606.203,656.864,1607.734,647.171,1571.503z M1571.503,981.707c8.675-23.506,10.504-49.138,7.636-73.904
		c6.381,2.479,12.717,6.101,16.546,11.963C1606.203,934.966,1607.734,972.014,1571.503,981.707z M1595.686,709.112
		c-3.829,5.862-10.165,9.484-16.546,11.963c2.868-24.765,1.039-50.398-7.636-73.904
		C1607.734,656.864,1606.203,693.912,1595.686,709.112z M709.112,33.192c5.862,3.83,9.484,10.165,11.963,16.546
		c-24.765-2.868-50.398-1.039-73.904,7.637C656.864,21.143,693.912,22.675,709.112,33.192z M33.192,919.766
		c3.83-5.862,10.165-9.484,16.546-11.963c-2.868,24.765-1.039,50.398,7.637,73.904C21.143,972.014,22.675,934.966,33.192,919.766z
		 M919.766,1595.686c-5.862-3.829-9.484-10.165-11.963-16.546c24.765,2.868,50.398,1.039,73.904-7.636
		C972.014,1607.734,934.966,1606.203,919.766,1595.686z M893.162,29.154c9.578-7.474,22.255-10.075,34.186-8.951
		c-50.794,20.419-27.473,82.249,9.556,78.316c-10.031,8.207-31.418,9.218-45.272-3.414
		C872.898,78.202,872.051,45.541,893.162,29.154z M29.154,735.715c-7.474-9.578-10.075-22.255-8.951-34.186
		c20.419,50.794,82.249,27.473,78.316-9.556c8.207,10.031,9.218,31.418-3.414,45.272C78.202,755.98,45.541,756.827,29.154,735.715z
		 M735.715,1599.723c-9.578,7.474-22.255,10.075-34.186,8.951c50.794-20.419,27.473-82.249-9.556-78.316
		c10.031-8.207,31.418-9.218,45.272,3.414C755.98,1550.675,756.827,1583.337,735.715,1599.723z M1599.723,893.162
		c7.474,9.578,10.075,22.255,8.951,34.186c-20.419-50.794-82.249-27.473-78.316,9.556c-8.207-10.031-9.218-31.418,3.414-45.272
		C1550.675,872.898,1583.337,872.051,1599.723,893.162z M1533.772,737.246c-12.632-13.854-11.621-35.242-3.414-45.272
		c-3.934,37.029,57.897,60.35,78.316,9.556c1.125,11.931-1.477,24.607-8.951,34.186
		C1583.337,756.827,1550.675,755.98,1533.772,737.246z M737.246,95.105c-13.854,12.632-35.242,11.621-45.272,3.414
		c37.029,3.934,60.35-57.897,9.556-78.316c11.931-1.125,24.607,1.477,34.186,8.951C756.827,45.541,755.98,78.202,737.246,95.105z
		 M95.105,891.632c12.632,13.854,11.621,35.242,3.414,45.272c3.934-37.029-57.897-60.35-78.316-9.556
		c-1.125-11.931,1.477-24.607,8.951-34.186C45.541,872.051,78.202,872.898,95.105,891.632z M891.632,1533.772
		c13.854-12.632,35.242-11.621,45.272-3.414c-37.029-3.934-60.35,57.897-9.556,78.316c-11.931,1.125-24.607-1.477-34.186-8.951
		C872.051,1583.337,872.898,1550.675,891.632,1533.772z M1579.841,49.036c-1.525-1.311-3.085-2.582-4.68-3.81
		c2.787-0.003,5.55,0.055,8.3,0.19c0.135,2.75,0.193,5.513,0.19,8.3C1582.423,52.122,1581.152,50.561,1579.841,49.036z
		 M1579.841,1579.841c1.311-1.525,2.582-3.085,3.81-4.68c0.003,2.787-0.055,5.55-0.19,8.3c-2.75,0.135-5.513,0.193-8.3,0.19
		C1576.756,1582.423,1578.316,1581.152,1579.841,1579.841z M49.036,1579.841c1.525,1.311,3.085,2.582,4.68,3.81
		c-2.787,0.003-5.55-0.055-8.3-0.19c-0.135-2.75-0.193-5.513-0.19-8.3C46.454,1576.756,47.725,1578.316,49.036,1579.841z
		 M49.036,49.036c-1.311,1.525-2.582,3.085-3.81,4.68c-0.003-2.787,0.055-5.55,0.19-8.3c2.75-0.135,5.513-0.193,8.3-0.19
		C52.122,46.454,50.561,47.725,49.036,49.036z M1508.052,120.825c-0.485-0.398-0.966-0.816-1.443-1.253
		c-19.921-16.333-12.908-65.358,47.422-75.461c4.322-0.65,8.689-1.328,13.078-1.043c-58.826,8.308-68.188,50.172-48.048,66.748
		c16.576,20.14,58.44,10.778,66.748-48.048c0.285,4.389-0.393,8.756-1.043,13.078c-10.103,60.33-59.128,67.343-75.461,47.422
		C1508.868,121.791,1508.45,121.31,1508.052,120.825z M1508.052,1508.052c0.398-0.485,0.816-0.966,1.253-1.443
		c16.333-19.921,65.358-12.908,75.461,47.422c0.65,4.322,1.328,8.689,1.043,13.078c-8.308-58.826-50.172-68.188-66.748-48.048
		c-20.14,16.576-10.778,58.44,48.048,66.748c-4.39,0.285-8.756-0.393-13.078-1.043c-60.33-10.103-67.343-59.128-47.422-75.461
		C1507.086,1508.868,1507.568,1508.45,1508.052,1508.052z M120.825,1508.052c0.485,0.398,0.966,0.816,1.443,1.253
		c19.921,16.333,12.908,65.358-47.422,75.461c-4.322,0.65-8.689,1.328-13.078,1.043c58.825-8.308,68.188-50.172,48.048-66.748
		c-16.576-20.14-58.44-10.778-66.748,48.048c-0.285-4.39,0.393-8.756,1.043-13.078c10.103-60.33,59.128-67.343,75.461-47.422
		C120.01,1507.086,120.427,1507.568,120.825,1508.052z M120.825,120.825c-0.398,0.485-0.816,0.966-1.253,1.443
		c-16.333,19.921-65.358,12.908-75.461-47.422c-0.65-4.322-1.328-8.689-1.043-13.078c8.308,58.825,50.172,68.188,66.748,48.048
		c20.14-16.576,10.778-58.44-48.048-66.748c4.389-0.285,8.756,0.393,13.078,1.043c60.33,10.103,67.343,59.128,47.422,75.461
		C121.791,120.01,121.31,120.427,120.825,120.825z M1492.108,44.59c12.035-0.316,24.228,0.763,35.762,4.358
		c-18.693,8.424-32.822,23.848-34.24,45.616c-86.178-0.054-172.356,0.014-258.534-0.032c-1.105-21.514-14.775-36.247-34.208-45.67
		C1220.28,43.185,1205.388,44.56,1492.108,44.59z M44.59,136.769c-0.316-12.035,0.763-24.228,4.358-35.762
		c8.424,18.693,23.848,32.822,45.616,34.24c-0.054,86.178,0.014,172.356-0.032,258.534c-21.514,1.105-36.247,14.775-45.67,34.208
		C43.185,408.598,44.56,423.49,44.59,136.769z M136.769,1584.287c-12.035,0.316-24.228-0.763-35.762-4.358
		c18.693-8.424,32.822-23.848,34.24-45.616c86.178,0.054,172.356-0.014,258.534,0.032c1.105,21.514,14.775,36.247,34.208,45.67
		C408.598,1585.693,423.49,1584.318,136.769,1584.287z M1584.287,1492.108c0.316,12.035-0.763,24.228-4.358,35.762
		c-8.424-18.693-23.848-32.822-45.616-34.24c0.054-86.178-0.014-172.356,0.032-258.534c21.514-1.105,36.247-14.775,45.67-34.208
		C1585.693,1220.28,1584.318,1205.388,1584.287,1492.108z M1580.015,427.989c-9.422-19.433-24.155-33.103-45.67-34.208
		c-0.045-86.178,0.023-172.356-0.032-258.534c21.768-1.418,37.192-15.547,45.616-34.24c3.595,11.534,4.674,23.727,4.358,35.762
		C1584.318,423.49,1585.693,408.598,1580.015,427.989z M427.989,48.862c-19.433,9.422-33.103,24.155-34.208,45.67
		c-86.178,0.045-172.356-0.023-258.534,0.032c-1.418-21.768-15.547-37.192-34.24-45.616c11.534-3.595,23.727-4.674,35.762-4.358
		C423.49,44.56,408.598,43.185,427.989,48.862z M48.862,1200.888c9.422,19.433,24.155,33.103,45.67,34.208
		c0.045,86.178-0.023,172.356,0.032,258.534c-21.768,1.418-37.192,15.547-45.616,34.24c-3.595-11.534-4.674-23.727-4.358-35.762
		C44.56,1205.388,43.185,1220.28,48.862,1200.888z M1200.888,1580.015c19.433-9.422,33.103-24.155,34.208-45.67
		c86.178-0.045,172.356,0.023,258.534-0.032c1.418,21.768,15.547,37.192,34.24,45.616c-11.534,3.595-23.727,4.674-35.762,4.358
		C1205.388,1584.318,1220.28,1585.693,1200.888,1580.015z M1175.156,44.179c81.536,14.269,63.16,94.451,19.834,82.195
		c-10.312-3.378-17.03-15.516-13.2-28.139c3.726,11.135,17.835,23.301,31.76,7.853c13.634-15.647,6.298-54.292-51.631-63.016
		C1166.359,42.784,1170.78,43.515,1175.156,44.179z M44.179,453.721c14.269-81.536,94.451-63.16,82.195-19.834
		c-3.378,10.312-15.516,17.03-28.139,13.2c11.135-3.727,23.301-17.835,7.853-31.761c-15.647-13.634-54.292-6.298-63.016,51.631
		C42.784,462.518,43.515,458.097,44.179,453.721z M453.721,1584.698c-81.536-14.269-63.16-94.451-19.834-82.195
		c10.312,3.378,17.03,15.516,13.2,28.139c-3.727-11.135-17.835-23.301-31.761-7.853c-13.634,15.647-6.298,54.292,51.631,63.016
		C462.518,1586.094,458.097,1585.362,453.721,1584.698z M1584.698,1175.156c-14.269,81.536-94.451,63.16-82.195,19.834
		c3.378-10.312,15.516-17.03,28.139-13.2c-11.135,3.726-23.301,17.835-7.853,31.76c15.647,13.634,54.292,6.298,63.016-51.631
		C1586.094,1166.359,1585.362,1170.78,1584.698,1175.156z M1585.805,466.957c-8.724-57.929-47.368-65.265-63.016-51.631
		c-15.448,13.926-3.281,28.034,7.853,31.761c-12.623,3.83-24.761-2.888-28.139-13.2c-12.256-43.326,67.926-61.702,82.195,19.834
		C1585.362,458.097,1586.094,462.518,1585.805,466.957z M466.957,43.073c-57.929,8.724-65.265,47.368-51.631,63.016
		c13.926,15.447,28.034,3.281,31.761-7.853c3.83,12.623-2.888,24.761-13.2,28.139c-43.326,12.256-61.702-67.926,19.834-82.195
		C458.097,43.515,462.518,42.784,466.957,43.073z M43.073,1161.92c8.724,57.929,47.368,65.265,63.016,51.631
		c15.447-13.926,3.281-28.034-7.853-31.76c12.623-3.83,24.761,2.888,28.139,13.2c12.256,43.326-67.926,61.702-82.195-19.834
		C43.515,1170.78,42.784,1166.359,43.073,1161.92z M1161.92,1585.805c57.929-8.724,65.265-47.368,51.631-63.016
		c-13.926-15.448-28.034-3.281-31.76,7.853c-3.83-12.623,2.888-24.761,13.2-28.139c43.326-12.256,61.702,67.926-19.834,82.195
		C1170.78,1585.362,1166.359,1586.094,1161.92,1585.805z M1127.174,47.76c8.68-1.73,17.531-2.61,26.387-2.506
		c-27.112,20.923-47.302,57.24-47.169,91.303c-12.06,0.051-29.319,5.043-45.543,16.546c-3.283-17.892-9.998-35.27-20.349-50.276
		C1065.756,77.416,1093.456,54.62,1127.174,47.76z M47.76,501.703c-1.73-8.68-2.61-17.531-2.506-26.387
		c20.923,27.112,57.24,47.302,91.303,47.169c0.051,12.06,5.043,29.319,16.546,45.543c-17.892,3.283-35.27,9.998-50.276,20.349
		C77.416,563.121,54.62,535.421,47.76,501.703z M501.703,1581.117c-8.68,1.73-17.531,2.61-26.387,2.506
		c27.112-20.923,47.302-57.24,47.169-91.303c12.06-0.051,29.319-5.043,45.543-16.547c3.283,17.892,9.998,35.27,20.349,50.276
		C563.121,1551.461,535.421,1574.258,501.703,1581.117z M1581.117,1127.174c1.73,8.68,2.61,17.531,2.506,26.387
		c-20.923-27.112-57.24-47.302-91.303-47.169c-0.051-12.06-5.043-29.319-16.547-45.543c17.892-3.283,35.27-9.998,50.276-20.349
		C1551.461,1065.756,1574.258,1093.456,1581.117,1127.174z M1526.05,588.378c-15.007-10.351-32.384-17.066-50.276-20.349
		c11.503-16.225,16.495-33.484,16.547-45.543c34.064,0.133,70.381-20.057,91.303-47.169c0.104,8.856-0.777,17.707-2.506,26.387
		C1574.258,535.421,1551.461,563.121,1526.05,588.378z M588.378,102.828c-10.351,15.007-17.066,32.384-20.349,50.276
		c-16.225-11.503-33.484-16.495-45.543-16.546c0.133-34.064-20.057-70.381-47.169-91.303c8.856-0.104,17.707,0.777,26.387,2.506
		C535.421,54.62,563.121,77.416,588.378,102.828z M102.828,1040.5c15.007,10.351,32.384,17.066,50.276,20.349
		c-11.503,16.224-16.495,33.484-16.546,45.543c-34.064-0.133-70.381,20.057-91.303,47.169c-0.104-8.856,0.777-17.707,2.506-26.387
		C54.62,1093.456,77.416,1065.756,102.828,1040.5z M1040.5,1526.05c10.351-15.007,17.066-32.384,20.349-50.276
		c16.224,11.503,33.484,16.495,45.543,16.547c-0.133,34.064,20.057,70.381,47.169,91.303c-8.856,0.104-17.707-0.777-26.387-2.506
		C1093.456,1574.258,1065.756,1551.461,1040.5,1526.05z M988.67,117.441c4.335-7.158,8.26-14.555,12.057-22.011
		c7.415,5.871,13.932,12.821,19.315,20.597c-23.712,24.154-60.95,55.492-94.207,60.767
		C955.366,165.139,972.867,143.549,988.67,117.441z M117.441,640.207c-7.158-4.335-14.555-8.26-22.011-12.058
		c5.871-7.415,12.821-13.932,20.597-19.315c24.154,23.712,55.492,60.95,60.767,94.207
		C165.139,673.512,143.549,656.011,117.441,640.207z M640.207,1511.436c-4.335,7.158-8.26,14.555-12.058,22.011
		c-7.415-5.871-13.932-12.821-19.315-20.597c23.712-24.154,60.95-55.492,94.207-60.767
		C673.512,1463.739,656.011,1485.329,640.207,1511.436z M1511.436,988.67c7.158,4.335,14.555,8.26,22.011,12.057
		c-5.871,7.415-12.821,13.932-20.597,19.315c-24.154-23.712-55.492-60.95-60.767-94.207
		C1463.739,955.366,1485.329,972.867,1511.436,988.67z M1452.083,703.042c5.274-33.258,36.613-70.495,60.767-94.207
		c7.776,5.383,14.727,11.9,20.597,19.315c-7.456,3.798-14.853,7.722-22.011,12.058
		C1485.329,656.011,1463.739,673.512,1452.083,703.042z M703.042,176.794c-33.258-5.274-70.495-36.613-94.207-60.767
		c5.383-7.776,11.9-14.727,19.315-20.597c3.798,7.456,7.722,14.853,12.058,22.011C656.011,143.549,673.512,165.139,703.042,176.794z
		 M176.794,925.835c-5.274,33.258-36.613,70.495-60.767,94.207c-7.776-5.383-14.727-11.899-20.597-19.315
		c7.456-3.798,14.853-7.722,22.011-12.057C143.549,972.867,165.139,955.366,176.794,925.835z M925.835,1452.083
		c33.258,5.274,70.495,36.613,94.207,60.767c-5.383,7.776-11.899,14.727-19.315,20.597c-3.798-7.456-7.722-14.853-12.057-22.011
		C972.867,1485.329,955.366,1463.739,925.835,1452.083z M814.439,216.743c5.775,19.671,5.813,40.536,0,59.633
		C808.625,257.279,808.664,236.414,814.439,216.743z M1412.134,814.439c-19.671,5.775-40.536,5.813-59.633,0
		C1371.599,808.625,1392.463,808.664,1412.134,814.439z M814.439,1412.134c-5.775-19.671-5.813-40.536,0-59.633
		C820.252,1371.599,820.214,1392.463,814.439,1412.134z M216.743,814.439c19.671-5.775,40.536-5.813,59.633,0
		C257.279,820.252,236.414,820.214,216.743,814.439z M814.439,289.808c0.373-0.893,0.73-1.792,1.072-2.698
		c-0.252,1.947-0.612,3.923-1.072,5.921c-0.46-1.998-0.82-3.973-1.072-5.921C813.708,288.016,814.066,288.915,814.439,289.808z
		 M1339.07,814.439c0.893,0.373,1.792,0.73,2.698,1.072c-1.948-0.252-3.923-0.612-5.921-1.072c1.998-0.46,3.973-0.82,5.921-1.072
		C1340.862,813.708,1339.962,814.066,1339.07,814.439z M814.439,1339.07c-0.373,0.893-0.73,1.792-1.072,2.698
		c0.252-1.948,0.612-3.923,1.072-5.921c0.46,1.998,0.82,3.973,1.072,5.921C815.169,1340.862,814.812,1339.962,814.439,1339.07z
		 M289.808,814.439c-0.893-0.373-1.792-0.73-2.698-1.072c1.947,0.252,3.923,0.612,5.921,1.072c-1.998,0.46-3.973,0.82-5.921,1.072
		C288.016,815.169,288.915,814.812,289.808,814.439z M1524.06,1524.06c3.35-4.83,9.519-8.496,15.438-8.785
		c13.164-0.98,28.899,9.234,36.403,23.731c-3.877,8.215-8.925,15.573-14.823,22.072c-6.499,5.898-13.857,10.946-22.072,14.823
		c-14.497-7.504-24.711-23.239-23.731-36.403C1515.564,1533.58,1519.23,1527.41,1524.06,1524.06z M104.817,1524.06
		c4.83,3.35,8.496,9.519,8.785,15.438c0.98,13.164-9.234,28.899-23.731,36.403c-8.215-3.877-15.573-8.925-22.072-14.823
		c-5.898-6.499-10.946-13.857-14.823-22.072c7.504-14.497,23.239-24.711,36.403-23.731
		C95.298,1515.564,101.467,1519.23,104.817,1524.06z M104.817,104.817c-3.35,4.83-9.519,8.496-15.438,8.785
		c-13.164,0.98-28.899-9.234-36.403-23.731c3.877-8.215,8.925-15.573,14.823-22.072c6.499-5.898,13.857-10.946,22.072-14.823
		c14.497,7.504,24.711,23.239,23.731,36.403C113.314,95.298,109.647,101.467,104.817,104.817z M1524.06,104.817
		c-4.83-3.35-8.496-9.519-8.785-15.438c-0.98-13.164,9.234-28.899,23.731-36.403c8.215,3.877,15.573,8.925,22.072,14.823
		c5.898,6.499,10.946,13.857,14.823,22.072c-7.504,14.497-23.239,24.711-36.403,23.731
		C1533.58,113.314,1527.41,109.647,1524.06,104.817z M1593.682,814.439c-2.816,4.055-6.396,7.749-10.713,10.881
		c0.559-3.558,0.85-7.227,0.761-10.881c0.089-3.653-0.202-7.323-0.761-10.881C1587.287,806.689,1590.866,810.384,1593.682,814.439z
		 M814.439,1593.682c-4.055-2.816-7.749-6.396-10.881-10.713c3.558,0.559,7.227,0.85,10.881,0.761
		c3.653,0.089,7.323-0.202,10.881-0.761C822.188,1587.287,818.493,1590.866,814.439,1593.682z M35.195,814.439
		c2.816-4.055,6.395-7.749,10.713-10.881c-0.559,3.558-0.851,7.227-0.761,10.881c-0.089,3.653,0.202,7.323,0.761,10.881
		C41.591,822.188,38.012,818.493,35.195,814.439z M814.439,35.195c4.055,2.816,7.749,6.395,10.881,10.713
		c-3.558-0.559-7.227-0.851-10.881-0.761c-3.653-0.089-7.323,0.202-10.881,0.761C806.689,41.591,810.384,38.012,814.439,35.195z
		 M814.439,304.187c0.123-0.367,0.244-0.736,0.363-1.104c13.45-40.629,10.825-74.267-0.363-100.316
		c-11.188,26.05-13.812,59.688-0.363,100.316C814.195,303.452,814.316,303.82,814.439,304.187z M304.187,814.439
		c-0.367-0.123-0.736-0.244-1.104-0.363c-40.629-13.45-74.267-10.825-100.316,0.363c26.05,11.188,59.688,13.812,100.316,0.363
		C303.452,814.682,303.82,814.561,304.187,814.439z M814.439,1324.69c-0.123,0.368-0.244,0.736-0.363,1.104
		c-13.45,40.629-10.825,74.266,0.363,100.316c11.188-26.05,13.812-59.688,0.363-100.316
		C814.682,1325.426,814.561,1325.058,814.439,1324.69z M1324.69,814.439c0.368,0.123,0.736,0.244,1.104,0.363
		c40.629,13.45,74.266,10.825,100.316-0.363c-26.05-11.188-59.688-13.812-100.316-0.363
		C1325.426,814.195,1325.058,814.316,1324.69,814.439z M814.439,157.794c43.737,36.364,120.594,47.861,208.453-37.458
		c19.154,31.228,20.492,70.943,8.594,93.263c1.563,0.691,3.125,1.373,4.678,2.086c15.436-30.97,48.893-55.522,94.754-56.865
		c-1.568-32.507,14.182-84.974,58.761-105.849c7.524,3.83,13.927,9.822,18.335,17.016c18.512,30.29-16.358,54.701-25.316,20.782
		c-17.458,28.693,17.226,52.87,41.515,31.422c6.643-5.455,10.116-13.995,10.789-22.417c16.914-0.133,230.155-0.082,258.714-0.045
		c0.924,10.565,5.637,18.386,11.988,23.444c5.058,6.351,12.879,11.064,23.444,11.988c0.037,28.56,0.088,241.8-0.045,258.714
		c-8.422,0.673-16.962,4.146-22.417,10.789c-21.448,24.289,2.729,58.973,31.422,41.515c-33.919-8.958-9.507-43.828,20.782-25.316
		c7.194,4.408,13.187,10.811,17.016,18.335c-20.875,44.58-73.342,60.33-105.849,58.761c-1.342,45.861-25.895,79.318-56.865,94.754
		c0.714,1.553,1.396,3.116,2.086,4.679c22.321-11.898,62.036-10.56,93.263,8.594c-85.319,87.86-73.823,164.717-37.458,208.453
		c-36.364,43.737-47.861,120.594,37.458,208.453c-31.228,19.154-70.943,20.492-93.263,8.594c-0.691,1.563-1.373,3.125-2.086,4.678
		c30.97,15.436,55.522,48.893,56.865,94.754c32.507-1.568,84.974,14.182,105.849,58.761c-3.83,7.524-9.822,13.927-17.016,18.335
		c-30.29,18.512-54.702-16.358-20.782-25.316c-28.693-17.458-52.87,17.226-31.422,41.515c5.455,6.643,13.995,10.116,22.417,10.789
		c0.133,16.914,0.082,230.155,0.045,258.714c-10.565,0.924-18.386,5.637-23.444,11.988c-6.351,5.058-11.064,12.879-11.988,23.444
		c-28.56,0.037-241.8,0.088-258.714-0.045c-0.673-8.422-4.146-16.962-10.789-22.417c-24.289-21.448-58.973,2.729-41.515,31.422
		c8.958-33.919,43.828-9.507,25.316,20.782c-4.408,7.194-10.811,13.187-18.335,17.016c-44.58-20.875-60.33-73.342-58.761-105.849
		c-45.861-1.342-79.318-25.895-94.754-56.865c-1.553,0.714-3.116,1.396-4.678,2.086c11.898,22.321,10.56,62.036-8.594,93.263
		c-87.86-85.319-164.717-73.823-208.453-37.458c-43.737-36.364-120.594-47.861-208.453,37.458
		c-19.154-31.228-20.492-70.943-8.594-93.263c-1.563-0.691-3.125-1.373-4.679-2.086c-15.436,30.97-48.893,55.522-94.754,56.865
		c1.568,32.507-14.182,84.974-58.761,105.849c-7.524-3.83-13.927-9.822-18.335-17.016c-18.512-30.29,16.358-54.702,25.316-20.782
		c17.458-28.693-17.226-52.87-41.515-31.422c-6.643,5.455-10.116,13.995-10.789,22.417c-16.914,0.133-230.155,0.082-258.714,0.045
		c-0.924-10.565-5.637-18.386-11.988-23.444c-5.058-6.351-12.879-11.064-23.444-11.988c-0.037-28.56-0.088-241.8,0.045-258.714
		c8.422-0.673,16.962-4.146,22.417-10.789c21.448-24.289-2.729-58.973-31.422-41.515c33.919,8.958,9.507,43.828-20.782,25.316
		c-7.194-4.408-13.187-10.811-17.016-18.335c20.875-44.58,73.342-60.33,105.849-58.761c1.342-45.861,25.895-79.318,56.865-94.754
		c-0.714-1.553-1.395-3.116-2.086-4.678c-22.321,11.898-62.036,10.56-93.263-8.594c85.319-87.86,73.823-164.717,37.458-208.453
		c36.364-43.737,47.861-120.594-37.458-208.453c31.228-19.154,70.943-20.492,93.263-8.594c0.691-1.563,1.373-3.125,2.086-4.679
		c-30.97-15.436-55.522-48.893-56.865-94.754c-32.507,1.568-84.974-14.182-105.849-58.761c3.83-7.524,9.822-13.927,17.016-18.335
		c30.29-18.512,54.701,16.358,20.782,25.316c28.693,17.458,52.87-17.226,31.422-41.515c-5.455-6.643-13.995-10.116-22.417-10.789
		c-0.133-16.914-0.082-230.155-0.045-258.714c10.565-0.924,18.386-5.637,23.444-11.988c6.351-5.058,11.064-12.879,11.988-23.444
		c28.56-0.037,241.8-0.088,258.714,0.045c0.673,8.422,4.146,16.962,10.789,22.417c24.289,21.448,58.973-2.729,41.515-31.422
		c-8.958,33.919-43.828,9.507-25.316-20.782c4.408-7.194,10.811-13.187,18.335-17.016c44.58,20.875,60.33,73.342,58.761,105.849
		c45.861,1.342,79.318,25.895,94.754,56.865c1.553-0.714,3.116-1.395,4.679-2.086c-11.898-22.321-10.56-62.036,8.594-93.263
		C693.845,205.655,770.702,194.159,814.439,157.794z"/>
	<path d="M814.439,176.796c80.208,83.139,44.54,83.971,81.709,119.617c4.34-5.753,7.374-12.55,8.382-19.703
		c3.053,24.252,19.42,8.83,56.517,47.124c0.537-0.519,1.079-1.039,1.626-1.549c-39.3-39.565-22.512-52.724-46.939-56.68
		c7.126-0.89,13.737-4.128,19.527-8.269c-32.832-35.783-36.258-1.424-120.821-83.023c-84.563,81.6-87.99,47.24-120.821,83.023
		c5.789,4.141,12.401,7.379,19.527,8.269c-24.426,3.956-7.639,17.115-46.939,56.68c0.546,0.51,1.088,1.03,1.626,1.549
		c37.097-38.294,53.464-22.872,56.517-47.124c1.007,7.153,4.042,13.95,8.382,19.703
		C769.899,260.766,734.231,259.935,814.439,176.796z M1452.082,814.439c-83.14,80.208-83.971,44.54-119.617,81.709
		c5.753,4.34,12.55,7.374,19.703,8.382c-24.252,3.053-8.83,19.42-47.124,56.517c0.519,0.537,1.039,1.079,1.549,1.626
		c39.565-39.3,52.724-22.512,56.68-46.939c0.89,7.126,4.128,13.737,8.269,19.527c35.783-32.832,1.424-36.258,83.023-120.821
		c-81.6-84.563-47.24-87.99-83.023-120.821c-4.141,5.789-7.379,12.401-8.269,19.527c-3.956-24.426-17.115-7.639-56.68-46.939
		c-0.51,0.546-1.03,1.088-1.549,1.626c38.294,37.097,22.872,53.464,47.124,56.517c-7.153,1.007-13.95,4.042-19.703,8.382
		C1368.111,769.899,1368.942,734.231,1452.082,814.439z M814.439,1452.082c-80.208-83.14-44.54-83.971-81.709-119.617
		c-4.34,5.753-7.375,12.55-8.382,19.703c-3.053-24.252-19.42-8.83-56.517-47.124c-0.537,0.519-1.079,1.039-1.626,1.549
		c39.3,39.565,22.512,52.724,46.939,56.68c-7.126,0.89-13.737,4.128-19.527,8.269c32.832,35.783,36.258,1.424,120.821,83.023
		c84.563-81.6,87.99-47.24,120.821-83.023c-5.789-4.141-12.401-7.379-19.527-8.269c24.426-3.956,7.639-17.115,46.939-56.68
		c-0.546-0.51-1.088-1.03-1.626-1.549c-37.097,38.294-53.464,22.872-56.517,47.124c-1.007-7.153-4.042-13.95-8.382-19.703
		C858.978,1368.111,894.647,1368.942,814.439,1452.082z M176.796,814.439c83.139-80.208,83.971-44.54,119.617-81.709
		c-5.753-4.34-12.55-7.375-19.703-8.382c24.252-3.053,8.83-19.42,47.124-56.517c-0.519-0.537-1.039-1.079-1.549-1.626
		c-39.565,39.3-52.724,22.512-56.68,46.939c-0.89-7.126-4.128-13.737-8.269-19.527c-35.783,32.832-1.424,36.258-83.023,120.821
		c81.6,84.563,47.24,87.99,83.023,120.821c4.141-5.789,7.379-12.401,8.269-19.527c3.956,24.426,17.115,7.639,56.68,46.939
		c0.51-0.546,1.03-1.088,1.549-1.626c-38.294-37.097-22.872-53.464-47.124-56.517c7.153-1.007,13.95-4.042,19.703-8.382
		C260.766,858.978,259.935,894.647,176.796,814.439z M906.069,259.093c7.158,9.052-0.59,12.479-4.019,10.694
		c-7.404-3.357-11.639-10.93-31.652-38.178C871.735,232.535,900.885,252.991,906.069,259.093z M259.093,722.808
		c9.052-7.158,12.479,0.59,10.694,4.019c-3.357,7.404-10.93,11.639-38.178,31.652C232.535,757.142,252.991,727.993,259.093,722.808z
		 M722.808,1369.784c-7.158-9.052,0.59-12.479,4.019-10.694c7.404,3.357,11.639,10.93,31.652,38.178
		C757.142,1396.343,727.993,1375.887,722.808,1369.784z M1369.784,906.069c-9.052,7.158-12.479-0.59-10.694-4.019
		c3.357-7.404,10.93-11.639,38.178-31.652C1396.343,871.735,1375.887,900.885,1369.784,906.069z M1397.268,758.48
		c-27.248-20.013-34.821-24.248-38.178-31.652c-1.785-3.429,1.642-11.178,10.694-4.019
		C1375.887,727.993,1396.343,757.142,1397.268,758.48z M758.48,231.609c-20.013,27.248-24.248,34.821-31.652,38.178
		c-3.429,1.785-11.178-1.642-4.019-10.694C727.993,252.991,757.142,232.535,758.48,231.609z M231.609,870.398
		c27.248,20.013,34.821,24.248,38.178,31.652c1.785,3.429-1.642,11.178-10.694,4.019
		C252.991,900.885,232.535,871.735,231.609,870.398z M870.398,1397.268c20.013-27.248,24.248-34.821,31.652-38.178
		c3.429-1.785,11.178,1.642,4.019,10.694C900.885,1375.887,871.735,1396.343,870.398,1397.268z"/>
	<path d="M814.439,167.361c2.671,2.729,5.491,5.323,8.144,8.065c61.836,60.02,103.496,57.565,109.06,53.369
		c1.129-2.822,0.303-5.988-0.894-8.648c26.11,5.748,48.646-31.96,37.844-46.388c0.637,5.175-0.51,10.816-4.078,14.758
		c-7.699,8.753-19.001,2.201-27.922,3.938c-2.43,0.366-4.498,2.127-7.036,1.865c1.73-2.768,3.473-5.74,3.423-9.122
		c-13.987-2.095-20.79,1.639-34.29,6.02c-29.552,10.145-61.371-3.768-84.251-24.537c-22.88,20.769-54.699,34.683-84.251,24.537
		c-13.5-4.381-20.303-8.115-34.29-6.02c-0.05,3.382,1.693,6.354,3.423,9.122c-2.538,0.262-4.606-1.499-7.036-1.865
		c-8.921-1.737-20.223,4.815-27.922-3.938c-3.568-3.942-4.715-9.583-4.078-14.758c-10.802,14.428,11.734,52.136,37.844,46.388
		c-1.197,2.66-2.023,5.826-0.894,8.648c5.564,4.196,47.224,6.651,109.06-53.369C808.948,172.683,811.768,170.09,814.439,167.361z
		 M1461.517,814.439c-2.729,2.671-5.323,5.491-8.065,8.144c-60.02,61.836-57.565,103.496-53.37,109.06
		c2.822,1.129,5.988,0.303,8.648-0.894c-5.748,26.11,31.96,48.646,46.388,37.844c-5.175,0.637-10.816-0.51-14.758-4.078
		c-8.753-7.699-2.201-19.001-3.938-27.922c-0.366-2.43-2.127-4.498-1.865-7.036c2.768,1.73,5.74,3.473,9.122,3.423
		c2.095-13.987-1.639-20.79-6.02-34.29c-10.145-29.552,3.768-61.371,24.537-84.251c-20.769-22.88-34.683-54.699-24.537-84.251
		c4.381-13.5,8.115-20.303,6.02-34.29c-3.382-0.05-6.354,1.693-9.122,3.423c-0.262-2.538,1.499-4.606,1.865-7.036
		c1.737-8.921-4.815-20.223,3.938-27.922c3.942-3.568,9.583-4.715,14.758-4.078c-14.428-10.802-52.135,11.734-46.388,37.844
		c-2.66-1.197-5.826-2.023-8.648-0.894c-4.195,5.564-6.651,47.224,53.37,109.06C1456.194,808.948,1458.788,811.768,1461.517,814.439
		z M814.439,1461.517c-2.671-2.729-5.491-5.323-8.144-8.065c-61.836-60.02-103.496-57.565-109.06-53.37
		c-1.129,2.822-0.303,5.988,0.894,8.648c-26.11-5.748-48.646,31.96-37.844,46.388c-0.637-5.175,0.51-10.816,4.078-14.758
		c7.699-8.753,19.001-2.201,27.922-3.938c2.43-0.366,4.498-2.127,7.036-1.865c-1.73,2.768-3.473,5.74-3.423,9.122
		c13.987,2.095,20.79-1.639,34.29-6.02c29.552-10.145,61.371,3.768,84.251,24.537c22.88-20.769,54.699-34.683,84.251-24.537
		c13.499,4.381,20.303,8.115,34.29,6.02c0.05-3.382-1.693-6.354-3.423-9.122c2.538-0.262,4.606,1.499,7.036,1.865
		c8.921,1.737,20.223-4.815,27.922,3.938c3.568,3.942,4.715,9.583,4.078,14.758c10.802-14.428-11.734-52.135-37.844-46.388
		c1.197-2.66,2.023-5.826,0.894-8.648c-5.564-4.195-47.224-6.651-109.06,53.37C819.93,1456.194,817.11,1458.788,814.439,1461.517z
		 M167.361,814.439c2.729-2.671,5.323-5.491,8.065-8.144c60.02-61.836,57.565-103.496,53.369-109.06
		c-2.822-1.129-5.988-0.303-8.648,0.894c5.748-26.11-31.96-48.646-46.388-37.844c5.175-0.637,10.816,0.51,14.758,4.078
		c8.753,7.699,2.201,19.001,3.938,27.922c0.366,2.43,2.127,4.498,1.865,7.036c-2.768-1.73-5.74-3.473-9.122-3.423
		c-2.095,13.987,1.639,20.79,6.02,34.29c10.145,29.552-3.768,61.371-24.537,84.251c20.769,22.88,34.683,54.699,24.537,84.251
		c-4.381,13.499-8.115,20.303-6.02,34.29c3.382,0.05,6.354-1.693,9.122-3.423c0.262,2.538-1.499,4.606-1.865,7.036
		c-1.737,8.921,4.815,20.223-3.938,27.922c-3.942,3.568-9.583,4.715-14.758,4.078c14.428,10.802,52.136-11.734,46.388-37.844
		c2.66,1.197,5.826,2.023,8.648,0.894c4.196-5.564,6.651-47.224-53.369-109.06C172.683,819.93,170.09,817.11,167.361,814.439z
		 M871.897,205.909c6.666,0.691,13.367,1.278,20.073,0.971c13.329-0.637,16.175-3.566,21.794-1.549
		C922.805,208.561,911.421,225.71,871.897,205.909z M205.909,756.981c0.691-6.666,1.278-13.367,0.971-20.073
		c-0.637-13.329-3.566-16.175-1.549-21.794C208.561,706.073,225.71,717.457,205.909,756.981z M756.981,1422.969
		c-6.666-0.691-13.367-1.278-20.073-0.971c-13.329,0.637-16.175,3.566-21.794,1.549
		C706.073,1420.317,717.457,1403.168,756.981,1422.969z M1422.969,871.897c-0.691,6.666-1.278,13.367-0.971,20.073
		c0.637,13.329,3.566,16.175,1.549,21.794C1420.317,922.805,1403.168,911.421,1422.969,871.897z M1423.547,715.113
		c2.017,5.619-0.912,8.465-1.549,21.794c-0.307,6.706,0.28,13.408,0.971,20.073C1403.168,717.457,1420.317,706.073,1423.547,715.113
		z M715.113,205.331c5.619-2.017,8.465,0.912,21.794,1.549c6.706,0.307,13.408-0.28,20.073-0.971
		C717.457,225.71,706.073,208.561,715.113,205.331z M205.331,913.764c-2.017-5.619,0.912-8.465,1.549-21.794
		c0.307-6.706-0.28-13.408-0.971-20.073C225.71,911.421,208.561,922.805,205.331,913.764z M913.764,1423.547
		c-5.619,2.017-8.465-0.912-21.794-1.549c-6.706-0.307-13.408,0.28-20.073,0.971
		C911.421,1403.168,922.805,1420.317,913.764,1423.547z"/>
	<path d="M843.505,270.469c0-4.726,4.441-13.334,1.165-37.627c3.78,7.366,6.521,15.277,8.07,23.411
		C857.467,282.539,843.262,281.275,843.505,270.469z M270.469,785.372c-4.726,0-13.334-4.441-37.627-1.165
		c7.366-3.78,15.277-6.521,23.411-8.07C282.539,771.411,281.275,785.615,270.469,785.372z M785.372,1358.409
		c0,4.727-4.441,13.334-1.165,37.627c-3.78-7.366-6.521-15.277-8.07-23.411C771.411,1346.339,785.615,1347.603,785.372,1358.409z
		 M1358.409,843.505c4.727,0,13.334,4.441,37.627,1.165c-7.366,3.78-15.277,6.521-23.411,8.07
		C1346.339,857.467,1347.603,843.262,1358.409,843.505z M1372.625,776.137c8.133,1.549,16.045,4.29,23.411,8.07
		c-24.293-3.276-32.9,1.165-37.627,1.165C1347.603,785.615,1346.339,771.411,1372.625,776.137z M776.137,256.253
		c1.549-8.133,4.29-16.045,8.07-23.411c-3.276,24.293,1.165,32.9,1.165,37.627C785.615,281.275,771.411,282.539,776.137,256.253z
		 M256.253,852.74c-8.133-1.549-16.045-4.29-23.411-8.07c24.293,3.276,32.9-1.165,37.627-1.165
		C281.275,843.262,282.539,857.467,256.253,852.74z M852.74,1372.625c-1.549,8.133-4.29,16.045-8.07,23.411
		c3.276-24.293-1.165-32.9-1.165-37.627C843.262,1347.603,857.467,1346.339,852.74,1372.625z M814.439,186.703
		c10.168,14.234,22.088,36.733,18.517,61.118c-1.951,15.75-12.258,28.808-8.788,46.261c3.333,0.054,6.282-1.693,9.009-3.414
		c0.284,2.493-1.423,4.516-1.811,6.882c-1.689,8.047,8.288,32.533-16.927,32.348c-25.216,0.185-15.238-24.301-16.927-32.348
		c-0.388-2.366-2.095-4.39-1.811-6.882c2.728,1.721,5.677,3.468,9.009,3.414c3.47-17.453-6.837-30.512-8.788-46.261
		C792.351,223.436,804.271,200.937,814.439,186.703z M186.703,814.439c14.234-10.168,36.733-22.088,61.118-18.517
		c15.75,1.951,28.808,12.258,46.261,8.788c0.054-3.333-1.693-6.282-3.414-9.009c2.493-0.284,4.516,1.423,6.882,1.811
		c8.047,1.689,32.533-8.288,32.348,16.927c0.185,25.216-24.301,15.238-32.348,16.927c-2.366,0.388-4.39,2.095-6.882,1.811
		c1.721-2.728,3.468-5.677,3.414-9.009c-17.453-3.47-30.512,6.837-46.261,8.788C223.436,836.527,200.937,824.607,186.703,814.439z
		 M814.439,1442.174c-10.168-14.234-22.088-36.733-18.517-61.118c1.951-15.75,12.258-28.808,8.788-46.261
		c-3.333-0.054-6.282,1.693-9.009,3.414c-0.284-2.493,1.423-4.516,1.811-6.882c1.689-8.047-8.288-32.533,16.927-32.348
		c25.216-0.185,15.238,24.301,16.927,32.348c0.388,2.366,2.095,4.39,1.811,6.882c-2.728-1.721-5.677-3.468-9.009-3.414
		c-3.47,17.453,6.837,30.512,8.788,46.261C836.527,1405.441,824.607,1427.94,814.439,1442.174z M1442.174,814.439
		c-14.234,10.168-36.733,22.088-61.118,18.517c-15.75-1.951-28.808-12.258-46.261-8.788c-0.054,3.333,1.693,6.282,3.414,9.009
		c-2.493,0.284-4.516-1.423-6.882-1.811c-8.047-1.689-32.533,8.288-32.348-16.927c-0.185-25.216,24.301-15.238,32.348-16.927
		c2.366-0.388,4.39-2.095,6.882-1.811c-1.721,2.728-3.468,5.677-3.414,9.009c17.453,3.47,30.512-6.837,46.261-8.788
		C1405.441,792.351,1427.94,804.271,1442.174,814.439z M814.439,330.867c16.128,7.897,50.178-14.474,44.592-38.961
		c21.764,9.344,14.821-46.094-44.592-108.014c-59.413,61.92-66.356,117.358-44.592,108.014
		C764.261,316.393,798.31,338.764,814.439,330.867z M330.867,814.439c7.897-16.128-14.474-50.178-38.961-44.592
		c9.344-21.763-46.094-14.821-108.014,44.592c61.92,59.413,117.358,66.356,108.014,44.592
		C316.393,864.617,338.764,830.567,330.867,814.439z M814.439,1298.01c-16.128-7.897-50.178,14.474-44.592,38.961
		c-21.763-9.344-14.821,46.094,44.592,108.014c59.413-61.92,66.356-117.358,44.592-108.014
		C864.617,1312.484,830.567,1290.113,814.439,1298.01z M1298.01,814.439c-7.897,16.128,14.474,50.178,38.961,44.592
		c-9.344,21.764,46.094,14.821,108.014-44.592c-61.92-59.413-117.358-66.356-108.014-44.592
		C1312.484,764.261,1290.113,798.31,1298.01,814.439z"/>
</g>
</svg>
