<?xml version="1.0" encoding="utf-8"?>

<!DOCTYPE svg PUBLIC "-//W3C//DTD SVG 1.1//EN" "http://www.w3.org/Graphics/SVG/1.1/DTD/svg11.dtd">
<svg version="1.1" id="Layer_1" xmlns="http://www.w3.org/2000/svg" xmlns:xlink="http://www.w3.org/1999/xlink" x="0px" y="0px"
	 viewBox="0 0 1628.872 1628.872" enable-background="new 0 0 1628.872 1628.872" xml:space="preserve">
<g>
	<path d="M1614.434,942.974c0.037-149.502-0.377-568.383-0.381-569.323c-0.215-20.071,3.007-73.307-20.162-120.015
		c-21.223-38.713-50.863-63.413-95.659-73.872c-17.397-3.682-34.324-2.805-49.438,0.313c3.118-15.114,3.996-32.041,0.313-49.438
		c-10.459-44.796-35.159-74.436-73.872-95.659c-46.708-23.169-99.943-19.947-120.015-20.162
		c-0.991-0.004-209.935-0.464-331.523-0.371c-124.367-0.093-549.056,0.367-550.046,0.371c-20.071,0.215-73.307-3.007-120.015,20.162
		c-38.713,21.223-63.413,50.863-73.872,95.659c-3.682,17.397-2.805,34.324,0.313,49.438c-15.114-3.118-32.041-3.996-49.438-0.313
		c-44.796,10.459-74.436,35.159-95.659,73.872c-23.169,46.708-19.947,99.943-20.162,120.015
		c-0.003,0.94-0.418,419.821-0.381,569.323c-0.037,123.115,0.377,311.306,0.381,312.246c0.215,20.072-3.007,73.307,20.162,120.015
		c21.223,38.714,50.863,63.413,95.659,73.872c17.397,3.682,34.324,2.805,49.438-0.313c-3.118,15.114-3.996,32.041-0.313,49.438
		c10.459,44.797,35.159,74.436,73.872,95.659c46.708,23.169,99.943,19.947,120.015,20.162c0.956,0.004,421.608,0.432,563.11,0.379
		c122.884,0.053,317.503-0.375,318.459-0.379c20.072-0.215,73.307,3.007,120.015-20.162c38.713-21.223,63.413-50.863,73.872-95.659
		c3.683-17.397,2.805-34.324-0.313-49.438c15.114,3.118,32.041,3.996,49.438,0.313c44.796-10.459,74.436-35.159,95.659-73.872
		c23.169-46.708,19.947-99.943,20.162-120.015C1614.056,1254.281,1614.471,1066.089,1614.434,942.974z M1563.539,1384.647
		c-6.502,9.248-15.149,16.692-23.7,23.959c-20.353,17.047-50.243,26.116-84.868,22.265c-11.365-1.83-22.211-5.996-32.661-10.736
		c-1.638-0.74-3.198-1.608-4.718-2.542c0.935,1.52,1.803,3.08,2.542,4.718c4.74,10.45,8.906,21.296,10.737,32.66
		c3.85,34.625-5.219,64.515-22.266,84.868c-7.267,8.551-14.712,17.198-23.959,23.7c-24.383,17.621-54.502,25.926-84.267,27.565
		c-17.979,0.276-220.708,1.072-363.605,1.105c-159.283-0.034-590.314-0.829-608.282-1.105c-29.765-1.639-59.885-9.944-84.267-27.565
		c-9.248-6.502-16.692-15.149-23.959-23.7c-17.047-20.353-26.116-50.243-22.265-84.868c1.83-11.365,5.997-22.211,10.737-32.66
		c0.74-1.638,1.608-3.198,2.542-4.718c-1.52,0.935-3.08,1.803-4.718,2.542c-10.45,4.74-21.296,8.906-32.661,10.736
		c-34.625,3.851-64.515-5.218-84.868-22.265c-8.551-7.267-17.198-14.712-23.7-23.959c-17.621-24.383-25.926-54.503-27.565-84.267
		c-0.272-17.71-1.048-214.701-1.103-357.172c0.056-165.85,0.831-597.009,1.103-614.715c1.639-29.765,9.944-59.885,27.565-84.267
		c6.502-9.248,15.149-16.692,23.7-23.959c20.353-17.047,50.243-26.116,84.868-22.265c11.365,1.83,22.211,5.997,32.661,10.737
		c1.638,0.74,3.198,1.608,4.718,2.542c-0.935-1.52-1.803-3.08-2.542-4.718c-4.74-10.45-8.906-21.296-10.737-32.661
		c-3.851-34.625,5.219-64.515,22.265-84.868c7.267-8.551,14.712-17.198,23.959-23.7c24.383-17.621,54.503-25.926,84.267-27.565
		c18.436-0.283,444.993-1.112,592.85-1.106v0c0.977,0,1.972,0,2.956,0c0.596,0,1.201,0,1.788,0v0
		c143.248-0.006,355.861,0.823,374.294,1.106c29.765,1.639,59.885,9.944,84.267,27.565c9.248,6.502,16.692,15.149,23.959,23.7
		c17.047,20.353,26.116,50.243,22.266,84.868c-1.83,11.365-5.997,22.211-10.737,32.661c-0.739,1.638-1.607,3.198-2.542,4.718
		c1.52-0.935,3.08-1.803,4.718-2.542c10.45-4.74,21.296-8.906,32.661-10.737c34.625-3.851,64.515,5.219,84.868,22.265
		c8.551,7.267,17.198,14.712,23.7,23.959c17.621,24.383,25.926,54.503,27.565,84.267c0.272,17.706,1.047,448.865,1.103,614.715
		c-0.055,142.471-0.831,339.462-1.103,357.172C1589.465,1330.144,1581.16,1360.264,1563.539,1384.647z"/>
	<path d="M1452.868,509.402c-9.138-9.944-17.307-20.776-26.937-30.256c-1.639,2.063-5.273,4.358-3.606,7.376
		c0,0,59.679,80.845,73.025,103.35c11.625,18.058,21.514,37.346,28.139,57.794c8.435,37.896-10.569,47.797-17.771,52.822
		c8.756,7.868,21.992,5.478,31.527,0.369c10.067-4.385,15.955-14.52,19.534-24.424c3.838-14.22-0.273-29.218-5.915-42.386
		C1539.957,612.457,1532.957,601.855,1452.868,509.402z"/>
	<path d="M676.434,72.095c-14.22-3.838-29.218,0.273-42.386,5.915c-21.591,10.906-32.192,17.906-124.645,97.995
		c-9.944,9.138-20.776,17.307-30.256,26.937c2.063,1.639,4.358,5.273,7.376,3.606c0,0,80.845-59.679,103.35-73.025
		c18.058-11.624,37.346-21.514,57.795-28.139c37.896-8.435,47.797,10.569,52.822,17.771c7.868-8.756,5.478-21.992,0.369-31.527
		C696.473,81.561,686.337,75.673,676.434,72.095z"/>
	<path d="M176.005,1119.47c9.138,9.944,17.307,20.776,26.937,30.256c1.639-2.063,5.273-4.358,3.606-7.376
		c0,0-59.679-80.844-73.025-103.35c-11.624-18.058-21.514-37.346-28.139-57.794c-8.435-37.896,10.569-47.797,17.771-52.822
		c-8.756-7.868-21.992-5.478-31.527-0.369c-10.067,4.385-15.955,14.52-19.533,24.424c-3.838,14.22,0.273,29.218,5.915,42.386
		C88.915,1016.415,95.915,1027.016,176.005,1119.47z"/>
	<path d="M1149.726,1425.93c-2.063-1.639-4.357-5.272-7.376-3.606c0,0-80.845,59.679-103.35,73.025
		c-18.058,11.624-37.346,21.514-57.794,28.139c-37.896,8.434-47.797-10.569-52.822-17.771c-7.868,8.756-5.478,21.992-0.369,31.527
		c4.385,10.067,14.521,15.955,24.424,19.533c14.22,3.839,29.218-0.273,42.386-5.915c21.591-10.906,32.192-17.906,124.645-97.995
		C1129.414,1443.729,1140.246,1435.561,1149.726,1425.93z"/>
	<path d="M1537.244,928.014c-9.534-5.109-22.771-7.499-31.527,0.369c7.203,5.025,26.206,14.927,17.771,52.822
		c-6.625,20.449-16.515,39.736-28.139,57.794c-13.346,22.505-73.025,103.35-73.025,103.35c-1.666,3.019,1.967,5.314,3.606,7.376
		c9.63-9.48,17.799-20.312,26.937-30.256c80.089-92.453,87.089-103.055,97.995-124.645c5.641-13.168,9.753-28.166,5.915-42.386
		C1553.199,942.535,1547.311,932.399,1537.244,928.014z"/>
	<path d="M981.206,105.383c20.449,6.625,39.736,16.515,57.794,28.139c22.505,13.346,103.35,73.025,103.35,73.025
		c3.019,1.666,5.313-1.967,7.376-3.606c-9.48-9.63-20.312-17.799-30.256-26.937c-92.453-80.089-103.055-87.089-124.645-97.995
		c-13.168-5.641-28.167-9.753-42.386-5.915c-9.903,3.579-20.039,9.466-24.424,19.533c-5.109,9.534-7.499,22.771,0.369,31.527
		C933.408,115.952,943.31,96.949,981.206,105.383z"/>
	<path d="M91.628,700.858c9.534,5.109,22.771,7.499,31.527-0.369c-7.203-5.025-26.206-14.927-17.771-52.822
		c6.625-20.449,16.515-39.736,28.139-57.794c13.346-22.505,73.025-103.35,73.025-103.35c1.666-3.019-1.967-5.314-3.606-7.376
		c-9.63,9.48-17.799,20.312-26.937,30.256c-80.089,92.453-87.089,103.055-97.995,124.645c-5.641,13.168-9.753,28.166-5.915,42.386
		C75.673,686.337,81.561,696.473,91.628,700.858z"/>
	<path d="M647.667,1523.489c-20.449-6.625-39.736-16.515-57.795-28.139c-22.505-13.346-103.35-73.025-103.35-73.025
		c-3.019-1.666-5.314,1.967-7.376,3.606c9.48,9.63,20.312,17.799,30.256,26.937c92.453,80.089,103.055,87.089,124.645,97.995
		c13.168,5.642,28.166,9.753,42.386,5.915c9.903-3.579,20.039-9.466,24.424-19.533c5.109-9.535,7.499-22.771-0.369-31.527
		C695.464,1512.92,685.562,1531.923,647.667,1523.489z"/>
	<path d="M1445.628,490.661c95.153,87.246,92.037,85.883,94.157,111.423c20.128-4.79,23.873-32.926,8.046-48.315
		c-17.123-16.344-59.009-42.818-97.545-71.796c-6.324-4.412-11.898-9.931-18.809-13.496c-1.257,2.267-3.975,5.314-1.544,7.745
		C1434.55,481.659,1440.437,485.812,1445.628,490.661z"/>
	<path d="M468.478,197.396c2.267,1.257,5.314,3.975,7.745,1.544c5.437-4.617,9.589-10.504,14.438-15.695
		c87.246-95.153,85.883-92.038,111.423-94.157c-4.79-20.128-32.926-23.873-48.315-8.046c-16.344,17.123-42.818,59.008-71.796,97.544
		C477.561,184.911,472.043,190.484,468.478,197.396z"/>
	<path d="M178.586,1146.899c6.324,4.412,11.898,9.931,18.809,13.496c1.257-2.267,3.975-5.313,1.544-7.745
		c-4.617-5.437-10.504-9.589-15.695-14.438c-95.153-87.245-92.038-85.883-94.157-111.423c-20.128,4.79-23.873,32.926-8.046,48.315
		C98.165,1091.447,140.05,1117.921,178.586,1146.899z"/>
	<path d="M1160.395,1431.476c-2.267-1.257-5.314-3.975-7.745-1.544c-5.437,4.617-9.589,10.505-14.438,15.695
		c-87.246,95.153-85.883,92.038-111.423,94.157c4.79,20.128,32.926,23.873,48.315,8.046c16.344-17.123,42.818-59.008,71.795-97.544
		C1151.311,1443.961,1156.829,1438.388,1160.395,1431.476z"/>
	<path d="M1539.785,1026.788c-2.119,25.54,0.996,24.177-94.157,111.423c-5.191,4.849-11.078,9.002-15.695,14.438
		c-2.432,2.432,0.287,5.478,1.544,7.745c6.912-3.565,12.485-9.084,18.809-13.496c38.536-28.978,80.421-55.452,97.545-71.796
		C1563.658,1059.714,1559.912,1031.579,1539.785,1026.788z"/>
	<path d="M1138.211,183.244c4.849,5.191,9.002,11.078,14.438,15.695c2.431,2.431,5.478-0.287,7.745-1.544
		c-3.565-6.912-9.084-12.485-13.496-18.81c-28.977-38.536-55.452-80.421-71.795-97.544c-15.389-15.828-43.524-12.082-48.315,8.046
		C1052.328,91.207,1050.965,88.091,1138.211,183.244z"/>
	<path d="M89.087,602.084c2.119-25.54-0.996-24.177,94.157-111.423c5.191-4.849,11.078-9.002,15.695-14.438
		c2.431-2.431-0.287-5.478-1.544-7.745c-6.912,3.565-12.485,9.084-18.809,13.496c-38.536,28.977-80.421,55.452-97.544,71.796
		C65.214,569.158,68.96,597.293,89.087,602.084z"/>
	<path d="M490.661,1445.628c-4.849-5.191-9.002-11.078-14.438-15.695c-2.431-2.431-5.478,0.287-7.745,1.544
		c3.565,6.912,9.084,12.485,13.496,18.81c28.977,38.536,55.452,80.421,71.796,97.544c15.389,15.828,43.524,12.082,48.315-8.046
		C576.544,1537.665,577.907,1540.781,490.661,1445.628z"/>
	<path d="M1435.643,463.71c6.229,5.86,13.838,9.903,20.722,14.903c34.358,24.988,38.674,25.091,57.781,36.526
		c9.548,4.849,19.096,11.884,30.379,10.846c10.409-1.12,15.367-15.313,9.207-23.304c-8.139-9.457-25.31-8.454-49.011-16.446
		c-27.793-7.467-57.161-26.943-67.739-30.953C1435.52,457.673,1432.487,461.429,1435.643,463.71z"/>
	<path d="M463.71,193.229c5.86-6.229,9.903-13.837,14.903-20.722c24.988-34.358,25.091-38.674,36.526-57.781
		c4.849-9.548,11.884-19.096,10.846-30.379c-1.12-10.409-15.313-15.367-23.304-9.207c-9.457,8.139-8.454,25.31-16.446,49.011
		c-7.467,27.793-26.943,57.161-30.953,67.739C457.673,193.352,461.429,196.385,463.71,193.229z"/>
	<path d="M193.229,1165.161c-6.229-5.86-13.837-9.903-20.722-14.903c-34.359-24.988-38.674-25.091-57.781-36.526
		c-9.548-4.849-19.096-11.884-30.379-10.846c-10.409,1.12-15.367,15.313-9.207,23.304c8.139,9.457,25.31,8.453,49.011,16.446
		c27.793,7.467,57.161,26.943,67.739,30.953C193.352,1171.199,196.385,1167.443,193.229,1165.161z"/>
	<path d="M1165.162,1435.643c-5.86,6.229-9.903,13.837-14.903,20.722c-24.988,34.359-25.091,38.674-36.526,57.781
		c-4.849,9.548-11.884,19.096-10.846,30.379c1.12,10.409,15.313,15.367,23.304,9.207c9.457-8.139,8.454-25.31,16.446-49.011
		c7.467-27.793,26.943-57.161,30.953-67.739C1171.199,1435.52,1167.443,1432.487,1165.162,1435.643z"/>
	<path d="M1504.72,1142.637c23.701-7.993,40.872-6.989,49.011-16.446c6.161-7.991,1.202-22.184-9.207-23.304
		c-11.283-1.038-20.831,5.997-30.379,10.846c-19.107,11.435-23.422,11.538-57.781,36.526c-6.885,4.999-14.493,9.043-20.722,14.903
		c-3.155,2.281-0.123,6.038,1.339,8.428C1447.559,1169.58,1476.927,1150.104,1504.72,1142.637z"/>
	<path d="M1150.259,172.507c4.999,6.885,9.043,14.493,14.903,20.722c2.281,3.155,6.037,0.123,8.428-1.339
		c-4.01-10.577-23.486-39.946-30.953-67.739c-7.993-23.701-6.989-40.872-16.446-49.011c-7.991-6.161-22.183-1.202-23.304,9.207
		c-1.038,11.283,5.997,20.831,10.846,30.379C1125.168,133.834,1125.271,138.149,1150.259,172.507z"/>
	<path d="M124.152,486.235c-23.701,7.993-40.872,6.989-49.011,16.446c-6.161,7.991-1.202,22.183,9.207,23.304
		c11.283,1.038,20.831-5.997,30.379-10.846c19.107-11.435,23.422-11.538,57.781-36.526c6.884-4.999,14.493-9.043,20.722-14.903
		c3.155-2.281,0.123-6.038-1.339-8.428C181.313,459.292,151.945,478.768,124.152,486.235z"/>
	<path d="M478.613,1456.364c-4.999-6.885-9.043-14.493-14.903-20.722c-2.281-3.155-6.038-0.123-8.428,1.339
		c4.01,10.577,23.486,39.946,30.953,67.739c7.993,23.701,6.989,40.872,16.446,49.011c7.991,6.161,22.183,1.202,23.304-9.207
		c1.038-11.283-5.997-20.831-10.846-30.379C503.704,1495.038,503.601,1490.723,478.613,1456.364z"/>
	<path d="M1429.154,429.561c-4.644,16.405-9.357,33.548-20.585,46.826c-3.415,3.347,0.56,7.103,2.718,9.753
		c7.279-6.033,20.694-28.73,25.667-54.83C1434.714,429.534,1431.941,429.028,1429.154,429.561z"/>
	<path d="M431.309,191.918c-1.776,2.24-2.281,5.013-1.748,7.8c16.405,4.644,33.548,9.357,46.826,20.585
		c3.347,3.415,7.103-0.56,9.753-2.718C480.107,210.305,457.41,196.89,431.309,191.918z"/>
	<path d="M199.718,1199.311c4.644-16.405,9.357-33.548,20.585-46.825c3.415-3.347-0.56-7.103-2.718-9.753
		c-7.279,6.033-20.694,28.73-25.667,54.83C194.158,1199.338,196.931,1199.844,199.718,1199.311z"/>
	<path d="M1197.563,1436.954c1.776-2.24,2.281-5.013,1.749-7.8c-16.405-4.645-33.548-9.357-46.826-20.585
		c-3.347-3.415-7.103,0.56-9.753,2.718C1148.765,1418.567,1171.463,1431.982,1197.563,1436.954z"/>
	<path d="M1411.287,1142.732c-2.158,2.65-6.133,6.406-2.718,9.753c11.228,13.277,15.941,30.42,20.585,46.825
		c2.787,0.533,5.56,0.027,7.8-1.748C1431.982,1171.463,1418.567,1148.765,1411.287,1142.732z"/>
	<path d="M1152.485,220.303c13.277-11.228,30.42-15.941,46.826-20.585c0.533-2.787,0.027-5.56-1.749-7.8
		c-26.1,4.972-48.797,18.387-54.83,25.667C1145.382,219.743,1149.139,223.718,1152.485,220.303z"/>
	<path d="M217.585,486.14c2.158-2.65,6.133-6.406,2.718-9.753c-11.228-13.277-15.941-30.42-20.585-46.826
		c-2.787-0.533-5.56-0.027-7.8,1.748C196.891,457.409,210.305,480.107,217.585,486.14z"/>
	<path d="M486.14,1411.287c-2.65-2.158-6.406-6.133-9.753-2.718c-13.277,11.228-30.42,15.941-46.826,20.585
		c-0.533,2.786-0.027,5.559,1.748,7.8C457.41,1431.982,480.107,1418.567,486.14,1411.287z"/>
	<path d="M1533.324,457.618c-33.21,7.809-75.526-7.994-92.477-13.427c-1.257,1.598-2.049,3.429-2.295,5.409
		c17.307,10.067,35.788,18.099,54.557,25.025c13.51,4.699,27.729,8.838,42.195,7.171c18.274-2.47,28.484-24.1,15.053-36.676
		C1544.989,449.668,1540.673,456.184,1533.324,457.618z"/>
	<path d="M444.191,188.025c1.598,1.257,3.429,2.049,5.409,2.295c10.067-17.307,18.099-35.789,25.025-54.557
		c4.699-13.51,8.838-27.729,7.171-42.195c-2.47-18.274-24.1-28.484-36.676-15.053c4.549,5.368,11.064,9.685,12.499,17.034
		C465.427,128.759,449.624,171.074,444.191,188.025z"/>
	<path d="M95.548,1171.254c33.21-7.809,75.526,7.993,92.477,13.427c1.257-1.598,2.049-3.429,2.295-5.409
		c-17.307-10.067-35.789-18.099-54.557-25.025c-13.51-4.699-27.729-8.838-42.195-7.171c-18.274,2.47-28.484,24.1-15.053,36.677
		C83.883,1179.204,88.199,1172.688,95.548,1171.254z"/>
	<path d="M1184.682,1440.847c-1.598-1.257-3.429-2.049-5.409-2.295c-10.067,17.307-18.099,35.789-25.025,54.557
		c-4.699,13.51-8.838,27.729-7.171,42.195c2.47,18.274,24.099,28.484,36.676,15.053c-4.549-5.368-11.064-9.685-12.499-17.034
		C1163.445,1500.113,1179.248,1457.798,1184.682,1440.847z"/>
	<path d="M1535.304,1147.076c-14.466-1.667-28.686,2.472-42.195,7.171c-18.769,6.926-37.25,14.958-54.557,25.025
		c0.246,1.981,1.038,3.811,2.295,5.409c16.951-5.434,59.267-21.236,92.477-13.427c7.349,1.434,11.665,7.95,17.034,12.499
		C1563.788,1171.176,1553.579,1149.546,1535.304,1147.076z"/>
	<path d="M1179.272,190.32c1.981-0.246,3.811-1.038,5.409-2.295c-5.434-16.951-21.236-59.267-13.428-92.477
		c1.434-7.349,7.95-11.665,12.499-17.034c-12.577-13.431-34.207-3.221-36.676,15.053c-1.666,14.466,2.473,28.686,7.171,42.195
		C1161.173,154.531,1169.205,173.013,1179.272,190.32z"/>
	<path d="M93.568,481.796c14.466,1.666,28.686-2.473,42.195-7.171c18.769-6.926,37.25-14.958,54.557-25.025
		c-0.246-1.981-1.038-3.811-2.295-5.409c-16.951,5.434-59.267,21.236-92.477,13.427c-7.349-1.434-11.665-7.95-17.034-12.499
		C65.084,457.696,75.293,479.326,93.568,481.796z"/>
	<path d="M449.6,1438.552c-1.981,0.246-3.811,1.038-5.409,2.295c5.434,16.951,21.236,59.266,13.427,92.477
		c-1.434,7.349-7.95,11.665-12.499,17.034c12.577,13.431,34.207,3.221,36.676-15.053c1.666-14.466-2.473-28.685-7.171-42.195
		C467.699,1474.341,459.667,1455.859,449.6,1438.552z"/>
	<path d="M1424.045,426.556c-23.74-5.518-45.378-19.055-61.196-37.537c-3.715-4.207-5.887-9.726-10.518-13.1
		c1.741,19.51,33.08,59.829,44.941,75.689c4.112,6.024,5.915,13.168,8.565,19.861c5.491-3.756,4.453-11.023,5.272-16.788
		c2.473-1.707,6.775-2.363,7.076-5.956c-0.041-3.51-1.475-6.83-2.472-10.176C1419.51,435.558,1424.769,432.115,1424.045,426.556z"/>
	<path d="M471.469,223.035c-3.756-5.491-11.023-4.453-16.788-5.273c-1.707-2.472-2.363-6.775-5.956-7.076
		c-3.51,0.041-6.83,1.475-10.176,2.472c-2.991-3.797-6.434-9.056-11.993-8.332c-5.518,23.741-19.055,45.378-37.537,61.196
		c-4.207,3.716-9.726,5.887-13.1,10.518c19.51-1.741,59.829-33.08,75.689-44.941C457.632,227.488,464.776,225.685,471.469,223.035z"
		/>
	<path d="M266.022,1239.853c3.716,4.207,5.887,9.726,10.518,13.099c-1.741-19.51-33.08-59.829-44.941-75.689
		c-4.112-6.024-5.915-13.168-8.565-19.861c-5.491,3.756-4.453,11.024-5.273,16.788c-2.472,1.707-6.775,2.363-7.076,5.956
		c0.041,3.51,1.475,6.83,2.472,10.176c-3.797,2.991-9.056,6.434-8.333,11.993C228.567,1207.835,250.204,1221.372,266.022,1239.853z"
		/>
	<path d="M1202.316,1424.046c5.519-23.741,19.055-45.378,37.537-61.196c4.207-3.715,9.726-5.887,13.1-10.518
		c-19.51,1.741-59.829,33.08-75.689,44.941c-6.024,4.112-13.168,5.915-19.861,8.565c3.756,5.491,11.023,4.453,16.788,5.273
		c1.708,2.472,2.363,6.775,5.956,7.076c3.511-0.041,6.83-1.475,10.176-2.473C1193.314,1419.51,1196.757,1424.769,1202.316,1424.046z
		"/>
	<path d="M1362.85,1239.853c15.818-18.482,37.455-32.019,61.196-37.537c0.724-5.56-4.535-9.002-8.332-11.993
		c0.997-3.347,2.431-6.666,2.472-10.176c-0.301-3.593-4.603-4.248-7.076-5.956c-0.82-5.764,0.219-13.031-5.272-16.788
		c-2.65,6.693-4.453,13.838-8.565,19.861c-11.861,15.86-43.2,56.179-44.941,75.689
		C1356.962,1249.579,1359.134,1244.06,1362.85,1239.853z"/>
	<path d="M1239.853,266.022c-18.482-15.818-32.018-37.455-37.537-61.196c-5.56-0.724-9.002,4.535-11.993,8.332
		c-3.347-0.997-6.666-2.431-10.176-2.472c-3.592,0.301-4.248,4.603-5.956,7.076c-5.764,0.82-13.031-0.219-16.788,5.273
		c6.693,2.65,13.837,4.453,19.861,8.565c15.86,11.86,56.179,43.2,75.689,44.941C1249.579,271.91,1244.061,269.738,1239.853,266.022z
		"/>
	<path d="M266.022,389.019c-15.818,18.482-37.455,32.019-61.196,37.537c-0.724,5.56,4.535,9.002,8.333,11.993
		c-0.997,3.347-2.431,6.666-2.472,10.176c0.3,3.593,4.603,4.248,7.076,5.956c0.82,5.764-0.219,13.031,5.273,16.788
		c2.65-6.693,4.453-13.837,8.565-19.861c11.86-15.86,43.199-56.179,44.941-75.689C271.91,379.293,269.738,384.812,266.022,389.019z"
		/>
	<path d="M389.019,1362.85c18.482,15.818,32.019,37.455,37.537,61.196c5.56,0.724,9.002-4.535,11.993-8.333
		c3.347,0.997,6.666,2.432,10.176,2.473c3.593-0.301,4.248-4.604,5.956-7.076c5.764-0.82,13.031,0.219,16.788-5.273
		c-6.693-2.65-13.837-4.453-19.861-8.565c-15.86-11.86-56.179-43.199-75.689-44.941
		C379.293,1356.962,384.812,1359.134,389.019,1362.85z"/>
	<path d="M1535.714,405.602c-9.562,13.988-26.35,20.285-41.99,24.779c-16.76,3.852-34.163,3.306-51.21,2.131
		c-1.134,2.186-2.09,4.467-2.882,6.775c15.728,7.144,89.601,18.128,110.043-13.114c4.125-5.915,5.464-13.578,4.193-20.64
		c-1.708-6.871-7.417-13.523-14.903-13.824C1538.432,396.436,1538.828,401.668,1535.714,405.602z"/>
	<path d="M430.381,135.148c3.852,16.761,3.306,34.163,2.131,51.21c2.186,1.134,4.467,2.09,6.775,2.882
		c7.144-15.728,18.128-89.601-13.114-110.043c-5.915-4.125-13.578-5.464-20.64-4.193c-6.871,1.707-13.523,7.417-13.824,14.903
		c4.726,0.533,9.958,0.137,13.892,3.251C419.589,102.72,425.886,119.508,430.381,135.148z"/>
	<path d="M93.158,1223.27c9.562-13.988,26.35-20.285,41.99-24.779c16.761-3.852,34.163-3.306,51.21-2.131
		c1.134-2.186,2.09-4.467,2.882-6.775c-15.728-7.144-89.601-18.128-110.043,13.114c-4.125,5.914-5.464,13.578-4.194,20.64
		c1.707,6.871,7.417,13.523,14.903,13.824C90.44,1232.436,90.044,1227.204,93.158,1223.27z"/>
	<path d="M1198.491,1493.724c-3.852-16.761-3.306-34.163-2.131-51.21c-2.186-1.134-4.467-2.09-6.776-2.882
		c-7.144,15.728-18.128,89.601,13.114,110.043c5.915,4.125,13.578,5.464,20.64,4.193c6.87-1.707,13.523-7.417,13.823-14.903
		c-4.726-0.533-9.958-0.137-13.892-3.251C1209.283,1526.152,1202.986,1509.364,1198.491,1493.724z"/>
	<path d="M1439.631,1189.585c0.792,2.308,1.748,4.589,2.882,6.775c17.047-1.175,34.45-1.721,51.21,2.131
		c15.641,4.494,32.428,10.791,41.99,24.779c3.115,3.934,2.718,9.166,3.251,13.892c7.485-0.301,13.195-6.953,14.903-13.824
		c1.27-7.062-0.068-14.725-4.193-20.64C1529.233,1171.457,1455.359,1182.441,1439.631,1189.585z"/>
	<path d="M1189.585,189.241c2.309-0.792,4.59-1.748,6.776-2.882c-1.175-17.047-1.721-34.45,2.131-51.21
		c4.494-15.64,10.791-32.428,24.779-41.99c3.934-3.114,9.166-2.718,13.892-3.251c-0.301-7.486-6.953-13.195-13.823-14.903
		c-7.062-1.27-14.725,0.068-20.64,4.193C1171.457,99.639,1182.441,173.513,1189.585,189.241z"/>
	<path d="M189.241,439.287c-0.792-2.309-1.748-4.59-2.882-6.775c-17.047,1.175-34.45,1.721-51.21-2.131
		c-15.64-4.494-32.428-10.791-41.99-24.779c-3.114-3.934-2.718-9.166-3.251-13.892c-7.486,0.301-13.195,6.953-14.903,13.824
		c-1.27,7.062,0.068,14.725,4.194,20.64C99.639,457.415,173.513,446.431,189.241,439.287z"/>
	<path d="M439.287,1439.631c-2.309,0.792-4.59,1.748-6.775,2.882c1.175,17.047,1.721,34.45-2.131,51.21
		c-4.494,15.64-10.791,32.428-24.779,41.99c-3.934,3.114-9.166,2.718-13.892,3.251c0.301,7.486,6.953,13.195,13.824,14.903
		c7.062,1.271,14.725-0.068,20.64-4.193C457.415,1529.233,446.431,1455.359,439.287,1439.631z"/>
	<path d="M1214.952,207.49c15.085,45.254,52.164,72.477,82.928,77.014c14.621,3.515,30.185,3.734,45.261,1.227
		c-2.507,15.076-2.288,30.64,1.227,45.261c4.537,30.765,31.759,67.844,77.014,82.928c53.986,18.202,117.293-18.847,124.85-77.055
		c3.825-24.11-4.358-49.271-19.233-68.299c-26.751-33.965-83.317-39.694-114.073-2.227c-13.742,18.318-17.84,44.954-6.42,65.416
		c4.439,7.54,10.368,14.193,17.116,19.725c8.332,6.639,19.397,8.087,29.71,8.428c21.473,0.574,40.255-20.025,38.89-41.198
		c-2.723-24.666-29.02-33.235-41.02-20.927c-2.841,2.746-3.156,6.83-3.156,10.532c3.374-1.475,6.215-3.975,9.658-5.3
		c6.912-0.697,13.223,4.398,16.173,10.313c3.51,10.805-2.008,24.383-13.195,28.044c-31.526,9.11-50.098-23.588-42.864-48.233
		c16.414-47.805,89.351-49.089,107.707,11.037c11.411,29.65-5.13,64.384-29.082,79.746c-14.069,8.783-30.393,15.559-47.304,14.165
		c-30.175-1.817-59.939-18.058-75.484-44.408c-23.849-45.034-10.684-78.135-0.143-98.32c-20.185,10.541-53.286,23.706-98.32-0.143
		c-26.35-15.545-42.591-45.31-44.408-75.484c-1.393-16.911,5.382-33.234,14.165-47.304c15.362-23.952,50.096-40.493,79.746-29.082
		c60.126,18.356,58.842,91.293,11.037,107.707c-24.644,7.233-57.342-11.338-48.232-42.864c3.661-11.187,17.238-16.706,28.043-13.195
		c5.914,2.95,11.01,9.261,10.313,16.173c-1.325,3.442-3.824,6.284-5.3,9.657c3.702,0,7.786-0.314,10.532-3.155
		c12.308-12.001,3.74-38.297-20.927-41.02c-21.173-1.366-41.771,17.416-41.198,38.889c0.342,10.313,1.79,21.378,8.428,29.71
		c5.532,6.748,12.185,12.676,19.725,17.116c20.462,11.42,47.099,7.322,65.417-6.42c37.468-30.756,31.738-87.321-2.227-114.073
		c-19.028-14.876-44.189-23.058-68.299-19.233C1233.799,90.197,1196.749,153.504,1214.952,207.49z"/>
	<path d="M1421.382,1214.952c-45.255,15.085-72.477,52.164-77.014,82.928c-3.515,14.621-3.735,30.185-1.227,45.261
		c-15.076-2.507-30.64-2.288-45.261,1.227c-30.765,4.537-67.844,31.759-82.928,77.014c-18.202,53.986,18.847,117.293,77.055,124.85
		c24.11,3.825,49.271-4.357,68.299-19.233c33.965-26.751,39.694-83.317,2.227-114.073c-18.318-13.742-44.954-17.84-65.417-6.42
		c-7.54,4.439-14.193,10.368-19.725,17.116c-6.638,8.332-8.086,19.397-8.428,29.71c-0.574,21.473,20.025,40.255,41.198,38.889
		c24.666-2.723,33.235-29.019,20.927-41.02c-2.746-2.841-6.83-3.155-10.532-3.155c1.475,3.374,3.975,6.215,5.3,9.657
		c0.697,6.912-4.398,13.223-10.313,16.173c-10.805,3.51-24.383-2.008-28.043-13.195c-9.11-31.526,23.588-50.097,48.232-42.864
		c47.805,16.414,49.089,89.351-11.037,107.707c-29.65,11.411-64.384-5.13-79.746-29.082c-8.783-14.07-15.558-30.393-14.165-47.304
		c1.817-30.174,18.058-59.939,44.408-75.484c45.034-23.849,78.135-10.684,98.32-0.143c-10.541-20.185-23.705-53.286,0.143-98.32
		c15.545-26.35,45.309-42.591,75.484-44.408c16.911-1.393,33.234,5.382,47.304,14.165c23.952,15.362,40.493,50.095,29.082,79.745
		c-18.356,60.126-91.293,58.842-107.707,11.037c-7.233-24.645,11.339-57.343,42.864-48.233
		c11.187,3.661,16.706,17.239,13.195,28.043c-2.951,5.915-9.261,11.01-16.173,10.313c-3.442-1.325-6.284-3.825-9.658-5.3
		c0,3.702,0.314,7.786,3.156,10.532c12.001,12.308,38.297,3.739,41.02-20.927c1.366-21.173-17.416-41.772-38.89-41.198
		c-10.313,0.341-21.378,1.789-29.71,8.428c-6.748,5.532-12.676,12.184-17.116,19.725c-11.42,20.462-7.322,47.099,6.42,65.417
		c30.755,37.468,87.321,31.738,114.073-2.226c14.875-19.028,23.057-44.19,19.233-68.299
		C1538.675,1233.799,1475.368,1196.749,1421.382,1214.952z"/>
	<path d="M413.92,1421.382c-15.085-45.254-52.164-72.477-82.928-77.014c-14.621-3.515-30.185-3.734-45.261-1.227
		c2.507-15.076,2.288-30.64-1.227-45.261c-4.537-30.765-31.759-67.844-77.014-82.928c-53.986-18.202-117.293,18.847-124.85,77.055
		c-3.825,24.109,4.357,49.271,19.233,68.299c26.751,33.965,83.317,39.694,114.073,2.226c13.742-18.318,17.84-44.954,6.42-65.417
		c-4.439-7.54-10.368-14.192-17.116-19.725c-8.332-6.639-19.397-8.087-29.71-8.428c-21.473-0.574-40.255,20.025-38.889,41.198
		c2.723,24.666,29.019,33.235,41.02,20.927c2.841-2.746,3.155-6.83,3.155-10.532c-3.374,1.475-6.215,3.975-9.657,5.3
		c-6.912,0.697-13.223-4.398-16.173-10.313c-3.511-10.805,2.008-24.383,13.195-28.043c31.526-9.11,50.098,23.588,42.864,48.233
		c-16.414,47.805-89.351,49.089-107.707-11.037c-11.411-29.65,5.13-64.384,29.082-79.745c14.07-8.783,30.393-15.559,47.304-14.165
		c30.174,1.817,59.939,18.058,75.484,44.408c23.849,45.034,10.684,78.135,0.143,98.32c20.185-10.541,53.286-23.705,98.32,0.143
		c26.35,15.545,42.591,45.31,44.408,75.484c1.393,16.911-5.382,33.234-14.165,47.304c-15.362,23.951-50.096,40.493-79.746,29.082
		c-60.126-18.356-58.842-91.293-11.037-107.707c24.645-7.233,57.343,11.338,48.233,42.864
		c-3.661,11.188-17.239,16.706-28.044,13.195c-5.915-2.951-11.01-9.261-10.313-16.173c1.325-3.442,3.825-6.283,5.3-9.657
		c-3.702,0-7.786,0.314-10.532,3.155c-12.308,12.001-3.739,38.297,20.927,41.02c21.173,1.366,41.772-17.416,41.198-38.889
		c-0.341-10.313-1.789-21.378-8.428-29.71c-5.532-6.748-12.185-12.676-19.725-17.116c-20.462-11.42-47.099-7.322-65.416,6.42
		c-37.468,30.755-31.738,87.322,2.227,114.073c19.028,14.876,44.189,23.058,68.299,19.233
		C395.074,1538.675,432.123,1475.368,413.92,1421.382z"/>
	<path d="M207.49,413.92c45.255-15.085,72.477-52.164,77.014-82.928c3.515-14.621,3.734-30.185,1.227-45.261
		c15.076,2.507,30.64,2.288,45.261-1.227c30.765-4.537,67.844-31.759,82.928-77.014c18.202-53.986-18.847-117.293-77.055-124.85
		c-24.11-3.825-49.271,4.357-68.299,19.233c-33.965,26.751-39.694,83.317-2.227,114.073c18.318,13.742,44.954,17.84,65.416,6.42
		c7.54-4.439,14.193-10.368,19.725-17.116c6.639-8.332,8.087-19.397,8.428-29.71c0.574-21.473-20.025-40.255-41.198-38.889
		c-24.666,2.723-33.235,29.02-20.927,41.02c2.746,2.841,6.83,3.155,10.532,3.155c-1.475-3.374-3.975-6.215-5.3-9.657
		c-0.697-6.912,4.398-13.223,10.313-16.173c10.805-3.511,24.383,2.008,28.044,13.195c9.11,31.526-23.588,50.097-48.233,42.864
		c-47.805-16.414-49.089-89.351,11.037-107.707c29.65-11.411,64.384,5.13,79.746,29.082c8.783,14.07,15.559,30.393,14.165,47.304
		c-1.817,30.174-18.058,59.939-44.408,75.484c-45.034,23.849-78.135,10.684-98.32,0.143c10.541,20.185,23.706,53.286-0.143,98.32
		c-15.545,26.35-45.309,42.591-75.484,44.408c-16.911,1.393-33.234-5.382-47.304-14.165c-23.952-15.362-40.493-50.096-29.082-79.746
		c18.356-60.126,91.293-58.842,107.707-11.037c7.233,24.645-11.338,57.343-42.864,48.233c-11.187-3.661-16.706-17.239-13.195-28.044
		c2.95-5.915,9.261-11.01,16.173-10.313c3.442,1.325,6.284,3.825,9.657,5.3c0-3.702-0.314-7.786-3.155-10.532
		c-12.001-12.308-38.297-3.739-41.02,20.927c-1.366,21.173,17.416,41.772,38.889,41.198c10.313-0.341,21.378-1.79,29.71-8.428
		c6.748-5.532,12.676-12.185,17.116-19.725c11.42-20.462,7.322-47.099-6.42-65.416c-30.755-37.468-87.321-31.738-114.073,2.227
		c-14.876,19.028-23.058,44.189-19.233,68.299C90.197,395.073,153.504,432.123,207.49,413.92z"/>
	<path d="M1437.51,43.682c10.395,2.309,16.843,11.652,22.566,19.848c20.699,31.532,18.228,69.234,16.311,88.955
		c19.721-1.917,57.423-4.387,88.955,16.311c8.196,5.723,17.539,12.171,19.848,22.566c1.899,5.751-0.219,11.624-1.093,17.32
		c9.056,1.134,16.487-5.068,22.033-11.447c5.614-6.598,6.461-16.146,4.33-24.273c-8.044-21.617-35.819-32.912-58.751-35.379
		c-20.827-1.812-41.951-1.348-62.571,2.15c3.498-20.62,3.962-41.744,2.15-62.571c-2.466-22.932-13.762-50.706-35.379-58.751
		c-8.128-2.131-17.676-1.284-24.273,4.33c-6.379,5.546-12.581,12.977-11.447,22.033C1425.886,43.901,1431.759,41.784,1437.51,43.682
		z"/>
	<path d="M1551.71,1491.289c22.932-2.467,50.706-13.762,58.751-35.379c2.131-8.128,1.284-17.676-4.33-24.273
		c-5.546-6.379-12.977-12.581-22.033-11.447c0.874,5.696,2.991,11.57,1.093,17.32c-2.309,10.395-11.652,16.843-19.848,22.566
		c-31.532,20.698-69.234,18.228-88.955,16.311c1.917,19.721,4.387,57.423-16.311,88.955c-5.723,8.196-12.171,17.539-22.566,19.848
		c-5.751,1.899-11.625-0.219-17.321-1.093c-1.134,9.056,5.068,16.487,11.447,22.033c6.598,5.614,16.146,6.461,24.273,4.33
		c21.617-8.044,32.912-35.819,35.379-58.751c1.812-20.827,1.348-41.952-2.15-62.571
		C1509.758,1492.636,1530.883,1493.101,1551.71,1491.289z"/>
	<path d="M191.362,1585.19c-10.395-2.309-16.843-11.652-22.566-19.848c-20.699-31.532-18.228-69.234-16.311-88.955
		c-19.721,1.917-57.423,4.387-88.955-16.311c-8.196-5.723-17.539-12.171-19.848-22.566c-1.899-5.751,0.219-11.624,1.093-17.32
		c-9.056-1.134-16.487,5.068-22.033,11.447c-5.614,6.598-6.461,16.146-4.33,24.273c8.044,21.617,35.819,32.912,58.751,35.379
		c20.826,1.813,41.951,1.348,62.571-2.15c-3.498,20.62-3.962,41.745-2.15,62.571c2.467,22.932,13.762,50.706,35.379,58.751
		c8.128,2.131,17.676,1.284,24.273-4.33c6.379-5.546,12.581-12.977,11.447-22.033
		C202.986,1584.971,197.113,1587.088,191.362,1585.19z"/>
	<path d="M77.162,137.583c-22.932,2.466-50.706,13.762-58.751,35.379c-2.131,8.128-1.284,17.676,4.33,24.273
		c5.546,6.379,12.977,12.581,22.033,11.447c-0.874-5.696-2.991-11.57-1.093-17.32c2.309-10.395,11.652-16.843,19.848-22.566
		c31.532-20.699,69.234-18.228,88.955-16.311c-1.917-19.721-4.387-57.423,16.311-88.955c5.723-8.196,12.171-17.539,22.566-19.848
		c5.751-1.899,11.624,0.219,17.32,1.093c1.134-9.056-5.068-16.487-11.447-22.033c-6.598-5.614-16.146-6.461-24.273-4.33
		c-21.617,8.044-32.912,35.819-35.379,58.751c-1.812,20.826-1.348,41.951,2.15,62.571
		C119.114,136.236,97.989,135.771,77.162,137.583z"/>
	<path d="M1551.628,124.566c21.722,1.959,45.958,2.736,60.868-13.127c-4.672-6.966-11.42-13.086-19.752-15.094
		c-11.46-3.032-23.604-3.442-35.242-1.12c-10.923,1.948-21.682,4.773-32.193,8.339c3.567-10.511,6.391-21.27,8.339-32.193
		c2.322-11.638,1.912-23.782-1.12-35.242c-2.008-8.333-8.127-15.08-15.094-19.752c-15.862,14.91-15.085,39.146-13.127,60.868
		c0.811,17.658-2.128,35.156-5.174,52.495C1516.472,126.694,1533.97,123.754,1551.628,124.566z"/>
	<path d="M1525.308,1525.309c10.511,3.566,21.27,6.391,32.193,8.339c11.638,2.322,23.782,1.913,35.242-1.12
		c8.333-2.008,15.08-8.128,19.752-15.094c-14.91-15.863-39.146-15.086-60.868-13.127c-17.658,0.811-35.156-2.128-52.495-5.173
		c3.045,17.339,5.985,34.837,5.174,52.495c-1.959,21.722-2.736,45.958,13.127,60.868c6.967-4.672,13.086-11.42,15.094-19.752
		c3.032-11.461,3.442-23.604,1.12-35.242C1531.699,1546.579,1528.875,1535.819,1525.308,1525.309z"/>
	<path d="M77.244,1504.306c-21.722-1.958-45.958-2.736-60.868,13.127c4.672,6.966,11.42,13.086,19.752,15.094
		c11.461,3.032,23.604,3.442,35.242,1.12c10.923-1.948,21.682-4.773,32.193-8.339c-3.566,10.51-6.391,21.27-8.339,32.193
		c-2.322,11.638-1.912,23.782,1.12,35.242c2.008,8.332,8.128,15.08,15.094,19.752c15.863-14.91,15.086-39.146,13.127-60.868
		c-0.811-17.658,2.129-35.156,5.174-52.495C112.401,1502.178,94.902,1505.118,77.244,1504.306z"/>
	<path d="M103.564,103.563c-10.511-3.566-21.27-6.391-32.193-8.339c-11.638-2.322-23.782-1.912-35.242,1.12
		c-8.332,2.008-15.08,8.128-19.752,15.094c14.91,15.863,39.146,15.086,60.868,13.127c17.658-0.811,35.156,2.128,52.495,5.174
		c-3.045-17.339-5.985-34.837-5.174-52.495c1.959-21.722,2.736-45.958-13.127-60.868c-6.966,4.672-13.086,11.42-15.094,19.752
		c-3.032,11.461-3.442,23.604-1.12,35.242C97.173,82.293,99.997,93.053,103.564,103.563z"/>
	<path d="M1605.229,56.936c3.456-4.207,7.813-8.701,7.745-14.534c-6.878-3.679-13.322-5.903-19.973-6.53
		c-0.627-6.651-2.851-13.096-6.53-19.973c-5.833-0.068-10.327,4.289-14.534,7.745c-10.696,10.04-13.496,24.984-18.058,38.275
		c-2.156,5.997-3.626,12.204-5.277,18.353c6.15-1.651,12.357-3.121,18.354-5.277C1580.245,70.432,1595.189,67.632,1605.229,56.936z"
		/>
	<path d="M1566.954,1553.878c-5.997-2.156-12.204-3.626-18.354-5.277c1.651,6.15,3.121,12.357,5.277,18.353
		c4.562,13.291,7.362,28.235,18.058,38.275c4.207,3.456,8.701,7.813,14.534,7.745c3.679-6.877,5.903-13.322,6.53-19.974
		c6.651-0.627,13.096-2.851,19.973-6.53c0.068-5.833-4.289-10.327-7.745-14.534
		C1595.189,1561.24,1580.245,1558.44,1566.954,1553.878z"/>
	<path d="M23.643,1571.936c-3.456,4.207-7.813,8.701-7.745,14.534c6.878,3.679,13.322,5.903,19.973,6.53
		c0.627,6.651,2.851,13.096,6.53,19.974c5.833,0.068,10.327-4.289,14.534-7.745c10.696-10.04,13.496-24.984,18.058-38.275
		c2.156-5.997,3.626-12.204,5.277-18.353c-6.15,1.651-12.357,3.121-18.353,5.277C48.627,1558.44,33.683,1561.24,23.643,1571.936z"/>
	<path d="M61.918,74.994c5.997,2.156,12.204,3.626,18.353,5.277c-1.651-6.15-3.121-12.356-5.277-18.353
		c-4.562-13.291-7.363-28.235-18.058-38.275c-4.207-3.456-8.701-7.813-14.534-7.745c-3.679,6.877-5.903,13.322-6.53,19.973
		c-6.651,0.627-13.096,2.851-19.973,6.53c-0.068,5.833,4.289,10.327,7.745,14.534C33.683,67.632,48.627,70.432,61.918,74.994z"/>
</g>
</svg>
