<?xml version="1.0" encoding="utf-8"?>

<!DOCTYPE svg PUBLIC "-//W3C//DTD SVG 1.1//EN" "http://www.w3.org/Graphics/SVG/1.1/DTD/svg11.dtd">
<svg version="1.1" id="Layer_1" xmlns="http://www.w3.org/2000/svg" xmlns:xlink="http://www.w3.org/1999/xlink" x="0px" y="0px"
	 viewBox="0 0 1650.529 1650.529" enable-background="new 0 0 1650.529 1650.529" xml:space="preserve">
<g>
	<path d="M109.024,667.155c-36.238-9.338-54.077,37.705-33.867,67.734c-13.88,4.893-29.491,11.002-40.235,31.065
		c-8.885,16.328-11.782,39.282-7.552,59.311c-4.229,20.029-1.332,42.983,7.552,59.311c10.744,20.063,26.355,26.172,40.235,31.065
		c-20.21,30.029-2.371,77.071,33.867,67.734c50.975-12.728,89.349-89.283,116.554-158.109
		C198.373,756.439,159.998,679.883,109.024,667.155z M40.517,825.265c-10.233-17.554-2.673-51.786,35.127-58.288
		c49.062-3.744,91.805,41.713,95.284,47.006c-0.703,0-2.119,0.011-2.822,0.011c-18.644-24.291-50.228-30.337-55.68-9.831
		c-2.278,9.171-0.056,16.554,4.01,21.103c-4.067,4.549-6.289,11.932-4.01,21.103c5.451,20.506,37.036,14.459,55.68-9.831
		c0.703,0,2.119,0.011,2.822,0.011c-3.479,5.293-46.222,50.75-95.284,47.006C37.844,877.05,30.284,842.819,40.517,825.265z
		 M163.484,833.951c-29.719,33.155-47.728,11.343-38.798,0.879c7.934,18.513,20.484,0.336,12.374-9.566
		c8.11-9.902-4.44-28.078-12.374-9.565c-8.93-10.464,9.079-32.276,38.798,0.879c-2.317,2.51-3.862,5.459-4.74,8.687
		C159.622,828.492,161.167,831.441,163.484,833.951z M173.728,750.229c18.249,24.138,33.417,50.963,45.521,75.035
		c-12.104,24.072-27.272,50.897-45.521,75.035c-17.931,19.721-49.157,45.449-75.331,41.114c-5.045-0.765-9.542-3.267-13.863-5.83
		c3.008,7.195,9.376,13.181,17.306,14.235c12.178,1.788,23.426-4.404,33.753-9.965c-51.137,34.316-68.442-5.032-50.283-22.495
		c55.427,3.657,97.538-41.95,127.973-92.093c-30.435-50.143-72.545-95.75-127.973-92.093c-18.159-17.463-0.854-56.811,50.283-22.495
		c-10.327-5.561-21.575-11.754-33.753-9.965c-7.93,1.054-14.297,7.04-17.306,14.235c4.321-2.564,8.818-5.065,13.863-5.83
		C124.572,704.78,155.797,730.508,173.728,750.229z"/>
	<path d="M915.64,75.157c-4.893-13.88-11.002-29.491-31.065-40.235c-16.328-8.885-39.281-11.782-59.311-7.552
		c-20.029-4.229-42.983-1.332-59.311,7.552c-20.063,10.744-26.172,26.355-31.065,40.235c-30.029-20.21-77.071-2.371-67.734,33.867
		c12.728,50.974,89.283,89.349,158.109,116.554c68.826-27.205,145.381-65.58,158.109-116.554
		C992.712,72.786,945.669,54.947,915.64,75.157z M766.977,75.644c6.502-37.8,40.734-45.36,58.288-35.127
		c17.554-10.233,51.786-2.673,58.288,35.127c3.744,49.062-41.713,91.805-47.006,95.284c0-0.703-0.011-2.119-0.011-2.822
		c24.291-18.644,30.337-50.228,9.831-55.68c-9.171-2.278-16.554-0.056-21.103,4.01c-4.549-4.067-11.932-6.289-21.103-4.01
		c-20.506,5.452-14.459,37.036,9.832,55.68c0,0.703-0.011,2.119-0.011,2.822C808.69,167.449,763.232,124.706,766.977,75.644z
		 M825.265,137.06c9.901,8.111,28.078-4.44,9.565-12.374c10.464-8.93,32.276,9.079-0.879,38.798c-2.51-2.317-5.459-3.862-8.687-4.74
		c-3.228,0.878-6.177,2.423-8.687,4.74c-33.155-29.719-11.343-47.728-0.879-38.798C797.187,132.62,815.363,145.171,825.265,137.06z
		 M939.852,135.592c5.561-10.327,11.754-21.575,9.965-33.753c-1.054-7.93-7.04-14.298-14.235-17.306
		c2.564,4.321,5.065,8.818,5.83,13.863c4.336,26.175-21.392,57.4-41.114,75.331c-24.138,18.249-50.963,33.417-75.035,45.521
		c-24.072-12.104-50.897-27.272-75.035-45.521c-19.721-17.931-45.449-49.156-41.114-75.331c0.765-5.045,3.267-9.542,5.83-13.863
		c-7.195,3.008-13.181,9.376-14.235,17.306c-1.788,12.178,4.404,23.426,9.965,33.753c-34.316-51.137,5.032-68.442,22.495-50.283
		c-3.657,55.427,41.95,97.538,92.093,127.973c50.143-30.435,95.75-72.545,92.093-127.973
		C934.821,67.15,974.168,84.455,939.852,135.592z"/>
	<path d="M1615.607,765.954c-10.744-20.063-26.355-26.172-40.235-31.065c20.21-30.029,2.371-77.071-33.867-67.734
		c-50.975,12.728-89.349,89.283-116.554,158.109c27.205,68.826,65.58,145.381,116.554,158.109
		c36.238,9.338,54.077-37.705,33.867-67.734c13.88-4.893,29.491-11.002,40.235-31.065c8.885-16.328,11.782-39.281,7.552-59.311
		C1627.389,805.235,1624.491,782.282,1615.607,765.954z M1514.937,939.852c10.327,5.561,21.575,11.754,33.753,9.965
		c7.929-1.054,14.298-7.04,17.306-14.235c-4.321,2.564-8.818,5.065-13.863,5.83c-26.175,4.336-57.4-21.392-75.331-41.114
		c-18.249-24.138-33.417-50.963-45.521-75.035c12.104-24.072,27.272-50.897,45.521-75.035
		c17.931-19.721,49.156-45.449,75.331-41.113c5.045,0.765,9.542,3.267,13.863,5.83c-3.008-7.195-9.376-13.181-17.306-14.235
		c-12.178-1.788-23.426,4.404-33.753,9.965c51.137-34.316,68.442,5.032,50.283,22.495c-55.427-3.657-97.538,41.95-127.973,92.093
		c30.435,50.143,72.545,95.75,127.973,92.093C1583.379,934.821,1566.074,974.168,1514.937,939.852z M1574.885,883.553
		c-49.062,3.744-91.805-41.713-95.284-47.006c0.703,0,2.119-0.011,2.822-0.011c18.644,24.291,50.228,30.337,55.68,9.831
		c2.278-9.171,0.056-16.554-4.01-21.103c4.067-4.549,6.289-11.932,4.01-21.103c-5.451-20.506-37.036-14.459-55.68,9.831
		c-0.703,0-2.119-0.011-2.822-0.011c3.479-5.293,46.222-50.75,95.284-47.006c37.8,6.502,45.36,40.734,35.127,58.288
		C1620.246,842.819,1612.685,877.05,1574.885,883.553z M1487.045,816.578c29.719-33.155,47.728-11.343,38.798-0.879
		c-7.934-18.513-20.484-0.336-12.374,9.565c-8.11,9.902,4.44,28.078,12.374,9.566c8.93,10.464-9.079,32.276-38.798-0.879
		c2.317-2.51,3.862-5.459,4.74-8.687C1490.907,822.037,1489.362,819.088,1487.045,816.578z"/>
	<path d="M825.265,1424.951c-68.826,27.205-145.381,65.58-158.109,116.554c-9.338,36.238,37.705,54.077,67.734,33.867
		c4.893,13.88,11.002,29.491,31.065,40.235c16.328,8.885,39.281,11.782,59.311,7.552c20.029,4.229,42.983,1.332,59.311-7.552
		c20.063-10.744,26.172-26.355,31.065-40.235c30.029,20.21,77.071,2.371,67.734-33.867
		C970.646,1490.531,894.09,1452.156,825.265,1424.951z M883.553,1574.885c-6.502,37.8-40.734,45.36-58.288,35.127
		c-17.554,10.233-51.786,2.673-58.288-35.127c-3.744-49.062,41.713-91.805,47.006-95.284c0,0.703,0.011,2.119,0.011,2.822
		c-24.291,18.644-30.337,50.228-9.832,55.679c9.171,2.278,16.554,0.056,21.103-4.01c4.549,4.067,11.932,6.289,21.103,4.01
		c20.506-5.451,14.459-37.036-9.831-55.679c0-0.703,0.011-2.119,0.011-2.822C841.839,1483.08,887.297,1525.824,883.553,1574.885z
		 M825.265,1513.469c-9.902-8.11-28.078,4.44-9.566,12.374c-10.464,8.93-32.276-9.079,0.879-38.798
		c2.51,2.317,5.459,3.862,8.687,4.74c3.228-0.878,6.177-2.423,8.687-4.74c33.155,29.719,11.343,47.728,0.879,38.798
		C853.343,1517.909,835.166,1505.358,825.265,1513.469z M917.357,1565.22c3.657-55.427-41.95-97.538-92.093-127.973
		c-50.143,30.435-95.75,72.545-92.093,127.973c-17.463,18.159-56.811,0.854-22.495-50.283c-5.561,10.327-11.754,21.575-9.965,33.753
		c1.054,7.929,7.04,14.298,14.235,17.306c-2.563-4.321-5.065-8.818-5.83-13.863c-4.336-26.175,21.392-57.4,41.114-75.331
		c24.138-18.249,50.963-33.417,75.035-45.521c24.072,12.104,50.897,27.272,75.035,45.521c19.721,17.931,45.449,49.156,41.114,75.331
		c-0.765,5.045-3.267,9.542-5.83,13.863c7.195-3.008,13.181-9.376,14.235-17.306c1.789-12.178-4.404-23.426-9.965-33.753
		C974.168,1566.074,934.821,1583.379,917.357,1565.22z"/>
	<path d="M1396.37,1396.37c14.468-28.941,36.191-53.116,66.756-47.12c21.82,3.803,14.159,29.065-2.76,30.527
		c6.23,19.102,17.94,22.862,29.06,17.461c36.946-17.766,18.991-82.909-31.551-71.692c-27.631,6.309-45.762,26.159-57.592,51.503
		c1.143-5.053,23.567-65.56,60.745-113.664c5.94-7.508,31.082-5.254,11.723,24.118c-7.525,11.805-25.491,23.103-37.464,37.909
		c-6.813,6.709-12.705,14.245-18.743,21.647c0.258,0.982,1.757,2.005,2.088-0.052c66-63.746,96.22,15.456,134.629-10.038
		c-17.974,4.307-19.864-0.91-30.217-16.747c-12.483-20.347-30.26-26.559-51.906-19.621c22.304-18.327,26.539-45.104,15.899-55.783
		c28.496-33.429,47.886-11.525,38.756-0.755c-0.693-4.952-5.551-9.697-10.71-7.319c-6.193,4.186-5.169,14.421,0.651,18.566
		c6.244,5.686,16.861,2.533,20.417-4.704c14.264-28.34-21.611-48.065-53.963-8.426c-0.651,0.011-1.943,0.021-2.595,0.031
		c19.391-25.144,77.72-64.511,116.848-38.57c29.236,19.665,20.529,68.487-12.592,58.471c2.936-1.747,6.068-3.546,7.681-6.689
		c3.153-5.892,2.688-13.232,0.062-19.228c-7.073-15.993-24.175-9.934-29.887-2.337c-13.567,17.675-7.005,63.357,26.63,59.339
		c47.442-5.961,55.307-113.223-12.981-130.111c29.442-46.069-18.646-112.611-87.034-29.515
		c-33.949,41.433-66.052,124.919-87.768,185.915c15.718-29.781,67.033-175.411,142.279-182.68c8.208-0.941,16.22,1.82,23.033,6.213
		c-5.594-14.278-21.271-22.984-52.919-2.802c46.13-35.239,72.801-2.302,52.537,21.069c-75.477-5.859-147.061,97.373-185.3,218.893
		c-121.52,38.24-224.752,109.824-218.893,185.3c-23.371,20.264-56.308-6.407-21.069-52.537
		c-20.182,31.648-11.477,47.325,2.802,52.919c-4.394-6.813-7.154-14.825-6.213-23.033c7.269-75.246,152.898-126.562,182.68-142.279
		c-60.997,21.716-144.483,53.819-185.915,87.768c-83.096,68.388-16.554,116.476,29.515,87.034
		c16.888,68.288,124.151,60.423,130.111,12.981c4.018-33.635-41.664-40.197-59.339-26.63c-7.597,5.712-13.656,22.814,2.337,29.887
		c5.996,2.626,13.336,3.091,19.228-0.062c3.143-1.613,4.941-4.745,6.689-7.681c10.016,33.121-38.806,41.828-58.471,12.592
		c-25.94-39.128,13.427-97.457,38.57-116.848c-0.011,0.651-0.021,1.943-0.031,2.595c-39.639,32.352-19.915,68.227,8.426,53.963
		c7.236-3.556,10.39-14.173,4.704-20.417c-4.146-5.82-14.38-6.844-18.566-0.651c-2.378,5.159,2.368,10.017,7.319,10.71
		c-10.77,9.13-32.674-10.26,0.755-38.756c10.678,10.639,37.456,6.405,55.783-15.899c-6.938,21.646-0.726,39.424,19.621,51.906
		c15.837,10.353,21.054,12.243,16.747,30.217c25.494-38.409-53.708-68.629,10.038-134.629c2.057-0.331,1.034-1.83,0.052-2.088
		c-7.402,6.038-14.938,11.93-21.647,18.743c-14.805,11.973-26.104,29.939-37.909,37.464c-29.372,19.359-31.626-5.783-24.118-11.723
		c48.104-37.178,108.611-59.602,113.664-60.745c-25.344,11.83-45.194,29.961-51.503,57.592
		c-11.216,50.542,53.926,68.497,71.692,31.551c5.401-11.12,1.641-22.829-17.461-29.06c-1.462,16.919-26.724,24.58-30.527,2.76
		C1343.254,1432.56,1367.429,1410.838,1396.37,1396.37z"/>
	<path d="M254.159,1396.37c28.941,14.468,53.116,36.191,47.12,66.756c-3.803,21.82-29.065,14.159-30.527-2.76
		c-19.102,6.23-22.862,17.94-17.461,29.06c17.767,36.946,82.909,18.991,71.692-31.551c-6.309-27.631-26.159-45.762-51.503-57.592
		c5.053,1.143,65.56,23.567,113.664,60.745c7.508,5.94,5.254,31.082-24.118,11.723c-11.805-7.525-23.103-25.491-37.909-37.464
		c-6.709-6.813-14.245-12.705-21.647-18.743c-0.982,0.258-2.005,1.757,0.051,2.088c63.746,66-15.456,96.22,10.038,134.629
		c-4.307-17.974,0.91-19.864,16.747-30.217c20.347-12.483,26.559-30.26,19.621-51.906c18.327,22.304,45.104,26.539,55.783,15.899
		c33.429,28.496,11.525,47.886,0.755,38.756c4.952-0.693,9.697-5.551,7.319-10.71c-4.186-6.193-14.421-5.169-18.566,0.651
		c-5.686,6.244-2.533,16.861,4.704,20.417c28.34,14.264,48.065-21.611,8.426-53.963c-0.011-0.651-0.021-1.943-0.031-2.595
		c25.144,19.391,64.511,77.72,38.57,116.848c-19.665,29.236-68.487,20.529-58.471-12.592c1.748,2.936,3.546,6.068,6.689,7.681
		c5.892,3.153,13.232,2.688,19.228,0.062c15.993-7.073,9.934-24.175,2.337-29.887c-17.675-13.567-63.357-7.005-59.339,26.63
		c5.961,47.442,113.223,55.307,130.111-12.981c46.069,29.442,112.611-18.646,29.515-87.034
		c-41.433-33.949-124.919-66.052-185.915-87.768c29.781,15.718,175.41,67.033,182.68,142.279c0.941,8.208-1.819,16.22-6.213,23.033
		c14.278-5.594,22.984-21.271,2.802-52.919c35.239,46.13,2.302,72.801-21.069,52.537c5.859-75.477-97.373-147.061-218.893-185.3
		c-38.239-121.52-109.824-224.752-185.3-218.893c-20.264-23.371,6.407-56.308,52.537-21.069
		c-31.648-20.182-47.325-11.477-52.919,2.802c6.813-4.394,14.825-7.154,23.033-6.213c75.246,7.269,126.562,152.898,142.279,182.68
		c-21.716-60.997-53.819-144.483-87.768-185.915c-68.388-83.096-116.476-16.554-87.034,29.515
		c-68.288,16.888-60.423,124.151-12.981,130.111c33.635,4.018,40.197-41.664,26.63-59.339c-5.712-7.597-22.814-13.656-29.887,2.337
		c-2.626,5.996-3.091,13.336,0.062,19.228c1.613,3.143,4.745,4.941,7.681,6.689c-33.121,10.016-41.828-38.806-12.592-58.471
		c39.128-25.94,97.457,13.427,116.848,38.57c-0.651-0.011-1.943-0.021-2.595-0.031c-32.352-39.639-68.227-19.915-53.963,8.426
		c3.556,7.236,14.173,10.39,20.417,4.704c5.82-4.146,6.844-14.38,0.651-18.566c-5.159-2.378-10.017,2.368-10.71,7.319
		c-9.13-10.77,10.26-32.674,38.756,0.755c-10.639,10.678-6.405,37.456,15.899,55.783c-21.646-6.938-39.424-0.726-51.906,19.621
		c-10.353,15.837-12.243,21.054-30.217,16.747c38.409,25.494,68.629-53.708,134.629,10.038c0.331,2.057,1.83,1.034,2.088,0.052
		c-6.038-7.402-11.93-14.938-18.743-21.647c-11.973-14.805-29.94-26.104-37.464-37.909c-19.359-29.372,5.783-31.626,11.723-24.118
		c37.178,48.104,59.602,108.611,60.745,113.664c-11.83-25.344-29.961-45.194-57.592-51.503
		c-50.542-11.216-68.497,53.926-31.551,71.692c11.12,5.401,22.829,1.641,29.06-17.461c-16.919-1.462-24.58-26.724-2.76-30.527
		C217.969,1343.254,239.692,1367.429,254.159,1396.37z"/>
	<path d="M254.159,254.159c-14.468,28.941-36.191,53.116-66.756,47.12c-21.82-3.803-14.159-29.065,2.76-30.527
		c-6.23-19.102-17.94-22.862-29.06-17.461c-36.946,17.767-18.991,82.909,31.551,71.692c27.631-6.309,45.762-26.159,57.592-51.503
		c-1.143,5.053-23.567,65.56-60.745,113.664c-5.94,7.508-31.082,5.254-11.723-24.118c7.525-11.805,25.491-23.103,37.464-37.909
		c6.813-6.709,12.705-14.245,18.743-21.647c-0.258-0.982-1.757-2.005-2.088,0.051c-66,63.746-96.22-15.456-134.629,10.038
		c17.974-4.307,19.864,0.91,30.217,16.747c12.482,20.347,30.26,26.559,51.906,19.621c-22.304,18.327-26.539,45.104-15.899,55.783
		c-28.497,33.429-47.887,11.525-38.756,0.755c0.693,4.952,5.551,9.697,10.71,7.319c6.193-4.186,5.169-14.421-0.651-18.566
		c-6.244-5.686-16.861-2.533-20.417,4.704c-14.264,28.34,21.611,48.065,53.963,8.426c0.651-0.011,1.943-0.021,2.595-0.031
		c-19.391,25.144-77.72,64.511-116.848,38.57c-29.236-19.665-20.529-68.487,12.592-58.471c-2.936,1.748-6.068,3.546-7.681,6.689
		c-3.153,5.892-2.688,13.232-0.062,19.228c7.073,15.993,24.175,9.934,29.887,2.337c13.567-17.675,7.005-63.357-26.63-59.339
		c-47.442,5.961-55.307,113.223,12.981,130.111c-29.442,46.069,18.646,112.611,87.034,29.515
		c33.949-41.433,66.052-124.919,87.768-185.915c-15.718,29.781-67.033,175.41-142.279,182.68c-8.208,0.941-16.22-1.819-23.033-6.213
		c5.594,14.278,21.271,22.984,52.919,2.802c-46.13,35.239-72.801,2.302-52.537-21.069c75.477,5.859,147.061-97.373,185.3-218.893
		c121.52-38.239,224.752-109.824,218.893-185.3c23.371-20.264,56.308,6.407,21.069,52.537c20.183-31.648,11.477-47.325-2.802-52.919
		c4.394,6.813,7.154,14.825,6.213,23.033c-7.269,75.246-152.898,126.562-182.68,142.279
		c60.997-21.716,144.482-53.819,185.915-87.768c83.096-68.388,16.554-116.476-29.515-87.034
		C470.555,6.887,363.292,14.752,357.331,62.194c-4.018,33.635,41.664,40.197,59.339,26.63c7.597-5.712,13.656-22.814-2.337-29.887
		c-5.996-2.626-13.336-3.091-19.228,0.062c-3.143,1.613-4.941,4.745-6.689,7.681c-10.016-33.121,38.806-41.828,58.471-12.592
		c25.94,39.128-13.427,97.457-38.57,116.848c0.011-0.651,0.02-1.943,0.031-2.595c39.64-32.352,19.915-68.227-8.426-53.963
		c-7.236,3.556-10.39,14.173-4.704,20.417c4.146,5.82,14.38,6.844,18.566,0.651c2.378-5.159-2.368-10.017-7.319-10.71
		c10.77-9.13,32.674,10.26-0.755,38.756c-10.678-10.639-37.456-6.405-55.783,15.899c6.938-21.646,0.726-39.424-19.621-51.906
		c-15.837-10.353-21.054-12.243-16.747-30.217c-25.494,38.409,53.708,68.629-10.038,134.629c-2.057,0.331-1.034,1.83-0.051,2.088
		c7.402-6.038,14.938-11.93,21.647-18.743c14.805-11.973,26.104-29.94,37.909-37.464c29.372-19.359,31.626,5.783,24.118,11.723
		c-48.104,37.178-108.611,59.602-113.664,60.745c25.344-11.83,45.194-29.961,51.503-57.592
		c11.216-50.542-53.926-68.497-71.692-31.551c-5.401,11.12-1.641,22.829,17.461,29.06c1.462-16.919,26.724-24.58,30.527-2.76
		C307.276,217.969,283.101,239.692,254.159,254.159z"/>
	<path d="M1396.37,254.159c-28.941-14.468-53.116-36.191-47.12-66.756c3.803-21.82,29.065-14.159,30.527,2.76
		c19.102-6.23,22.862-17.94,17.461-29.06c-17.766-36.946-82.909-18.991-71.692,31.551c6.309,27.631,26.159,45.762,51.503,57.592
		c-5.053-1.143-65.56-23.567-113.664-60.745c-7.508-5.94-5.254-31.082,24.118-11.723c11.805,7.525,23.103,25.491,37.909,37.464
		c6.709,6.813,14.245,12.705,21.647,18.743c0.982-0.258,2.005-1.757-0.052-2.088c-63.746-66,15.456-96.22-10.038-134.629
		c4.307,17.974-0.91,19.864-16.747,30.217c-20.347,12.482-26.559,30.26-19.621,51.906c-18.327-22.304-45.104-26.539-55.783-15.899
		c-33.429-28.497-11.525-47.887-0.755-38.756c-4.952,0.693-9.697,5.551-7.319,10.71c4.186,6.193,14.421,5.169,18.566-0.651
		c5.686-6.244,2.533-16.861-4.704-20.417c-28.34-14.264-48.065,21.611-8.426,53.963c0.011,0.651,0.021,1.943,0.031,2.595
		c-25.144-19.391-64.511-77.72-38.57-116.848c19.665-29.236,68.487-20.529,58.471,12.592c-1.747-2.936-3.546-6.068-6.689-7.681
		c-5.892-3.153-13.232-2.688-19.228-0.062c-15.993,7.073-9.934,24.175-2.337,29.887c17.675,13.567,63.357,7.005,59.339-26.63
		c-5.961-47.442-113.223-55.307-130.111,12.981c-46.069-29.442-112.611,18.646-29.515,87.034
		c41.433,33.949,124.919,66.052,185.915,87.768c-29.781-15.718-175.411-67.033-182.68-142.279c-0.941-8.208,1.82-16.22,6.213-23.033
		c-14.278,5.594-22.984,21.271-2.802,52.919c-35.239-46.13-2.302-72.801,21.069-52.537c-5.859,75.477,97.373,147.061,218.893,185.3
		c38.24,121.52,109.824,224.752,185.3,218.893c20.264,23.371-6.407,56.308-52.537,21.069c31.648,20.183,47.325,11.477,52.919-2.802
		c-6.813,4.394-14.825,7.154-23.033,6.213c-75.246-7.269-126.562-152.898-142.279-182.68
		c21.716,60.997,53.819,144.482,87.768,185.915c68.388,83.096,116.476,16.554,87.034-29.515
		c68.288-16.888,60.423-124.151,12.981-130.111c-33.635-4.018-40.197,41.664-26.63,59.339c5.712,7.597,22.814,13.656,29.887-2.337
		c2.626-5.996,3.091-13.336-0.062-19.228c-1.613-3.143-4.745-4.941-7.681-6.689c33.121-10.016,41.828,38.806,12.592,58.471
		c-39.128,25.94-97.457-13.427-116.848-38.57c0.651,0.011,1.943,0.02,2.595,0.031c32.352,39.64,68.227,19.915,53.963-8.426
		c-3.556-7.236-14.173-10.39-20.417-4.704c-5.82,4.146-6.844,14.38-0.651,18.566c5.159,2.378,10.017-2.368,10.71-7.319
		c9.13,10.77-10.26,32.674-38.756-0.755c10.639-10.678,6.405-37.456-15.899-55.783c21.646,6.938,39.424,0.726,51.906-19.621
		c10.353-15.837,12.243-21.054,30.217-16.747c-38.409-25.494-68.629,53.708-134.629-10.038c-0.331-2.057-1.83-1.034-2.088-0.051
		c6.038,7.402,11.93,14.938,18.743,21.647c11.973,14.805,29.939,26.104,37.464,37.909c19.359,29.372-5.783,31.626-11.723,24.118
		c-37.178-48.104-59.602-108.611-60.745-113.664c11.83,25.344,29.961,45.194,57.592,51.503
		c50.542,11.216,68.497-53.926,31.551-71.692c-11.12-5.401-22.829-1.641-29.06,17.461c16.919,1.462,24.58,26.724,2.76,30.527
		C1432.56,307.276,1410.838,283.101,1396.37,254.159z"/>
	<path d="M1433.306,1433.306c0.888-4.055,0.806-8.441-0.583-12.715c-5.034-17.061-17.96-22.012-28.974-16.842
		c-5.17,11.014-0.219,23.939,16.842,28.974C1424.865,1434.112,1429.251,1434.194,1433.306,1433.306z"/>
	<path d="M217.223,1433.306c4.055,0.888,8.441,0.806,12.715-0.583c17.061-5.034,22.012-17.96,16.842-28.974
		c-11.014-5.17-23.939-0.219-28.974,16.842C216.417,1424.865,216.335,1429.251,217.223,1433.306z"/>
	<path d="M217.223,217.223c-0.888,4.055-0.806,8.441,0.583,12.715c5.034,17.061,17.96,22.012,28.974,16.842
		c5.17-11.014,0.219-23.939-16.842-28.974C225.664,216.417,221.279,216.335,217.223,217.223z"/>
	<path d="M1433.306,217.223c-4.055-0.888-8.441-0.806-12.715,0.583c-17.061,5.034-22.012,17.96-16.842,28.974
		c11.014,5.17,23.939,0.219,28.974-16.842C1434.112,225.664,1434.194,221.279,1433.306,217.223z"/>
	<path d="M971.671,174.039c45.783-19.41,103.678-15.777,140.946,2.75c20.892,8.081,90.32,28.906,90.942,29.039
		c-90.648-34.265-112.91-93.934-140.604-68.447c21.873-5.916,21.619,7.735,35.18,28.057c-34.828-21.958-84.625-21.283-117.913,0.073
		c15.264-23.811,13.279-32.005,34.435-28.615c-4.714-4.414-11.609-6.327-17.926-4.9c-23.32,5.111-40.561,39.837-121.056,73.884
		C876.294,205.733,956.202,181.723,971.671,174.039z"/>
	<path d="M174.039,678.858c-19.41-45.783-15.777-103.678,2.75-140.946c8.081-20.892,28.906-90.32,29.039-90.942
		c-34.265,90.648-93.934,112.91-68.447,140.604c-5.916-21.873,7.735-21.619,28.057-35.18
		c-21.958,34.828-21.283,84.625,0.073,117.913c-23.811-15.264-32.005-13.279-28.615-34.435c-4.414,4.714-6.327,11.609-4.9,17.926
		c5.111,23.32,39.837,40.561,73.884,121.056C205.733,774.235,181.723,694.327,174.039,678.858z"/>
	<path d="M678.858,1476.49c-45.783,19.41-103.678,15.777-140.946-2.75c-20.892-8.081-90.32-28.906-90.942-29.039
		c90.648,34.265,112.91,93.934,140.604,68.447c-21.873,5.916-21.619-7.735-35.18-28.057c34.828,21.958,84.625,21.283,117.913-0.073
		c-15.264,23.812-13.279,32.005-34.435,28.615c4.714,4.414,11.609,6.327,17.926,4.9c23.32-5.111,40.561-39.837,121.056-73.884
		C774.235,1444.796,694.327,1468.807,678.858,1476.49z"/>
	<path d="M1476.49,971.671c19.41,45.783,15.777,103.678-2.75,140.946c-8.081,20.892-28.906,90.32-29.039,90.942
		c34.265-90.648,93.934-112.91,68.447-140.604c5.916,21.873-7.735,21.619-28.057,35.18c21.958-34.828,21.283-84.625-0.073-117.913
		c23.812,15.264,32.005,13.279,28.615,34.435c4.414-4.714,6.327-11.609,4.9-17.926c-5.111-23.32-39.837-40.561-73.884-121.056
		C1444.796,876.294,1468.807,956.202,1476.49,971.671z"/>
	<path d="M1476.49,678.858c19.41-45.783,15.777-103.678-2.75-140.946c-8.081-20.892-28.906-90.32-29.039-90.942
		c34.265,90.648,93.934,112.91,68.447,140.604c5.916-21.873-7.735-21.619-28.057-35.18c21.958,34.828,21.283,84.625-0.073,117.913
		c23.812-15.264,32.005-13.279,28.615-34.435c4.414,4.714,6.327,11.609,4.9,17.926c-5.111,23.32-39.837,40.561-73.884,121.056
		C1444.796,774.235,1468.807,694.327,1476.49,678.858z"/>
	<path d="M678.858,174.039c-45.783-19.41-103.678-15.777-140.946,2.75c-20.892,8.081-90.32,28.906-90.942,29.039
		c90.648-34.265,112.91-93.934,140.604-68.447c-21.873-5.916-21.619,7.735-35.18,28.057c34.828-21.958,84.625-21.283,117.913,0.073
		c-15.264-23.811-13.279-32.005-34.435-28.615c4.714-4.414,11.609-6.327,17.926-4.9c23.32,5.111,40.561,39.837,121.056,73.884
		C774.235,205.733,694.327,181.723,678.858,174.039z"/>
	<path d="M174.039,971.671c-19.41,45.783-15.777,103.678,2.75,140.946c8.081,20.892,28.906,90.32,29.039,90.942
		c-34.265-90.648-93.934-112.91-68.447-140.604c-5.916,21.873,7.735,21.619,28.057,35.18
		c-21.958-34.828-21.283-84.625,0.073-117.913c-23.811,15.264-32.005,13.279-28.615,34.435c-4.414-4.714-6.327-11.609-4.9-17.926
		c5.111-23.32,39.837-40.561,73.884-121.056C205.733,876.294,181.723,956.202,174.039,971.671z"/>
	<path d="M971.671,1476.49c45.783,19.41,103.678,15.777,140.946-2.75c20.892-8.081,90.32-28.906,90.942-29.039
		c-90.648,34.265-112.91,93.934-140.604,68.447c21.873,5.916,21.619-7.735,35.18-28.057c-34.828,21.958-84.625,21.283-117.913-0.073
		c15.264,23.812,13.279,32.005,34.435,28.615c-4.714,4.414-11.609,6.327-17.926,4.9c-23.32-5.111-40.561-39.837-121.056-73.884
		C876.294,1444.796,956.202,1468.807,971.671,1476.49z"/>
	<path d="M1372.606,277.923c-115.469-38.604-198.273-102.298-383.112-87.871c-43.998,3.38-87.396,13.025-129.016,27.602
		c-10.266,3.589-22.064,8.319-35.213,13.73c-13.15-5.411-24.947-10.141-35.213-13.73c-41.62-14.577-85.018-24.221-129.016-27.602
		c-184.838-14.427-267.643,49.267-383.112,87.871c-38.604,115.469-102.298,198.273-87.871,383.112
		c3.38,43.998,13.025,87.396,27.602,129.016c3.589,10.266,8.319,22.064,13.73,35.213c-5.411,13.15-10.141,24.947-13.73,35.213
		c-14.577,41.62-24.221,85.018-27.602,129.016c-14.427,184.838,49.267,267.643,87.871,383.112
		c115.469,38.604,198.273,102.298,383.112,87.871c43.998-3.38,87.396-13.025,129.016-27.602c10.266-3.589,22.064-8.319,35.213-13.73
		c13.15,5.411,24.947,10.141,35.213,13.73c41.62,14.577,85.018,24.221,129.016,27.602c184.838,14.427,267.643-49.267,383.112-87.871
		c38.604-115.469,102.298-198.273,87.871-383.112c-3.38-43.998-13.025-87.396-27.602-129.016
		c-3.589-10.266-8.319-22.064-13.73-35.213c5.411-13.15,10.141-24.947,13.73-35.213c14.577-41.62,24.221-85.018,27.602-129.016
		C1474.904,476.197,1411.21,393.393,1372.606,277.923z M825.265,254.272c33.869-13.835,67.601-26.488,105.273-34.406
		c67.454-15.018,155.142-13.929,217.011-0.082c74.931,15.623,133.003,49.408,208.366,74.83
		c25.422,75.363,59.208,133.435,74.83,208.366c13.848,61.87,14.936,149.557-0.082,217.011
		c-7.919,37.672-20.571,71.404-34.406,105.273c13.835,33.869,26.488,67.601,34.406,105.273
		c15.018,67.454,13.929,155.142,0.082,217.011c-15.623,74.931-49.408,133.003-74.83,208.366
		c-75.363,25.422-133.435,59.208-208.366,74.83c-61.87,13.848-149.557,14.936-217.011-0.082
		c-37.672-7.919-71.404-20.571-105.273-34.406c-33.869,13.835-67.601,26.488-105.273,34.406
		c-67.454,15.018-155.142,13.929-217.011,0.082c-74.931-15.623-133.003-49.408-208.366-74.83
		c-25.422-75.363-59.208-133.435-74.83-208.366c-13.848-61.87-14.936-149.557,0.082-217.011
		c7.919-37.672,20.571-71.404,34.406-105.273c-13.835-33.869-26.488-67.601-34.406-105.273
		c-15.018-67.454-13.929-155.142-0.082-217.011c15.623-74.931,49.408-133.003,74.83-208.366
		c75.363-25.422,133.435-59.208,208.366-74.83c61.87-13.848,149.557-14.936,217.011,0.082
		C757.663,227.784,791.395,240.437,825.265,254.272z"/>
</g>
</svg>
