<?xml version="1.0" encoding="utf-8"?>

<!DOCTYPE svg PUBLIC "-//W3C//DTD SVG 1.1//EN" "http://www.w3.org/Graphics/SVG/1.1/DTD/svg11.dtd">
<svg version="1.1" id="Layer_1" xmlns="http://www.w3.org/2000/svg" xmlns:xlink="http://www.w3.org/1999/xlink" x="0px" y="0px"
	 viewBox="0 0 1562.548 1660.931" enable-background="new 0 0 1562.548 1660.931" xml:space="preserve">
<g>
	<g>
		<path fill="none" d="M1455.187,1087.663c2.511,2.148,6.889,1.752,8.417-1.211c5.309-11.344-11.82-27.738-19.647-50.474
			c1.758,2.03,3.168,4.266,4.411,6.585c0.32-0.135,0.64-0.269,0.956-0.402c-4.867-4.594-8.208-16.189-9.583-22.733
			C1441.851,1039.156,1449.945,1084.634,1455.187,1087.663z"/>
		<path d="M1456.317,997.578c-10.96,3.718-10.884-10.94-1.299-10.94c10.281,0.006,13.589,15.811,2.834,22.153
			c-6.773,4.009-14.255,2.298-19.899-13.575c5.331,57.061,45.355,54.622,39.425,38.304c-0.857-2.584-3.042-4.538-5.566-5.624
			c13.589-22.526,37.356,12.108,14.041,26.956c-15.077,9.604-32.792-5.429-36.468-12.47c-0.033,0.29-0.099,0.876-0.132,1.168
			c25.905,33.115,49.468,2.301,64.362,21.084c-12.407-8.694-14.672,3.672-26.552,8.226c-7.911,3.038-15.573,0.782-22.437-4.251
			c6.839,9.689,7.694,26.223-1.863,30.721c8.534,22.603,21.704,15.106,19.385,8.167c-4.28,4.237-6.978,2.6-7.55-0.238
			c-1.443-7.625,9.465-11.568,13.252-3.768c1.979,4.07,0.776,8.607-1.909,12.301c-7.005,9.33-21.449-0.59-26.022-16.124
			c-0.355-0.139-1.069-0.42-1.424-0.559c2.802,13.028,29.918,56.232,56.601,41.359c14.728-8.469,16.158-31.07,0.101-31.028
			c5.278,6.579,1.057,14.825-5.07,17.635c-4.895,2.199-16.536-2.422-10.764-19.787c8.193-25.921,42.604-18.217,32.824,19.103
			c-5.87,20.367-19.465,34.658-43.05,32.704c2.131,15.182-9.129,29.844-21.275,30.289c-37.946,1.307-34.174-107.43-36.146-142.068
			c4.345,20.887,5.537,123.826,48.085,119.722c-9.859,8.765-18.701,0.049-25.953-9.973c17.102,29.372,34.653,13.466,29.892,0.579
			c-21.759-8.414-32.769-30.071-39.492-52.258c-11.821-38.708-28.541-158.974,3.144-225.022
			c18.53-38.967,48.945-38.104,61.065-19.278c10.714,16.574-2.217,32.804-13.819,24.476c-9.315-6.599-1.714-15.247,3.704-13.46
			c0.585,0.43,1.104,0.927,1.634,1.415c4.566-17.439-54.229-33.682-62.167,63.111
			C1431.335,1015.623,1454.956,1005.67,1456.317,997.578z M1439.74,1019.428c2.111,19.728,10.205,65.206,15.446,68.235
			c2.511,2.148,6.889,1.752,8.417-1.211c5.309-11.344-11.82-27.738-19.647-50.474c1.758,2.03,3.168,4.266,4.411,6.585
			c0.32-0.135,0.64-0.269,0.956-0.402C1444.456,1037.566,1441.115,1025.971,1439.74,1019.428z"/>
		<path d="M1367.421,1247.923c-18.418,8.09-56.167,28.809-73.259,37.33c21.156-7.01,111.797-57.317,127.597-18.104
			c3.233-12.74-9.697-16.972-22.834-17.42c32.643-1.579,32.851,21.349,16.855,25.682c-56.958-47.204-289.653,78.269-268.934,150.374
			c6.269,21.86,34.595,25.299,43.703,9.958c5.159-8.834-4.257-18.729-12.558-15.385c-3.633,1.203-5.072,6.243-2.983,9.611
			c0.579,1.075,1.831,1.177,2.827,1.535c-14.128,11.374-38.405-21.368-10.885-54.899c22.007-26.441,70.371-54.968,83.766-56.805
			c11.833-1.537,19.441,4.508,12.485,11.748c-0.421-5.244-3.782-6.549-6.65-5.559c-7.807,2.808-4.758,14.523,5.144,14.259
			c13.823-0.245,17.97-23.509,0.667-24.441c-3.523-0.431-6.86,0.367-10.196,0.844c49.32-21.585,65.997,6.641,56.488,13.572
			c-2.994,2.199-7.882,2.332-11.421-0.576c-10.133,21.343,20.606,25.834,28.719,6.013c7.566-17.941-10-32.39-30.927-33.063
			c-7.155-0.202-13.53,1.223-20.26,3.433c1.119-0.742,29.396-13.779,62.762-21.095c3.757-0.749,10.175,4.48,5.649,9.3
			c-7.64,7.904-18.845,3.686-51.777,6.997c-0.232,0.454,0.016,1.382,0.849,0.749c49.679,0.934,33.139,41.857,57.411,45.448
			c-8.775-4.787-7.596-7.597-6.088-17.801c2.299-12.717-3.056-21.473-14.27-26.359c16.556,0.661,26.192-9.66,25.284-17.034
			c23.65-4.117,24.082,11.307,16.696,12.768c1.394-2.33,0.93-5.956-2.074-6.684c-4.053-0.319-7.045,4.282-5.995,8.008
			c0.709,4.516,6.231,6.837,10.221,4.957c15.05-6.803,8.266-27.263-20.036-21.765c-0.279-0.216-0.833-0.645-1.112-0.861
			c20.758-4.543,55.845,0.356,63.08,21.963c5.947,18.615-15.435,37.862-25.845,21.916c6.818,0.875,10.841-3.086,12.485-8.815
			c2.659-10.116-9.608-16.659-20.617-5.665c-7.477,7.369-13.014,21.767-1.284,29.537c22.645,14.747,64.749-32.798,39.481-62.278
			c6.295-2.733,11.938-7.597,15.151-14.029C1444.408,1245.788,1429.583,1219.897,1367.421,1247.923z"/>
		<path d="M1499.625,892.887c-11.246,0.685-22.753-12.379-12.556-23.018c-10.384-4.878-20.464,13.22-6.048,24.49
			c18.094,13.741,43.732-0.27,38.378-26.389c5.087,4.845,14.158,2.674,12.321-6.139c-0.51-2.818-3.75-5.085-6.505-3.712
			c-4.047,1.506-2.376,9.86,2.875,4.787c0.949,4.826-5.793,7.707-11.472-2.004c-7.467-12.254-21.704-14.503-26.311-13.284
			C1520.893,849.242,1519.565,892.252,1499.625,892.887z"/>
		<path d="M1168.049,1422.229c5.336-13.453,16.889-10.364,22.702-5.331c19.011,16.423-19.287,47.908-40.642,18.828
			c9.254,18.724,26.859,15.79,31.179,17.397c5.354,2.285,5.114,6.503,1.511,7.982c1.196-9.467-10.097-1.274-3.928,2.975
			c6.581,4.675,16.867-7.7,4.034-13.081c29.775-10.203,21.078-44.314-1.754-47.775
			C1169.177,1401.381,1159.335,1414.181,1168.049,1422.229z"/>
		<path d="M1349.542,1255.276c41.925-25.974,76.136-21.008,71.866-40.474c-3.13,11.695-10.123,7.775-22.782,7.918
			c20.162-9.355,33.158-32.481,31.038-53.778c7.795,13.3,12.04,14.549,4.957,23.496c17.242-5.53-0.949-29.141-1.397-81.857
			C1423.229,1208.136,1426.705,1198.867,1349.542,1255.276z"/>
		<path d="M1171.776,1360.305c95.765-97.468,191.325-70.348,243.861-193.289c38.211-88.241-18.058-179.2,27.365-285.282
			c16.741-40.165,35.64-42.066,54.276-39.415c-7.075-3.874-15.297-8.233-22.352-11.853
			c-52.801,16.404-63.786,121.351-61.715,177.611c2.506,63.716,19.195,111.107-19.415,177.134
			c-55.913,96.633-153.192,77.182-239.688,177.463c-16.005,18.738-32.097,44.803-25.969,68.669
			c6.689,4.311,14.571,9.239,21.437,13.402c-5.078-6.077-11.374-13.686-10.855-26.705
			C1139.51,1397.648,1157.36,1374.689,1171.776,1360.305z"/>
		<path d="M1471.675,871.47c-0.674-1.946-3.239-3.197-5.289-2.214c-3.554,1.554-3.296,7.403,0.745,8.254
			C1470.688,878.267,1472.861,874.182,1471.675,871.47z"/>
		<path d="M1157.685,1405.834c2.999,6.121,12.24-1.612,6.385-5.394C1160.684,1398.151,1155.856,1401.945,1157.685,1405.834z"/>
		<path d="M1459.976,875.645c-3.453,0.955-3.506,6.273,0.074,7.222C1465.819,884.305,1465.647,874.041,1459.976,875.645z"/>
		<path d="M1165.254,1391.769c-2.897-1.927-6.884,1.365-5.393,4.623C1162.645,1402.028,1170.282,1394.734,1165.254,1391.769z"/>
		<path d="M1454.932,889.454c5.341,1.665,5.483-8.027,0.157-6.424C1452.026,883.872,1451.875,888.463,1454.932,889.454z"/>
		<path d="M1168.832,1384.345c-2.601-2.057-6.526,0.963-5.141,4.021C1165.862,1393.385,1173.174,1387.283,1168.832,1384.345z"/>
		<path d="M1454.497,891.63c-0.75-1.246-2.691-1.755-3.988-0.961c-2.389,1.3-1.949,5.366,1.033,5.874
			C1454.341,896.881,1455.801,893.61,1454.497,891.63z"/>
		<path d="M1168.279,1381.721c1.529,2.287,4.917,1.403,5.606-0.807c0.607-1.429-0.377-3.396-1.904-3.835
			C1169.477,1376.297,1166.755,1379.128,1168.279,1381.721z"/>
		<path d="M1448.535,903.926c4.902,0.477,3.545-7.874-0.877-5.519C1445.247,899.547,1445.578,903.523,1448.535,903.926z"/>
		<path d="M1176.332,1370.656c-2.22-0.393-4.178,2.347-2.687,4.437c1.313,2.005,4.215,1.288,4.931-0.559
			C1179.377,1373.027,1178.116,1370.722,1176.332,1370.656z"/>
		<path d="M1446.001,910.943c4.183,1.005,3.785-6.645-0.344-5.136C1443.138,906.521,1443.223,910.52,1446.001,910.943z"/>
		<path d="M1178.92,1369.193c1.136,1.683,3.545,1.314,4.427-0.083c0.947-1.17,0.396-3.441-1.236-3.905
			C1179.917,1364.404,1177.456,1366.947,1178.92,1369.193z"/>
		<path d="M1447.016,914.975c-0.492-2.436-4.408-2.183-4.532,0.686C1442.255,919.589,1448.393,918.321,1447.016,914.975z"/>
		<path d="M1184.453,1363.655c2.042,4.029,7.208-1.88,3.226-3.279C1185.742,1359.48,1183.481,1361.618,1184.453,1363.655z"/>
		<path d="M1442.358,920.562c-1.445,0.822-1.122,3.362,0.772,3.579c1.644,0.182,2.663-1.64,1.923-2.863
			C1444.687,920.337,1443.184,919.877,1442.358,920.562z"/>
		<path d="M1191.247,1356.21c-1.299,0.183-2.111,1.87-1.226,3.106c1.085,1.251,3.174,0.647,3.439-0.798
			C1193.904,1357.31,1192.448,1355.756,1191.247,1356.21z"/>
		<path d="M1441.818,929.848c1.43,0.421,2.411-1.184,1.884-2.269c-0.219-0.908-1.677-1.287-2.443-0.781
			C1440.033,927.432,1440.211,929.647,1441.818,929.848z"/>
		<path d="M1440.181,933.458c0.208,1.615,2.917,1.18,2.585-0.376C1442.796,931.253,1439.633,931.76,1440.181,933.458z"/>
		<path d="M1199.097,1350.068c-2.03,1.651,3.271,3.848,2.145-0.303C1200.521,1349.713,1199.591,1349.375,1199.097,1350.068z"/>
		<path d="M1195.961,1352.3c-1.13,0.126-1.958,1.644-1.067,2.718c0.867,1.237,2.712,0.606,2.938-0.648
			C1198.255,1353.309,1196.999,1352.075,1195.961,1352.3z"/>
		<path d="M1474.926,830.466c7.053,3.619,15.276,7.978,22.352,11.853C1492.255,837.142,1482.858,830.54,1474.926,830.466z"/>
		<path d="M1149.576,1444.745c-6.866-4.164-14.749-9.092-21.437-13.402C1134.097,1438.328,1143.344,1443.197,1149.576,1444.745z"/>
	</g>
	<g>
		<path fill="none" d="M895.488,1542.612c-0.607,3.254,1.92,6.84,5.247,6.67c12.764-1.279,18.15-24.174,33.935-42.23
			c-0.89,2.505-2.115,4.882-3.505,7.118c0.276,0.209,0.552,0.417,0.825,0.624c1.512-6.391,10.021-15.236,14.918-19.659
			C929.958,1507.665,895.496,1536.534,895.488,1542.612z"/>
		<path d="M974.129,1498.655c-8.693-7.618,4.038-14.938,8.815-6.647c3.575,6.225-1.412,14.269-9.351,15.261
			c-7.773,0.813-23.506-6.199-6.574-25.694c-33.194,22.768-32.436,48.556-22.989,55.036c5.743,3.925,12.384-2.214,11.54-9.46
			c17.244,0.687,15.399,17.413,5.196,24.477c-9.66,6.675-23.965,3.777-29.903-6.94c-5.839-10.551-1.428-25.945,0.966-29.728
			c-0.267,0.118-0.808,0.357-1.076,0.475c-15.735,39.09,22.667,43.962,13.842,66.301c0.986-11.187-4.365-11.166-13.538-15.026
			c-10.425-4.083-15.785-12.61-14.349-25.441c-4.927,10.689-19.033,19.835-27.555,13.689c-15.313,18.751-2.25,26.372,2.6,20.875
			c-11.485-3.11-0.031-12.549,5.765-5.994c4.898,4.805,0.364,14.584-11.054,13.447c-11.572-1.368-10.193-18.848,0.977-30.618
			c-0.056-0.377-0.17-1.136-0.226-1.513c-2.254,2.03-23.53,29.255-18.743,54.475c8.827,29.934,48.895,18.466,38.096-0.152
			c-4.494,11.685-24.273,7.189-20.221-5.147c5.039-15.432,46.593-14.326,36.922,12.135c-9.238,19.208-56.209,30.405-72.706-4.789
			c-17.177,13.687-53.411,3.304-32.998-29.561c15.97-25.475,55.071-46.817,101.181-75.966
			c-22.169,18.435-104.097,67.209-79.721,101.398c-12.524-4.152-9.371-16.194-4.329-27.461
			c-16.943,29.612,5.71,36.683,14.429,26.192c-2.844-18.308,4.946-35.019,16.335-49.635c29.94-38.02,122.688-104.53,187.225-117.548
			c69.419-13.531,78.158,28.229,61.738,46.367c-10.181,10.922-25.321,6.677-24.131-5.549c1.141-11.38,12.359-9.059,13.514-3.504
			c-0.08,0.722-0.25,1.42-0.407,2.124c17.382-4.753,2.766-67.17-94.656-17.852c-31.376,15.668-37.256,22.172-41.172,29.601
			C962.486,1495.725,969.003,1500.664,974.129,1498.655z M946.908,1495.134c-16.892,12.488-51.412,41.397-51.42,47.478
			c-1.002,5.368,6.944,15.087,21.004-8.087c5.818-9.644,10.761-18.99,18.178-27.474c-0.89,2.505-2.115,4.882-3.505,7.118
			c0.276,0.209,0.552,0.417,0.825,0.624C933.503,1508.401,942.011,1499.557,946.908,1495.134z"/>
		<path d="M643.756,1502.194c15.861,13.827,105.258,68.087,79.656,101.276c12.615-3.879,9.892-16.897,3.616-28.517
			c17.666,26.893-1.828,39.371-13.757,27.455c11.91-70.969-211.237-212.911-264.739-157.587
			c-10.055,10.346-9.512,25.379-1.821,35.07c6.857,8.826,21.242,11.436,24.992,0.584c4.748-13.745-14.746-17.467-12.668-5.969
			c-18.212-6.806-0.511-78.564,123.012-1.821c17.604,11.083,18.883,29.328,6.175,25.862c8.533-5.809-1.892-14.31-7.764-7.877
			c-2.822,3.279-2.614,7.522-0.514,10.909c7.583,12.162,29.206,3.388,21.485-11.661c-1.393-3.25-3.762-5.698-5.844-8.34
			c17.14,12.491,34.732,31.025,26.329,50.599c-4.566,11.204-16.523,3.957-15.023-5.124c-20.603,1.787-14.359,24.17,1.944,27.618
			c26.335,5.575,38.254-32.055,7.25-58.905c2.13,1.024,22.612,16.662,37.328,31.001c4.071,4.005,7.657,7.444,12.359,12.727
			c3.434,3.954-0.193,17.053-13.43,4.2c-4.013-3.895-7.233-10.891-11.108-17.373c-0.632-1.054-3.982-6.603-12.68-18.545
			c-0.51,0.032-1.19,0.716-0.223,1.11c24.294,43.322-19.687,49.627-10.554,72.402c-0.258-10.034,2.816-10.399,12.338-14.092
			c12.194-4.551,17.058-13.435,15.675-25.648c7.531,14.424,21.503,17.991,27.408,13.38c15.541,18.089,2.339,26.481-2.669,20.843
			c2.721,0.002,5.63-2.251,4.75-5.198c-1.758-3.659-7.262-3.796-9.948-1.09c-10.512,8.417,11.451,21.817,17.586,8.49
			c2.693-5.771,1.098-15.33-7.962-25.454c0.047-0.35,0.14-1.044,0.187-1.394c7.002,7.42,13.711,20.33,16.757,30.1
			c16.935,54.329-49.133,50.168-36.043,24.121c2.638,6.327,7.815,7.896,13.901,6.338c13.977-3.724,5.869-24.499-16.849-21.405
			c-17.012,2.263-20.064,20.322-5.865,31.235c17.946,13.78,55.093,13.55,64.756-13.861c11.632,8.657,28.018,8.073,35.572-1.369
			c4.755-5.947,6.231-16.17-3.645-30.317C727.569,1552.598,696.74,1536.181,643.756,1502.194z"/>
		<path d="M1100.103,1461.528c-0.718-8.456-12.383-10.64-19.524-3.31c-17.277,17.736,10.204,54.358,37.334,30.365
			c-1.663,6.812,4.763,13.602,11.481,7.6c2.187-1.851,2.531-5.79-0.038-7.49c-3.329-2.752-9.731,2.873-2.71,4.884
			c-3.707,3.236-9.574-1.163-4.001-10.937c6.912-12.676,1.634-26.117-1.666-29.438c10.319,20.3-7.98,37.031-22.798,36.913
			C1077.521,1489.623,1080.384,1456.667,1100.103,1461.528z"/>
		<path d="M462.19,1461.414c28.147-4.203,17.19,46.107-13.478,23.312c-8.439-6.292-13.252-18.35-7.152-32.157
			c-11.627,17.399-0.237,31.259,0.463,35.696c0.653,5.849-3.077,7.653-6.159,5.274c8.819-3.71-3.949-9.353-4.55-1.9
			c-0.775,7.944,15.107,10.865,13.336-2.99c24.082,20.827,48.838-4.255,40.555-25.379
			C480.732,1451.854,464.802,1449.921,462.19,1461.414z"/>
		<path d="M697.461,1534.977c45.216,24.934,56.38,55.122,71.047,41.901c-11.746,3.023-11.482-4.306-18.265-15.752
			c18.329,12.94,44.907,12.294,62.083-0.04c-7.599,13.367-6.572,17.704-17.858,16.05c13.435,12.286,23.614-14.276,70.192-42.138
			C780.019,1573.218,787.775,1575.476,697.461,1534.977z"/>
		<path d="M504.443,1430.72c136.907,25.859,163.201,133.599,302.534,117.254c56.02-6.467,81.002-31.081,145.61-73.376
			c53.365-33.682,153.019-76.247,176.472-18.003c-0.175-7.631-0.495-16.745-0.948-25.3c-40.777-37.352-137.544,5.464-184.593,35.218
			c-54.229,34.248-86.808,71.917-163.233,71.683c-68.822-0.329-101.839-31.724-152.581-66.074
			c-58.797-39.451-155.876-77.112-193.296-40.779c-0.448,8.585-0.759,17.683-0.927,25.248
			C440.558,1437.368,455.306,1421.11,504.443,1430.72z"/>
		<path d="M1091.024,1448.997c1.347-1.557,1.147-4.405-0.729-5.689c-3.121-2.3-8.05,0.851-6.767,4.777
			C1084.65,1451.545,1089.27,1451.382,1091.024,1448.997z"/>
		<path d="M471.236,1444.255c-3.811,5.651,7.526,9.751,7.879,2.801C479.408,1442.987,473.697,1440.727,471.236,1444.255z"/>
		<path d="M1081.566,1440.954c-2.557-2.525-7.164,0.13-6.222,3.652C1076.998,1450.366,1085.786,1445.063,1081.566,1440.954z"/>
		<path d="M487.191,1443.814c0.218-3.452-4.536-5.401-6.669-2.419C477.052,1446.578,487.15,1449.672,487.191,1443.814z"/>
		<path d="M1067.092,1443.476c1.228,5.461,9.678,0.723,5.632-3.085C1070.466,1438.16,1066.422,1440.331,1067.092,1443.476z"/>
		<path d="M495.426,1443.172c0.484-3.276-4.102-5.142-6.063-2.414C486.092,1445.151,495.05,1448.384,495.426,1443.172z"/>
		<path d="M1064.993,1444.19c0.703-1.274,0.173-3.211-1.161-3.936c-2.317-1.417-5.613,1.003-4.562,3.84
			C1060.376,1446.689,1063.932,1446.312,1064.993,1444.19z"/>
		<path d="M497.427,1441.378c-1.227,2.482,1.26,4.906,3.489,4.464c1.53-0.163,2.741-1.991,2.368-3.551
			C502.741,1439.673,498.915,1438.763,497.427,1441.378z"/>
		<path d="M1051.367,1445.151c2.011,4.431,8.574-0.813,4.34-3.517C1053.504,1440.088,1050.242,1442.394,1051.367,1445.151z"/>
		<path d="M511.017,1442.853c-0.77-2.111-4.127-2.42-5.195-0.086c-1.083,2.139,0.992,4.279,2.952,3.968
			C510.484,1446.669,511.853,1444.424,511.017,1442.853z"/>
		<path d="M1044.037,1446.482c1.217,4.123,7.638-0.056,4.268-2.879C1046.429,1441.781,1043.015,1443.864,1044.037,1446.482z"/>
		<path d="M513.582,1444.348c-2.094,4.284,6.144,5.311,5.044,0.777C518.25,1442.769,514.793,1441.971,513.582,1444.348z"/>
		<path d="M1036.887,1448.205c0.854,4.42,7.299,0.383,4.047-2.116C1039.323,1444.602,1036.541,1445.948,1036.887,1448.205z"/>
		<path d="M521.114,1446.43c-2.473,3.783,5.239,5.263,4.46,1.128C525.382,1445.439,522.396,1444.567,521.114,1446.43z"/>
		<path d="M1033.878,1448.101c-1.431-0.838-3.465,0.72-2.708,2.469c0.663,1.515,2.746,1.481,3.434,0.225
			C1035.235,1450.005,1034.883,1448.472,1033.878,1448.101z"/>
		<path d="M530.975,1448.535c-0.808-1.027-2.679-0.877-3.308,0.507c-0.542,1.564,1.028,3.059,2.414,2.56
			C531.35,1451.377,531.969,1449.341,530.975,1448.535z"/>
		<path d="M1025.577,1452.291c0.352,1.456,2.236,1.516,2.907,0.505c0.676-0.646,0.276-2.1-0.544-2.509
			C1026.781,1449.548,1024.955,1450.813,1025.577,1452.291z"/>
		<path d="M1021.616,1452.63c-1.292,0.995,0.435,3.12,1.614,2.049C1024.834,1453.802,1022.809,1451.297,1021.616,1452.63z"/>
		<path d="M540.19,1452.307c-2.448-0.915-1.702,4.757,1.336,1.694C541.211,1453.354,541.038,1452.383,540.19,1452.307z"/>
		<path d="M536.686,1450.727c-0.665-0.933-2.381-0.921-2.868,0.388c-0.638,1.368,0.814,2.683,2.007,2.269
			C536.957,1453.213,537.397,1451.517,536.686,1450.727z"/>
		<path d="M1128.112,1431.294c0.452,8.552,0.773,17.683,0.948,25.3C1130.151,1452.757,1132.8,1439.594,1128.112,1431.294z"/>
		<path d="M433.482,1456.591c0.164-7.377,0.473-16.556,0.927-25.248C431.286,1440.052,431.713,1450.467,433.482,1456.591z"/>
	</g>
	<g>
		<path fill="none" d="M221.692,1285.377c-3.109,1.098-4.962,5.098-3.175,7.915c7.472,10.221,29.837,3.628,53.605,8.162
			c-2.626,0.495-5.311,0.637-7.957,0.568c-0.04,0.342-0.081,0.684-0.121,1.021c6.492-1.959,18.093,1.015,24.513,3.057
			C281.509,1303.187,228.29,1281.562,221.692,1285.377z"/>
		<path d="M299.157,1331.432c0.275-1.354,0.323-2.897,1.446-3.931c1.713-2.033,4.816-2.355,6.739-0.984
			c6.894,4.779,1.165,15.403-8.404,13.512c-12.773-2.228-18.564-29.119,11.472-23.327c-51.469-24.254-70.231,12.027-52.924,14.971
			c2.691,0.526,5.491-0.402,7.699-2.047c10.12,18.542-16.294,25.85-26.914,9.392c-12.557-19.459,9.88-36.445,25.546-36.028
			c-0.239-0.17-0.721-0.514-0.96-0.685c-41.506,5.828-26.76,41.633-50.445,45.205c10.087-4.709,7.536-9.276,6.287-19.3
			c-1.804-10.965,2.991-19.968,14.764-25.117c-11.42,1.026-26.51-6.182-25.628-17.004c-24.121-3.591-23.919,11.327-16.76,12.725
			c-3.18-11.428,10.933-6.309,8.099,1.962c-1.81,6.957-12.78,7.227-17.222-2.778c-4.347-10.341,10.178-18.299,26.991-14.526
			c0.298-0.238,0.898-0.717,1.196-0.955c-2.576-0.721-21.722-3.478-39.602,2.032c-49.306,15.294-11.245,65.563,2.315,41.954
			c-4.455,0.683-7.784-1.186-9.933-3.932c-7.7-9.837,1.118-19.661,11.254-15.259c17.228,7.215,21.64,33.521,1.037,37.106
			c-21.127,1.537-54.69-33.181-32.362-65.244c-14.879-6.049-21.028-23.502-15.643-33.531
			c17.723-33.327,108.75,22.982,141.194,39.552c-22.396-7.661-110.342-56.915-127.737-18.097
			c-2.896-12.56,8.864-16.123,21.552-17.499c-34.293,0.278-28.717,23.327-15.411,25.62c35.717-28.859,109.324,3.943,152.772,25.953
			c156.697,77.736,124.705,152.762,84.561,143.24c-20.346-4.767-15.339-27.171-1.117-24.596c5.976,1.063,6.651,8.235,3.659,10.898
			c-0.667,0.292-1.358,0.495-2.048,0.712c7.954,7.823,24.227-3.99,23.313-24.862c-1.545-34.739-48.002-62.522-78.078-79.813
			C302.636,1310.813,291.268,1324.771,299.157,1331.432z M288.557,1306.1c-7.048-2.914-60.267-24.538-66.864-20.723
			c-3.109,1.098-4.962,5.098-3.175,7.915c7.472,10.221,29.837,3.628,53.605,8.162c-2.626,0.495-5.311,0.637-7.957,0.568
			c-0.04,0.342-0.081,0.684-0.121,1.021C270.536,1301.085,282.137,1304.059,288.557,1306.1z"/>
		<path d="M127.153,1122.723c0.799-9.237,0.893-14.508,1.294-20.89c0.466-8.673,1.919-48.694,2.325-54.534
			c-4.236,20.063-5.846,125.283-48.012,119.605c9.649,8.963,19.548,0.192,26.511-11.118c-14.478,28.809-35.016,18.027-30.65,1.792
			c67.955-25.331,77.456-289.859,4.379-308.121c-22.05-5.525-39.161,17.218-30.473,32.821c4.784,8.815,18.208,5.832,19.619-3.147
			c0.757-3.745-2.908-7.517-6.871-7.399c-1.221-0.038-1.931,0.994-2.735,1.675c-2.814-16.653,32.324-22.282,49.922,11.222
			c10.669,20.758,13.26,57.267,13.197,80.153c0.226,13.159,0.068,20.437-3.002,27.65c-4.692,11.023-13.744,14.595-16.429,4.925
			c4.717,2.268,7.544,0.009,8.151-2.974c1.609-7.947-10.281-11.485-14.953-2.677c-6.656,12.443,11.577,27.176,20.827,12.803
			c2.004-2.681,3.121-6.197,4.37-9.24c-2.821,21.227-9.214,45.565-30.772,48.079c-11.862,1.612-11.693-12.387-3.071-15.572
			c-5.863-8.589-12.5-8.917-17.581-4.581c-12.713,10.779-5.071,31.075,10.277,34.277c13.746,2.857,33.951-10.154,39.015-37.34
			c0.169,3.676-3.776,32.247-9.694,53.46c-2.142,7.72-3.525,17.014-10.832,15.222c-3.167-0.777-3.959-4.304-3.848-7.569
			c0.416-11.451,6.779-13.95,20.173-44.31c-0.274-0.429-1.197-0.679-1.073,0.361c-25.256,42.649-52.857,7.69-67.983,26.97
			c12.741-7.787,13.813,3.374,25.889,8.314c8.002,3.268,15.574,1.255,22.534-3.869c-8.828,13.975-4.734,27.552,2.058,30.44
			c-7.847,22.47-21.754,15.238-19.391,8.091c1.367,2.355,4.781,3.747,6.89,1.516c2.218-3.261-0.239-8.224-3.986-9.18
			c-7.915-3.072-13.114,9.022-6.658,16.392c6.041,6.789,19.719,3.079,26.114-16.501c0.327-0.134,0.975-0.4,1.301-0.534
			c-7.025,23.615-34.745,54.425-57.012,41.149c-13.893-8.386-16.083-29.912,0.431-30.812c-1.507,1.975-4.006,4.791-1.711,10.56
			c7.597,18.443,29.98,0.794,13.272-20.627c-14.026-17.722-37.4-1.601-28.395,28.201c5.917,19.581,22.157,35.368,42.769,31.519
			c-0.839,7.195,0.659,14.104,4.603,20.14C89.985,1197.395,120.455,1198.533,127.153,1122.723z"/>
		<path d="M381.594,1412.639c5.596-0.35,10.69,2.679,12.678,9.428c4.777-3.32,4.365-9.474,0.747-13.812
			c-11.103-12.978-35.083,0.153-34.484,19.355c0.277,9.861,6.663,19.213,19.172,23.371c-5.054,1.501-7.822,6.833-5.297,10.698
			c3.066,4.759,10.584,4.174,10.884-0.692c0.719-4.247-7.365-6.965-5.597,0.106c-3.401-1.115-3.913-5.624,0.932-7.753
			c1.579-0.687,3.74-1.139,6.559-1.174c14.774-0.38,23.521-11.905,24.701-16.135c-4.123,6.32-9.464,9.735-15.104,10.978
			c-5.141,1.136-10.744,0.637-16.597-2.062C358.842,1435.205,365.442,1413.593,381.594,1412.639z"/>
		<path d="M75.45,869.592c14.595,18.338-18.724,35.782-25.994,10.753c-4.396-14.774,4.313-30.99,23.331-33.051
			c-20.902-1.365-27,15.29-30.667,18.257c-4.739,3.489-8.167,1.162-7.647-2.695c7.623,5.778,6.126-8.093-0.629-4.888
			c-7.257,3.296-1.877,18.51,9.256,10.049c-7.127,36.503,39.532,40.083,45.216,16.534C90.343,876.527,84.993,866.638,75.45,869.592z
			"/>
		<path d="M129.127,1110.201c1.503,49.876-19.813,76.393-0.764,82.478c-8.507-8.674-2.014-12.119,4.496-23.699
			c-2.024,22.144,11.619,44.886,31.108,53.738c-14.692,0.1-18.763,3.192-22.837-7.416c-4.119,17.911,25.053,13.126,71.639,39.618
			C138.045,1200.404,139.765,1211.437,129.127,1110.201z"/>
		<path d="M130.458,917.157c22.859,98.176-11.082,148.911,7.135,222.336c38.594,155.981,196.07,127.723,273.682,245.844
			c18.807,28.302,14.133,43.573,1.691,59.404c6.84-4.155,14.742-9.102,21.471-13.446c12.224-53.849-73.588-116.596-122.771-142.484
			c-39.196-20.654-78.592-32.692-108.954-60.994c-26.769-24.152-47.81-61.865-54.948-94.817
			c-13.951-63.847,13.546-116.56-4.251-209.283c-6.708-34.612-22.229-83.807-55.945-93.251c-7.094,3.647-15.302,8.009-22.297,11.846
			c4.597-0.796,10.82-1.964,17.745-0.495C110.953,847.678,124.066,890.337,130.458,917.157z"/>
		<path d="M400.6,1407.96c2.028,0.382,4.401-1.216,4.575-3.477c0.432-3.844-4.777-6.518-7.543-3.446
			C395.19,1403.738,397.649,1407.642,400.6,1407.96z"/>
		<path d="M94.833,868.848c-6.805-0.476-4.668,11.397,1.522,8.229C100.023,875.297,99.12,869.216,94.833,868.848z"/>
		<path d="M402.839,1395.775c0.878-3.422-3.628-6.232-6.239-3.62C392.448,1396.433,401.37,1401.545,402.839,1395.775z"/>
		<path d="M103.186,882.46c3.138-1.54,2.414-6.635-1.226-6.993C95.757,875.053,98.094,885.304,103.186,882.46z"/>
		<path d="M393.437,1384.472c-4.122,3.79,4.232,8.713,5.508,3.313C399.749,1384.72,395.832,1382.32,393.437,1384.472z"/>
		<path d="M107.864,889.276c3.077-1.218,2.39-6.126-0.954-6.461C101.465,882.176,103.168,891.554,107.864,889.276z"/>
		<path d="M391.763,1383.019c1.46-0.032,2.876-1.458,2.835-2.973c0.071-2.635-3.641-4.413-5.582-2.075
			C387.322,1380.219,389.369,1383.193,391.763,1383.019z"/>
		<path d="M110.42,890.114c-2.764,0.177-3.613,3.545-2.111,5.256c0.909,1.245,3.098,1.381,4.261,0.278
			C114.563,893.868,113.429,890.097,110.42,890.114z"/>
		<path d="M384.138,1371.666c-2.838,3.954,5.018,6.987,5.237,1.981C389.61,1370.974,385.966,1369.316,384.138,1371.666z"/>
		<path d="M115.918,902.636c1.432-1.72,0.022-4.786-2.508-4.548c-2.411,0.132-3.244,3.001-1.977,4.544
			C112.349,904.08,114.98,904.145,115.918,902.636z"/>
		<path d="M380.644,1370.148c2.934,0.996,4.859-3.276,1.874-4.787C379.058,1363.587,376.898,1369.273,380.644,1370.148z"/>
		<path d="M115.914,905.605c-4.765,0.325-1.503,7.974,1.864,4.76C119.627,908.863,118.579,905.468,115.914,905.605z"/>
		<path d="M374.264,1360.626c-3.41,2.951,3.343,6.483,3.876,2.428C378.619,1360.921,376.049,1359.197,374.264,1360.626z"/>
		<path d="M117.9,913.173c-2.261-0.132-3.247,2.705-1.92,4.052c0.651,0.889,2.208,1.171,3.122,0.384
			C120.811,916.388,120.132,913.357,117.9,913.173z"/>
		<path d="M372.838,1357.98c0.007-1.654-2.371-2.627-3.508-1.098c-0.981,1.33,0.097,3.109,1.535,3.073
			C371.868,1360.103,373.023,1359.031,372.838,1357.98z"/>
		<path d="M120.976,922.776c0.481-1.213-0.591-2.758-2.104-2.612c-1.626,0.311-2.128,2.418-0.999,3.369
			C118.707,924.52,120.779,924.04,120.976,922.776z"/>
		<path d="M365.088,1352.834c-1.08,1.023-0.198,2.698,0.996,2.797c0.888,0.277,1.946-0.792,1.898-1.717
			C368.055,1352.526,366.069,1351.544,365.088,1352.834z"/>
		<path d="M362.796,1349.591c-1.515-0.615-2.49,1.938-0.965,2.418C363.401,1352.951,364.556,1349.951,362.796,1349.591z"/>
		<path d="M122.273,932.655c-0.432-2.573-4.973,0.898-0.791,2.003C121.882,934.061,122.634,933.428,122.273,932.655z"/>
		<path d="M121.955,928.818c0.472-1.042-0.403-2.523-1.779-2.291c-1.504,0.13-1.91,2.045-0.952,2.871
			C119.915,930.298,121.615,929.831,121.955,928.818z"/>
		<path d="M434.436,1431.294c-6.728,4.344-14.63,9.291-21.471,13.446C419.945,1442.978,430.391,1438.138,434.436,1431.294z"/>
		<path d="M65.27,842.311c6.99-3.834,15.198-8.196,22.297-11.846C77.777,832.266,69.091,838.341,65.27,842.311z"/>
	</g>
	<g>
		<path fill="none" d="M107.361,573.268c-2.511-2.148-6.889-1.752-8.417,1.211c-5.309,11.344,11.819,27.736,19.647,50.474
			c-1.758-2.031-3.168-4.266-4.411-6.585c-0.32,0.135-0.64,0.269-0.956,0.402c4.857,4.586,8.199,16.151,9.583,22.733
			C120.701,621.824,112.592,576.292,107.361,573.268z"/>
		<path d="M106.23,663.353c10.96-3.718,10.884,10.94,1.299,10.94c-10.257-0.006-13.61-15.799-2.834-22.153
			c6.498-3.846,14.154-2.581,19.899,13.575c-1.633-17.483-7.513-38.56-23.183-46.273c-16.937-8.357-22.13,8.663-10.675,13.593
			c-12.005,19.901-34.176-5.348-18.41-23.278c13.854-15.154,35.465-1.499,40.837,8.792c0.033-0.29,0.099-0.876,0.132-1.168
			c-25.905-33.116-49.468-2.301-64.362-21.084c9.169,6.425,11.901,1.803,19.795-4.23c8.204-6.818,18.511-7.578,29.194,0.255
			c-6.727-9.532-7.81-26.168,1.863-30.721c-8.534-22.602-21.705-15.107-19.385-8.167c4.28-4.237,6.978-2.6,7.55,0.238
			c1.442,7.625-9.465,11.568-13.252,3.768c-1.982-4.076-0.771-8.613,1.909-12.301c7.006-9.33,21.449,0.59,26.022,16.124
			c0.355,0.139,1.069,0.42,1.424,0.559c-2.746-12.767-29.806-56.295-56.601-41.359c-14.708,8.457-16.174,31.07-0.101,31.028
			c-5.281-6.582-1.054-14.826,5.07-17.634c4.896-2.199,16.537,2.423,10.764,19.787C54.992,579.56,20.582,571.85,30.36,534.54
			c2.708-9.396,8.082-19.143,15.884-25.535c9.935-8.308,19.203-7.828,27.166-7.169c-2.131-15.187,9.127-29.844,21.275-30.289
			c37.801-1.302,34.29,109.464,36.146,142.068c-3.92-18.842-5.795-123.802-48.085-119.722c9.858-8.765,18.701-0.049,25.953,9.973
			c-17.102-29.372-34.653-13.467-29.892-0.579c31.292,12.101,41.816,53.149,47.141,86.549
			c32.967,197.601-44.805,252.029-71.859,210.008c-10.729-16.598,2.232-32.793,13.819-24.476c9.314,6.598,1.715,15.247-3.704,13.46
			c-0.585-0.43-1.104-0.927-1.634-1.414c-4.866,18.584,68.385,39.992,63.057-104.004
			C124.614,657.057,107.983,652.935,106.23,663.353z M122.807,641.504c-2.109-19.71-10.203-65.205-15.446-68.235
			c-2.511-2.148-6.889-1.752-8.417,1.211c-5.311,11.348,11.821,27.741,19.647,50.474c-1.758-2.031-3.168-4.266-4.411-6.585
			c-0.32,0.135-0.64,0.269-0.956,0.402C118.082,623.357,121.424,634.922,122.807,641.504z"/>
		<path d="M268.385,375.678c-21.298,7.057-111.721,57.507-127.598,18.103c-3.232,12.74,9.697,16.972,22.834,17.42
			c-32.343,1.564-33.02-21.304-16.855-25.682c25.458,21.099,72.683,7.849,103.868-3.896
			c151.981-57.921,190.434-139.775,153.26-162.003c-11.439-6.84-26.014-4.341-31.897,5.567c-5.159,8.834,4.257,18.729,12.558,15.384
			c3.633-1.202,5.072-6.243,2.983-9.611c-0.579-1.075-1.831-1.177-2.827-1.535c15.103-12.159,68.003,38.342-59.849,107.564
			c-18.412,9.487-34.753,2.003-25.517-7.609c0.421,5.244,3.782,6.549,6.65,5.559c7.797-2.804,4.765-14.524-5.144-14.259
			c-13.823,0.245-17.97,23.509-0.667,24.441c3.523,0.431,6.86-0.367,10.196-0.844c-49.834,21.809-65.725-6.839-56.488-13.572
			c2.994-2.199,7.882-2.332,11.421,0.576c10.133-21.344-20.606-25.832-28.719-6.013c-8.587,20.364,16.382,41.061,51.186,29.629
			c-2.108,1.397-27.535,12.179-51.149,18.36c-8.318,2.193-16.585,5.201-18.636-1.812c-1.419-4.884,5.27-7.789,10.173-9.138
			c7.422-2.139,18.32-0.092,28.124-1.379c3.806-0.063,6.479-0.391,14.854-1.233c0.232-0.454-0.015-1.382-0.849-0.749
			c-50.057-0.941-32.896-41.821-57.411-45.448c4.414,2.408,6.31,4.323,6.9,6.884c1.849,7.775-9.508,27.269,13.459,37.276
			c-16.556-0.661-26.192,9.66-25.285,17.033c-23.642,4.117-24.089-11.306-16.696-12.767c-1.394,2.33-0.93,5.956,2.074,6.684
			c4.053,0.319,7.045-4.282,5.995-8.008c-0.709-4.516-6.231-6.837-10.221-4.957c-15.09,6.821-8.222,27.255,20.036,21.765
			c0.279,0.216,0.833,0.645,1.112,0.861c-17.133,3.75-55.156,1.702-63.08-21.963c-5.947-18.615,15.436-37.861,25.845-21.916
			c-6.818-0.875-10.841,3.086-12.485,8.815c-2.653,10.092,9.585,16.681,20.618,5.665c7.565-7.456,12.954-21.806,1.284-29.537
			c-22.476-14.638-64.836,32.697-39.481,62.278c-20.937,9.091-25.69,37.318-2.255,42.78
			C171.388,431.509,218.718,400.44,268.385,375.678z"/>
		<path d="M75.479,791.062c7.613,3.576,15.464-5.33,12.615-15.264c-6.674-23.822-52.222-18.339-44.945,17.163
			c-5.087-4.845-14.158-2.674-12.321,6.139c0.51,2.818,3.75,5.085,6.505,3.712c4.048-1.506,2.376-9.86-2.875-4.787
			c-0.95-4.826,5.793-7.707,11.472,2.004c7.467,12.254,21.704,14.503,26.311,13.284c-22.293-1.183-28.336-24.9-20.554-38.205
			C62.246,757.499,89.622,776.305,75.479,791.062z"/>
		<path d="M394.498,238.703c-5.362,13.52-16.964,10.299-22.702,5.331c-19.028-16.437,19.307-47.881,40.642-18.828
			c-9.254-18.724-26.861-15.791-31.179-17.397c-5.354-2.285-5.114-6.503-1.511-7.982c-1.196,9.467,10.097,1.274,3.928-2.975
			c-6.581-4.675-16.866,7.7-4.034,13.082c-29.86,10.233-21.018,44.323,1.754,47.775C393.37,259.55,403.213,246.751,394.498,238.703z
			"/>
		<path d="M213.006,405.656c-41.985,26.012-76.138,20.998-71.866,40.474c3.13-11.693,10.116-7.775,22.782-7.918
			c-19.969,9.265-33.181,32.247-31.038,53.778c-7.797-13.302-12.04-14.549-4.957-23.496c-17.739,5.69,0.923,26.097,1.397,81.857
			C139.226,454.381,133.447,463.791,213.006,405.656z"/>
		<path d="M296.328,367.202c-51.274,24.693-110.419,41.587-147.054,121.307c-20.5,45.857-18.66,76.955-14.247,126.383
			c4.748,54.498,8.677,127.013-23.062,179.475c-14.412,24.185-28.497,26.834-46.695,24.245c7.008,3.837,15.236,8.202,22.352,11.853
			c52.795-16.403,63.788-121.295,61.715-177.611c-1.798-45.71-10.964-84.02-1.601-124.762
			c23.721-109.52,122.047-131.927,176.905-163.078c44.852-25.633,122.492-85.875,109.767-135.426
			c-6.715-4.328-14.605-9.26-21.436-13.402C454.58,265.973,353.686,339.795,296.328,367.202z"/>
		<path d="M90.873,789.462c0.674,1.946,3.239,3.197,5.289,2.214c3.554-1.554,3.296-7.403-0.745-8.254
			C91.86,782.664,89.687,786.749,90.873,789.462z"/>
		<path d="M404.863,255.097c-2.998-6.121-12.24,1.612-6.385,5.394C401.863,262.781,406.692,258.987,404.863,255.097z"/>
		<path d="M102.572,785.287c3.453-0.955,3.506-6.273-0.074-7.222C96.729,776.626,96.901,786.89,102.572,785.287z"/>
		<path d="M397.294,269.162c2.9,1.928,6.882-1.368,5.393-4.623C399.903,258.904,392.264,266.197,397.294,269.162z"/>
		<path d="M107.615,771.477c-5.341-1.665-5.483,8.027-0.157,6.424C110.522,777.059,110.673,772.469,107.615,771.477z"/>
		<path d="M393.716,276.586c2.601,2.057,6.526-0.963,5.141-4.021C396.686,267.547,389.374,273.648,393.716,276.586z"/>
		<path d="M108.051,769.301c0.75,1.246,2.691,1.755,3.988,0.961c2.389-1.3,1.949-5.366-1.033-5.874
			C108.206,764.05,106.747,767.321,108.051,769.301z"/>
		<path d="M394.269,279.21c-1.529-2.287-4.917-1.403-5.606,0.807c-0.607,1.429,0.377,3.396,1.904,3.835
			C393.07,284.634,395.793,281.804,394.269,279.21z"/>
		<path d="M114.013,757.006c-4.902-0.477-3.545,7.874,0.877,5.519C117.301,761.385,116.97,757.408,114.013,757.006z"/>
		<path d="M386.216,290.275c2.22,0.393,4.178-2.347,2.687-4.437c-1.313-2.005-4.215-1.288-4.931,0.559
			C383.17,287.904,384.431,290.209,386.216,290.275z"/>
		<path d="M116.546,749.989c-4.183-1.005-3.784,6.644,0.344,5.136C119.41,754.41,119.325,750.411,116.546,749.989z"/>
		<path d="M383.628,291.738c-1.136-1.683-3.545-1.314-4.427,0.083c-0.947,1.17-0.396,3.441,1.236,3.905
			C382.631,296.528,385.091,293.984,383.628,291.738z"/>
		<path d="M115.532,745.957c0.493,2.439,4.408,2.181,4.532-0.686C120.292,741.359,114.154,742.609,115.532,745.957z"/>
		<path d="M378.095,297.276c-2.042-4.029-7.208,1.88-3.226,3.279C376.806,301.451,379.067,299.314,378.095,297.276z"/>
		<path d="M120.19,740.369c1.445-0.822,1.122-3.362-0.772-3.579c-1.644-0.182-2.663,1.64-1.923,2.863
			C117.861,740.594,119.364,741.055,120.19,740.369z"/>
		<path d="M371.301,304.722c1.299-0.182,2.11-1.87,1.225-3.106c-1.085-1.251-3.174-0.647-3.439,0.798
			C368.644,303.622,370.1,305.175,371.301,304.722z"/>
		<path d="M120.729,731.083c-1.43-0.421-2.411,1.184-1.884,2.269c0.218,0.908,1.676,1.287,2.443,0.781
			C122.515,733.499,122.337,731.285,120.729,731.083z"/>
		<path d="M122.367,727.473c-0.208-1.615-2.917-1.18-2.585,0.376C119.752,729.679,122.915,729.171,122.367,727.473z"/>
		<path d="M363.45,310.864c2.029-1.651-3.271-3.848-2.145,0.303C362.026,311.219,362.956,311.556,363.45,310.864z"/>
		<path d="M366.586,308.631c1.13-0.126,1.958-1.644,1.067-2.718c-0.867-1.237-2.712-0.606-2.938,0.648
			C364.293,307.622,365.548,308.856,366.586,308.631z"/>
		<path d="M87.622,830.466c-7.111-3.649-15.34-8.014-22.352-11.853C70.341,823.839,79.731,830.392,87.622,830.466z"/>
		<path d="M412.972,216.186c6.828,4.141,14.718,9.072,21.436,13.402C428.451,222.603,419.204,217.734,412.972,216.186z"/>
	</g>
	<g>
		<path fill="none" d="M667.06,118.319c0.607-3.254-1.92-6.84-5.247-6.67c-12.742,1.276-18.083,24.098-33.935,42.23
			c0.89-2.505,2.115-4.882,3.505-7.118c-0.276-0.209-0.552-0.417-0.825-0.624c-1.513,6.392-10.021,15.237-14.918,19.659
			C632.543,153.3,667.051,124.419,667.06,118.319z"/>
		<path d="M588.418,162.277c1.031,0.903,2.337,1.701,2.671,3.192c0.902,2.497-0.361,5.377-2.497,6.393
			c-11.154,5.282-15.505-16.216,0.363-18.2c8.512-0.889,22.877,6.922,6.574,25.694c14.334-9.832,29.662-25.874,28.553-43.113
			c-1.21-19.034-18.547-14.844-17.104-2.463c-10.731-0.428-14.861-7.405-12.151-15.173c6.789-20.462,43.44-17.344,39.446,15.17
			c-0.698,5.617-2.378,10.336-3.555,12.194c0.267-0.118,0.808-0.357,1.076-0.475c15.74-39.103-22.672-43.95-13.842-66.301
			c-0.986,11.187,4.365,11.166,13.538,15.026c10.426,4.083,15.785,12.61,14.35,25.441c4.927-10.69,19.033-19.835,27.555-13.689
			c15.313-18.751,2.25-26.371-2.6-20.875c5.804,1.572,5.732,4.729,3.561,6.651c-5.629,5.018-14.822-2.336-9.886-9.648
			c1.97-2.945,6.028-5.011,11.613-4.455c11.572,1.368,10.193,18.848-0.977,30.618c0.056,0.377,0.17,1.136,0.226,1.513
			c8.604-7.747,34.456-53.644,7.573-69.688c-13.969-8.457-35.185,1.126-26.926,15.364c3.279-8.524,13.143-7.716,17.804-4.402
			c4.378,3.153,6.092,15.65-11.77,19.18c-26.872,6.087-36.502-28.68,0.175-37.921c15.068-3.782,33.206-1.829,43.194,9.941
			c2.997,3.532,4.903,7.376,6.603,11.002c17.175-13.686,53.411-3.305,32.998,29.561c-15.976,25.484-55.094,46.832-101.181,75.966
			c23.705-19.712,103.909-67.471,79.721-101.398c12.524,4.152,9.371,16.194,4.329,27.461c16.908-29.551-5.675-36.725-14.429-26.192
			c9.846,63.388-130.628,145.582-190.285,163.814c-44.959,13.691-80.515,4.291-82.061-22.884
			c-0.916-15.583,11.864-29.647,24.431-25.737c10.542,3.65,7.62,19.707-0.48,19.32c-2.616-0.165-5.683-1.739-6.287-4.643
			c0.08-0.722,0.25-1.42,0.407-2.124c-18.068,4.941-0.467,64.089,85.705,22.358c8.256-3.887,36.164-18.667,42.624-24.579
			C602.626,170.798,596.387,159.153,588.418,162.277z M615.64,165.798c16.903-12.497,51.412-41.379,51.42-47.478
			c0.965-5.173-5.124-10.754-13.663-2.142c-7.367,7.584-14.056,24.592-25.519,37.703c0.89-2.505,2.115-4.882,3.505-7.118
			c-0.276-0.209-0.552-0.417-0.825-0.624C629.045,152.53,620.536,161.376,615.64,165.798z"/>
		<path d="M918.792,158.737c-16.934-14.761-105.188-68.178-79.656-101.276c-12.616,3.879-9.891,16.898-3.616,28.517
			c-17.619-26.822,1.774-39.425,13.757-27.455c-12.114,72.184,212.272,211.843,264.739,157.587
			c12.843-13.215,8.082-33.721-4.839-40.628c-16.369-8.628-23.97,9.535-15.419,16.397c2.863,2.531,7.959,1.245,9.838-2.246
			c0.643-1.038,0.105-2.17-0.083-3.208c16.967,6.34,0.858,43.751-42.166,36.841c-25.068-3.85-59.334-21.655-80.846-35.019
			c-17.531-11.037-18.935-29.341-6.175-25.862c-8.532,5.809,1.892,14.31,7.764,7.877c5.79-6.728-1.265-17.151-10.088-16.568
			c-11.166,0.452-14.841,9.605-10.883,17.32c1.393,3.25,3.762,5.698,5.844,8.34c-42.639-31.072-27.774-60.786-16.533-55.627
			c3.388,1.554,5.976,5.615,5.226,10.153c18.996-1.649,14.218-19.067,4.682-24.988c-25.703-15.962-50.627,24.447-13.877,56.275
			c-2.339-1.125-31.032-22.772-49.687-43.728c-3.438-3.959,0.198-17.048,13.43-4.2c4.013,3.895,7.234,10.892,11.108,17.373
			c0.624,1.041,3.982,6.603,12.68,18.545c0.51-0.032,1.19-0.716,0.223-1.11c-24.313-43.355,19.698-49.6,10.554-72.402
			c0.258,10.034-2.816,10.399-12.338,14.092c-12.194,4.551-17.058,13.435-15.675,25.648c-7.441-14.252-21.396-18.075-27.408-13.38
			c-15.541-18.09-2.339-26.481,2.669-20.843c-2.721-0.002-5.63,2.251-4.75,5.198c1.758,3.659,7.262,3.796,9.948,1.09
			c3.546-2.839,2.789-8.815-0.837-11.346c-14.137-9.751-27.385,7.528-8.788,28.31c-0.047,0.35-0.14,1.044-0.187,1.394
			c-20.979-22.233-29.465-66.47-0.929-72.32c13.557-2.91,26.461,5.672,20.216,18.098c-2.638-6.327-7.815-7.896-13.901-6.338
			c-9.911,2.641-9.85,16.643,5.46,20.574c18.998,5.314,31.777-8.625,24.036-22.825c-11.223-20.252-60.173-25.96-71.538,6.284
			c-12.707-9.458-28.696-7.226-35.572,1.369C790.395,85.635,882.178,135.252,918.792,158.737z"/>
		<path d="M462.444,199.404c0.973,11.471,21.684,11.065,24.223-7.004c2.848-22.556-22.056-37.718-42.033-20.05
			c1.663-6.812-4.763-13.602-11.481-7.6c-2.187,1.851-2.531,5.79,0.038,7.49c3.329,2.752,9.731-2.873,2.71-4.884
			c3.707-3.236,9.574,1.163,4.001,10.937c-7.03,12.891-1.455,26.298,1.666,29.438c-10.323-20.306,7.986-37.031,22.798-36.913
			C485.082,171.31,482.123,204.254,462.444,199.404z"/>
		<path d="M1100.357,199.517c-23.477,3.505-21.238-34.315,3.685-27.897c15.073,3.613,24.675,19.249,16.945,36.743
			c11.627-17.4,0.237-31.259-0.463-35.696c-0.653-5.849,3.077-7.653,6.159-5.274c-8.819,3.711,3.949,9.352,4.55,1.9
			c0.776-7.948-15.106-10.862-13.336,2.99c-24.082-20.827-48.837,4.255-40.555,25.379
			C1081.816,209.077,1097.745,211.011,1100.357,199.517z"/>
		<path d="M865.087,125.954c-45.467-25.072-56.367-55.135-71.047-41.901c11.762-3.027,11.539,4.402,18.265,15.752
			c-17.971-12.688-44.468-12.61-62.083,0.04c7.609-13.384,6.574-17.703,17.858-16.05c-13.436-12.286-23.613,14.276-70.192,42.138
			C786.02,86.173,777.017,86.543,865.087,125.954z"/>
		<path d="M1022.1,220.234c-90.686-30.842-115.947-81.14-186.62-101.59c-151.475-43.67-201.56,96.5-340.738,113.016
			c-43.581,5.258-54.26-9.957-61.253-27.323c0.171,7.466,0.489,16.626,0.948,25.3c40.748,37.326,137.454-5.407,184.593-35.218
			c38.476-24.299,67.439-51.368,107.342-63.679c128.364-40.893,183.328,63.463,287.482,98.784
			c33.133,11.312,87.123,26.44,114.286,0.065c0.445-8.526,0.756-17.572,0.927-25.248c-1.611,4.377-3.715,10.347-8.453,15.609
			C1100.238,242.708,1050.988,230.365,1022.1,220.234z"/>
		<path d="M471.524,211.935c-1.347,1.558-1.147,4.405,0.729,5.689c3.121,2.3,8.049-0.851,6.767-4.777
			C477.897,209.387,473.278,209.55,471.524,211.935z"/>
		<path d="M1091.312,216.677c3.811-5.652-7.526-9.751-7.879-2.801C1083.14,217.944,1088.85,220.205,1091.312,216.677z"/>
		<path d="M480.982,219.977c2.557,2.525,7.164-0.13,6.222-3.652C485.546,210.553,476.777,215.883,480.982,219.977z"/>
		<path d="M1075.356,217.117c-0.219,3.452,4.536,5.401,6.669,2.419C1085.495,214.353,1075.398,211.258,1075.356,217.117z"/>
		<path d="M495.455,217.455c-1.227-5.457-9.68-0.725-5.632,3.085C492.082,222.771,496.125,220.601,495.455,217.455z"/>
		<path d="M1067.121,217.76c-0.484,3.275,4.102,5.142,6.063,2.414C1076.456,215.78,1067.498,212.547,1067.121,217.76z"/>
		<path d="M497.554,216.741c-0.702,1.274-0.173,3.211,1.161,3.936c2.317,1.417,5.613-1.003,4.562-3.84
			C502.172,214.242,498.615,214.619,497.554,216.741z"/>
		<path d="M1065.121,219.554c1.227-2.482-1.26-4.906-3.489-4.464c-1.53,0.163-2.741,1.991-2.369,3.551
			C1059.806,221.259,1063.633,222.168,1065.121,219.554z"/>
		<path d="M511.181,215.781c-2.011-4.431-8.574,0.813-4.34,3.517C509.044,220.843,512.306,218.537,511.181,215.781z"/>
		<path d="M1051.53,218.078c0.769,2.111,4.127,2.42,5.195,0.086c1.083-2.139-0.992-4.279-2.952-3.968
			C1052.064,214.262,1050.694,216.508,1051.53,218.078z"/>
		<path d="M518.511,214.449c-1.218-4.123-7.638,0.056-4.268,2.879C516.119,219.151,519.532,217.068,518.511,214.449z"/>
		<path d="M1048.966,216.584c2.094-4.283-6.144-5.311-5.044-0.777C1044.297,218.162,1047.755,218.96,1048.966,216.584z"/>
		<path d="M525.66,212.727c-0.853-4.42-7.299-0.383-4.046,2.116C523.225,216.329,526.006,214.983,525.66,212.727z"/>
		<path d="M1041.433,214.502c2.473-3.783-5.239-5.264-4.46-1.128C1037.166,215.492,1040.152,216.364,1041.433,214.502z"/>
		<path d="M528.67,212.83c1.431,0.838,3.465-0.72,2.708-2.469c-0.663-1.515-2.746-1.481-3.434-0.225
			C527.313,210.926,527.665,212.46,528.67,212.83z"/>
		<path d="M1031.573,212.397c0.808,1.027,2.679,0.877,3.308-0.507c0.542-1.564-1.028-3.059-2.414-2.56
			C1031.197,209.555,1030.578,211.59,1031.573,212.397z"/>
		<path d="M536.971,208.64c-0.352-1.456-2.236-1.516-2.907-0.505c-0.676,0.646-0.276,2.1,0.544,2.509
			C535.766,211.383,537.593,210.119,536.971,208.64z"/>
		<path d="M540.931,208.301c1.292-0.994-0.435-3.12-1.614-2.049C537.714,207.13,539.738,209.635,540.931,208.301z"/>
		<path d="M1022.358,208.624c2.448,0.915,1.703-4.757-1.336-1.694C1021.337,207.577,1021.509,208.548,1022.358,208.624z"/>
		<path d="M1025.862,210.204c0.665,0.933,2.381,0.921,2.868-0.388c0.638-1.368-0.814-2.683-2.006-2.269
			C1025.591,207.718,1025.151,209.414,1025.862,210.204z"/>
		<path d="M434.436,229.637c-0.461-8.724-0.777-17.843-0.948-25.3C431.63,210.869,430.375,222.447,434.436,229.637z"/>
		<path d="M1129.066,204.34c-0.164,7.389-0.474,16.578-0.927,25.248C1131.262,220.879,1130.835,210.464,1129.066,204.34z"/>
	</g>
	<g>
		<path fill="none" d="M1340.855,375.554c3.109-1.098,4.962-5.098,3.175-7.915c-7.472-10.22-29.839-3.629-53.605-8.163
			c2.626-0.495,5.311-0.637,7.957-0.568c0.041-0.342,0.081-0.684,0.121-1.022c-6.488,1.958-18.079-1.011-24.513-3.057
			C1281.043,357.747,1334.258,379.369,1340.855,375.554z"/>
		<path d="M1263.391,329.5c-2.3,11.34-14.9,3.865-10.173-4.308c5.238-9.041,20.437-3.85,20.643,8.607
			c0.137,7.734-5.244,13.608-21.724,10.431c51.454,24.247,70.246-12.025,52.924-14.971c-2.691-0.526-5.491,0.402-7.699,2.047
			c-12.5-22.903,28.936-26.701,30.411,1.279c0.92,18.658-22.298,25.537-29.043,25.357c0.239,0.17,0.721,0.514,0.96,0.685
			c41.507-5.829,26.76-41.633,50.445-45.205c-10.087,4.709-7.536,9.275-6.287,19.3c1.804,10.965-2.991,19.968-14.764,25.118
			c11.416-1.026,26.511,6.178,25.628,17.004c24.098,3.587,23.941-11.322,16.76-12.725c1.605,5.766-1.167,7.292-3.941,6.396
			c-7.355-2.379-5.345-13.984,3.333-13.346c8.163,0.626,16.841,13.804,3.844,20.484c-6.238,3.214-14.208,3.356-21.104,1.808
			c-0.298,0.238-0.898,0.717-1.196,0.955c2.577,0.722,21.723,3.478,39.602-2.032c49.306-15.294,11.245-65.563-2.315-41.954
			c8.592-1.317,13.33,6.991,12.742,13.182c-0.428,4.11-6.211,9.419-14.063,6.009c-31-12.982-9.102-59.046,24.44-25.42
			c5.393,5.31,9.928,12.688,12.43,19.527c5.112,13.764,1.573,23.811-5.545,34.031c14.409,5.858,21.237,23.114,15.643,33.531
			c-17.611,33.117-107.797-22.496-141.194-39.552c21.255,7.27,110.546,56.462,127.737,18.097
			c2.896,12.56-8.863,16.122-21.552,17.499c34.293-0.278,28.718-23.327,15.411-25.62c-24.597,19.874-62.035,10.894-92.093,0.023
			c-192.522-69.303-203.315-167.257-152.222-169.823c19.259-1.127,27.503,18.248,14.203,24.291
			c-10.161,4.605-14.106-6.12-9.764-9.985c0.667-0.292,1.358-0.495,2.048-0.712c-6.08-5.98-16.788-0.483-21.255,11.289
			c-11.875,31.357,24.964,61.152,53.027,79.698c25.947,16.851,35.701,21.247,46.246,20.903
			C1266.505,341.037,1267.77,333.198,1263.391,329.5z M1273.991,354.831c7.052,2.916,60.267,24.538,66.864,20.723
			c3.109-1.098,4.962-5.098,3.175-7.915c-7.472-10.22-29.839-3.629-53.605-8.163c2.626-0.495,5.311-0.637,7.957-0.568
			c0.041-0.342,0.081-0.684,0.121-1.022C1292.016,359.846,1280.425,356.877,1273.991,354.831z"/>
		<path d="M1431.776,613.633c4.033-19.108,6.029-125.258,48.012-119.605c-9.652-8.965-19.551-0.187-26.511,11.118
			c14.463-28.779,35.027-18.068,30.65-1.792c-68.644,25.588-76.9,289.998-4.379,308.121c7.122,1.785,13.849,0.623,19.342-2.434
			c20.204-11.213,15.376-38.454-0.029-35.473c-14.355,2.795-7.747,21.491,1.148,13.958c3.35,19.823-68.456,38.461-63.023-105.694
			c1.225-21.318,15.858-30.776,19.334-18.256c-9.333-4.487-11.422,8.771-2.892,10.645c8.644,1.653,14.18-9.436,9.281-16.999
			c-5.276-8.853-16.957-10.159-22.884,3.702c-0.683,1.569-1.257,3.175-1.9,4.741c2.835-21.338,9.273-45.572,30.772-48.078
			c11.862-1.612,11.693,12.387,3.071,15.572c10.822,15.853,23.778,2.474,23.983-8.407c0.885-31.658-47.125-29.943-55.694,16.051
			c-0.283-6.185,5.645-42.534,13.073-64.866c1.227-3.58,8.913-6.631,10.865-0.245c3.226,10.549-6.653,18.645-19.739,48.308
			c0.274,0.429,1.197,0.679,1.073-0.361c25.271-42.674,52.862-7.696,67.982-26.97c-15.122,9.242-15.754-9.663-33.451-9.9
			c-5.031-0.069-10.032,1.818-14.972,5.455c8.972-14.203,4.531-27.638-2.057-30.44c7.847-22.47,21.754-15.238,19.391-8.091
			c-2.915-5.024-10.074-2.436-7.118,3.955c2.981,6.635,12.984,4.653,13.626-2.68c1.775-16.688-20.081-20.41-28.869,6.497
			c-0.327,0.134-0.975,0.4-1.301,0.534c8.363-28.108,42.122-58.954,62.159-36.895c9.175,10.102,8.399,25.796-5.578,26.557
			c1.369-1.794,4.038-4.71,1.711-10.56c-7.597-18.443-29.98-0.794-13.273,20.627c14.028,17.724,37.403,1.604,28.395-28.201
			c-5.933-19.638-22.2-35.36-42.769-31.519c3.03-25.974-26.947-47.025-43.41-11.834
			C1431.903,519.412,1434.909,568.546,1431.776,613.633z"/>
		<path d="M1180.953,248.292c-5.566,0.349-10.682-2.651-12.678-9.428c-4.777,3.32-4.365,9.474-0.747,13.812
			c11.101,12.976,35.083-0.148,34.484-19.355c-0.274-9.755-6.558-19.178-19.172-23.371c5.053-1.5,7.822-6.832,5.296-10.698
			c-3.065-4.758-10.584-4.175-10.884,0.692c-0.719,4.247,7.365,6.965,5.597-0.106c4.379,1.436,4.175,8.783-7.49,8.927
			c-14.774,0.38-23.521,11.905-24.701,16.135c4.123-6.32,9.464-9.735,15.104-10.978c5.141-1.136,10.744-0.637,16.597,2.062
			C1203.706,225.726,1197.105,247.338,1180.953,248.292z"/>
		<path d="M1487.098,791.339c-14.638-18.393,18.753-35.682,25.994-10.754c4.396,14.773-4.312,30.989-23.331,33.051
			c20.903,1.365,26.999-15.29,30.667-18.257c4.739-3.489,8.167-1.162,7.646,2.695c-7.623-5.779-6.127,8.094,0.629,4.888
			c7.257-3.296,1.877-18.51-9.256-10.049c1.236-6.33,0.63-13.144-2.157-18.983c-10.619-20.898-39.506-12.271-43.059,2.449
			C1472.206,784.399,1477.552,794.294,1487.098,791.339z"/>
		<path d="M1433.421,550.73c-1.497-49.642,19.801-76.397,0.764-82.478c8.507,8.674,2.013,12.121-4.496,23.699
			c2.072-22.67-12.067-45.09-31.108-53.738c14.667-0.1,18.758-3.204,22.837,7.416c4.122-17.925-25.736-13.514-71.639-39.618
			C1425.432,461.22,1423.08,452.926,1433.421,550.73z"/>
		<path d="M1433.647,750.42c-14.323-62.161-10.447-86.1-4.481-151.887c9.121-94.224-33.417-166.663-105.741-204.031
			c-46.663-23.65-147.326-61.993-179.516-132.088c-9.383-20.1-5.321-32.235,5.673-46.223c-6.836,4.152-14.744,9.103-21.471,13.446
			c-12.219,53.828,73.579,116.591,122.771,142.484c55.122,29.046,106.119,39.062,143.919,105.302
			c53.075,92.955-2.047,149.536,26.889,271.797c6.834,30.723,22.809,72.708,53.291,81.246c7.093-3.646,15.305-8.01,22.297-11.846
			c-4.597,0.796-10.82,1.964-17.745,0.495C1453.959,813.749,1439.753,775.889,1433.647,750.42z"/>
		<path d="M1161.948,252.971c-2.028-0.382-4.401,1.216-4.575,3.477c-0.432,3.844,4.777,6.518,7.543,3.446
			C1167.357,257.193,1164.898,253.29,1161.948,252.971z"/>
		<path d="M1467.714,792.083c6.805,0.476,4.668-11.397-1.522-8.229C1462.524,785.634,1463.428,791.715,1467.714,792.083z"/>
		<path d="M1159.708,265.156c-0.878,3.422,3.628,6.232,6.239,3.62C1170.099,264.499,1161.178,259.386,1159.708,265.156z"/>
		<path d="M1459.362,778.472c-3.139,1.54-2.414,6.635,1.226,6.993C1466.79,785.878,1464.454,775.627,1459.362,778.472z"/>
		<path d="M1169.111,276.459c4.122-3.79-4.232-8.713-5.508-3.313C1162.799,276.211,1166.716,278.612,1169.111,276.459z"/>
		<path d="M1454.683,771.655c-3.077,1.218-2.39,6.126,0.954,6.461C1461.078,778.755,1459.388,769.374,1454.683,771.655z"/>
		<path d="M1170.785,277.912c-1.46,0.032-2.876,1.458-2.835,2.972c-0.071,2.636,3.642,4.413,5.582,2.075
			C1175.226,280.712,1173.179,277.739,1170.785,277.912z"/>
		<path d="M1452.127,770.817c2.764-0.177,3.613-3.545,2.111-5.256c-0.909-1.245-3.098-1.381-4.261-0.278
			C1447.985,767.063,1449.118,770.834,1452.127,770.817z"/>
		<path d="M1178.41,289.265c2.838-3.954-5.018-6.987-5.237-1.981C1172.938,289.958,1176.582,291.616,1178.41,289.265z"/>
		<path d="M1446.63,758.295c-1.432,1.72-0.022,4.786,2.508,4.548c2.411-0.132,3.244-3.001,1.977-4.544
			C1450.199,756.852,1447.568,756.786,1446.63,758.295z"/>
		<path d="M1181.903,290.784c-2.934-0.996-4.859,3.276-1.874,4.787C1183.475,297.337,1185.68,291.665,1181.903,290.784z"/>
		<path d="M1446.633,755.326c4.765-0.325,1.502-7.974-1.864-4.76C1442.921,752.069,1443.969,755.464,1446.633,755.326z"/>
		<path d="M1188.284,300.306c3.41-2.951-3.343-6.483-3.875-2.428C1183.928,300.01,1186.498,301.734,1188.284,300.306z"/>
		<path d="M1444.648,747.758c2.261,0.132,3.247-2.705,1.92-4.052c-0.651-0.889-2.208-1.171-3.122-0.384
			C1441.736,744.543,1442.415,747.575,1444.648,747.758z"/>
		<path d="M1189.71,302.952c-0.007,1.654,2.37,2.626,3.508,1.098c0.982-1.33-0.097-3.109-1.535-3.073
			C1190.679,300.828,1189.525,301.9,1189.71,302.952z"/>
		<path d="M1441.572,738.156c-0.481,1.213,0.591,2.758,2.104,2.612c1.626-0.311,2.128-2.418,0.999-3.369
			C1443.841,736.412,1441.769,736.891,1441.572,738.156z"/>
		<path d="M1197.46,308.097c1.08-1.023,0.198-2.698-0.996-2.797c-0.888-0.277-1.946,0.792-1.898,1.717
			C1194.493,308.405,1196.479,309.387,1197.46,308.097z"/>
		<path d="M1199.752,311.34c1.515,0.615,2.49-1.938,0.965-2.418C1199.146,307.981,1197.992,310.981,1199.752,311.34z"/>
		<path d="M1440.275,728.276c0.432,2.573,4.973-0.898,0.791-2.003C1440.666,726.87,1439.913,727.504,1440.275,728.276z"/>
		<path d="M1440.593,732.113c-0.472,1.042,0.403,2.523,1.779,2.291c1.504-0.13,1.91-2.045,0.952-2.871
			C1442.633,730.633,1440.932,731.101,1440.593,732.113z"/>
		<path d="M1128.112,229.637c6.719-4.338,14.628-9.29,21.471-13.446C1142.603,217.953,1132.156,222.794,1128.112,229.637z"/>
		<path d="M1497.278,818.62c-6.987,3.832-15.199,8.197-22.297,11.846C1484.771,828.665,1493.456,822.591,1497.278,818.62z"/>
	</g>
</g>
</svg>
