<?xml version="1.0" encoding="utf-8"?>

<!DOCTYPE svg PUBLIC "-//W3C//DTD SVG 1.1//EN" "http://www.w3.org/Graphics/SVG/1.1/DTD/svg11.dtd">
<svg version="1.1" id="Layer_1" xmlns="http://www.w3.org/2000/svg" xmlns:xlink="http://www.w3.org/1999/xlink" x="0px" y="0px"
	 viewBox="0 0 1649.877 1649.877" enable-background="new 0 0 1649.877 1649.877" xml:space="preserve">
<g id="Layer_x0020_1">
	<g id="_804538528" fill="#ff554499" >
		<path d="M927.894,230.419h184.519l-4.321,5.676H930.281C929.249,234.288,928.475,232.354,927.894,230.419z M230.419,721.983
			V537.464l5.676,4.321v177.812C234.288,720.629,232.354,721.403,230.419,721.983z M721.983,1419.459H537.464l4.321-5.676h177.812
			C720.629,1415.589,721.403,1417.524,721.983,1419.459z M1419.459,927.894v184.519l-5.676-4.321V930.281
			C1415.589,929.249,1417.524,928.475,1419.459,927.894z M1413.783,719.597V541.785l5.676-4.321v184.519
			C1417.524,721.403,1415.589,720.629,1413.783,719.597z M719.597,236.094H541.785l-4.321-5.676h184.519
			C721.403,232.354,720.629,234.288,719.597,236.094z M236.094,930.281v177.812l-5.676,4.321V927.894
			C232.354,928.475,234.288,929.249,236.094,930.281z M930.281,1413.783h177.812l4.321,5.676H927.894
			C928.475,1417.524,929.249,1415.589,930.281,1413.783z M1012.447,176.759c0.166-1.325-0.021-7.162,2.064-13.415
			c-121.013-20.864-121.99,106.838-44.759,92.937c24.407-3.973,6.334-19.404,3.096-6.449c-33.627,9.89-56.706-16.028-45.727-43.018
			C938.004,178.243,985.675,172.441,1012.447,176.759z M176.759,637.431c-1.325-0.166-7.162,0.021-13.415-2.064
			c-20.864,121.013,106.838,121.99,92.937,44.759c-3.973-24.407-19.404-6.334-6.449-3.096c9.89,33.627-16.028,56.706-43.018,45.727
			C178.243,711.873,172.441,664.202,176.759,637.431z M637.431,1473.118c-0.166,1.325,0.021,7.162-2.064,13.415
			c121.013,20.864,121.99-106.838,44.759-92.937c-24.407,3.973-6.334,19.404-3.096,6.449c33.627-9.89,56.706,16.028,45.727,43.018
			C711.873,1471.634,664.202,1477.436,637.431,1473.118z M1473.118,1012.447c1.325,0.166,7.162-0.021,13.415,2.064
			c20.864-121.013-106.838-121.99-92.937-44.759c3.973,24.407,19.404,6.334,6.449,3.096c-9.89-33.627,16.028-56.706,43.018-45.727
			C1471.634,938.004,1477.436,985.675,1473.118,1012.447z M1443.064,722.757c-26.99,10.979-52.908-12.1-43.018-45.727
			c12.954-3.239-2.476-21.312-6.449,3.096c-13.902,77.231,113.801,76.254,92.937-44.759c-6.253,2.084-12.09,1.898-13.415,2.064
			C1477.436,664.202,1471.634,711.873,1443.064,722.757z M722.757,206.814c10.979,26.99-12.1,52.908-45.727,43.018
			c-3.239-12.955-21.312,2.476,3.096,6.449c77.231,13.902,76.254-113.801-44.759-92.937c2.084,6.253,1.898,12.09,2.064,13.415
			C664.202,172.441,711.873,178.243,722.757,206.814z M206.814,927.12c26.99-10.979,52.908,12.1,43.018,45.727
			c-12.955,3.239,2.476,21.312,6.449-3.096c13.902-77.231-113.801-76.254-92.937,44.759c6.253-2.084,12.09-1.898,13.415-2.064
			C172.441,985.675,178.243,938.004,206.814,927.12z M927.12,1443.064c-10.979-26.99,12.1-52.908,45.727-43.018
			c3.239,12.954,21.312-2.476-3.096-6.449c-77.231-13.902-76.254,113.801,44.759,92.937c-2.084-6.253-1.898-12.09-2.064-13.415
			C985.675,1477.436,938.004,1471.634,927.12,1443.064z M1023.411,165.021c-1.754,4.604-1.999,8.438-1.999,13.479
			c70.28,16.315,129.564,89.611,192.839,83.585c17.384-1.76,32.283-9.157,43.405-27.926c15.992-26.272-4.112-24.815,0.193-14.769
			c-7.314,33.433-43.158,38.18-76.491,27.733C1139.801,233.678,1075.261,176.053,1023.411,165.021z M165.021,626.466
			c4.604,1.754,8.438,1.999,13.479,1.999c16.315-70.28,89.611-129.564,83.585-192.839c-1.76-17.384-9.157-32.283-27.926-43.405
			c-26.272-15.992-24.815,4.112-14.769-0.193c33.433,7.314,38.18,43.158,27.733,76.491
			C233.678,510.077,176.053,574.616,165.021,626.466z M626.466,1484.856c1.754-4.604,1.999-8.438,1.999-13.479
			c-70.28-16.315-129.564-89.611-192.839-83.585c-17.384,1.76-32.283,9.157-43.405,27.926c-15.992,26.273,4.112,24.815-0.193,14.769
			c7.314-33.433,43.158-38.18,76.491-27.733C510.077,1416.2,574.616,1473.824,626.466,1484.856z M1484.856,1023.411
			c-4.604-1.754-8.438-1.999-13.479-1.999c-16.315,70.28-89.611,129.564-83.585,192.839c1.76,17.384,9.157,32.283,27.926,43.405
			c26.273,15.992,24.815-4.112,14.769,0.193c-33.433-7.314-38.18-43.158-27.733-76.491
			C1416.2,1139.801,1473.824,1075.261,1484.856,1023.411z M1402.755,468.519c-10.448-33.333-5.701-69.177,27.733-76.491
			c10.046,4.305,11.503-15.798-14.769,0.193c-18.769,11.122-26.166,26.021-27.926,43.405
			c-6.026,63.275,67.27,122.559,83.585,192.839c5.041,0,8.875-0.245,13.479-1.999C1473.824,574.616,1416.2,510.077,1402.755,468.519
			z M468.519,247.123c-33.333,10.448-69.177,5.701-76.491-27.733c4.305-10.046-15.798-11.503,0.193,14.769
			c11.122,18.769,26.021,26.166,43.405,27.926c63.275,6.026,122.559-67.27,192.839-83.585c0-5.041-0.245-8.875-1.999-13.479
			C574.616,176.053,510.077,233.678,468.519,247.123z M247.123,1181.358c10.448,33.333,5.701,69.177-27.733,76.491
			c-10.046-4.305-11.503,15.798,14.769-0.193c18.769-11.122,26.166-26.021,27.926-43.405c6.026-63.275-67.27-122.56-83.585-192.839
			c-5.041,0-8.875,0.245-13.479,1.999C176.053,1075.261,233.678,1139.801,247.123,1181.358z M1181.358,1402.755
			c33.333-10.448,69.177-5.701,76.491,27.733c-4.305,10.046,15.798,11.503-0.193-14.769c-11.122-18.769-26.021-26.166-43.405-27.926
			c-63.275-6.026-122.56,67.27-192.839,83.585c0,5.041,0.245,8.875,1.999,13.479
			C1075.261,1473.824,1139.801,1416.2,1181.358,1402.755z M1504.672,145.206c-16.401,7.848-32.054,19.416-46.115,29.296
			c-10.689-7.618-14.145-10.136-19.219-13.673c27.72-31.985,13.892-82.597-32.183-96.42c-23.312-6.616-51.586-0.926-69.977,13.221
			c-5.701-23.373-19.311-38.815-36.568-52.692c-15.09,12.261-30.315,27.316-36.504,52.692
			c-49.263-37.895-122.907-4.739-115.897,51.338c1.314,12.013,5.511,22.369,13.737,31.86c-4.993,3.428-8.758,6.171-19.284,13.673
			c-33.276-23.703-51.763-35.601-75.459-38.052c-76.986-7.128-72.078,108.686,24.701,76.426l-5.869-3.547
			c-87.376,35.457-92.224-107.01,10.513-49.79c12.747,6.985,23.431,14.801,34.698,22.96c-13.474,9.42-22.263,14.697-28.636,18.445
			l5.417,3.289c13.191-8.038,24.13-15.426,28.055-18.252c110.457,79.632,168.844-18.816,114.285-57.787
			c-17.398-12.792-20.302,3.641-10.255,4.386c1.716,0.156,3.807-0.517,4.837-1.29c4.645,2.534,9.223,7.72,12.254,12.383
			c28.566,45.229-22.495,96.212-109.705,34.247c5.739-4.166,11.49-8.29,18.252-12.963c6.812,6.812,16.232,13.684,25.669,16.188
			c54.411,15.546,50.222-73.511-24.637-23.605l-0.387-0.516l0,0c-2.891-3.795-4.789-7.502-6.449-15.092
			c-15.146-67.073,66.436-88.13,102.869-58.174c-2.608,17.603,0.427,33.083,7.288,45.662c13.46,23.671,42.796,7.821,8.513-36.955
			c-3.031-3.934-6.256-7.546-9.739-10.771c2.366-11.567,7.528-25.139,31.731-44.501c25.783,20.626,29.728,34.708,31.731,44.501
			c-10.201,9.445-26.5,32.444-26.185,45.662c0,10.919,10.266,17.688,19.219,9.481c9.089-8.18,16.997-31.648,13.028-53.079
			c33.7-27.709,111.565-13.166,103.901,51.983c-1.554,12.822-5.022,17.93-7.417,21.283h-0.064l-0.387,0.516
			c-67.101-46.971-80.345,28.271-33.666,25.088c13.491-0.6,25.227-8.201,34.698-17.672c6.747,4.663,11.97,8.43,18.317,12.963
			c-79.844,56.732-132.835,19.014-113.833-26.378c3.182-8.049,9.347-16.069,16.317-20.251c0.774,0.58,1.935,0.967,2.902,1.161
			c10.343,2.298,10.927-13.884-2.386-7.739c-20.383,8.624-32.69,42.451-22.831,61.721c14.849,29.353,62.115,47.116,126.99,2.501
			c-44.615,64.875-26.852,112.141,2.501,126.99c19.27,9.859,53.098-2.448,61.721-22.831c6.145-13.313-10.038-12.729-7.739-2.386
			c0.193,0.967,0.58,2.128,1.161,2.902c-4.182,6.97-12.203,13.135-20.251,16.317c-45.392,19.001-83.11-33.989-26.378-113.833
			c4.533,6.347,8.3,11.57,12.964,18.316c-9.471,9.471-17.072,21.207-17.672,34.698c-3.183,46.679,72.059,33.435,25.089-33.666
			l0.516-0.387v-0.064c3.353-2.395,8.461-5.863,21.283-7.417c65.149-7.665,79.692,70.201,51.983,103.901
			c-21.431-3.969-44.899,3.939-53.079,13.028c-8.208,8.954-1.438,19.219,9.481,19.219c13.218,0.315,36.217-15.984,45.662-26.185
			c9.794,2.003,23.875,5.949,44.501,31.731c-19.362,24.203-32.934,29.365-44.501,31.731c-3.225-3.483-6.836-6.707-10.771-9.739
			c-44.777-34.282-60.626-4.947-36.955,8.513c12.579,6.861,28.06,9.896,45.662,7.288c29.956,36.433,8.899,118.014-58.174,102.869
			c-7.59-1.66-11.297-3.558-15.092-6.449l0,0l-0.516-0.387c49.906-74.859-39.151-79.048-23.605-24.637
			c2.504,9.437,9.376,18.857,16.188,25.669c-4.674,6.762-8.798,12.513-12.964,18.252c-61.965-87.21-10.982-138.271,34.247-109.705
			c4.663,3.031,9.849,7.609,12.383,12.254c-0.773,1.031-1.446,3.121-1.29,4.837c0.744,10.047,17.178,7.143,4.386-10.255
			c-38.971-54.56-137.419,3.828-57.787,114.285c-2.826,3.925-10.214,14.864-18.252,28.055l3.289,5.418
			c3.749-6.372,9.026-15.162,18.445-28.636c8.159,11.267,15.976,21.951,22.96,34.698c57.22,102.737-85.247,97.889-49.79,10.513
			l-3.547-5.869c-32.26,96.779,83.554,101.687,76.426,24.701c-2.451-23.695-14.348-42.183-38.052-75.459
			c7.501-10.526,10.245-14.291,13.673-19.284c9.492,8.226,19.848,12.423,31.86,13.737c56.077,7.01,89.232-66.634,51.338-115.897
			c25.376-6.189,40.431-21.414,52.692-36.504c-13.877-17.258-29.319-30.868-52.692-36.568
			c14.147-18.391,19.837-46.665,13.221-69.977c-13.822-46.075-64.434-59.903-96.42-32.183c-3.536-5.074-6.055-8.53-13.673-19.219
			C1485.256,177.26,1496.824,161.607,1504.672,145.206z M1504.672,1504.672c-7.848-16.401-19.416-32.054-29.296-46.115
			c7.618-10.689,10.136-14.145,13.673-19.219c31.985,27.72,82.597,13.892,96.42-32.183c6.616-23.312,0.926-51.586-13.221-69.977
			c23.373-5.701,38.815-19.311,52.692-36.568c-12.261-15.09-27.316-30.315-52.692-36.504
			c37.895-49.263,4.739-122.907-51.338-115.897c-12.013,1.314-22.369,5.511-31.86,13.737c-3.428-4.993-6.171-8.758-13.673-19.284
			c23.703-33.276,35.601-51.763,38.052-75.459c7.128-76.986-108.686-72.078-76.426,24.701l3.547-5.869
			c-35.457-87.376,107.01-92.224,49.79,10.513c-6.984,12.747-14.801,23.431-22.96,34.698c-9.42-13.474-14.697-22.263-18.445-28.636
			l-3.289,5.417c8.038,13.191,15.426,24.13,18.252,28.055c-79.632,110.457,18.816,168.844,57.787,114.285
			c12.792-17.398-3.641-20.302-4.386-10.255c-0.156,1.716,0.517,3.807,1.29,4.837c-2.534,4.645-7.72,9.223-12.383,12.254
			c-45.229,28.566-96.212-22.495-34.247-109.705c4.166,5.739,8.29,11.49,12.964,18.252c-6.812,6.812-13.685,16.232-16.188,25.669
			c-15.546,54.411,73.511,50.222,23.605-24.637l0.516-0.387l0,0c3.795-2.891,7.502-4.789,15.092-6.449
			c67.073-15.146,88.13,66.436,58.174,102.869c-17.603-2.608-33.083,0.427-45.662,7.288c-23.671,13.46-7.821,42.796,36.955,8.513
			c3.934-3.031,7.546-6.256,10.771-9.739c11.567,2.366,25.139,7.528,44.501,31.731c-20.626,25.783-34.708,29.728-44.501,31.731
			c-9.445-10.201-32.444-26.5-45.662-26.185c-10.919,0-17.688,10.266-9.481,19.219c8.18,9.089,31.648,16.997,53.079,13.028
			c27.709,33.7,13.166,111.565-51.983,103.901c-12.822-1.554-17.93-5.022-21.283-7.417v-0.064l-0.516-0.387
			c46.971-67.101-28.271-80.345-25.089-33.666c0.6,13.491,8.201,25.227,17.672,34.698c-4.663,6.747-8.43,11.97-12.964,18.317
			c-56.732-79.844-19.014-132.835,26.378-113.833c8.049,3.182,16.069,9.347,20.251,16.317c-0.58,0.774-0.967,1.935-1.161,2.902
			c-2.298,10.343,13.884,10.927,7.739-2.386c-8.624-20.383-42.451-32.69-61.721-22.831c-29.353,14.849-47.115,62.115-2.501,126.99
			c-64.875-44.615-112.141-26.852-126.99,2.501c-9.859,19.27,2.448,53.098,22.831,61.721c13.313,6.145,12.729-10.038,2.386-7.739
			c-0.967,0.193-2.128,0.58-2.902,1.161c-6.97-4.182-13.135-12.203-16.317-20.251c-19.001-45.392,33.989-83.11,113.833-26.378
			c-6.347,4.533-11.57,8.3-18.317,12.964c-9.471-9.471-21.207-17.072-34.698-17.672c-46.679-3.183-33.435,72.059,33.666,25.089
			l0.387,0.516h0.064c2.395,3.353,5.863,8.461,7.417,21.283c7.665,65.149-70.201,79.692-103.901,51.983
			c3.969-21.431-3.939-44.899-13.028-53.079c-8.954-8.208-19.219-1.438-19.219,9.481c-0.315,13.218,15.984,36.217,26.185,45.662
			c-2.003,9.794-5.949,23.875-31.731,44.501c-24.203-19.362-29.365-32.934-31.731-44.501c3.483-3.225,6.707-6.836,9.739-10.771
			c34.282-44.777,4.947-60.626-8.513-36.955c-6.861,12.579-9.896,28.06-7.288,45.662c-36.433,29.956-118.015,8.899-102.869-58.174
			c1.66-7.59,3.558-11.297,6.449-15.092l0,0l0.387-0.516c74.859,49.906,79.048-39.151,24.637-23.605
			c-9.437,2.504-18.857,9.376-25.669,16.188c-6.762-4.674-12.513-8.798-18.252-12.964c87.21-61.965,138.271-10.982,109.705,34.247
			c-3.031,4.663-7.609,9.849-12.254,12.383c-1.031-0.773-3.121-1.446-4.837-1.29c-10.047,0.744-7.143,17.178,10.255,4.386
			c54.56-38.971-3.828-137.419-114.285-57.787c-3.925-2.826-14.864-10.214-28.055-18.252l-5.417,3.289
			c6.372,3.749,15.162,9.026,28.636,18.445c-11.267,8.159-21.951,15.976-34.698,22.96c-102.737,57.22-97.889-85.247-10.513-49.79
			l5.869-3.547c-96.779-32.26-101.687,83.554-24.701,76.426c23.695-2.451,42.183-14.348,75.459-38.052
			c10.526,7.501,14.291,10.245,19.284,13.673c-8.226,9.492-12.423,19.848-13.737,31.86c-7.01,56.077,66.634,89.232,115.897,51.338
			c6.189,25.376,21.414,40.431,36.504,52.692c17.258-13.877,30.868-29.319,36.568-52.692c18.391,14.147,46.665,19.837,69.977,13.221
			c46.075-13.822,59.903-64.434,32.183-96.42c5.074-3.536,8.53-6.055,19.219-13.673
			C1472.617,1485.256,1488.271,1496.824,1504.672,1504.672z M145.206,1504.672c16.401-7.848,32.054-19.416,46.115-29.296
			c10.689,7.618,14.145,10.136,19.219,13.673c-27.72,31.985-13.892,82.597,32.183,96.42c23.312,6.616,51.586,0.926,69.977-13.221
			c5.701,23.373,19.311,38.815,36.568,52.692c15.09-12.261,30.315-27.316,36.504-52.692c49.263,37.895,122.907,4.739,115.897-51.338
			c-1.314-12.013-5.511-22.369-13.737-31.86c4.993-3.428,8.758-6.171,19.284-13.673c33.276,23.703,51.763,35.601,75.459,38.052
			c76.986,7.128,72.078-108.686-24.701-76.426l5.869,3.547c87.376-35.457,92.224,107.01-10.513,49.79
			c-12.747-6.984-23.431-14.801-34.698-22.96c13.474-9.42,22.263-14.697,28.636-18.445l-5.418-3.289
			c-13.191,8.038-24.13,15.426-28.055,18.252c-110.457-79.632-168.844,18.816-114.285,57.787
			c17.398,12.792,20.302-3.641,10.255-4.386c-1.716-0.156-3.807,0.517-4.837,1.29c-4.645-2.534-9.223-7.72-12.254-12.383
			c-28.566-45.229,22.495-96.212,109.705-34.247c-5.739,4.166-11.49,8.29-18.252,12.964c-6.812-6.812-16.232-13.685-25.669-16.188
			c-54.411-15.546-50.222,73.511,24.637,23.605l0.387,0.516l0,0c2.891,3.795,4.789,7.502,6.449,15.092
			c15.145,67.073-66.436,88.13-102.869,58.174c2.608-17.603-0.427-33.083-7.288-45.662c-13.46-23.671-42.795-7.821-8.513,36.955
			c3.031,3.934,6.256,7.546,9.739,10.771c-2.366,11.567-7.528,25.139-31.731,44.501c-25.783-20.626-29.728-34.708-31.731-44.501
			c10.201-9.445,26.5-32.444,26.185-45.662c0-10.919-10.266-17.688-19.219-9.481c-9.089,8.18-16.997,31.648-13.028,53.079
			c-33.7,27.709-111.565,13.166-103.901-51.983c1.554-12.822,5.022-17.93,7.417-21.283h0.064l0.387-0.516
			c67.101,46.971,80.345-28.271,33.666-25.089c-13.491,0.6-25.227,8.201-34.698,17.672c-6.747-4.663-11.97-8.43-18.316-12.964
			c79.844-56.732,132.835-19.014,113.833,26.378c-3.182,8.049-9.347,16.069-16.317,20.251c-0.774-0.58-1.935-0.967-2.902-1.161
			c-10.343-2.298-10.927,13.884,2.386,7.739c20.383-8.624,32.69-42.451,22.831-61.721c-14.849-29.353-62.115-47.115-126.99-2.501
			c44.615-64.875,26.852-112.141-2.501-126.99c-19.27-9.859-53.098,2.448-61.721,22.831c-6.145,13.313,10.038,12.729,7.739,2.386
			c-0.193-0.967-0.58-2.128-1.161-2.902c4.182-6.97,12.203-13.135,20.251-16.317c45.393-19.001,83.11,33.989,26.378,113.833
			c-4.533-6.347-8.3-11.57-12.963-18.317c9.471-9.471,17.072-21.207,17.672-34.698c3.183-46.679-72.059-33.435-25.088,33.666
			l-0.516,0.387v0.064c-3.353,2.395-8.461,5.863-21.283,7.417c-65.149,7.665-79.692-70.201-51.983-103.901
			c21.431,3.969,44.899-3.939,53.079-13.028c8.208-8.954,1.438-19.219-9.481-19.219c-13.218-0.315-36.217,15.984-45.662,26.185
			c-9.794-2.003-23.875-5.949-44.501-31.731c19.362-24.203,32.934-29.365,44.501-31.731c3.225,3.483,6.836,6.707,10.771,9.739
			c44.777,34.282,60.626,4.947,36.955-8.513c-12.579-6.861-28.06-9.896-45.662-7.288c-29.956-36.433-8.899-118.015,58.174-102.869
			c7.59,1.66,11.297,3.558,15.092,6.449l0,0l0.516,0.387c-49.906,74.859,39.151,79.048,23.605,24.637
			c-2.504-9.437-9.376-18.857-16.188-25.669c4.674-6.762,8.798-12.513,12.963-18.252c61.965,87.21,10.982,138.271-34.247,109.705
			c-4.663-3.031-9.849-7.609-12.383-12.254c0.773-1.031,1.446-3.121,1.29-4.837c-0.744-10.047-17.178-7.143-4.386,10.255
			c38.971,54.56,137.419-3.828,57.787-114.285c2.826-3.925,10.214-14.864,18.252-28.055l-3.289-5.417
			c-3.749,6.372-9.026,15.162-18.445,28.636c-8.159-11.267-15.976-21.951-22.96-34.698c-57.22-102.737,85.247-97.889,49.79-10.513
			l3.547,5.869c32.26-96.779-83.554-101.687-76.426-24.701c2.451,23.695,14.348,42.183,38.052,75.459
			c-7.501,10.526-10.245,14.291-13.673,19.284c-9.492-8.226-19.848-12.423-31.86-13.737c-56.077-7.01-89.232,66.634-51.338,115.897
			c-25.376,6.189-40.431,21.414-52.692,36.504c13.877,17.258,29.319,30.868,52.692,36.568
			c-14.147,18.391-19.837,46.665-13.221,69.977c13.822,46.075,64.434,59.903,96.42,32.183c3.537,5.074,6.055,8.53,13.673,19.219
			C164.621,1472.617,153.053,1488.271,145.206,1504.672z M145.206,145.206c7.848,16.401,19.416,32.054,29.296,46.115
			c-7.618,10.689-10.136,14.145-13.673,19.219c-31.985-27.72-82.597-13.892-96.42,32.183c-6.616,23.312-0.926,51.586,13.221,69.977
			c-23.373,5.701-38.815,19.311-52.692,36.568c12.261,15.09,27.316,30.315,52.692,36.504
			c-37.895,49.263-4.739,122.907,51.338,115.897c12.013-1.314,22.369-5.511,31.86-13.737c3.428,4.993,6.171,8.758,13.673,19.284
			c-23.703,33.276-35.601,51.763-38.052,75.459c-7.128,76.986,108.686,72.078,76.426-24.701l-3.547,5.869
			c35.457,87.376-107.01,92.224-49.79-10.513c6.985-12.747,14.801-23.431,22.96-34.698c9.42,13.474,14.697,22.263,18.445,28.636
			l3.289-5.418c-8.038-13.191-15.426-24.13-18.252-28.055c79.632-110.457-18.816-168.844-57.787-114.285
			c-12.792,17.398,3.641,20.302,4.386,10.255c0.156-1.716-0.517-3.807-1.29-4.837c2.534-4.645,7.72-9.223,12.383-12.254
			c45.229-28.566,96.212,22.495,34.247,109.705c-4.166-5.739-8.29-11.49-12.963-18.252c6.812-6.812,13.684-16.232,16.188-25.669
			c15.546-54.411-73.511-50.222-23.605,24.637l-0.516,0.387l0,0c-3.795,2.891-7.502,4.789-15.092,6.449
			c-67.073,15.145-88.13-66.436-58.174-102.869c17.603,2.608,33.083-0.427,45.662-7.288c23.671-13.46,7.821-42.795-36.955-8.513
			c-3.934,3.031-7.546,6.256-10.771,9.739c-11.567-2.366-25.139-7.528-44.501-31.731c20.626-25.783,34.708-29.728,44.501-31.731
			c9.445,10.201,32.444,26.5,45.662,26.185c10.919,0,17.688-10.266,9.481-19.219c-8.18-9.089-31.648-16.997-53.079-13.028
			c-27.709-33.7-13.166-111.565,51.983-103.901c12.822,1.554,17.93,5.022,21.283,7.417v0.064l0.516,0.387
			c-46.971,67.101,28.271,80.345,25.088,33.666c-0.6-13.491-8.201-25.227-17.672-34.698c4.663-6.747,8.43-11.97,12.963-18.316
			c56.732,79.844,19.014,132.835-26.378,113.833c-8.049-3.182-16.069-9.347-20.251-16.317c0.58-0.774,0.967-1.935,1.161-2.902
			c2.298-10.343-13.884-10.927-7.739,2.386c8.624,20.383,42.451,32.69,61.721,22.831c29.353-14.849,47.116-62.115,2.501-126.99
			c64.875,44.615,112.141,26.852,126.99-2.501c9.859-19.27-2.448-53.098-22.831-61.721c-13.313-6.145-12.729,10.038-2.386,7.739
			c0.967-0.193,2.128-0.58,2.902-1.161c6.97,4.182,13.135,12.203,16.317,20.251c19.001,45.393-33.989,83.11-113.833,26.378
			c6.347-4.533,11.57-8.3,18.316-12.963c9.471,9.471,21.207,17.072,34.698,17.672c46.679,3.183,33.435-72.059-33.666-25.088
			l-0.387-0.516h-0.064c-2.395-3.353-5.863-8.461-7.417-21.283c-7.665-65.149,70.201-79.692,103.901-51.983
			c-3.969,21.431,3.939,44.899,13.028,53.079c8.954,8.208,19.219,1.438,19.219-9.481c0.315-13.218-15.984-36.217-26.185-45.662
			c2.003-9.794,5.949-23.875,31.731-44.501C373.471,56.555,378.634,70.127,381,81.694c-3.483,3.225-6.707,6.836-9.739,10.771
			c-34.282,44.777-4.947,60.626,8.513,36.955c6.861-12.579,9.896-28.06,7.288-45.662c36.433-29.956,118.014-8.899,102.869,58.174
			c-1.66,7.59-3.558,11.297-6.449,15.092l0,0l-0.387,0.516c-74.859-49.906-79.048,39.151-24.637,23.605
			c9.437-2.504,18.857-9.376,25.669-16.188c6.762,4.674,12.513,8.798,18.252,12.963c-87.21,61.965-138.271,10.982-109.705-34.247
			c3.031-4.663,7.609-9.849,12.254-12.383c1.031,0.773,3.121,1.446,4.837,1.29c10.047-0.744,7.143-17.178-10.255-4.386
			c-54.56,38.971,3.828,137.419,114.285,57.787c3.925,2.826,14.864,10.214,28.055,18.252l5.418-3.289
			c-6.372-3.749-15.162-9.026-28.636-18.445c11.267-8.159,21.951-15.976,34.698-22.96c102.737-57.22,97.889,85.247,10.513,49.79
			l-5.869,3.547c96.779,32.26,101.687-83.554,24.701-76.426c-23.695,2.451-42.183,14.348-75.459,38.052
			c-10.526-7.501-14.291-10.245-19.284-13.673c8.226-9.492,12.423-19.848,13.737-31.86c7.01-56.077-66.634-89.232-115.897-51.338
			c-6.189-25.376-21.414-40.431-36.504-52.692c-17.258,13.877-30.868,29.319-36.568,52.692
			c-18.391-14.147-46.665-19.837-69.977-13.221c-46.075,13.822-59.903,64.434-32.183,96.42c-5.074,3.537-8.53,6.055-19.219,13.673
			C177.26,164.621,161.607,153.053,145.206,145.206z M1333.437,88.466c4.093,38.008-21.735,58.87-21.735,38.826
			C1311.702,116.33,1325.622,96.28,1333.437,88.466z M88.466,316.441c38.008-4.093,58.87,21.735,38.826,21.735
			C116.33,338.175,96.28,324.255,88.466,316.441z M316.441,1561.411c-4.093-38.008,21.735-58.87,21.735-38.826
			C338.175,1533.547,324.255,1553.597,316.441,1561.411z M1561.411,1333.437c-38.008,4.093-58.87-21.735-38.826-21.735
			C1533.547,1311.702,1553.597,1325.622,1561.411,1333.437z M1522.586,338.175c-20.044,0,0.818-25.828,38.826-21.735
			C1553.597,324.255,1533.547,338.175,1522.586,338.175z M338.175,127.292c0,20.044-25.828-0.818-21.735-38.826
			C324.255,96.28,338.175,116.33,338.175,127.292z M127.292,1311.702c20.044,0-0.818,25.828-38.826,21.735
			C96.28,1325.622,116.33,1311.702,127.292,1311.702z M1311.702,1522.586c0-20.044,25.828,0.818,21.735,38.826
			C1325.622,1553.597,1311.702,1533.547,1311.702,1522.586z M1414.313,152.38c6.384,2.766,12.144,6.542,16.446,9.352
			c-31.145,31.145-63.246,9-48.822-9.029C1387.977,144.775,1405.112,148.326,1414.313,152.38z M152.38,235.564
			c2.766-6.384,6.542-12.144,9.352-16.446c31.145,31.145,9,63.246-9.029,48.822C144.775,261.9,148.326,244.765,152.38,235.564z
			 M235.564,1497.497c-6.384-2.766-12.144-6.542-16.446-9.352c31.145-31.145,63.246-9,48.822,9.029
			C261.9,1505.103,244.765,1501.552,235.564,1497.497z M1497.497,1414.313c-2.766,6.384-6.542,12.144-9.352,16.446
			c-31.145-31.145-9-63.246,9.029-48.822C1505.103,1387.977,1501.552,1405.112,1497.497,1414.313z M1497.175,267.941
			c-18.03,14.424-40.174-17.678-9.029-48.822c2.809,4.302,6.585,10.062,9.352,16.446
			C1501.552,244.765,1505.103,261.9,1497.175,267.941z M267.941,152.703c14.424,18.03-17.678,40.174-48.822,9.029
			c4.302-2.809,10.062-6.585,16.446-9.352C244.765,148.326,261.9,144.775,267.941,152.703z M152.703,1381.937
			c18.03-14.424,40.174,17.678,9.029,48.822c-2.809-4.302-6.585-10.062-9.352-16.446
			C148.326,1405.112,144.775,1387.977,152.703,1381.937z M1381.937,1497.175c-14.424-18.03,17.678-40.174,48.822-9.029
			c-4.302,2.809-10.062,6.585-16.446,9.352C1405.112,1501.552,1387.977,1505.103,1381.937,1497.175z M1267.781,88.466
			c7.922,7.922,22.059,28.459,21.735,38.826C1289.516,146.864,1263.61,127.201,1267.781,88.466z M88.466,382.096
			c7.922-7.922,28.459-22.059,38.826-21.735C146.864,360.361,127.201,386.268,88.466,382.096z M382.096,1561.411
			c-7.922-7.922-22.059-28.459-21.735-38.826C360.361,1503.013,386.268,1522.677,382.096,1561.411z M1561.411,1267.781
			c-7.922,7.922-28.459,22.059-38.826,21.735C1503.013,1289.516,1522.677,1263.61,1561.411,1267.781z M1522.586,360.361
			c10.367-0.324,30.904,13.813,38.826,21.735C1522.677,386.268,1503.013,360.361,1522.586,360.361z M360.361,127.292
			c-0.324-10.367,13.813-30.904,21.735-38.826C386.268,127.201,360.361,146.864,360.361,127.292z M127.292,1289.516
			c-10.367,0.324-30.904-13.813-38.826-21.735C127.201,1263.61,146.864,1289.516,127.292,1289.516z M1289.516,1522.586
			c0.324,10.367-13.813,30.904-21.735,38.826C1263.61,1522.677,1289.516,1503.013,1289.516,1522.586z M1200.771,177.082
			c-11.583-0.594-22.129-7.166-30.313-15.35C1230.455,122.55,1236.026,178.889,1200.771,177.082z M177.082,449.106
			c-0.594,11.582-7.166,22.129-15.35,30.313C122.55,419.422,178.889,413.852,177.082,449.106z M449.106,1472.796
			c11.582,0.594,22.129,7.166,30.313,15.35C419.422,1527.327,413.852,1470.988,449.106,1472.796z M1472.796,1200.771
			c0.594-11.583,7.166-22.129,15.35-30.313C1527.327,1230.455,1470.988,1236.026,1472.796,1200.771z M1488.146,479.419
			c-8.183-8.183-14.756-18.73-15.35-30.313C1470.988,413.852,1527.327,419.422,1488.146,479.419z M479.419,161.732
			c-8.183,8.183-18.73,14.756-30.313,15.35C413.852,178.889,419.422,122.55,479.419,161.732z M161.732,1170.459
			c8.183,8.183,14.756,18.73,15.35,30.313C178.889,1236.026,122.55,1230.455,161.732,1170.459z M1170.459,1488.146
			c8.183-8.183,18.73-14.756,30.313-15.35C1236.026,1470.988,1230.455,1527.327,1170.459,1488.146z"/>
	</g>
</g>
</svg>
